<svg xmlns="http://www.w3.org/2000/svg" width="24" height="24" viewBox="0 0 24 24">
    <g fill="none" fill-rule="evenodd">
        <g>
            <g>
                <g>
                    <g>
                        <path d="M0 0H24V24H0z" transform="translate(-26 -961) translate(0 925) translate(0 28) translate(26 8)"/>
                        <path fill="#B2F7E2" d="M8.757 11.557l5.121-4.064c.364-.289.88-.289 1.244 0l5.121 4.064c.478.38.757.957.757 1.567V19c0 1.105-.895 2-2 2H8v-7.876c0-.61.279-1.187.757-1.567z" transform="translate(-26 -961) translate(0 925) translate(0 28) translate(26 8)"/>
                        <path fill="#123456" fill-rule="nonzero" d="M12.614 2.478l7.614 5.921c.487.38.772.962.772 1.58V19c0 1.105-.895 2-2 2H5c-1.105 0-2-.895-2-2V9.978c0-.617.285-1.2.772-1.579l7.614-5.921c.361-.281.867-.281 1.228 0zM19 9.978l-7-5.445-7 5.445V19h14V9.978z" transform="translate(-26 -961) translate(0 925) translate(0 28) translate(26 8)"/>
                    </g>
                </g>
            </g>
        </g>
    </g>
</svg>
