<svg xmlns="http://www.w3.org/2000/svg" width="24" height="24" viewBox="0 0 24 24">
    <g fill="none" fill-rule="evenodd">
        <g>
            <g>
                <g>
                    <path d="M0 0H24V24H0z" transform="translate(-16 -211) translate(16 195) translate(0 16)"/>
                    <path fill="#123456" fill-rule="nonzero" d="M12 .7C18.24.7 23.3 5.76 23.3 12c0 6.24-5.06 11.3-11.3 11.3C5.76 23.3.7 18.24.7 12 .7 5.76 5.76.7 12 .7zm0 1.828c-5.231 0-9.472 4.24-9.472 9.472 0 5.231 4.24 9.472 9.472 9.472 5.231 0 9.472-4.24 9.472-9.472 0-5.231-4.24-9.472-9.472-9.472zm.206 13.066c.76 0 1.348.59 1.348 1.353 0 .762-.587 1.353-1.348 1.353-.748 0-1.34-.595-1.34-1.353s.592-1.353 1.34-1.353zm.286-9.894c2.23 0 3.808 1.374 3.808 3.353 0 1.315-.616 2.296-1.811 3.032-.922.559-1.154.885-1.19 1.603-.053.701-.43 1.143-1.093 1.143-.61 0-1.016-.394-1.112-.99l-.016-.131-.005-.134v-.188c0-1.064.462-1.83 1.47-2.505l.196-.126c.881-.547 1.16-.949 1.16-1.63 0-.792-.583-1.325-1.478-1.325-.819 0-1.342.394-1.563 1.17-.191.609-.538.895-1.088.895-.657 0-1.07-.434-1.07-1.1 0-.382.075-.709.239-1.073.539-1.255 1.866-1.994 3.553-1.994z" transform="translate(-16 -211) translate(16 195) translate(0 16)"/>
                </g>
            </g>
        </g>
    </g>
</svg>
