<svg xmlns="http://www.w3.org/2000/svg" width="24" height="24" viewBox="0 0 24 24">
    <g fill="none" fill-rule="evenodd">
        <g>
            <g>
                <g>
                    <g>
                        <path d="M0 0L24 0 24 4 24 24 0 24z" transform="translate(-310 -961) translate(0 925) translate(284 28) translate(26 8)"/>
                        <path fill="#889AAC" fill-rule="nonzero" d="M13 1c.394 0 .75.23.912.59l.825 1.835.204.067c.341.118.674.256.998.414l.187.095 1.883-.714c.327-.124.692-.068.964.142l.098.086 1.414 1.414c.279.278.368.694.228 1.062l-.715 1.883.097.188c.157.323.296.656.413.997l.065.202 1.837.827c.32.144.537.442.582.782L23 11v2c0 .394-.23.75-.59.912l-1.836.825-.066.204c-.118.341-.256.674-.414.998l-.096.187.715 1.883c.124.327.068.692-.142.964l-.086.098-1.414 1.414c-.278.279-.694.368-1.062.228l-1.883-.715-.187.096c-.324.158-.657.296-.998.414l-.204.066-.825 1.836c-.144.32-.442.537-.782.582L13 23h-2c-.394 0-.75-.23-.912-.59l-.827-1.837-.202-.065c-.34-.117-.674-.256-.997-.413l-.188-.097-1.883.715c-.327.124-.692.068-.964-.142l-.098-.086-1.414-1.414c-.279-.278-.368-.694-.228-1.062L4 16.126l-.095-.187c-.158-.324-.296-.657-.414-.998l-.067-.204-1.835-.825c-.32-.144-.537-.442-.582-.782L1 13v-2c0-.394.23-.75.59-.912l1.836-.827.066-.202c.117-.34.256-.674.413-.997l.096-.188-.714-1.883c-.124-.327-.068-.692.142-.964l.086-.098 1.414-1.414c.278-.279.694-.368 1.062-.228L7.874 4l.188-.096c.323-.157.656-.296.997-.413l.202-.066.827-1.836c.144-.32.442-.537.782-.582L11 1zm-.646 2h-.709l-.683 1.518-.011.046c-.093.282-.308.513-.592.621l-.11.035c-.635.164-1.241.416-1.804.749-.286.169-.629.181-.919.05L7.45 5.98l-1.565-.594-.499.499.594 1.565.04.076c.114.254.118.548.005.81l-.056.109c-.333.563-.585 1.17-.749 1.805-.086.337-.339.596-.656.7l-.046.012L3 11.645v.709l1.519.683.097.032c.256.1.464.304.567.566l.038.116c.163.635.415 1.242.748 1.804.169.286.181.629.05.919l-.039.075-.594 1.565.499.499 1.565-.594.076-.039c.254-.114.548-.118.81-.005l.109.056c.563.333 1.17.585 1.805.749.337.086.596.339.7.656l.012.045.684 1.519h.707l.684-1.52.032-.096c.1-.256.304-.464.566-.567l.116-.038c.635-.163 1.242-.415 1.804-.748.286-.169.629-.181.919-.05l.075.038 1.565.594.499-.499-.594-1.565-.039-.075c-.114-.254-.118-.548-.005-.81l.056-.109c.333-.562.585-1.169.748-1.804.082-.318.312-.568.605-.682l.096-.032 1.52-.684v-.707l-1.519-.684-.045-.011c-.282-.093-.513-.308-.621-.592l-.035-.11c-.164-.635-.416-1.241-.749-1.804-.169-.286-.181-.629-.05-.919l.038-.076.594-1.565-.499-.499-1.565.594-.075.04c-.254.114-.548.118-.81.005l-.109-.056c-.562-.333-1.169-.585-1.804-.748-.318-.082-.568-.312-.682-.605l-.032-.097L12.354 3zM12 8c2.21 0 4 1.79 4 4s-1.79 4-4 4-4-1.79-4-4 1.79-4 4-4zm0 2c-1.105 0-2 .895-2 2s.895 2 2 2 2-.895 2-2-.895-2-2-2z" transform="translate(-310 -961) translate(0 925) translate(284 28) translate(26 8)"/>
                    </g>
                </g>
            </g>
        </g>
    </g>
</svg>
