<?xml version="1.0" encoding="UTF-8"?>
<svg width="24px" height="24px" viewBox="0 0 24 24" version="1.1" xmlns="http://www.w3.org/2000/svg" xmlns:xlink="http://www.w3.org/1999/xlink">
    <title>79D9F72D-3E27-4D5E-8101-E793C3F12206</title>
    <g id="8.2-Bills-All" stroke="none" stroke-width="1" fill="none" fill-rule="evenodd">
        <g id="8.5-BPJS-Payment---Select-Payment" transform="translate(-190.000000, -306.000000)">
            <g id="Pay-With" transform="translate(16.000000, 272.000000)">
                <g id="Card" transform="translate(0.000000, 24.000000)">
                    <g id="Check" transform="translate(172.000000, 8.000000)">
                        <g id="Assets-/-Icon-/-C-/-Check-/-Solid" transform="translate(2.000000, 2.000000)">
                            <rect id="Bound" x="0" y="0" width="24" height="24"></rect>
                            <path d="M12,1.25 C17.9370611,1.25 22.75,6.06293894 22.75,12 C22.75,17.9370611 17.9370611,22.75 12,22.75 C6.06293894,22.75 1.25,17.9370611 1.25,12 C1.25,6.06293894 6.06293894,1.25 12,1.25 Z" id="Path" fill="#B2F7E2"></path>
                            <path d="M9.43431458,8.23963991 C9.72270174,7.94469848 10.1764866,7.92201068 10.4903196,8.1715765 L10.5656854,8.23963991 L17.7656854,15.6032763 C18.0781049,15.9227961 18.0781049,16.4408402 17.7656854,16.7603601 C17.4772983,17.0553015 17.0235134,17.0779893 16.7096804,16.8284235 L16.6343146,16.7603601 L10,9.97590909 L7.36568542,12.669451 C7.07729826,12.9643924 6.62351341,12.9870802 6.30968045,12.7375144 L6.23431458,12.669451 C5.94592741,12.3745096 5.92374378,11.9104114 6.16776369,11.5894459 L6.23431458,11.5123672 L9.43431458,8.23963991 Z" id="Path-10" fill="#123456" fill-rule="nonzero" transform="translate(12.000000, 12.500000) scale(1, -1) translate(-12.000000, -12.500000) "></path>
                        </g>
                    </g>
                </g>
            </g>
        </g>
    </g>
</svg>