<?xml version="1.0" encoding="UTF-8"?>
<svg width="12px" height="12px" viewBox="0 0 12 12" version="1.1" xmlns="http://www.w3.org/2000/svg" xmlns:xlink="http://www.w3.org/1999/xlink">
    <title>5A0FD068-47E7-41A2-8937-A31B0FDEA0E3</title>
    <g id="17.-My-Account-Explorations" stroke="none" stroke-width="1" fill="none" fill-rule="evenodd">
        <g id="0.1-My-Accounts" transform="translate(-237.000000, -122.000000)">
            <g id="Group-3" transform="translate(16.000000, 96.000000)">
                <g id="Group-4" transform="translate(213.000000, 24.000000)">
                    <g id="Assets-/-Icon-/-C-/-Check-/-Outline" transform="translate(8.000000, 2.000000)">
                        <rect id="Bound" x="0" y="0" width="12" height="12"></rect>
                        <path d="M4.28954305,3.15975994 C4.48180116,2.96313232 4.78432439,2.94800712 4.99354637,3.11438433 L5.04379028,3.15975994 L9.84379028,8.06885085 C10.0520699,8.2818641 10.0520699,8.62722681 9.84379028,8.84024006 C9.65153217,9.03686768 9.34900894,9.05199288 9.13978696,8.88561567 L9.08954305,8.84024006 L4.66666667,4.31727273 L2.91045695,6.11296734 C2.71819884,6.30959495 2.41567561,6.32472015 2.20645363,6.15834294 L2.15620972,6.11296734 C1.9639516,5.91633972 1.94916252,5.60694096 2.11184246,5.39296394 L2.15620972,5.34157812 L4.28954305,3.15975994 Z" id="Path-10" fill="#123456" fill-rule="nonzero" transform="translate(6.000000, 6.000000) scale(1, -1) translate(-6.000000, -6.000000) "></path>
                    </g>
                </g>
            </g>
        </g>
    </g>
</svg>