<svg xmlns="http://www.w3.org/2000/svg" width="24" height="24" viewBox="0 0 24 24">
    <g fill="none" fill-rule="evenodd">
        <g>
            <path d="M0 0H24V24H0z"/>
            <path fill="#123456" fill-rule="nonzero" d="M12 1c3.314 0 6 2.686 6 6 0 1.896-.88 3.587-2.252 4.686 2.906 1.103 5.205 3.458 6.123 6.463.59 1.93-.91 3.851-2.947 3.851H5.075c-2.037 0-3.536-1.922-2.946-3.851.918-3.005 3.217-5.361 6.123-6.464C6.879 10.586 6 8.895 6 7c0-3.314 2.686-6 6-6zm-.001 12c-3.707 0-6.928 2.365-7.958 5.733-.19.62.316 1.267 1.034 1.267h13.849c.719 0 1.224-.647 1.035-1.267-1.03-3.368-4.252-5.733-7.96-5.733zM12 3C9.79 3 8 4.79 8 7s1.79 4 4 4 4-1.79 4-4-1.79-4-4-4z"/>
        </g>
    </g>
</svg>
