<svg xmlns="http://www.w3.org/2000/svg" width="32" height="32" viewBox="0 0 32 32">
    <g fill="none" fill-rule="evenodd">
        <g>
            <g>
                <g>
                    <g>
                        <path d="M0 0L32 0 32 5.333 32 32 0 32z" transform="translate(-35 -164) translate(12 152) translate(11) translate(12 12)"/>
                        <path fill="#FFF" d="M22.667 9.333c2.83 0 5.182 2.076 5.326 4.74l.007.26v7.334c0 2.701-2.264 4.86-5.061 4.993l-.272.007H9.333c-2.83 0-5.182-2.076-5.326-4.74L4 21.666v-7.334c0-2.788 2.412-5 5.333-5 .737 0 1.334.597 1.334 1.334 0 .736-.597 1.333-1.334 1.333-1.426 0-2.554.972-2.658 2.155l-.008.178v7.334c0 1.201 1.06 2.23 2.455 2.326l.211.007h13.334c1.426 0 2.554-.972 2.658-2.155l.008-.178v-7.334c0-1.261-1.169-2.333-2.666-2.333-.737 0-1.334-.597-1.334-1.333 0-.737.597-1.334 1.334-1.334zM16 2.667c.048 0 .095.002.141.007l.014.002c.043.005.085.012.127.02l.042.01.104.031.028.01c.038.014.075.029.11.045l.02.01.014.007.03.016.11.066 4 2.666c.612.409.778 1.237.37 1.85-.38.568-1.12.752-1.715.448l-.135-.079-1.927-1.285v12.176c0 .736-.597 1.333-1.333 1.333-.684 0-1.247-.515-1.324-1.178l-.01-.155V6.49L12.74 7.776c-.57.38-1.324.264-1.756-.245l-.093-.125c-.38-.569-.264-1.323.245-1.755l.124-.094 4-2.666.01-.008c.08-.05.163-.094.252-.128l.052-.019c.03-.01.062-.02.093-.027l.042-.01c.028-.007.056-.012.084-.016l.067-.009c.03-.003.06-.005.092-.006l.038-.001H16z" transform="translate(-35 -164) translate(12 152) translate(11) translate(12 12)"/>
                    </g>
                </g>
            </g>
        </g>
    </g>
</svg>
