<svg xmlns="http://www.w3.org/2000/svg" width="24" height="25" viewBox="0 0 24 25">
    <g fill="none" fill-rule="evenodd">
        <g fill="#123456" fill-rule="nonzero">
            <g>
                <g>
                    <g>
                        <path d="M16.003 7.01v9.408c0 2.095-1.788 3.582-3.997 3.582H1.015c-.552 0-1-.448-1-1V1.016c0-.552.448-1 1-1h7.994c.17 0 .33.043.47.118l.002.002c.078.04.151.093.217.156l.017.017 5.995 5.996.017.017c.064.067.116.14.158.217.076.142.118.302.118.472zM8.01 1.57H1.496v16.943h10.51c1.362 0 2.573-1.112 2.573-2.095V8.009H9.01c-.552 0-1-.447-1-.999V1.57zM5.012 12.005h5.995c.552 0 1-.234 1-.786s-.448-.786-1-.786H5.012c-.552 0-.977.234-.977.786s.425.786.977.786zm5.087 1.428c.415 0 .922.234.922.786s-.507.786-.922.786H5.914c-.415 0-.893-.234-.893-.786s.478-.786.893-.786zM9.48 2.065l4.694 4.476H9.478V2.065z" transform="translate(-16 -268) translate(16 252) translate(0 16) translate(4 2)"/>
                    </g>
                </g>
            </g>
        </g>
    </g>
</svg>
