<?xml version="1.0" encoding="UTF-8"?>
<svg width="24px" height="24px" viewBox="0 0 24 24" version="1.1" xmlns="http://www.w3.org/2000/svg" xmlns:xlink="http://www.w3.org/1999/xlink">
    <title>99B9ADA6-2E39-4A65-9CA8-2FBAD64CDF85</title>
    <defs>
        <filter id="filter-1">
            <feColorMatrix in="SourceGraphic" type="matrix" values="0 0 0 0 0.976471 0 0 0 0 0.313725 0 0 0 0 0.454902 0 0 0 1.000000 0"></feColorMatrix>
        </filter>
    </defs>
    <g id="12.-Purchase" stroke="none" stroke-width="1" fill="none" fill-rule="evenodd">
        <g id="2.2-Chat---List-Edit" transform="translate(-320.000000, -450.000000)">
            <g id="Order" transform="translate(0.000000, 386.000000)">
                <g id="Assets-/-Icon-/-T-/-Trash" transform="translate(16.000000, 56.000000)" filter="url(#filter-1)">
                    <g transform="translate(304.000000, 8.000000)">
                        <path d="M16.4117647,6.54545455 L7.58823529,6.54545455 C6.55139791,6.54545455 5.69282361,7.37663341 5.60955828,8.42385297 L5.60294118,8.59090909 L5.60294118,19.9545455 C5.60294118,21.0228022 6.4096736,21.9073939 7.42609258,21.9931824 L7.58823529,22 L16.4117647,22 C17.4486021,22 18.3071764,21.1688211 18.3904417,20.1216016 L18.3970588,19.9545455 L18.3970588,8.59090909 C18.3970588,7.52265239 17.5903264,6.63806069 16.5739074,6.55227217 L16.4117647,6.54545455 Z M15.3088235,8.36363636 C15.9917409,8.36363636 16.5574465,8.90250882 16.625492,9.58827669 L16.6323529,9.72727273 L16.6323529,18.8181818 C16.6323529,19.5217936 16.1093297,20.1046418 15.4437314,20.1747494 L15.3088235,20.1818182 L8.69117647,20.1818182 C8.00825913,20.1818182 7.44255353,19.6429457 7.37450798,18.9571779 L7.36764706,18.8181818 L7.36764706,9.72727273 C7.36764706,9.02366092 7.89067032,8.44081273 8.55626855,8.37070519 L8.69117647,8.36363636 L15.3088235,8.36363636 Z M14.3051471,2 L9.69485294,2 C9.51414226,2 9.3299441,2.0635594 9.18216027,2.1727808 L9.07877355,2.26297881 L8.29568532,3.069797 L8.13970588,3.13636364 L5.38235294,3.13636364 C4.89756281,3.13636364 4.5,3.54597381 4.5,4.04545455 C4.5,4.50651369 4.83875175,4.89099673 5.27216796,4.9474198 L5.38235294,4.95454545 L18.6176471,4.95454545 C19.1024372,4.95454545 19.5,4.54493528 19.5,4.04545455 C19.5,3.5843954 19.1612483,3.19991236 18.727832,3.14348929 L18.6176471,3.13636364 L15.8602941,3.13636364 L15.7043147,3.069797 L14.9212264,2.26297881 C14.7941436,2.13204502 14.6206711,2.04229885 14.4407105,2.01163774 L14.3051471,2 Z" id="shape" fill="#889AAC" fill-rule="nonzero"></path>
                    </g>
                </g>
            </g>
        </g>
    </g>
</svg>