<?xml version="1.0" encoding="UTF-8"?>
<svg width="24px" height="24px" viewBox="0 0 24 24" version="1.1" xmlns="http://www.w3.org/2000/svg" xmlns:xlink="http://www.w3.org/1999/xlink">
    <title>4B83EA18-73DE-41B8-967A-1A4CCA54A849</title>
    <g id="Icons" stroke="none" stroke-width="1" fill="none" fill-rule="evenodd">
        <g id="Assets-/-Icon-/-A-/-Accounts-/-Inactive">
            <rect id="Bound" x="0" y="0" width="24" height="24"></rect>
            <path d="M22,7.6 L22,16.4 L15.4,16.4 C12.9699471,16.4 11,14.4300529 11,12 C11,9.5699471 12.9699471,7.6 15.4,7.6 L22,7.6 Z M20,14.399 L20,9.6 L15.4,9.6 C14.1297451,9.6 13.0899788,10.586839 13.0055369,11.8356813 L13,12 C13,13.2702549 13.986839,14.3100212 15.2356813,14.3944631 L15.4,14.4 L20,14.399 Z M19,3 C20.6568542,3 22,4.34314575 22,6 L22,18 C22,19.6568542 20.6568542,21 19,21 L5,21 C3.34314575,21 2,19.6568542 2,18 L2,6 C2,4.34314575 3.34314575,3 5,3 L19,3 Z M19,5 L5,5 C4.48716416,5 4.06449284,5.38604019 4.00672773,5.88337887 L4,6 L4,18 C4,18.5128358 4.38604019,18.9355072 4.88337887,18.9932723 L5,19 L19,19 C19.5128358,19 19.9355072,18.6139598 19.9932723,18.1166211 L20,18 L20,6 C20,5.48716416 19.6139598,5.06449284 19.1166211,5.00672773 L19,5 Z M16,13 C16.5522847,13 17,12.5522847 17,12 C17,11.4477153 16.5522847,11 16,11 C15.4477153,11 15,11.4477153 15,12 C15,12.5522847 15.4477153,13 16,13 Z" id="Combined-Shape" fill="#889AAC" fill-rule="nonzero"></path>
        </g>
    </g>
</svg>