<svg xmlns="http://www.w3.org/2000/svg" width="24" height="24" viewBox="0 0 24 24">
    <g fill="none" fill-rule="evenodd">
        <g>
            <g>
                <g>
                    <path d="M0 0L24 0 24 4 24 24 0 24z" transform="translate(-32 -604) translate(16 588) translate(16 16)"/>
                    <path fill="#123456" fill-rule="nonzero" d="M19.07 1.9c.197 0 .382.084.511.228l.06.077 2.343 3.514.048.086c.029.06.049.124.06.19l.008.107v15.312c0 .344-.254.63-.585.679l-.1.007H2.584c-.343 0-.629-.254-.678-.585l-.007-.1V6.101c0-.103.023-.205.067-.297l.05-.087L4.36 2.205c.109-.163.282-.27.474-.298L4.93 1.9h14.14zM8.97 6.787H3.271v13.941h17.457V6.787h-5.699v4.041c0 .204-.09.395-.243.524l-.082.06c-.173.107-.383.13-.574.068l-.093-.038-1.992-1.041-2.082 1.04c-.213.107-.465.096-.667-.03-.174-.107-.289-.284-.318-.482l-.008-.1V6.786zm4.687 0h-3.315v2.931l1.351-.675c.161-.08.346-.094.515-.04l.099.04 1.35.675V6.787zm5.045-3.516h-3.673v2.144h5.103l-1.43-2.144zm-5.045 0h-3.315v2.144h3.315V3.271zm-8.33-.044l-1.46 2.188H8.97V3.27l-3.644-.043z" transform="translate(-32 -604) translate(16 588) translate(16 16)"/>
                </g>
            </g>
        </g>
    </g>
</svg>
