<?xml version="1.0" encoding="UTF-8"?>
<svg width="24px" height="24px" viewBox="0 0 24 24" version="1.1" xmlns="http://www.w3.org/2000/svg" xmlns:xlink="http://www.w3.org/1999/xlink">
    <title>4DDDC415-F15C-4FE0-801E-573278CF89EF</title>
    <g id="Icons" stroke="none" stroke-width="1" fill="none" fill-rule="evenodd">
        <g id="Assets-/-Icon-/-A-/-Arrow-/-Right">
            <rect id="Bound" x="0" y="0" width="24" height="24"></rect>
            <path d="M11.3492086,8.2407434 C11.6924909,7.94650147 12.185438,7.92198131 12.5536644,8.16718292 L12.6507914,8.2407434 L19.6507914,14.2407434 C20.0701172,14.6001655 20.1186788,15.2314655 19.7592566,15.6507914 C19.4274823,16.0378614 18.8640488,16.1090139 18.4495188,15.8349748 L18.3492086,15.7592566 L12,10.317 L5.65079137,15.7592566 C5.26372136,16.0910309 4.69603434,16.0751741 4.32829297,15.7409603 L4.2407434,15.6507914 C3.9089691,15.2637214 3.92482588,14.6960343 4.25903968,14.328293 L4.34920863,14.2407434 L11.3492086,8.2407434 Z" id="Path-10" fill="#123456" fill-rule="nonzero" transform="translate(12.000000, 12.000009) scale(1, -1) rotate(90.000000) translate(-12.000000, -12.000009) "></path>
        </g>
    </g>
</svg>