<svg xmlns="http://www.w3.org/2000/svg" width="34" height="34" viewBox="0 0 34 34">
    <g fill="none" fill-rule="evenodd">
        <g>
            <g>
                <g>
                    <g>
                        <g>
                            <g>
                                <path fill="#000" fill-rule="nonzero" d="M3.36 25.2c.215 0 .393.162.417.371l.003.049v4.62c0 .671.524 1.22 1.186 1.258l.074.002h4.62c.232 0 .42.188.42.42 0 .215-.162.393-.371.417l-.049.003H5.04c-1.13 0-2.05-.891-2.098-2.009l-.002-.091v-4.62c0-.232.188-.42.42-.42zM30.24 25.2c.215 0 .393.162.417.371l.003.049v4.62c0 1.13-.891 2.05-2.009 2.098l-.091.002h-4.62c-.232 0-.42-.188-.42-.42 0-.215.162-.393.371-.417l.049-.003h4.62c.671 0 1.22-.524 1.258-1.186l.002-.074v-4.62c0-.232.188-.42.42-.42zM9.66 1.26c.232 0 .42.188.42.42 0 .215-.162.393-.371.417L9.66 2.1H5.04c-.671 0-1.22.524-1.258 1.186l-.002.074v4.62c0 .232-.188.42-.42.42-.215 0-.393-.162-.417-.371L2.94 7.98V3.36c0-1.13.891-2.05 2.009-2.098l.091-.002h4.62zM28.56 1.26c1.13 0 2.05.891 2.098 2.009l.002.091v4.62c0 .232-.188.42-.42.42-.215 0-.393-.162-.417-.371l-.003-.049V3.36c0-.671-.524-1.22-1.186-1.258L28.56 2.1h-4.62c-.232 0-.42-.188-.42-.42 0-.215.162-.393.371-.417l.049-.003h4.62z" transform="translate(-59 -151) translate(0 88) translate(16 16) translate(8 12) translate(24 24) translate(11.2 11.2)"/>
                                <g>
                                    <path d="M0 0L20.16 0 20.16 3.36 20.16 20.16 0 20.16z" transform="translate(-59 -151) translate(0 88) translate(16 16) translate(8 12) translate(24 24) translate(11.2 11.2) translate(6.72 6.72)"/>
                                    <path fill="#123456" fill-rule="nonzero" d="M18.48 5.12c-.002-.098-.032-.192-.083-.268v-.001l-.002-.002L16.43 1.9c-.092-.137-.245-.219-.41-.219H4.141c-.165 0-.318.082-.41.22L1.764 4.85c-.054.08-.084.178-.084.275v12.863c0 .272.22.492.492.492h15.816c.272 0 .492-.22.492-.492V5.125 5.12zm-5.94-2.456h3.216l1.312 1.97h-4.527v-1.97zm-3.937 0h2.954v1.97H8.603v-1.97zm0 2.953h2.954V8.3L10.3 7.671c-.138-.07-.302-.07-.44 0l-1.257.628V5.618zM4.404 2.664H7.62v1.97H3.092l1.312-1.97zm13.092 14.832H2.664V5.618H7.62v3.478c0 .17.088.329.233.418.146.09.327.098.48.022l1.748-.874 1.749.874c.153.076.334.068.479-.022.145-.09.233-.248.233-.418V5.617h4.955v11.879z" transform="translate(-59 -151) translate(0 88) translate(16 16) translate(8 12) translate(24 24) translate(11.2 11.2) translate(6.72 6.72)"/>
                                </g>
                            </g>
                        </g>
                    </g>
                </g>
            </g>
        </g>
    </g>
</svg>
