<svg xmlns="http://www.w3.org/2000/svg" width="24" height="24" viewBox="0 0 24 24">
    <g fill="none" fill-rule="evenodd">
        <g>
            <g>
                <g>
                    <g>
                        <path d="M0 0H24V24H0z" transform="translate(-234 -961) translate(0 925) translate(208 28) translate(26 8)"/>
                        <g>
                            <path d="M0 0L24 0 24 24 0 24z" transform="translate(-234 -961) translate(0 925) translate(208 28) translate(26 8)"/>
                            <path fill="#889AAC" fill-rule="nonzero" d="M18.5 7.5h-3c-.552 0-1-.448-1-1v-1c0-.552.448-1 1-1h3c.552 0 1 .448 1 1v1c0 .552-.448 1-1 1zm-10 4h-3c-.552 0-1-.448-1-1v-5c0-.552.448-1 1-1h3c.552 0 1 .448 1 1v5c0 .552-.448 1-1 1zm10 8h-3c-.552 0-1-.448-1-1v-5c0-.552.448-1 1-1h3c.552 0 1 .448 1 1v5c0 .552-.448 1-1 1zm-10 0h-3c-.552 0-1-.448-1-1v-1c0-.552.448-1 1-1h3c.552 0 1 .448 1 1v1c0 .552-.448 1-1 1zM19 3h-4c-1.105 0-2 .895-2 2v2c0 1.105.895 2 2 2h4c1.105 0 2-.895 2-2V5c0-1.105-.895-2-2-2zM9 3H5c-1.105 0-2 .895-2 2v6c0 1.105.895 2 2 2h4c1.105 0 2-.895 2-2V5c0-1.105-.895-2-2-2zm10 8h-4c-1.105 0-2 .895-2 2v6c0 1.105.895 2 2 2h4c1.105 0 2-.895 2-2v-6c0-1.105-.895-2-2-2zM9 15H5c-1.105 0-2 .895-2 2v2c0 1.105.895 2 2 2h4c1.105 0 2-.895 2-2v-2c0-1.105-.895-2-2-2z" transform="translate(-234 -961) translate(0 925) translate(208 28) translate(26 8)"/>
                        </g>
                    </g>
                </g>
            </g>
        </g>
    </g>
</svg>
