<?xml version="1.0" encoding="UTF-8"?>
<svg width="24px" height="24px" viewBox="0 0 24 24" version="1.1" xmlns="http://www.w3.org/2000/svg" xmlns:xlink="http://www.w3.org/1999/xlink">
    <title>5004E486-7C87-4FD0-8E58-81BAE2E9DDB4</title>
    <g id="14.-Settings" stroke="none" stroke-width="1" fill="none" fill-rule="evenodd">
        <g id="14.1-Settings" transform="translate(-16.000000, -40.000000)">
            <g id="Components-/-Header-/-Standard" transform="translate(0.000000, 24.000000)">
                <g id="Assets-/-Icon-/-B-/-Back-Arrow" transform="translate(16.000000, 16.000000)">
                    <rect id="Bound" x="0" y="0" width="24" height="24"></rect>
                    <path d="M7.16896473,6.25670585 C7.54789706,6.59774495 7.60540127,7.16273456 7.32141634,7.57051531 L7.24329415,7.66896473 L4.244,10.9999914 L21.5,10.9999914 C22.0522847,10.9999914 22.5,11.4477153 22.5,11.9999914 C22.5,12.5128358 22.1139598,12.9355072 21.6166211,12.9932723 L21.5,12.9999914 L4.244,12.9999914 L7.24329415,16.3310353 C7.61275317,16.7415453 7.57947475,17.3738351 7.16896473,17.7432941 C6.75845471,18.1127532 6.12616487,18.0794748 5.75670585,17.6689647 L1.25670585,12.6689647 C0.914431382,12.2886598 0.914431382,11.7113402 1.25670585,11.3310353 L5.75670585,6.33103527 C6.12616487,5.92052525 6.75845471,5.88724683 7.16896473,6.25670585 Z" id="Path" fill="#123456" fill-rule="nonzero"></path>
                </g>
            </g>
        </g>
    </g>
</svg>