<svg xmlns="http://www.w3.org/2000/svg" width="24" height="24" viewBox="0 0 24 24">
    <g fill="none" fill-rule="evenodd">
        <g>
            <g>
                <g transform="translate(-316 -40) translate(0 24) translate(316 16)">
                    <path d="M0 0H24V24H0z"/>
                    <path stroke="#123456" stroke-width="2" d="M12 3c1.657 0 3.157.672 4.243 1.757C17.328 5.843 18 7.343 18 9h0v6.315l1.478 2.112c.158.226.21.495.165.747-.044.252-.185.487-.41.645-.169.118-.37.181-.574.181h0H5.532c-.276 0-.526-.112-.707-.293-.18-.18-.293-.43-.293-.707 0-.181.05-.36.143-.514h0L6 15.277V9c0-1.657.672-3.157 1.757-4.243C8.843 3.672 10.343 3 12 3z"/>
                    <rect width="6" height="2" x="9" y="21" fill="#123456" rx="1"/>
                    <path fill="#123456" d="M12 1c.552 0 1 .448 1 1v1h-2V2c0-.552.448-1 1-1z"/>
                </g>
            </g>
        </g>
    </g>
</svg>
