<?xml version="1.0" encoding="UTF-8"?>
<svg width="20px" height="20px" viewBox="0 0 20 20" version="1.1" xmlns="http://www.w3.org/2000/svg" xmlns:xlink="http://www.w3.org/1999/xlink">
    <title>0AA1EC1A-5012-4F3A-A809-4AFAE8A60DDC</title>
    <g id="17.-My-Account-Explorations" stroke="none" stroke-width="1" fill="none" fill-rule="evenodd">
        <g id="0.1-My-Accounts" transform="translate(-258.000000, -42.000000)">
            <g id="Assets-/-Icon-/-P-/-Plus" transform="translate(258.000000, 42.000000)">
                <rect id="Bound" x="0" y="0" width="20" height="20"></rect>
                <path d="M10,3.33333333 C10.4602373,3.33333333 10.8333333,3.70642938 10.8333333,4.16666667 L10.8323333,9.16633333 L15.8333333,9.16666667 C16.2935706,9.16666667 16.6666667,9.53976271 16.6666667,10 C16.6666667,10.4602373 16.2935706,10.8333333 15.8333333,10.8333333 L10.8323333,10.8323333 L10.8333333,15.8333333 C10.8333333,16.2935706 10.4602373,16.6666667 10,16.6666667 C9.53976271,16.6666667 9.16666667,16.2935706 9.16666667,15.8333333 L9.16633333,10.8323333 L4.16666667,10.8333333 C3.70642938,10.8333333 3.33333333,10.4602373 3.33333333,10 C3.33333333,9.53976271 3.70642938,9.16666667 4.16666667,9.16666667 L9.16633333,9.16633333 L9.16666667,4.16666667 C9.16666667,3.70642938 9.53976271,3.33333333 10,3.33333333 Z" id="Combined-Shape" fill="#123456" fill-rule="nonzero"></path>
            </g>
        </g>
    </g>
</svg>