<svg xmlns="http://www.w3.org/2000/svg" width="24" height="24" viewBox="0 0 24 24">
    <g fill="none" fill-rule="evenodd">
        <g>
            <g>
                <g>
                    <g>
                        <path d="M0 0H24V24H0z" transform="translate(-102 -961) translate(0 925) translate(76 28) translate(26 8)"/>
                        <path fill="#889AAC" fill-rule="nonzero" d="M19 3.1H5C3.398 3.1 2.1 4.398 2.1 6v13.92c0 .43.147.85.416 1.186l.108.124c.673.707 1.787.794 2.563.173L8.315 18.9H19c1.602 0 2.9-1.298 2.9-2.9V6c0-1.602-1.298-2.9-2.9-2.9zM5 4.9h14c.608 0 1.1.492 1.1 1.1v10c0 .608-.492 1.1-1.1 1.1H7.684l-3.622 2.897c-.043.035-.106.028-.14-.015-.014-.018-.022-.04-.022-.063V6c0-.608.492-1.1 1.1-1.1z" transform="translate(-102 -961) translate(0 925) translate(76 28) translate(26 8)"/>
                    </g>
                </g>
            </g>
        </g>
    </g>
</svg>
