<?xml version="1.0" encoding="UTF-8"?>
<svg width="24px" height="24px" viewBox="0 0 24 24" version="1.1" xmlns="http://www.w3.org/2000/svg" xmlns:xlink="http://www.w3.org/1999/xlink">
    <title>57B25479-5F79-4E35-8AA4-41849FBD5026</title>
    <g id="12.-Purchase" stroke="none" stroke-width="1" fill="none" fill-rule="evenodd">
        <g id="2.2-Chat---Make-an-Order" transform="translate(-28.000000, -242.000000)">
            <g id="Delivery" transform="translate(0.000000, 88.000000)">
                <g id="Shipping" transform="translate(16.000000, 115.000000)">
                    <g transform="translate(0.000000, 21.000000)" id="Assets-/-Icon-/-L-/-Location-/-Outline">
                        <g transform="translate(12.000000, 18.000000)">
                            <rect id="Bound" x="0" y="0" width="24" height="24"></rect>
                            <path d="M12,2.25 C16.2802068,2.25 19.75,5.71979319 19.75,10 C19.75,14.9839113 14.8343697,22.75 12,22.75 C9.16563035,22.75 4.25,14.9839113 4.25,10 C4.25,5.71979319 7.71979319,2.25 12,2.25 Z M12,3.75 C8.54822031,3.75 5.75,6.54822031 5.75,10 C5.75,12.4055903 6.76704637,15.1802578 8.55500843,17.7740911 C8.68422085,17.9615422 8.81744994,18.1470534 8.95323963,18.3288808 L9.15866259,18.5986412 L9.46689925,18.9847227 L9.77674953,19.3516876 L10.0035811,19.6075362 L10.2274549,19.8495325 L10.5220149,20.1516731 C10.6167987,20.2458643 10.7100291,20.3355039 10.8000031,20.4190937 L10.9323089,20.5397536 L11.1862474,20.7578975 L11.424638,20.9434997 C11.6998587,21.1453213 11.9118884,21.25 12,21.25 C12.0755242,21.25 12.2420903,21.1730932 12.4578806,21.0267262 L12.5696841,20.9477889 L12.8045237,20.7654376 L13.0638446,20.5431212 C13.1527007,20.4637108 13.2439552,20.3789982 13.336223,20.2903133 L13.4752114,20.1544732 L13.7699466,19.8522379 L13.995813,19.6082025 L14.2210023,19.3543129 L14.5287654,18.9900013 L14.8392284,18.601319 C15.0483168,18.3320795 15.2511729,18.0552678 15.4449916,17.7740911 C17.2329536,15.1802578 18.25,12.4055903 18.25,10 C18.25,6.54822031 15.4517797,3.75 12,3.75 Z M12,6.25 C14.0710678,6.25 15.75,7.92893219 15.75,10 C15.75,12.0710678 14.0710678,13.75 12,13.75 C9.92893219,13.75 8.25,12.0710678 8.25,10 C8.25,7.92893219 9.92893219,6.25 12,6.25 Z M12,7.75 C10.7573593,7.75 9.75,8.75735931 9.75,10 C9.75,11.2426407 10.7573593,12.25 12,12.25 C13.2426407,12.25 14.25,11.2426407 14.25,10 C14.25,8.75735931 13.2426407,7.75 12,7.75 Z" id="Shape" fill="#123456" fill-rule="nonzero"></path>
                        </g>
                    </g>
                </g>
            </g>
        </g>
    </g>
</svg>