<svg xmlns="http://www.w3.org/2000/svg" xmlns:xlink="http://www.w3.org/1999/xlink" width="95" height="24" viewBox="0 0 95 24">
    <defs>
        <path id="5vcjwblxta" d="M21.841 4.249L33.646 4.249 33.646 19.851 21.841 19.851z"/>
    </defs>
    <g fill="none" fill-rule="evenodd">
        <g>
            <path fill="#123456" fill-rule="nonzero" d="M74.018 11.325c1.29 0 2.469-.58 2.956-1.413.193-.284.214-.426.214-.558 0-.315-.244-.529-.539-.529-.152 0-.386.071-.498.275-.375.721-1.178 1.158-2.154 1.158-1.463 0-2.438-1.057-2.438-2.652 0-1.595.975-2.652 2.438-2.652.986 0 1.779.437 2.154 1.148.112.214.366.285.498.285.295 0 .539-.214.539-.529 0-.142-.02-.274-.214-.558-.467-.803-1.605-1.413-2.905-1.413-2.236 0-3.72 1.494-3.72 3.719 0 2.215 1.484 3.719 3.669 3.719zm8.88.01c.335 0 .569-.193.569-.549V6.631c0-.346-.213-.56-.569-.56-.325 0-.559.194-.559.56v.183c-.315-.448-.945-.742-1.676-.742-1.433 0-2.388 1.046-2.388 2.631 0 1.585.955 2.632 2.388 2.632.69 0 1.34-.285 1.676-.752v.203c0 .315.203.549.559.549zm-1.95-.975c-.895 0-1.515-.61-1.515-1.657 0-1.046.62-1.656 1.514-1.656.63 0 1.148.305 1.392.752v1.809c-.244.457-.772.752-1.392.752zm5.669.965c1.34 0 2.133-.64 2.133-1.606 0-1.097-.833-1.392-1.625-1.524-.793-.122-1.189-.213-1.189-.69 0-.346.295-.58.732-.58.477 0 .782.214 1.005.427.143.132.295.173.437.173.204 0 .468-.173.468-.457 0-.133-.051-.265-.163-.387-.305-.386-.975-.62-1.626-.62-1.158 0-2.011.59-2.011 1.535 0 1.046.894 1.372 1.697 1.493.548.092 1.087.183 1.087.691 0 .417-.305.671-.905.671-.487 0-.802-.213-1.016-.406-.142-.143-.294-.173-.437-.173-.203 0-.447.162-.447.447 0 .132.051.264.153.386.305.366 1.077.62 1.707.62zm7.61.01c.345 0 .569-.224.569-.559V8.104c0-1.24-.711-2.032-1.971-2.032-.68 0-1.27.264-1.646.721V4.436c0-.335-.224-.549-.559-.549-.356 0-.58.214-.58.549v6.34c0 .335.224.559.57.559.345 0 .569-.224.569-.559V7.78c.254-.488.721-.732 1.26-.732.802 0 1.219.427 1.219 1.23v2.5c0 .334.213.558.569.558z"/>
            <g>
                <path fill="#123456" d="M6.624 5.006h.002l4.171 6.242.007.014c.015.022.03.044.042.068.009.012.015.026.021.04l.02.034.027.054c.006.018.012.034.02.05l.018.042c.006.016.01.03.017.046.006.018.01.036.017.054.004.016.008.032.014.048l.009.042.012.054.009.052.003.023.003.02.007.057c.002.014.002.032.002.048.002.016.002.034.002.052l.002.03-.002.024v.04l-.004.058c-.002.02-.002.04-.005.058-.002.012-.004.022-.004.032l-.01.054-.013.068-.009.026c-.002.016-.006.032-.012.048l-.021.072c-.005.01-.009.018-.01.026l-.016.04-.03.074c-.006.01-.012.02-.016.032-.004.01-.01.02-.017.03-.01.024-.021.046-.036.07l-.013.02-.012.02-.007.01h.002l-4.171 6.244c-.484.722-1.497.938-2.262.48-.765-.458-.995-1.416-.511-2.14l2.56-3.834H1.606C.717 13.61 0 12.922 0 12.076c0-.846.717-1.534 1.607-1.55v-.002h4.822L3.851 6.666l.002-.002c-.46-.72-.23-1.66.526-2.114.757-.452 1.752-.246 2.245.456zm7.757-.454c.765.456.993 1.414.511 2.138l-2.561 3.834h4.825v.002c.89.018 1.606.704 1.606 1.55 0 .799-.64 1.457-1.46 1.543l-.146.009H12.33l2.58 3.86h-.002c.459.722.228 1.662-.526 2.114-.757.452-1.754.246-2.247-.456v.002l-2.11-3.16 2.077-3.11H12.1l.006-.01.025-.04c.013-.024.026-.046.036-.07.007-.01.01-.02.015-.03.006-.012.013-.022.017-.032.013-.026.021-.05.03-.074.006-.014.012-.026.016-.04.002-.008.007-.016.01-.026.01-.024.014-.048.022-.072l.013-.048.006-.026c.006-.022.01-.044.015-.068l.008-.054c.002-.01.002-.02.005-.032l.006-.058c0-.02.002-.038.004-.058v-.04l.002-.024-.002-.03c0-.018 0-.036-.002-.052 0-.016-.002-.032-.004-.048 0-.02-.002-.038-.004-.056l-.007-.044c-.004-.016-.006-.034-.008-.052l-.013-.054c-.002-.014-.006-.028-.01-.042l-.015-.048-.015-.054-.02-.046c-.003-.014-.01-.028-.016-.042l-.019-.048c-.008-.02-.019-.038-.027-.056l-.02-.034-.02-.04c-.013-.024-.028-.046-.043-.068l-.006-.012-2.063-3.084 2.097-3.134c.484-.724 1.496-.938 2.26-.48zM39.394 16.48c-1.317 0-2.386-1.014-2.386-2.26 0-1.244 1.07-2.258 2.386-2.258 1.317 0 2.388 1.014 2.388 2.258 0 1.246-1.071 2.26-2.388 2.26m5.478-7.346c-.317-.334-.746-.5-1.29-.5-.538 0-.963.166-1.274.5-.038.04-.071.082-.105.124-.837-.426-1.794-.668-2.809-.668-3.28 0-5.949 2.526-5.949 5.63 0 3.106 2.67 5.632 5.95 5.632 1.02 0 1.981-.246 2.82-.676.032.042.066.08.1.12.313.34.737.51 1.268.51.55 0 .982-.168 1.291-.504.315-.336.47-.754.47-1.258v-7.668c0-.496-.16-.91-.472-1.242M59.629 16.445c-1.317 0-2.386-1.014-2.386-2.26 0-1.244 1.07-2.258 2.386-2.258 1.317 0 2.388 1.014 2.388 2.258 0 1.246-1.071 2.26-2.388 2.26m5.478-7.348c-.317-.332-.746-.498-1.29-.498-.538 0-.963.166-1.274.498-.038.042-.074.084-.105.126-.837-.426-1.795-.668-2.81-.668-3.279 0-5.948 2.526-5.948 5.63s2.669 5.632 5.949 5.632c1.02 0 1.98-.246 2.821-.676.032.04.066.08.1.118.312.342.735.512 1.268.512.549 0 .982-.168 1.29-.504.316-.336.47-.754.47-1.258v-7.67c0-.494-.159-.91-.471-1.242M52.409 8.579c-.017 0-.036.004-.053.004h-.038c-1.019 0-1.978.242-2.82.668-.035-.048-.073-.092-.116-.136-.319-.332-.756-.498-1.301-.498-.548 0-.977.166-1.29.498-.314.332-.47.746-.47 1.24v7.658c0 .49.16.906.477 1.248.315.34.744.51 1.283.51.553 0 .99-.168 1.303-.502.317-.338.476-.754.476-1.256v-3.88c.07-1.226 1.145-2.204 2.458-2.204h.055c.012 0 .025.004.036.004.978 0 1.773-.75 1.773-1.678 0-.926-.795-1.676-1.773-1.676"/>
                <mask id="nnb2j6p4ob" fill="#fff">
                    <use xlink:href="#5vcjwblxta"/>
                </mask>
                <path fill="#123456" d="M31.894 16.529h-.019v-.012c-1.029 0-1.91-.6-2.278-1.446 0 0-.133.136-.18-3.168h2.367c.52 0 .962-.15 1.323-.446.36-.296.54-.696.54-1.2 0-.52-.178-.93-.533-1.222-.355-.298-.797-.444-1.33-.444H29.42V6.029c0-.508-.157-.93-.474-1.27-.31-.338-.75-.51-1.304-.51-.537 0-.963.174-1.28.518-.315.344-.474.764-.474 1.262v2.562h-2.206c-.524 0-.962.148-1.315.446-.35.3-.526.706-.526 1.22 0 .51.176.912.526 1.206.353.294.79.44 1.315.44h2.206v2.292h-.004c0 3.12 2.688 5.656 5.991 5.656v-.008h.02c.965 0 1.751-.744 1.751-1.658 0-.912-.786-1.656-1.752-1.656" mask="url(#nnb2j6p4ob)"/>
            </g>
        </g>
    </g>
</svg>
