<?xml version="1.0" encoding="UTF-8"?>
<svg width="24px" height="24px" viewBox="0 0 24 24" version="1.1" xmlns="http://www.w3.org/2000/svg" xmlns:xlink="http://www.w3.org/1999/xlink">
    <title>7DF72A3E-78A3-49F2-9E20-FC6AC3BB9A34</title>
    <g id="12.-Purchase" stroke="none" stroke-width="1" fill="none" fill-rule="evenodd">
        <g id="2.2-Chat---List-Edit" transform="translate(-280.000000, -450.000000)">
            <g id="Order" transform="translate(0.000000, 386.000000)">
                <g id="List" transform="translate(16.000000, 56.000000)">
                    <g id="Assets-/-Icon-/-E-/-Edit" transform="translate(264.000000, 8.000000)">
                        <rect id="Bound" x="0" y="0" width="24" height="24"></rect>
                        <path d="M21.8465187,2.14833044 C21.1131337,1.4131459 20.1175698,1 19.0793696,1 C18.0411694,1 17.0456055,1.4131459 16.3122205,2.14833044 L1.79843182,16.7114838 C1.69820742,16.8073763 1.63358051,16.9345335 1.61517691,17.0720487 L1.00432722,22.3155172 C0.982286666,22.4998797 1.04522003,22.6842682 1.17536513,22.8166413 C1.2911201,22.9347942 1.44981145,23.0009456 1.61517691,22.9999898 L1.68237037,22.9999898 L6.9723287,22.4499652 C7.11036597,22.4318457 7.23888983,22.3696976 7.33883851,22.2727384 L21.8465187,7.72180752 C23.3844938,6.18256857 23.3844938,3.68756939 21.8465187,2.14833044 Z M6.62414437,21.2460452 L2.31154556,21.7043904 L2.8124423,17.4265023 L14.4185864,5.81509168 L18.2302885,9.6407459 L6.62414437,21.2460452 Z M19.0793696,8.75461194 L15.2676675,4.92895771 L17.1735185,3.0161306 C17.6771857,2.5070654 18.3634136,2.22063695 19.0793696,2.22063695 C19.7953255,2.22063695 20.4815535,2.5070654 20.9852206,3.0161306 C22.036632,4.07443099 22.036632,5.78348444 20.9852206,6.84178483 L19.0793696,8.75461194 Z" id="Shape" fill="#123456" fill-rule="nonzero"></path>
                    </g>
                </g>
            </g>
        </g>
    </g>
</svg>