<svg xmlns="http://www.w3.org/2000/svg" width="40" height="40" viewBox="0 0 40 40">
    <g fill="none" fill-rule="evenodd">
        <g fill="#123456" fill-rule="nonzero">
            <g>
                <g>
                    <g>
                        <path d="M6 26c.552 0 1 .448 1 1v4c0 1.054.816 1.918 1.85 1.995L9 33h4c.552 0 1 .448 1 1s-.448 1-1 1H9c-2.21 0-4-1.79-4-4v-4c0-.552.448-1 1-1zm28 0c.552 0 1 .448 1 1v4c0 2.21-1.79 4-4 4h-4c-.552 0-1-.448-1-1s.448-1 1-1h4c1.054 0 1.918-.816 1.995-1.85L33 31v-4c0-.552.448-1 1-1zm3-7c.552 0 1 .448 1 1s-.448 1-1 1H3c-.552 0-1-.448-1-1s.448-1 1-1h34zM13 5c.552 0 1 .448 1 1s-.448 1-1 1H9c-1.054 0-1.918.816-1.995 1.85L7 9v4c0 .552-.448 1-1 1s-1-.448-1-1V9c0-2.21 1.79-4 4-4h4zm18 0c2.21 0 4 1.79 4 4v4c0 .552-.448 1-1 1s-1-.448-1-1V9c0-1.054-.816-1.918-1.85-1.995L31 7h-4c-.552 0-1-.448-1-1s.448-1 1-1h4z" transform="translate(-160 -933) translate(0 925) translate(152) translate(8 8)"/>
                    </g>
                </g>
            </g>
        </g>
    </g>
</svg>
