<svg xmlns="http://www.w3.org/2000/svg" width="24" height="24" viewBox="0 0 24 24">
    <g fill="none" fill-rule="evenodd">
        <g>
            <g>
                <g>
                    <path d="M0 0H24V24H0z" transform="translate(-16 -325) translate(16 309) translate(0 16)"/>
                    <path fill="#123456" fill-rule="nonzero" d="M12 2c2.645 0 4.803 2.085 4.92 4.7l.006.226v3.478c1.137.322 1.986 1.33 2.067 2.55l.007.194v6.222c0 1.517-1.184 2.757-2.678 2.847l-.174.005H7.852c-1.517 0-2.757-1.184-2.847-2.678L5 19.37v-6.222c0-1.305.877-2.406 2.075-2.744V6.926C7.074 4.206 9.278 2 12 2zm4.148 9.852H7.852c-.671 0-1.223.51-1.29 1.164l-.006.132v6.222c0 .672.51 1.224 1.163 1.29l.133.007h8.296c.671 0 1.223-.51 1.29-1.164l.006-.133v-6.222c0-.671-.51-1.223-1.163-1.29l-.133-.006zM12 13.667c1.432 0 2.593 1.16 2.593 2.592 0 1.432-1.161 2.593-2.593 2.593s-2.593-1.16-2.593-2.593c0-1.432 1.161-2.592 2.593-2.592zm0 1.555c-.573 0-1.037.465-1.037 1.037 0 .573.464 1.037 1.037 1.037s1.037-.464 1.037-1.037c0-.572-.464-1.037-1.037-1.037zm0-11.666c-1.797 0-3.266 1.406-3.365 3.179l-.005.19v3.371h6.74v-3.37c0-1.733-1.308-3.16-2.99-3.35l-.189-.015L12 3.556z" transform="translate(-16 -325) translate(16 309) translate(0 16)"/>
                </g>
            </g>
        </g>
    </g>
</svg>
