<svg xmlns="http://www.w3.org/2000/svg" width="32" height="32" viewBox="0 0 32 32">
    <g fill="none" fill-rule="evenodd">
        <g>
            <g>
                <g>
                    <g>
                        <g>
                            <path d="M0 0L32 0 32 5.333 32 32 0 32z" transform="translate(-121 -164) translate(12 152) translate(86) translate(11) translate(12 12)"/>
                            <path fill="#FFF" d="M22.667 9.333c2.83 0 5.182 2.076 5.326 4.74l.007.26v7.334c0 2.701-2.264 4.86-5.061 4.993l-.272.007H9.333c-2.83 0-5.182-2.076-5.326-4.74L4 21.666v-7.334c0-2.788 2.412-5 5.333-5 .737 0 1.334.597 1.334 1.334 0 .736-.597 1.333-1.334 1.333-1.426 0-2.554.972-2.658 2.155l-.008.178v7.334c0 1.201 1.06 2.23 2.455 2.326l.211.007h13.334c1.426 0 2.554-.972 2.658-2.155l.008-.178v-7.334c0-1.261-1.169-2.333-2.666-2.333-.737 0-1.334-.597-1.334-1.333 0-.737.597-1.334 1.334-1.334zM16 20c-.048 0-.095-.003-.141-.007l-.02-.003c-.04-.004-.08-.011-.12-.02l-.043-.01c-.036-.009-.07-.019-.104-.03l-.033-.012c-.039-.014-.076-.03-.113-.048l-.012-.005c-.058-.029-.107-.057-.153-.089l-4-2.667c-.613-.408-.779-1.236-.37-1.849.379-.569 1.12-.752 1.714-.448l.135.079 1.926 1.283V4c0-.736.598-1.333 1.334-1.333.684 0 1.247.514 1.324 1.178l.01.155-.001 12.174 1.927-1.283c.613-.409 1.44-.243 1.85.37.379.568.263 1.323-.246 1.755l-.124.093-4 2.667-.012.008c-.08.053-.168.097-.26.132l-.023.008c-.037.013-.075.025-.114.035l-.037.008c-.035.008-.07.015-.106.02l-.037.004c-.039.005-.078.008-.119.009H16z" transform="translate(-121 -164) translate(12 152) translate(86) translate(11) translate(12 12)"/>
                        </g>
                    </g>
                </g>
            </g>
        </g>
    </g>
</svg>
