<svg xmlns="http://www.w3.org/2000/svg" width="360" height="640" viewBox="0 0 360 640">
    <defs>
        <linearGradient id="n837p833xa" x1="50%" x2="50%" y1="10.974%" y2="92.014%">
            <stop offset="0%" stop-color="#BCF6E4"/>
            <stop offset="100%" stop-color="#AFF2F9"/>
        </linearGradient>
    </defs>
    <g fill="none" fill-rule="evenodd">
        <g>
            <g>
                <g>
                    <path fill="#F4E8C9" fill-opacity=".4" d="M0 64L64 64 64 0 0 0z" transform="matrix(1 0 0 -1 0 180) translate(64 52)"/>
                    <path fill="#F4E8C9" d="M17.5 54c1.105 0 2 .895 2 2s-.895 2-2 2-2-.895-2-2 .895-2 2-2zM37 54c1.105 0 2 .895 2 2s-.895 2-2 2-2-.895-2-2 .895-2 2-2zm19 0c1.105 0 2 .895 2 2s-.895 2-2 2-2-.895-2-2 .895-2 2-2zm-9.5 0c1.105 0 2 .895 2 2s-.895 2-2 2-2-.895-2-2 .895-2 2-2zM27 54c1.105 0 2 .895 2 2s-.895 2-2 2-2-.895-2-2 .895-2 2-2zM8 54c1.105 0 2 .895 2 2s-.895 2-2 2-2-.895-2-2 .895-2 2-2zm38.5-9.5c1.105 0 2 .895 2 2s-.895 2-2 2-2-.895-2-2 .895-2 2-2zm-19.5 0c1.105 0 2 .895 2 2s-.895 2-2 2-2-.895-2-2 .895-2 2-2zm-19 0c1.105 0 2 .895 2 2s-.895 2-2 2-2-.895-2-2 .895-2 2-2zm9.5 0c1.105 0 2 .895 2 2s-.895 2-2 2-2-.895-2-2 .895-2 2-2zm19.5 0c1.105 0 2 .895 2 2s-.895 2-2 2-2-.895-2-2 .895-2 2-2zm19 0c1.105 0 2 .895 2 2s-.895 2-2 2-2-.895-2-2 .895-2 2-2zM17.5 35c1.105 0 2 .895 2 2s-.895 2-2 2-2-.895-2-2 .895-2 2-2zM37 35c1.105 0 2 .895 2 2s-.895 2-2 2-2-.895-2-2 .895-2 2-2zm19 0c1.105 0 2 .895 2 2s-.895 2-2 2-2-.895-2-2 .895-2 2-2zM8 35c1.105 0 2 .895 2 2s-.895 2-2 2-2-.895-2-2 .895-2 2-2zm19 0c1.105 0 2 .895 2 2s-.895 2-2 2-2-.895-2-2 .895-2 2-2zm19.5 0c1.105 0 2 .895 2 2s-.895 2-2 2-2-.895-2-2 .895-2 2-2zM8 25c1.105 0 2 .895 2 2s-.895 2-2 2-2-.895-2-2 .895-2 2-2zm19 0c1.105 0 2 .895 2 2s-.895 2-2 2-2-.895-2-2 .895-2 2-2zm19.5 0c1.105 0 2 .895 2 2s-.895 2-2 2-2-.895-2-2 .895-2 2-2zm-29 0c1.105 0 2 .895 2 2s-.895 2-2 2-2-.895-2-2 .895-2 2-2zM37 25c1.105 0 2 .895 2 2s-.895 2-2 2-2-.895-2-2 .895-2 2-2zm19 0c1.105 0 2 .895 2 2s-.895 2-2 2-2-.895-2-2 .895-2 2-2zm-38.5-9.5c1.105 0 2 .895 2 2s-.895 2-2 2-2-.895-2-2 .895-2 2-2zm19.5 0c1.105 0 2 .895 2 2s-.895 2-2 2-2-.895-2-2 .895-2 2-2zm19 0c1.105 0 2 .895 2 2s-.895 2-2 2-2-.895-2-2 .895-2 2-2zm-48 0c1.105 0 2 .895 2 2s-.895 2-2 2-2-.895-2-2 .895-2 2-2zm19 0c1.105 0 2 .895 2 2s-.895 2-2 2-2-.895-2-2 .895-2 2-2zm19.5 0c1.105 0 2 .895 2 2s-.895 2-2 2-2-.895-2-2 .895-2 2-2zM8 6c1.105 0 2 .895 2 2s-.895 2-2 2-2-.895-2-2 .895-2 2-2zm19 0c1.105 0 2 .895 2 2s-.895 2-2 2-2-.895-2-2 .895-2 2-2zm19.5 0c1.105 0 2 .895 2 2s-.895 2-2 2-2-.895-2-2 .895-2 2-2zm-29 0c1.105 0 2 .895 2 2s-.895 2-2 2-2-.895-2-2 .895-2 2-2zM37 6c1.105 0 2 .895 2 2s-.895 2-2 2-2-.895-2-2 .895-2 2-2zm19 0c1.105 0 2 .895 2 2s-.895 2-2 2-2-.895-2-2 .895-2 2-2z" transform="matrix(1 0 0 -1 0 180) translate(64 52)"/>
                    <path fill="#FFF" d="M24 64V40C10.745 40 0 50.745 0 64h24z" transform="matrix(1 0 0 -1 0 180) translate(64 52) matrix(-1 0 0 1 24 0)"/>
                </g>
                <g>
                    <path fill="#123456" d="M23 96c2.21 0 4 1.79 4 4s-1.79 4-4 4-4-1.79-4-4 1.79-4 4-4zm39 0c2.21 0 4 1.79 4 4s-1.79 4-4 4-4-1.79-4-4 1.79-4 4-4zm38 0c2.21 0 4 1.79 4 4s-1.79 4-4 4-4-1.79-4-4 1.79-4 4-4zM4 77c2.21 0 4 1.79 4 4s-1.79 4-4 4-4-1.79-4-4 1.79-4 4-4zm38 0c2.21 0 4 1.79 4 4s-1.79 4-4 4-4-1.79-4-4 1.79-4 4-4zm39 0c2.21 0 4 1.79 4 4s-1.79 4-4 4-4-1.79-4-4 1.79-4 4-4zM23 58c2.21 0 4 1.79 4 4s-1.79 4-4 4-4-1.79-4-4 1.79-4 4-4zm39 0c2.21 0 4 1.79 4 4s-1.79 4-4 4-4-1.79-4-4 1.79-4 4-4zm38 0c2.21 0 4 1.79 4 4s-1.79 4-4 4-4-1.79-4-4 1.79-4 4-4zM4 38c2.21 0 4 1.79 4 4s-1.79 4-4 4-4-1.79-4-4 1.79-4 4-4zm38 0c2.21 0 4 1.79 4 4s-1.79 4-4 4-4-1.79-4-4 1.79-4 4-4zm39 0c2.21 0 4 1.79 4 4s-1.79 4-4 4-4-1.79-4-4 1.79-4 4-4zM23 19c2.21 0 4 1.79 4 4s-1.79 4-4 4-4-1.79-4-4 1.79-4 4-4zm39 0c2.21 0 4 1.79 4 4s-1.79 4-4 4-4-1.79-4-4 1.79-4 4-4zm38 0c2.21 0 4 1.79 4 4s-1.79 4-4 4-4-1.79-4-4 1.79-4 4-4zM4 0c2.21 0 4 1.79 4 4S6.21 8 4 8 0 6.21 0 4s1.79-4 4-4zm38 0c2.21 0 4 1.79 4 4s-1.79 4-4 4-4-1.79-4-4 1.79-4 4-4zm39 0c2.21 0 4 1.79 4 4s-1.79 4-4 4-4-1.79-4-4 1.79-4 4-4z" transform="matrix(1 0 0 -1 0 180) translate(140)"/>
                    <path fill="#4BFCC3" d="M4 96c2.21 0 4 1.79 4 4s-1.79 4-4 4-4-1.79-4-4 1.79-4 4-4zm38 0c2.21 0 4 1.79 4 4s-1.79 4-4 4-4-1.79-4-4 1.79-4 4-4zm39 0c2.21 0 4 1.79 4 4s-1.79 4-4 4-4-1.79-4-4 1.79-4 4-4zM23 77c2.21 0 4 1.79 4 4s-1.79 4-4 4-4-1.79-4-4 1.79-4 4-4zm39 0c2.21 0 4 1.79 4 4s-1.79 4-4 4-4-1.79-4-4 1.79-4 4-4zm38 0c2.21 0 4 1.79 4 4s-1.79 4-4 4-4-1.79-4-4 1.79-4 4-4zM4 58c2.21 0 4 1.79 4 4s-1.79 4-4 4-4-1.79-4-4 1.79-4 4-4zm38 0c2.21 0 4 1.79 4 4s-1.79 4-4 4-4-1.79-4-4 1.79-4 4-4zm39 0c2.21 0 4 1.79 4 4s-1.79 4-4 4-4-1.79-4-4 1.79-4 4-4zM23 38c2.21 0 4 1.79 4 4s-1.79 4-4 4-4-1.79-4-4 1.79-4 4-4zm39 0c2.21 0 4 1.79 4 4s-1.79 4-4 4-4-1.79-4-4 1.79-4 4-4zm38 0c2.21 0 4 1.79 4 4s-1.79 4-4 4-4-1.79-4-4 1.79-4 4-4zM4 19c2.21 0 4 1.79 4 4s-1.79 4-4 4-4-1.79-4-4 1.79-4 4-4zm38 0c2.21 0 4 1.79 4 4s-1.79 4-4 4-4-1.79-4-4 1.79-4 4-4zm39 0c2.21 0 4 1.79 4 4s-1.79 4-4 4-4-1.79-4-4 1.79-4 4-4zM23 0c2.21 0 4 1.79 4 4s-1.79 4-4 4-4-1.79-4-4 1.79-4 4-4zm39 0c2.21 0 4 1.79 4 4s-1.79 4-4 4-4-1.79-4-4 1.79-4 4-4zm38 0c2.21 0 4 1.79 4 4s-1.79 4-4 4-4-1.79-4-4 1.79-4 4-4z" transform="matrix(1 0 0 -1 0 180) translate(140)"/>
                </g>
                <g fill="#BCF7E5">
                    <path d="M64 24c-22.091 0-40 17.909-40 40H0V0h64z" transform="matrix(1 0 0 -1 0 180) matrix(-1 0 0 1 64 116) matrix(1 0 0 -1 0 64)"/>
                </g>
                <g>
                    <path fill="#123456" d="M0 64L64 64 64 0 0 0z" transform="matrix(1 0 0 -1 0 180) translate(0 52)"/>
                    <path fill="#FFF" d="M64 64V40c-13.255 0-24 10.745-24 24h24z" transform="matrix(1 0 0 -1 0 180) translate(0 52)"/>
                    <path fill="#4AFBC3" d="M64 24V0C50.745 0 40 10.745 40 24h24z" transform="matrix(1 0 0 -1 0 180) translate(0 52) matrix(1 0 0 -1 0 24)"/>
                </g>
            </g>
            <g>
                <path fill="url(#n837p833xa)" d="M128 0v128H0V0h128zM16 108c-2.21 0-4 1.79-4 4s1.79 4 4 4 4-1.79 4-4-1.79-4-4-4zm19 0c-2.21 0-4 1.79-4 4s1.79 4 4 4 4-1.79 4-4-1.79-4-4-4zm19 0c-2.21 0-4 1.79-4 4s1.79 4 4 4 4-1.79 4-4-1.79-4-4-4zm20 0c-2.21 0-4 1.79-4 4s1.79 4 4 4 4-1.79 4-4-1.79-4-4-4zm19 0c-2.21 0-4 1.79-4 4s1.79 4 4 4 4-1.79 4-4-1.79-4-4-4zm19 0c-2.21 0-4 1.79-4 4s1.79 4 4 4 4-1.79 4-4-1.79-4-4-4zM16 89c-2.21 0-4 1.79-4 4s1.79 4 4 4 4-1.79 4-4-1.79-4-4-4zm19 0c-2.21 0-4 1.79-4 4s1.79 4 4 4 4-1.79 4-4-1.79-4-4-4zm19 0c-2.21 0-4 1.79-4 4s1.79 4 4 4 4-1.79 4-4-1.79-4-4-4zm20 0c-2.21 0-4 1.79-4 4s1.79 4 4 4 4-1.79 4-4-1.79-4-4-4zm19 0c-2.21 0-4 1.79-4 4s1.79 4 4 4 4-1.79 4-4-1.79-4-4-4zm19 0c-2.21 0-4 1.79-4 4s1.79 4 4 4 4-1.79 4-4-1.79-4-4-4zM16 70c-2.21 0-4 1.79-4 4s1.79 4 4 4 4-1.79 4-4-1.79-4-4-4zm19 0c-2.21 0-4 1.79-4 4s1.79 4 4 4 4-1.79 4-4-1.79-4-4-4zm19 0c-2.21 0-4 1.79-4 4s1.79 4 4 4 4-1.79 4-4-1.79-4-4-4zm20 0c-2.21 0-4 1.79-4 4s1.79 4 4 4 4-1.79 4-4-1.79-4-4-4zm19 0c-2.21 0-4 1.79-4 4s1.79 4 4 4 4-1.79 4-4-1.79-4-4-4zm19 0c-2.21 0-4 1.79-4 4s1.79 4 4 4 4-1.79 4-4-1.79-4-4-4zM16 50c-2.21 0-4 1.79-4 4s1.79 4 4 4 4-1.79 4-4-1.79-4-4-4zm19 0c-2.21 0-4 1.79-4 4s1.79 4 4 4 4-1.79 4-4-1.79-4-4-4zm19 0c-2.21 0-4 1.79-4 4s1.79 4 4 4 4-1.79 4-4-1.79-4-4-4zm20 0c-2.21 0-4 1.79-4 4s1.79 4 4 4 4-1.79 4-4-1.79-4-4-4zm19 0c-2.21 0-4 1.79-4 4s1.79 4 4 4 4-1.79 4-4-1.79-4-4-4zm19 0c-2.21 0-4 1.79-4 4s1.79 4 4 4 4-1.79 4-4-1.79-4-4-4zM16 31c-2.21 0-4 1.79-4 4s1.79 4 4 4 4-1.79 4-4-1.79-4-4-4zm19 0c-2.21 0-4 1.79-4 4s1.79 4 4 4 4-1.79 4-4-1.79-4-4-4zm19 0c-2.21 0-4 1.79-4 4s1.79 4 4 4 4-1.79 4-4-1.79-4-4-4zm20 0c-2.21 0-4 1.79-4 4s1.79 4 4 4 4-1.79 4-4-1.79-4-4-4zm19 0c-2.21 0-4 1.79-4 4s1.79 4 4 4 4-1.79 4-4-1.79-4-4-4zm19 0c-2.21 0-4 1.79-4 4s1.79 4 4 4 4-1.79 4-4-1.79-4-4-4zM16 12c-2.21 0-4 1.79-4 4s1.79 4 4 4 4-1.79 4-4-1.79-4-4-4zm19 0c-2.21 0-4 1.79-4 4s1.79 4 4 4 4-1.79 4-4-1.79-4-4-4zm19 0c-2.21 0-4 1.79-4 4s1.79 4 4 4 4-1.79 4-4-1.79-4-4-4zm20 0c-2.21 0-4 1.79-4 4s1.79 4 4 4 4-1.79 4-4-1.79-4-4-4zm19 0c-2.21 0-4 1.79-4 4s1.79 4 4 4 4-1.79 4-4-1.79-4-4-4zm19 0c-2.21 0-4 1.79-4 4s1.79 4 4 4 4-1.79 4-4-1.79-4-4-4z" transform="translate(168 448)"/>
                <path fill="#BCF7E5" d="M152 128c0 22.091 17.909 40 40 40v24h-64v-64h24z" transform="translate(168 448)"/>
                <g>
                    <path fill="#123456" d="M0 64L64 64 64 0 0 0z" transform="translate(168 448) translate(128 64)"/>
                    <path fill="#0ADCF2" d="M64 64V40c-13.255 0-24 10.745-24 24h24z" transform="translate(168 448) translate(128 64)"/>
                    <path fill="#4AFBC3" d="M24 64V40C10.745 40 0 50.745 0 64h24z" transform="translate(168 448) translate(128 64) matrix(-1 0 0 1 24 0)"/>
                </g>
                <path fill="#F4E8C9" d="M128 152v40H88c0-22.091 17.909-40 40-40zm-28.923 33.538c.68 0 1.23.551 1.23 1.231s-.55 1.231-1.23 1.231c-.68 0-1.23-.551-1.23-1.23 0-.68.55-1.232 1.23-1.232zm12 0c.68 0 1.23.551 1.23 1.231s-.55 1.231-1.23 1.231c-.68 0-1.23-.551-1.23-1.23 0-.68.55-1.232 1.23-1.232zm11.692 0c.68 0 1.231.551 1.231 1.231s-.551 1.231-1.23 1.231c-.68 0-1.232-.551-1.232-1.23 0-.68.551-1.232 1.231-1.232zm-5.846 0c.68 0 1.23.551 1.23 1.231s-.55 1.231-1.23 1.231c-.68 0-1.23-.551-1.23-1.23 0-.68.55-1.232 1.23-1.232zm-12 0c.68 0 1.23.551 1.23 1.231s-.55 1.231-1.23 1.231c-.68 0-1.23-.551-1.23-1.23 0-.68.55-1.232 1.23-1.232zm-11.692 0c.68 0 1.23.551 1.23 1.231s-.55 1.231-1.23 1.231c-.68 0-1.231-.551-1.231-1.23 0-.68.551-1.232 1.23-1.232zm23.692-5.846c.68 0 1.23.551 1.23 1.231s-.55 1.23-1.23 1.23c-.68 0-1.23-.55-1.23-1.23 0-.68.55-1.23 1.23-1.23zm-12 0c.68 0 1.23.551 1.23 1.231s-.55 1.23-1.23 1.23c-.68 0-1.23-.55-1.23-1.23 0-.68.55-1.23 1.23-1.23zm-11.692 0c.68 0 1.23.551 1.23 1.231s-.55 1.23-1.23 1.23c-.68 0-1.231-.55-1.231-1.23 0-.68.551-1.23 1.23-1.23zm5.846 0c.68 0 1.23.551 1.23 1.231s-.55 1.23-1.23 1.23c-.68 0-1.23-.55-1.23-1.23 0-.68.55-1.23 1.23-1.23zm12 0c.68 0 1.23.551 1.23 1.231s-.55 1.23-1.23 1.23c-.68 0-1.23-.55-1.23-1.23 0-.68.55-1.23 1.23-1.23zm11.692 0c.68 0 1.231.551 1.231 1.231s-.551 1.23-1.23 1.23c-.68 0-1.232-.55-1.232-1.23 0-.68.551-1.23 1.231-1.23zm-23.692-5.846c.68 0 1.23.551 1.23 1.23 0 .68-.55 1.232-1.23 1.232-.68 0-1.23-.551-1.23-1.231s.55-1.23 1.23-1.23zm12 0c.68 0 1.23.551 1.23 1.23 0 .68-.55 1.232-1.23 1.232-.68 0-1.23-.551-1.23-1.231s.55-1.23 1.23-1.23zm11.692 0c.68 0 1.231.551 1.231 1.23 0 .68-.551 1.232-1.23 1.232-.68 0-1.232-.551-1.232-1.231s.551-1.23 1.231-1.23zm-29.538 0c.68 0 1.23.551 1.23 1.23 0 .68-.55 1.232-1.23 1.232-.68 0-1.231-.551-1.231-1.231s.551-1.23 1.23-1.23zm11.692 0c.68 0 1.23.551 1.23 1.23 0 .68-.55 1.232-1.23 1.232-.68 0-1.23-.551-1.23-1.231s.55-1.23 1.23-1.23zm12 0c.68 0 1.23.551 1.23 1.23 0 .68-.55 1.232-1.23 1.232-.68 0-1.23-.551-1.23-1.231s.55-1.23 1.23-1.23zm-23.692-6.154c.68 0 1.23.551 1.23 1.231s-.55 1.23-1.23 1.23c-.68 0-1.231-.55-1.231-1.23 0-.68.551-1.23 1.23-1.23zm11.692 0c.68 0 1.23.551 1.23 1.231s-.55 1.23-1.23 1.23c-.68 0-1.23-.55-1.23-1.23 0-.68.55-1.23 1.23-1.23zm12 0c.68 0 1.23.551 1.23 1.231s-.55 1.23-1.23 1.23c-.68 0-1.23-.55-1.23-1.23 0-.68.55-1.23 1.23-1.23zm-17.846 0c.68 0 1.23.551 1.23 1.231s-.55 1.23-1.23 1.23c-.68 0-1.23-.55-1.23-1.23 0-.68.55-1.23 1.23-1.23zm12 0c.68 0 1.23.551 1.23 1.231s-.55 1.23-1.23 1.23c-.68 0-1.23-.55-1.23-1.23 0-.68.55-1.23 1.23-1.23zm11.692 0c.68 0 1.231.551 1.231 1.231s-.551 1.23-1.23 1.23c-.68 0-1.232-.55-1.232-1.23 0-.68.551-1.23 1.231-1.23zm-23.692-5.846c.68 0 1.23.551 1.23 1.23 0 .68-.55 1.232-1.23 1.232-.68 0-1.23-.551-1.23-1.231s.55-1.23 1.23-1.23zm12 0c.68 0 1.23.551 1.23 1.23 0 .68-.55 1.232-1.23 1.232-.68 0-1.23-.551-1.23-1.231s.55-1.23 1.23-1.23zm11.692 0c.68 0 1.231.551 1.231 1.23 0 .68-.551 1.232-1.23 1.232-.68 0-1.232-.551-1.232-1.231s.551-1.23 1.231-1.23zm-29.538 0c.68 0 1.23.551 1.23 1.23 0 .68-.55 1.232-1.23 1.232-.68 0-1.231-.551-1.231-1.231s.551-1.23 1.23-1.23zm11.692 0c.68 0 1.23.551 1.23 1.23 0 .68-.55 1.232-1.23 1.232-.68 0-1.23-.551-1.23-1.231s.55-1.23 1.23-1.23zm12 0c.68 0 1.23.551 1.23 1.23 0 .68-.55 1.232-1.23 1.232-.68 0-1.23-.551-1.23-1.231s.55-1.23 1.23-1.23zM93.231 156c.68 0 1.23.551 1.23 1.23 0 .68-.55 1.232-1.23 1.232-.68 0-1.231-.551-1.231-1.231S92.551 156 93.23 156zm11.692 0c.68 0 1.23.551 1.23 1.23 0 .68-.55 1.232-1.23 1.232-.68 0-1.23-.551-1.23-1.231s.55-1.231 1.23-1.231zm12 0c.68 0 1.23.551 1.23 1.23 0 .68-.55 1.232-1.23 1.232-.68 0-1.23-.551-1.23-1.231s.55-1.231 1.23-1.231zm-17.846 0c.68 0 1.23.551 1.23 1.23 0 .68-.55 1.232-1.23 1.232-.68 0-1.23-.551-1.23-1.231s.55-1.231 1.23-1.231zm12 0c.68 0 1.23.551 1.23 1.23 0 .68-.55 1.232-1.23 1.232-.68 0-1.23-.551-1.23-1.231s.55-1.231 1.23-1.231zm11.692 0c.68 0 1.231.551 1.231 1.23 0 .68-.551 1.232-1.23 1.232-.68 0-1.232-.551-1.232-1.231S122.09 156 122.77 156zM88 128c0 13.255-10.745 24-24 24v-24z" transform="translate(168 448)"/>
            </g>
        </g>
    </g>
</svg>
