<?xml version="1.0" encoding="UTF-8"?>
<svg width="24px" height="24px" viewBox="0 0 24 24" version="1.1" xmlns="http://www.w3.org/2000/svg" xmlns:xlink="http://www.w3.org/1999/xlink">
    <title>Assets / Icon / C / Cart</title>
    <g id="Assets-/-Icon-/-C-/-Cart" stroke="none" stroke-width="1" fill="none" fill-rule="evenodd">
        <polygon id="Bound" points="0 0 24 0 24 4 24 24 0 24"></polygon>
        <path d="M9.5,18 C10.3284271,18 11,18.6715729 11,19.5 C11,20.3284271 10.3284271,21 9.5,21 C8.67157288,21 8,20.3284271 8,19.5 C8,18.6715729 8.67157288,18 9.5,18 Z M16.5,18 C17.3284271,18 18,18.6715729 18,19.5 C18,20.3284271 17.3284271,21 16.5,21 C15.6715729,21 15,20.3284271 15,19.5 C15,18.6715729 15.6715729,18 16.5,18 Z M2.20346376,4.02082035 L2.31622777,4.0513167 L5.31622777,5.0513167 C5.58949192,5.14240475 5.80821312,5.34606636 5.9197444,5.60745458 L5.96082738,5.72285247 L8.30486099,13.8569818 C8.43717881,14.4618633 9.02120965,14.9333285 9.74488766,14.9935022 L9.90198524,15 L16.0980148,15 C16.8400502,15 17.4647289,14.5688602 17.6730526,13.9328682 L17.7112117,13.7935312 L19.67,7 L9,7 C8.48716416,7 8.06449284,6.61395981 8.00672773,6.11662113 L8,6 C8,5.48716416 8.38604019,5.06449284 8.88337887,5.00672773 L9,5 L21,5 C21.6262867,5 22.0881579,5.56495793 21.9865746,6.16446464 L21.9608274,6.27714753 L19.648939,14.2843756 C19.3133368,15.8185572 17.9188087,16.913137 16.2940392,16.9950659 L16.0980148,17 L9.90198524,17 C8.26012236,17 6.81535343,15.9644272 6.41065155,14.522738 L6.36713359,14.3478262 L4.185,6.782 L1.68377223,5.9486833 C1.19725344,5.78651037 0.918348842,5.28662008 1.02082035,4.79653624 L1.0513167,4.68377223 C1.21348963,4.19725344 1.71337992,3.91834884 2.20346376,4.02082035 Z" id="Combined-Shape" fill="#FFFFFF"></path>
    </g>
</svg>