<?xml version="1.0" encoding="UTF-8"?>
<svg width="24px" height="24px" viewBox="0 0 24 24" version="1.1" xmlns="http://www.w3.org/2000/svg" xmlns:xlink="http://www.w3.org/1999/xlink">
    <title>Assets / Icon / C / Checkbox / On</title>
    <g id="Assets-/-Icon-/-C-/-Checkbox-/-On" stroke="none" stroke-width="1" fill="none" fill-rule="evenodd">
        <polygon id="Bound" points="0 0 24 0 24 4 24 24 0 24"></polygon>
        <path d="M17.7142857,2 L6.28571429,2 C3.91877964,2 2,3.91877964 2,6.28571429 L2,17.7142857 C2,20.0812204 3.91877964,22 6.28571429,22 L17.7142857,22 C20.0812204,22 22,20.0812204 22,17.7142857 L22,6.28571429 C22,3.91877964 20.0812204,2 17.7142857,2 Z" id="Path" fill="#B2F7E2"></path>
        <path d="M9.43431458,7.73963991 C9.72270174,7.44469848 10.1764866,7.42201068 10.4903196,7.6715765 L10.5656854,7.73963991 L17.7656854,15.1032763 C18.0781049,15.4227961 18.0781049,15.9408402 17.7656854,16.2603601 C17.4772983,16.5553015 17.0235134,16.5779893 16.7096804,16.3284235 L16.6343146,16.2603601 L10,9.47590909 L7.36568542,12.169451 C7.07729826,12.4643924 6.62351341,12.4870802 6.30968045,12.2375144 L6.23431458,12.169451 C5.94592741,11.8745096 5.92374378,11.4104114 6.16776369,11.0894459 L6.23431458,11.0123672 L9.43431458,7.73963991 Z" id="Path-10" fill="#123456" fill-rule="nonzero" transform="translate(12.000000, 12.000000) scale(1, -1) translate(-12.000000, -12.000000) "></path>
    </g>
</svg>