<?xml version="1.0" encoding="UTF-8"?>
<svg width="24px" height="24px" viewBox="0 0 24 24" version="1.1" xmlns="http://www.w3.org/2000/svg" xmlns:xlink="http://www.w3.org/1999/xlink">
    <title>Assets / Icon / C / Checkbox / Off</title>
    <g id="Assets-/-Icon-/-C-/-Checkbox-/-Off" stroke="none" stroke-width="1" fill="none" fill-rule="evenodd">
        <polygon id="Bound" points="0 0 24 0 24 4 24 24 0 24"></polygon>
        <path d="M17.7142857,1.7 C20.1745452,1.7 22.1822889,3.63745054 22.2950087,6.06984362 L22.3,6.28571429 L22.3,17.7142857 C22.3,20.1745452 20.3625495,22.1822889 17.9301564,22.2950087 L17.7142857,22.3 L6.28571429,22.3 C3.82545479,22.3 1.81771112,20.3625495 1.70499128,17.9301564 L1.7,17.7142857 L1.7,6.28571429 C1.7,3.82545479 3.63745054,1.81771112 6.06984362,1.70499128 L6.28571429,1.7 L17.7142857,1.7 Z M17.7142857,3.25238095 L6.28571429,3.25238095 C4.67028139,3.25238095 3.34979051,4.51517781 3.25753023,6.10748291 L3.25238095,6.28571429 L3.25238095,17.7142857 C3.25238095,19.3297186 4.51517781,20.6502095 6.10748291,20.7424698 L6.28571429,20.747619 L17.7142857,20.747619 C19.3297186,20.747619 20.6502095,19.4848222 20.7424698,17.8925171 L20.747619,17.7142857 L20.747619,6.28571429 C20.747619,4.61045054 19.3895495,3.25238095 17.7142857,3.25238095 Z" id="Rectangle" fill="#889AAC" fill-rule="nonzero"></path>
    </g>
</svg>