<svg xmlns="http://www.w3.org/2000/svg" width="24" height="24" viewBox="0 0 24 24">
    <g fill="none" fill-rule="evenodd">
        <g>
            <g>
                <g>
                    <path d="M0 0H24V24H0z" transform="translate(-312 -196) translate(32 172) translate(280 24)"/>
                    <path fill="#123456" fill-rule="nonzero" d="M17.705 6.295c.393.394.393 1.033 0 1.427L13.426 12l4.279 4.278c.393.394.393 1.033 0 1.427-.394.393-1.033.393-1.427 0L12 13.426l-4.278 4.279c-.394.393-1.033.393-1.427 0-.393-.394-.393-1.033 0-1.427L10.574 12 6.295 7.722c-.393-.394-.393-1.033 0-1.427.394-.393 1.033-.393 1.427 0L12 10.574l4.278-4.279c.394-.393 1.033-.393 1.427 0z" transform="translate(-312 -196) translate(32 172) translate(280 24)"/>
                </g>
            </g>
        </g>
    </g>
</svg>
