<?xml version="1.0" encoding="UTF-8"?>
<svg width="24px" height="24px" viewBox="0 0 24 24" version="1.1" xmlns="http://www.w3.org/2000/svg" xmlns:xlink="http://www.w3.org/1999/xlink">
    <title>Assets / Icon / F / Favorite</title>
    <g id="Assets-/-Icon-/-F-/-Favorite" stroke="none" stroke-width="1" fill="none" fill-rule="evenodd">
        <rect id="Bound" x="0" y="0" width="24" height="24"></rect>
        <path d="M7.21243524,3 C8.77411331,3 10.2546705,3.5644114 11.4049577,4.59097097 L11.6167054,4.78884172 L12.0068134,5.1694898 L12.387833,4.79772447 C13.4257099,3.78242324 14.7644859,3.16959103 16.2059641,3.03944783 L16.4955703,3.01987881 L16.787563,3.01332411 C18.4497336,3.01332411 20.0075137,3.64360737 21.1827529,4.79328309 C22.3594452,5.94438036 23.0046936,7.47591226 22.9999743,9.10457154 C22.9999743,10.6369096 22.4250586,12.083677 21.3755954,13.2090548 L21.1732842,13.4162393 L12.6291537,21.7434314 C12.459214,21.9096746 12.2283795,22 11.9931889,22 C11.7983781,22 11.6050986,21.9346546 11.4473429,21.8162799 L11.3572242,21.7389901 L2.83086577,13.3980945 C1.65110537,12.2439959 1.00002554,10.7159722 1.00002554,9.09209103 C0.995311585,7.46498313 1.64335447,5.93275714 2.82178552,4.77995898 C3.99368832,3.63354707 5.55651222,3 7.21243524,3 Z M7.21243524,4.78524431 C6.03669683,4.78524431 4.92952467,5.23443674 4.09772173,6.0481452 C3.2658638,6.85775695 2.80997867,7.93678402 2.80997867,9.09124742 C2.80997867,10.1657968 3.20910249,11.1784749 3.94091118,11.9725545 L4.10279523,12.1393115 L11.9931852,19.8576531 L19.9017431,12.1526356 C20.6814988,11.3898409 21.1316412,10.3979538 21.1847679,9.33368087 L21.1900508,9.10457154 C21.1900508,7.95054508 20.7344223,6.87107446 19.9022765,6.05702795 C19.0659191,5.24303705 17.9583266,4.79412706 16.7830229,4.79412706 C15.6838552,4.79412706 14.6426455,5.18659548 13.8302766,5.9025938 L13.6597625,6.06094888 L12.642774,7.05581608 C12.3180558,7.37347116 11.8137237,7.39994241 11.4590698,7.13522985 L11.3663045,7.05581608 L10.3402358,6.05206614 C9.50540605,5.23539539 8.39409645,4.78524431 7.21243524,4.78524431 Z" id="Shape" fill="#123456" fill-rule="nonzero"></path>
    </g>
</svg>