<?xml version="1.0" encoding="UTF-8"?>
<svg width="123px" height="135px" viewBox="0 0 123 135" version="1.1" xmlns="http://www.w3.org/2000/svg" xmlns:xlink="http://www.w3.org/1999/xlink">
    <title>8B72063B-A251-494B-A017-160D25C653C7</title>
    <defs>
        <polygon id="path-1" points="0 0.7095 19.5897 0.7095 19.5897 35.7395 0 35.7395"></polygon>
        <polygon id="path-3" points="0 0.2288 51.2106 0.2288 51.2106 17.9558 0 17.9558"></polygon>
        <polygon id="path-5" points="0 0.502 51.2103 0.502 51.2103 22.267 0 22.267"></polygon>
        <polygon id="path-7" points="0 124 106.749 124 106.749 0.541 0 0.541"></polygon>
        <path d="M32.817,1.542 L33.211,15.596 C33.211,15.596 33.409,21.64 31.592,21.208 L31.592,21.208 L23.691,19.327 C22.734,19.114 21.808,18.777 20.936,18.322 L20.936,18.322 L8.123,11.627 C7.13,11.108 5.982,10.962 4.889,11.221 L4.889,11.221 L4.775,11.247 C3.173,11.621 1.755,12.708 1.214,14.262 L1.214,14.262 C0.525,16.235 1.196,18.312 2.725,19.516 L2.725,19.516 L14.298,28.622 C15.417,29.501 16.418,30.522 17.278,31.658 L17.278,31.658 L24.588,41.31 C26.492,43.825 28.785,46.021 31.381,47.814 L31.381,47.814 L34.827,52.259 C35.855,53.585 37.662,54.029 39.188,53.33 L39.188,53.33 L53.721,46.67 C55.739,45.744 56.454,43.234 55.225,41.385 L55.225,41.385 L52.58,37.408 C50.911,35.097 49.726,32.473 49.096,29.691 L49.096,29.691 L44.307,8.528 C43.878,6.638 42.646,5.025 40.933,4.119 L40.933,4.119 L34.634,0.462 C34.438,0.348 34.23,0.296 34.028,0.296 L34.028,0.296 C33.385,0.296 32.797,0.82 32.817,1.542 L32.817,1.542 Z" id="path-9"></path>
        <path d="M33.102,0.95 C32.528,1.291 32.197,1.892 32.215,2.558 L32.215,2.558 L32.609,16.616 C32.673,18.654 32.398,21.139 31.731,21.621 L31.731,21.621 L23.821,19.738 C22.915,19.538 22.039,19.218 21.215,18.788 L21.215,18.788 L8.402,12.094 C7.281,11.507 5.983,11.343 4.755,11.634 L4.755,11.634 L4.637,11.661 C2.754,12.1 1.224,13.404 0.645,15.063 L0.645,15.063 C-0.106,17.214 0.581,19.595 2.354,20.991 L2.354,20.991 L13.925,30.094 C15.004,30.944 15.969,31.929 16.797,33.021 L16.797,33.021 L24.107,42.674 C26.036,45.22 28.342,47.435 30.962,49.256 L30.962,49.256 L34.35,53.628 C35.174,54.688 36.407,55.264 37.675,55.264 L37.675,55.264 C38.269,55.264 38.869,55.138 39.439,54.878 L39.439,54.878 L53.972,48.216 C55.093,47.703 55.931,46.727 56.27,45.538 L56.27,45.538 C56.608,44.351 56.41,43.08 55.726,42.051 L55.726,42.051 L53.068,38.054 C51.437,35.796 50.299,33.274 49.684,30.558 L49.684,30.558 L44.894,9.395 C44.426,7.333 43.09,5.583 41.225,4.592 L41.225,4.592 L34.937,0.94 C34.652,0.775 34.339,0.692 34.027,0.692 L34.027,0.692 C33.709,0.692 33.391,0.778 33.102,0.95 L33.102,0.95 Z M32.599,22.53 C33.904,21.463 33.839,17.383 33.812,16.579 L33.812,16.579 L33.419,2.524 C33.41,2.203 33.625,2.04 33.716,1.985 L33.716,1.985 C33.81,1.93 34.053,1.821 34.333,1.982 L34.333,1.982 L40.63,5.639 L40.65,5.65 C42.211,6.476 43.328,7.938 43.718,9.661 L43.718,9.661 L48.509,30.824 C49.159,33.699 50.365,36.369 52.078,38.741 L52.078,38.741 L54.722,42.718 C55.212,43.452 55.352,44.361 55.111,45.208 L55.111,45.208 C54.869,46.057 54.272,46.754 53.47,47.122 L53.47,47.122 L38.936,53.782 C37.661,54.366 36.163,54 35.303,52.891 L35.303,52.891 L31.857,48.445 L31.723,48.318 C29.177,46.559 26.939,44.416 25.068,41.946 L25.068,41.946 L17.759,32.293 C16.868,31.119 15.829,30.061 14.67,29.148 L14.67,29.148 L3.098,20.043 C1.73,18.966 1.201,17.125 1.782,15.46 L1.782,15.46 C2.226,14.187 3.425,13.18 4.909,12.834 L4.909,12.834 L5.028,12.807 C5.336,12.734 5.649,12.698 5.962,12.698 L5.962,12.698 C6.613,12.698 7.259,12.855 7.844,13.161 L7.844,13.161 L20.656,19.855 C21.575,20.336 22.552,20.692 23.552,20.913 L23.552,20.913 L31.452,22.794 C31.561,22.819 31.669,22.832 31.775,22.832 L31.775,22.832 C32.072,22.832 32.353,22.731 32.599,22.53 L32.599,22.53 Z" id="path-11"></path>
        <path d="M3.144,0.107 C1.489,0.107 0.146,1.449 0.146,3.104 L0.146,3.104 L0.146,11.61 C0.146,13.265 1.489,14.608 3.144,14.608 L3.144,14.608 L59.614,14.608 C61.269,14.608 62.612,13.265 62.612,11.61 L62.612,11.61 L62.612,3.104 C62.612,1.449 61.269,0.107 59.614,0.107 L59.614,0.107" id="path-13"></path>
    </defs>
    <g id="5.-Transfer" stroke="none" stroke-width="1" fill="none" fill-rule="evenodd">
        <g id="1.1-Transfer---Tara-User---MPIN" transform="translate(-120.000000, -146.000000)">
            <g id="Group" transform="translate(40.000000, 146.000000)">
                <g transform="translate(80.000000, 0.000000)">
                    <circle id="Illu" fill="#B2F7E2" opacity="0.247524528" cx="60" cy="60" r="60"></circle>
                    <g id="-Illustration/-Mobile-Verification" transform="translate(2.727273, 5.454545)">
                        <g id="Group-72" transform="translate(6.000000, 3.000000)">
                            <g id="Group-28" transform="translate(0.000000, 0.459000)">
                                <path d="M30.2185,38.1177 C35.5905,30.4717 47.6735,26.4907 61.2745,30.9977 C70.4515,34.0387 78.4645,40.0797 87.5055,43.5697 C90.5315,44.7377 93.6935,45.4717 96.6885,46.7307 C99.6835,47.9887 102.7825,49.7287 104.3775,52.7487 C109.1375,61.7587 105.4955,73.2897 104.0825,75.5847 C100.6455,81.1667 95.9925,85.8647 90.6115,89.1897 C85.6125,92.2787 80.0415,94.1687 74.3895,95.3417 C67.4105,96.7897 60.1445,97.1597 53.2325,95.3757 C46.3205,93.5907 39.7715,89.5117 35.5965,83.2847 C33.4795,80.1277 32.0185,76.5197 30.6165,72.9247 C28.7365,68.0987 25.6605,60.0597 25.3815,54.8307 C25.0835,49.2437 25.4205,44.9477 30.2185,38.1177" id="Fill-1" fill="#CCF9EA"></path>
                                <g id="Group-5" transform="translate(0.000000, 5.000000)">
                                    <mask id="mask-2" fill="white">
                                        <use xlink:href="#path-1"></use>
                                    </mask>
                                    <g id="Clip-4"></g>
                                    <polygon id="Fill-3" fill="#7CF5CE" mask="url(#mask-2)" points="-0.0003 0.7095 -0.0003 35.7395 19.5897 18.2365"></polygon>
                                </g>
                                <g id="Group-8" transform="translate(0.000000, 23.000000)">
                                    <mask id="mask-4" fill="white">
                                        <use xlink:href="#path-3"></use>
                                    </mask>
                                    <g id="Clip-7"></g>
                                    <path d="M51.2106,17.7398 L31.6206,0.2288 L28.2326,3.2618 C26.7366,4.6018 24.4736,4.6018 22.9786,3.2618 L19.5896,0.2288 L-0.0004,17.7398 L-0.0004,17.9558 L51.2106,17.9558 L51.2106,17.7398 Z" id="Fill-6" fill="#A4FFDC" mask="url(#mask-4)"></path>
                                </g>
                                <polygon id="Fill-9" fill="#7CF5CE" points="51.2106 40.7398 51.2106 5.7098 31.6206 23.2368"></polygon>
                                <g id="Group-13" transform="translate(0.000000, 5.000000)">
                                    <mask id="mask-6" fill="white">
                                        <use xlink:href="#path-5"></use>
                                    </mask>
                                    <g id="Clip-12"></g>
                                    <path d="M19.5983,18.229 L22.9863,21.262 C24.4813,22.602 26.7443,22.602 28.2413,21.262 L31.6203,18.229 L51.2103,0.709 L51.2103,0.502 L-0.0007,0.502 L-0.0007,0.709 L19.5893,18.229 L19.5983,18.229 Z" id="Fill-11" fill="#CCF9EA" mask="url(#mask-6)"></path>
                                </g>
                                <path d="M66.1364,84.023 L36.0194,84.023 C33.1134,84.023 30.7564,81.667 30.7564,78.76 L30.7564,17.886 C30.7564,14.98 33.1134,12.624 36.0194,12.624 L66.1364,12.624 C69.0434,12.624 71.3994,14.98 71.3994,17.886 L71.3994,78.76 C71.3994,81.667 69.0434,84.023 66.1364,84.023" id="Fill-14" fill="#FFFFFF"></path>
                                <path d="M43.028,17.982 L68.784,17.982 C70.797,17.982 72.428,19.737 72.428,21.902 L72.428,74.695 C72.428,76.86 70.797,78.616 68.784,78.616 L43.028,78.616 C41.015,78.616 39.383,76.86 39.383,74.695 L39.383,21.902 C39.383,19.737 41.015,17.982 43.028,17.982" id="Fill-16" fill="#57E3F3"></path>
                                <path d="M35.3327,13.6988 C33.1657,13.6988 31.4017,15.4608 31.4017,17.6278 L31.4017,78.7858 C31.4017,80.9528 33.1657,82.7158 35.3327,82.7158 L67.4267,82.7158 C69.5927,82.7158 71.3547,80.9528 71.3547,78.7858 L71.3547,17.6278 C71.3547,15.4608 69.5927,13.6988 67.4267,13.6988 L35.3327,13.6988 Z M67.4267,83.9388 L35.3327,83.9388 C32.4907,83.9388 30.1797,81.6278 30.1797,78.7858 L30.1797,17.6278 C30.1797,14.7868 32.4907,12.4738 35.3327,12.4738 L67.4267,12.4738 C70.2677,12.4738 72.5777,14.7868 72.5777,17.6278 L72.5777,78.7858 C72.5777,81.6278 70.2677,83.9388 67.4267,83.9388 L67.4267,83.9388 Z" id="Fill-18" fill="#1B3453"></path>
                                <mask id="mask-8" fill="white">
                                    <use xlink:href="#path-7"></use>
                                </mask>
                                <g id="Clip-21"></g>
                                <path d="M31.402,73.027 L71.355,73.027 L71.355,22.175 L31.402,22.175 L31.402,73.027 Z M30.18,74.251 L72.578,74.251 L72.578,20.952 L30.18,20.952 L30.18,74.251 Z" id="Fill-20" fill="#1B3453" mask="url(#mask-8)"></path>
                                <path d="M48.9567,17.3316 C48.6267,17.3316 48.3567,17.6006 48.3567,17.9316 C48.3567,18.2616 48.6267,18.5296 48.9567,18.5296 L55.0127,18.5296 C55.3437,18.5296 55.6117,18.2616 55.6117,17.9316 C55.6117,17.6006 55.3437,17.3316 55.0127,17.3316 L48.9567,17.3316 Z M55.0127,19.7536 L48.9567,19.7536 C47.9517,19.7536 47.1347,18.9356 47.1347,17.9316 C47.1347,16.9256 47.9517,16.1076 48.9567,16.1076 L55.0127,16.1076 C56.0177,16.1076 56.8357,16.9256 56.8357,17.9316 C56.8357,18.9356 56.0177,19.7536 55.0127,19.7536 L55.0127,19.7536 Z" id="Fill-22" fill="#1B3453" mask="url(#mask-8)"></path>
                                <path d="M59.8571,17.3316 C59.5271,17.3316 59.2571,17.6006 59.2571,17.9316 C59.2571,18.2616 59.5271,18.5296 59.8571,18.5296 L62.2781,18.5296 C62.6081,18.5296 62.8781,18.2616 62.8781,17.9316 C62.8781,17.6006 62.6081,17.3316 62.2781,17.3316 L59.8571,17.3316 Z M62.2781,19.7536 L59.8571,19.7536 C58.8521,19.7536 58.0351,18.9356 58.0351,17.9316 C58.0351,16.9256 58.8521,16.1076 59.8571,16.1076 L62.2781,16.1076 C63.2831,16.1076 64.1001,16.9256 64.1001,17.9316 C64.1001,18.9356 63.2831,19.7536 62.2781,19.7536 L62.2781,19.7536 Z" id="Fill-23" fill="#1B3453" mask="url(#mask-8)"></path>
                                <path d="M51.3796,74.2505 C49.0456,74.2505 47.1466,76.1485 47.1466,78.4825 C47.1466,80.8165 49.0456,82.7155 51.3796,82.7155 C53.7136,82.7155 55.6116,80.8165 55.6116,78.4825 C55.6116,76.1485 53.7136,74.2505 51.3796,74.2505 M51.3796,83.9385 C48.3706,83.9385 45.9236,81.4915 45.9236,78.4825 C45.9236,75.4745 48.3706,73.0265 51.3796,73.0265 C54.3886,73.0265 56.8356,75.4745 56.8356,78.4825 C56.8356,81.4915 54.3886,83.9385 51.3796,83.9385" id="Fill-24" fill="#1B3453" mask="url(#mask-8)"></path>
                                <path d="M9.3366,73.4976 C8.9406,73.4976 8.5926,73.2906 8.4026,72.9446 L7.2396,70.8186 C7.2006,70.7476 7.1436,70.6896 7.0726,70.6516 L4.9466,69.4886 C4.6006,69.2996 4.3946,68.9506 4.3946,68.5556 C4.3946,68.1596 4.6006,67.8106 4.9466,67.6206 L7.0726,66.4586 C7.1436,66.4196 7.2006,66.3606 7.2396,66.2916 L8.4026,64.1656 C8.5926,63.8186 8.9406,63.6116 9.3366,63.6116 C9.7326,63.6116 10.0806,63.8186 10.2716,64.1656 L11.4336,66.2916 C11.4726,66.3606 11.5296,66.4196 11.6006,66.4586 L13.7266,67.6206 C14.0726,67.8106 14.2796,68.1596 14.2796,68.5556 C14.2796,68.9506 14.0726,69.2996 13.7266,69.4886 L11.6006,70.6516 C11.5296,70.6896 11.4726,70.7476 11.4346,70.8176 L10.2716,72.9446 C10.0806,73.2906 9.7326,73.4976 9.3366,73.4976" id="Fill-25" fill="#98EEF5" mask="url(#mask-8)"></path>
                                <path d="M86.4831,12.1138 C86.0211,12.1138 85.6121,11.8718 85.3901,11.4668 L84.0291,8.9778 C83.9831,8.8938 83.9171,8.8268 83.8341,8.7818 L81.3451,7.4208 C80.9391,7.1998 80.6971,6.7908 80.6971,6.3288 C80.6971,5.8648 80.9391,5.4558 81.3451,5.2338 L83.8341,3.8728 C83.9171,3.8278 83.9831,3.7598 84.0291,3.6778 L85.3901,1.1888 C85.6121,0.7838 86.0211,0.5408 86.4831,0.5408 C86.9461,0.5408 87.3541,0.7838 87.5771,1.1888 L88.9381,3.6778 C88.9831,3.7598 89.0501,3.8278 89.1331,3.8728 L91.6221,5.2338 C92.0281,5.4558 92.2701,5.8648 92.2701,6.3288 C92.2701,6.7908 92.0281,7.1998 91.6221,7.4208 L89.1331,8.7818 C89.0501,8.8268 88.9831,8.8938 88.9391,8.9768 L87.5771,11.4668 C87.3541,11.8718 86.9461,12.1138 86.4831,12.1138" id="Fill-26" fill="#98EEF5" mask="url(#mask-8)"></path>
                                <path d="M79.9323,63.1187 C81.6463,64.0247 82.8783,65.6377 83.3063,67.5277 L88.0963,88.6907 C88.7253,91.4727 89.9113,94.0967 91.5803,96.4077 L94.2243,100.3857 C95.4533,102.2337 94.7393,104.7437 92.7203,105.6697 L78.1873,112.3297 C76.6613,113.0287 74.8553,112.5857 73.8273,111.2587 L70.3803,106.8137 C67.7853,105.0207 65.4923,102.8247 63.5873,100.3097 L56.2783,90.6577 C55.4183,89.5217 54.4163,88.5017 53.2973,87.6217 L41.7253,78.5157 C40.1963,77.3117 39.5253,75.2347 40.2133,73.2617 C40.7543,71.7087 42.1733,70.6207 43.7753,70.2477 L43.8893,70.2217 C44.9823,69.9627 46.1303,70.1077 47.1223,70.6277 L59.9353,77.3217 C60.8073,77.7767 61.7343,78.1147 62.6913,78.3267 L70.5923,80.2077 C72.4093,80.6397 72.2103,74.5967 72.2103,74.5967 L71.8173,60.5417 C71.7903,59.5937 72.8153,58.9847 73.6343,59.4617 L79.9323,63.1187 Z" id="Fill-27" fill="#FFFFFF" mask="url(#mask-8)"></path>
                            </g>
                            <g id="Group-31" transform="translate(39.000000, 59.459000)">
                                <mask id="mask-10" fill="white">
                                    <use xlink:href="#path-9"></use>
                                </mask>
                                <g id="Clip-30"></g>
                                <polygon id="Fill-29" fill="#FFFFFF" mask="url(#mask-10)" points="53.7731 -8.5776 -6.1119 0.8604 3.8871 64.3114 63.7721 54.8744"></polygon>
                            </g>
                            <g id="Group-36" transform="translate(39.000000, 58.459000)">
                                <path d="M38.6667,16.4273 C34.5057,20.5883 32.4247,33.0733 26.1827,28.9103 C19.9407,24.7493 11.6187,20.5883 7.4567,20.5883 C3.2957,20.5883 3.9507,22.3353 3.9507,22.3353 L13.5967,29.9243 C14.6407,30.7463 15.5747,31.6983 16.3777,32.7573 L23.1947,41.7593 C24.9717,44.1053 27.1087,46.1543 29.5297,47.8253 L32.7447,51.9713 C33.7037,53.2073 35.3887,53.6213 36.8117,52.9693 L50.3647,46.7583 C52.2477,45.8953 52.9137,43.5543 51.7677,41.8293 L49.3017,38.1203 C47.7447,35.9653 46.6397,33.5193 46.0517,30.9233 L43.0907,17.8383 C42.6417,15.8543 40.1517,14.9673 38.7007,16.3933 L38.6667,16.4273 Z" id="Fill-32" fill="#F5E8D0"></path>
                                <path d="M5.9626,12.6988 C5.6496,12.6988 5.3356,12.7338 5.0276,12.8068 L4.9086,12.8348 C3.4256,13.1798 2.2266,14.1868 1.7816,15.4608 C1.2006,17.1248 1.7306,18.9668 3.0986,20.0438 L14.6696,29.1478 C15.8286,30.0608 16.8686,31.1188 17.7596,32.2938 L25.0676,41.9458 C26.9386,44.4168 29.1766,46.5588 31.7236,48.3178 L31.8576,48.4448 L35.3036,52.8898 C36.1636,54.0008 37.6606,54.3658 38.9366,53.7818 L53.4696,47.1218 C54.2726,46.7548 54.8686,46.0568 55.1106,45.2088 C55.3526,44.3608 55.2116,43.4528 54.7226,42.7188 L52.0776,38.7408 C50.3646,36.3698 49.1586,33.6988 48.5086,30.8248 L43.7186,9.6608 C43.3286,7.9378 42.2106,6.4758 40.6506,5.6508 L40.6306,5.6388 L34.3326,1.9818 C34.0536,1.8208 33.8106,1.9298 33.7166,1.9848 C33.6246,2.0398 33.4106,2.2028 33.4196,2.5238 L33.8126,16.5798 C33.8386,17.3838 33.9036,21.4628 32.5986,22.5298 C32.2656,22.8028 31.8666,22.8918 31.4516,22.7938 L23.5516,20.9128 C22.5516,20.6918 21.5746,20.3358 20.6556,19.8548 L7.8446,13.1608 C7.2596,12.8548 6.6126,12.6988 5.9626,12.6988 M37.6746,55.2638 C36.4066,55.2638 35.1736,54.6878 34.3506,53.6278 L30.9616,49.2568 C28.3416,47.4348 26.0356,45.2198 24.1076,42.6738 L16.7976,33.0208 C15.9696,31.9278 15.0036,30.9438 13.9256,30.0948 L2.3546,20.9908 C0.5806,19.5948 -0.1054,17.2138 0.6456,15.0628 C1.2236,13.4038 2.7536,12.0998 4.6376,11.6608 L4.7556,11.6338 C5.9836,11.3438 7.2806,11.5068 8.4016,12.0938 L21.2146,18.7878 C22.0386,19.2188 22.9156,19.5388 23.8206,19.7378 L31.7316,21.6208 C32.3986,21.1378 32.6736,18.6538 32.6086,16.6158 L32.2156,2.5578 C32.1966,1.8918 32.5276,1.2908 33.1016,0.9498 C33.6746,0.6098 34.3606,0.6058 34.9376,0.9398 L41.2256,4.5928 C43.0896,5.5828 44.4266,7.3328 44.8946,9.3948 L49.6846,30.5578 C50.2986,33.2738 51.4366,35.7968 53.0676,38.0538 L55.7266,42.0518 C56.4096,43.0798 56.6086,44.3508 56.2706,45.5388 C55.9316,46.7268 55.0936,47.7028 53.9716,48.2168 L39.4386,54.8778 C38.8686,55.1378 38.2686,55.2638 37.6746,55.2638" id="Fill-34" fill="#123456"></path>
                            </g>
                            <g id="Group-39" transform="translate(39.000000, 58.459000)">
                                <mask id="mask-12" fill="white">
                                    <use xlink:href="#path-11"></use>
                                </mask>
                                <g id="Clip-38"></g>
                                <path d="M-5.4231,2.3609 L4.3889,64.6229 L63.0829,55.3729 L53.2719,-6.8891 L-5.4231,2.3609 Z M3.3869,65.9999 L3.2929,65.4049 L-6.8011,1.3579 L54.2739,-8.2661 L54.3679,-7.6711 L64.4609,56.3759 L3.3869,65.9999 Z" id="Fill-37" fill="#123456" mask="url(#mask-12)"></path>
                            </g>
                            <path d="M79.7312,47.9507 L23.0272,47.9507 C21.4362,47.9507 20.1462,46.6617 20.1462,45.0707 L20.1462,37.4457 C20.1462,35.8547 21.4362,34.5657 23.0272,34.5657 L79.7312,34.5657 C81.3222,34.5657 82.6122,35.8547 82.6122,37.4457 L82.6122,45.0707 C82.6122,46.6617 81.3222,47.9507 79.7312,47.9507" id="Fill-40" fill="#FFFFFF"></path>
                            <g id="Group-44" transform="translate(20.000000, 34.459000)">
                                <mask id="mask-14" fill="white">
                                    <use xlink:href="#path-13"></use>
                                </mask>
                                <g id="Clip-43"></g>
                                <path d="M62.9606,18.233 L6.4906,18.233 C4.8346,18.233 3.4926,16.89 3.4926,15.235 L3.4926,6.73 C3.4926,5.074 4.8346,3.732 6.4906,3.732 L62.9606,3.732 C64.6156,3.732 65.9586,5.074 65.9586,6.73 L65.9586,15.235 C65.9586,16.89 64.6156,18.233 62.9606,18.233" id="Fill-42" fill="#97EDF4" mask="url(#mask-14)"></path>
                            </g>
                            <g id="Group-71" transform="translate(19.000000, 33.459000)" fill="#1B3453">
                                <path d="M4.1442,1.7437 C2.8422,1.7437 1.7842,2.8027 1.7842,4.1037 L1.7842,12.6087 C1.7842,13.9117 2.8422,14.9707 4.1442,14.9707 L60.6142,14.9707 C61.9162,14.9707 62.9752,13.9117 62.9752,12.6087 L62.9752,4.1037 C62.9752,2.8027 61.9162,1.7437 60.6142,1.7437 L4.1442,1.7437 Z M60.6142,16.2447 L4.1442,16.2447 C2.1392,16.2447 0.5092,14.6137 0.5092,12.6087 L0.5092,4.1037 C0.5092,2.0997 2.1392,0.4697 4.1442,0.4697 L60.6142,0.4697 C62.6192,0.4697 64.2492,2.0997 64.2492,4.1037 L64.2492,12.6087 C64.2492,14.6137 62.6192,16.2447 60.6142,16.2447 L60.6142,16.2447 Z" id="Fill-45"></path>
                                <path d="M11.0788,12.3667 L6.5468,12.3667 C6.1708,12.3667 5.8658,12.0617 5.8658,11.6867 C5.8658,11.3107 6.1708,11.0077 6.5468,11.0077 L11.0788,11.0077 C11.4538,11.0077 11.7588,11.3107 11.7588,11.6867 C11.7588,12.0617 11.4538,12.3667 11.0788,12.3667" id="Fill-47"></path>
                                <path d="M10.4372,8.7808 C10.6302,8.7808 10.7672,8.8028 10.8502,8.8478 C10.9312,8.8918 10.9872,8.9608 11.0152,9.0518 C11.0432,9.1438 11.0582,9.2638 11.0582,9.4128 C11.0582,9.5598 11.0422,9.6778 11.0122,9.7678 C10.9812,9.8568 10.9302,9.9188 10.8612,9.9518 C10.7562,10.0088 10.6112,10.0358 10.4232,10.0358 L7.6662,10.0358 C7.4972,10.0358 7.3512,9.9718 7.2292,9.8448 C7.1062,9.7188 7.0452,9.5708 7.0452,9.4018 C7.0452,9.1478 7.1342,8.9138 7.3102,8.6998 C7.4862,8.4858 7.6992,8.3018 7.9492,8.1498 C8.1972,7.9978 8.4462,7.8458 8.6962,7.6988 C8.9452,7.5508 9.1582,7.3828 9.3332,7.1938 C9.5102,7.0068 9.5982,6.8058 9.5982,6.5948 C9.5982,6.5528 9.5832,6.4928 9.5482,6.4148 C9.5152,6.3378 9.4792,6.2738 9.4392,6.2238 C9.4002,6.1758 9.3372,6.1298 9.2522,6.0878 C9.1682,6.0448 9.0502,6.0238 8.9002,6.0238 C8.7502,6.0238 8.6192,6.0798 8.5082,6.1898 C8.3982,6.3008 8.3352,6.4098 8.3222,6.5168 L8.2932,6.6788 L8.2932,6.7218 C8.2932,6.8258 8.2912,6.9028 8.2832,6.9548 C8.2762,7.0068 8.2542,7.0648 8.2162,7.1318 C8.1462,7.2438 7.9622,7.3008 7.6662,7.3008 C7.3362,7.3008 7.1422,7.2108 7.0812,7.0328 C7.0572,6.9578 7.0452,6.8378 7.0452,6.6728 C7.0452,6.1838 7.2212,5.7448 7.5712,5.3568 C7.9202,4.9688 8.3792,4.7758 8.9462,4.7758 C9.5122,4.7758 9.9712,4.9718 10.3252,5.3648 C10.6772,5.7578 10.8532,6.2048 10.8532,6.7078 C10.8532,6.9758 10.7942,7.2298 10.6772,7.4688 C10.5592,7.7098 10.4182,7.9018 10.2532,8.0478 C9.9062,8.3578 9.5962,8.5668 9.3242,8.6758 L9.1472,8.7458 L9.1472,8.7808 L10.4372,8.7808 Z" id="Fill-49"></path>
                                <path d="M20.5583,12.3667 L16.0263,12.3667 C15.6503,12.3667 15.3453,12.0617 15.3453,11.6867 C15.3453,11.3107 15.6503,11.0077 16.0263,11.0077 L20.5583,11.0077 C20.9333,11.0077 21.2383,11.3107 21.2383,11.6867 C21.2383,12.0617 20.9333,12.3667 20.5583,12.3667" id="Fill-51"></path>
                                <path d="M19.8454,5.2691 C20.1804,5.5991 20.3464,5.9681 20.3464,6.3801 C20.3464,6.7911 20.1634,7.0881 19.7964,7.2721 L19.7964,7.3221 C19.8434,7.3451 19.9134,7.3951 20.0044,7.4731 C20.0974,7.5501 20.1704,7.6271 20.2264,7.7031 C20.3824,7.9001 20.4594,8.1251 20.4594,8.3791 C20.4594,8.8821 20.2724,9.2961 19.8954,9.6231 C19.5204,9.9501 19.0464,10.1141 18.4784,10.1141 C17.9134,10.1141 17.4444,9.9491 17.0684,9.6211 C16.9274,9.4931 16.8024,9.3271 16.6944,9.1201 C16.6574,9.0441 16.6304,8.9831 16.6164,8.9361 L16.6034,8.8661 C16.5504,8.7101 16.5254,8.5831 16.5254,8.4851 C16.5254,8.2121 16.7554,8.0761 17.2164,8.0761 C17.4044,8.0761 17.5294,8.0991 17.5894,8.1461 C17.6694,8.2071 17.7404,8.3301 17.8014,8.5131 C17.8484,8.6641 17.9774,8.7771 18.1894,8.8521 C18.2794,8.8791 18.3774,8.8941 18.4864,8.8941 C18.7344,8.8941 18.9174,8.8431 19.0344,8.7431 C19.1534,8.6411 19.2114,8.5271 19.2114,8.4001 C19.2114,8.2731 19.1544,8.1621 19.0384,8.0651 C18.9234,7.9691 18.7864,7.9201 18.6304,7.9201 C18.4724,7.9201 18.3664,7.9161 18.3084,7.9071 C18.2524,7.8971 18.1924,7.8731 18.1264,7.8351 C17.9984,7.7751 17.9354,7.5941 17.9354,7.2931 C17.9354,6.9641 18.0224,6.7691 18.1964,6.7071 C18.2764,6.6841 18.3994,6.6721 18.5634,6.6721 C18.9204,6.6721 19.0994,6.5811 19.0994,6.3981 C19.0994,6.2981 19.0524,6.2051 18.9574,6.1161 C18.8634,6.0261 18.7334,5.9821 18.5664,5.9821 C18.4004,5.9821 18.2674,6.0091 18.1684,6.0661 C18.0694,6.1231 18.0084,6.1791 17.9854,6.2351 L17.9434,6.3201 C17.8344,6.5551 17.6794,6.6721 17.4774,6.6721 C17.3594,6.6721 17.2304,6.6301 17.0884,6.5451 C16.8544,6.4101 16.7374,6.2511 16.7374,6.0741 C16.7374,5.9981 16.7904,5.8381 16.8994,5.5941 C16.9174,5.5511 16.9684,5.4771 17.0534,5.3721 C17.1384,5.2651 17.2364,5.1721 17.3464,5.0931 C17.4564,5.0131 17.6134,4.9411 17.8124,4.8741 C18.0114,4.8091 18.2344,4.7761 18.4784,4.7761 C19.0564,4.7761 19.5124,4.9411 19.8454,5.2691" id="Fill-53"></path>
                                <path d="M30.03,12.3667 L25.498,12.3667 C25.123,12.3667 24.818,12.0617 24.818,11.6867 C24.818,11.3107 25.123,11.0077 25.498,11.0077 L30.03,11.0077 C30.406,11.0077 30.711,11.3107 30.711,11.6867 C30.711,12.0617 30.406,12.3667 30.03,12.3667" id="Fill-55"></path>
                                <path d="M28.5358,5.023 C28.5728,4.957 28.6378,4.911 28.7298,4.885 C28.8208,4.859 28.9408,4.846 29.0898,4.846 C29.2368,4.846 29.3548,4.862 29.4458,4.892 C29.5348,4.922 29.5978,4.972 29.6358,5.041 C29.6728,5.109 29.6948,5.17 29.7028,5.227 C29.7098,5.284 29.7138,5.366 29.7138,5.474 L29.7138,9.394 C29.7138,9.578 29.6908,9.713 29.6458,9.8 C29.6008,9.887 29.5338,9.944 29.4408,9.972 C29.3498,10.002 29.2358,10.015 29.0998,10.015 C28.9628,10.015 28.8548,10.003 28.7748,9.98 C28.6958,9.956 28.6348,9.928 28.5918,9.895 C28.5498,9.862 28.5178,9.815 28.5008,9.753 C28.4728,9.674 28.4578,9.552 28.4578,9.387 L28.4578,8.527 L26.5478,8.527 C26.2178,8.527 26.0218,8.438 25.9618,8.259 C25.9378,8.184 25.9278,8.084 25.9278,7.956 C25.9278,7.829 25.9328,7.735 25.9468,7.673 L26.5328,5.312 C26.5608,5.204 26.5858,5.122 26.6068,5.065 C26.6288,5.008 26.6708,4.955 26.7338,4.903 C26.7968,4.851 26.8788,4.826 26.9768,4.826 C27.0758,4.826 27.1838,4.842 27.3018,4.875 C27.6308,4.963 27.7958,5.115 27.7958,5.326 C27.7958,5.401 27.7788,5.5 27.7468,5.622 C27.7408,5.631 27.7388,5.638 27.7388,5.643 L27.3078,7.364 L28.4578,7.364 L28.4578,5.439 C28.4578,5.331 28.4618,5.251 28.4688,5.199 C28.4758,5.147 28.4988,5.088 28.5358,5.023" id="Fill-57"></path>
                                <path d="M39.4235,12.3667 L34.8915,12.3667 C34.5165,12.3667 34.2115,12.0617 34.2115,11.6867 C34.2115,11.3107 34.5165,11.0077 34.8915,11.0077 L39.4235,11.0077 C39.7995,11.0077 40.1045,11.3107 40.1045,11.6867 C40.1045,12.0617 39.7995,12.3667 39.4235,12.3667" id="Fill-59"></path>
                                <path d="M36.3132,4.8394 L37.3852,4.8464 L38.0482,4.8464 C38.1612,4.8464 38.2432,4.8504 38.2952,4.8574 C38.3462,4.8634 38.4082,4.8864 38.4772,4.9244 C38.6052,4.9894 38.6682,5.1774 38.6682,5.4874 C38.6682,5.7704 38.6102,5.9424 38.4932,6.0024 C38.4262,6.0404 38.3702,6.0634 38.3202,6.0694 C38.2702,6.0764 38.1932,6.0804 38.0902,6.0804 L36.8572,6.0804 C36.8472,6.1364 36.8242,6.3154 36.7862,6.6154 C36.8372,6.6074 36.9202,6.6024 37.0332,6.6024 C37.4792,6.6024 37.8812,6.7704 38.2392,7.1064 C38.5952,7.4434 38.7752,7.8534 38.7752,8.3404 C38.7752,8.8264 38.6052,9.2454 38.2662,9.5954 C37.9282,9.9454 37.5072,10.1204 37.0042,10.1204 C36.5672,10.1204 36.1722,10.0104 35.8202,9.7894 C35.7402,9.7374 35.6812,9.6934 35.6432,9.6544 L35.5862,9.6064 C35.4092,9.4504 35.3202,9.3104 35.3202,9.1834 C35.3202,9.0564 35.4072,8.9024 35.5812,8.7244 C35.7202,8.5694 35.8572,8.4914 35.9892,8.4914 C36.1212,8.4914 36.2792,8.5674 36.4602,8.7174 C36.5452,8.8164 36.6932,8.8654 36.9022,8.8654 C37.1112,8.8654 37.2662,8.8204 37.3682,8.7324 C37.4682,8.6424 37.5202,8.5194 37.5202,8.3614 C37.5202,8.2034 37.4632,8.0794 37.3532,7.9874 C37.2432,7.8964 37.1182,7.8504 36.9762,7.8504 C36.8352,7.8504 36.7222,7.8934 36.6382,7.9774 C36.5112,8.0854 36.3822,8.1394 36.2532,8.1394 C36.1242,8.1394 35.9762,8.0954 35.8092,8.0054 C35.6422,7.9164 35.5332,7.8444 35.4822,7.7904 C35.4302,7.7354 35.4032,7.6784 35.4032,7.6174 C35.4032,7.5564 35.4512,7.1784 35.5442,6.4824 C35.6392,5.7864 35.6892,5.4244 35.6932,5.3964 C35.6972,5.3674 35.7142,5.3184 35.7422,5.2484 C35.7702,5.1774 35.8042,5.1144 35.8442,5.0584 C35.8852,5.0014 35.9462,4.9504 36.0282,4.9054 C36.1102,4.8614 36.2062,4.8394 36.3132,4.8394" id="Fill-61"></path>
                                <path d="M48.8171,12.3667 L44.2851,12.3667 C43.9101,12.3667 43.6051,12.0617 43.6051,11.6867 C43.6051,11.3107 43.9101,11.0077 44.2851,11.0077 L48.8171,11.0077 C49.1931,11.0077 49.4981,11.3107 49.4981,11.6867 C49.4981,12.0617 49.1931,12.3667 48.8171,12.3667" id="Fill-63"></path>
                                <path d="M46.6052,8.9576 C46.9682,8.9576 47.1482,8.7996 47.1482,8.4846 C47.1482,8.3766 47.1082,8.2756 47.0252,8.1826 C46.9432,8.0876 46.8112,8.0406 46.6302,8.0406 C46.4502,8.0406 46.3102,8.0846 46.2142,8.1716 C46.1192,8.2586 46.0702,8.3466 46.0702,8.4356 C46.0702,8.5246 46.0762,8.5936 46.0872,8.6406 C46.0992,8.6866 46.1222,8.7386 46.1552,8.7946 C46.2202,8.9026 46.3712,8.9576 46.6052,8.9576 M48.3832,8.4426 C48.3832,8.9176 48.2122,9.3146 47.8722,9.6346 C47.5302,9.9536 47.1192,10.1136 46.6342,10.1136 C46.0232,10.1136 45.5622,9.9176 45.2512,9.5246 C44.9422,9.1326 44.7862,8.6256 44.7862,8.0056 C44.7862,7.1066 45.0422,6.3576 45.5522,5.7556 C46.0622,5.1536 46.7592,4.8536 47.6432,4.8536 C47.8212,4.8536 47.9522,4.8756 48.0332,4.9206 C48.1162,4.9656 48.1712,5.0326 48.2002,5.1216 C48.2272,5.2106 48.2422,5.3236 48.2422,5.4596 C48.2422,5.5966 48.2292,5.7046 48.2062,5.7846 C48.1822,5.8636 48.1552,5.9256 48.1232,5.9676 C48.0892,6.0096 48.0422,6.0406 47.9812,6.0596 C47.9012,6.0876 47.7642,6.1016 47.5722,6.1016 C47.3782,6.1016 47.1922,6.1346 47.0112,6.1996 C46.8302,6.2666 46.6882,6.3466 46.5852,6.4396 C46.3782,6.6326 46.2512,6.8066 46.2052,6.9616 L46.1682,7.0606 C46.3422,6.9796 46.5162,6.9406 46.6902,6.9406 C47.1562,6.9406 47.5532,7.0946 47.8852,7.4026 C48.2162,7.7106 48.3832,8.0576 48.3832,8.4426" id="Fill-65"></path>
                                <path d="M58.2116,12.3667 L53.6796,12.3667 C53.3036,12.3667 52.9986,12.0617 52.9986,11.6867 C52.9986,11.3107 53.3036,11.0077 53.6796,11.0077 L58.2116,11.0077 C58.5866,11.0077 58.8916,11.3107 58.8916,11.6867 C58.8916,12.0617 58.5866,12.3667 58.2116,12.3667" id="Fill-67"></path>
                                <path d="M57.2331,4.8609 C57.5611,4.8609 57.7541,4.9499 57.8111,5.1289 C57.8381,5.2039 57.8531,5.3359 57.8531,5.5229 C57.8531,5.7119 57.7921,5.9449 57.6701,6.2239 C57.5471,6.5049 57.4001,6.7809 57.2281,7.0529 C57.0571,7.3269 56.8841,7.6009 56.7111,7.8789 C56.2971,8.5499 56.0901,9.0909 56.0901,9.5009 C56.0901,9.6039 56.0851,9.6799 56.0771,9.7289 C56.0671,9.7789 56.0441,9.8309 56.0051,9.8839 C55.9681,9.9379 55.9061,9.9749 55.8191,9.9939 C55.7321,10.0129 55.6131,10.0219 55.4621,10.0219 C55.3111,10.0219 55.1941,10.0129 55.1071,9.9939 C55.0201,9.9749 54.9581,9.9369 54.9201,9.8819 C54.8811,9.8249 54.8601,9.7709 54.8521,9.7219 C54.8461,9.6729 54.8411,9.5939 54.8411,9.4859 C54.8411,9.1799 54.8931,8.8669 54.9981,8.5449 C55.1001,8.2229 55.2241,7.9349 55.3711,7.6809 C55.5161,7.4269 55.6631,7.1929 55.8081,6.9789 C55.9541,6.7649 56.0791,6.5829 56.1811,6.4289 C56.2861,6.2769 56.3371,6.1699 56.3371,6.1089 L54.7291,6.1089 C54.5421,6.1089 54.4051,6.0859 54.3201,6.0379 C54.2361,5.9919 54.1791,5.9229 54.1511,5.8339 C54.1231,5.7439 54.1091,5.6269 54.1091,5.4809 C54.1091,5.3359 54.1231,5.2179 54.1511,5.1289 C54.1791,5.0399 54.2241,4.9779 54.2851,4.9449 C54.3831,4.8879 54.5201,4.8609 54.6941,4.8609 L57.2331,4.8609 Z" id="Fill-69"></path>
                            </g>
                        </g>
                    </g>
                </g>
            </g>
        </g>
    </g>
</svg>