<?xml version="1.0" encoding="UTF-8"?>
<svg width="24px" height="24px" viewBox="0 0 24 24" version="1.1" xmlns="http://www.w3.org/2000/svg" xmlns:xlink="http://www.w3.org/1999/xlink">
    <title>Assets / Icon / H / Handshake / Outline</title>
    <g id="Assets-/-Icon-/-H-/-Handshake-/-Outline" stroke="none" stroke-width="1" fill="none" fill-rule="evenodd">
        <rect id="Bound" x="0" y="0" width="24" height="24"></rect>
        <g id="agreement" transform="translate(0.000000, 5.000000)" fill="#123456" fill-rule="nonzero">
            <path d="M1.49321742,0.850954592 L1.79096012,0.869748307 C1.98826689,0.882993977 2.18307956,0.897685347 2.37469402,0.9138983 L2.93923864,0.967177791 L3.48036923,1.03004207 C4.88841015,1.21086459 6.00163778,1.49878139 6.45954195,1.93264439 C6.59459477,2.05914234 6.66350568,2.24158706 6.64758406,2.4273181 C6.64044797,2.50906474 6.63170133,2.59410559 6.62138066,2.68235495 L10.073075,2.68329198 C11.3965113,1.66195841 12.4806819,1.56166014 14.081637,2.27732315 L14.081637,2.27732315 L14.6430899,2.52332739 C15.2130405,2.76793059 15.8063884,3.007802 16.4042721,3.23818356 L16.4042721,3.23818356 L16.4506026,3.25653739 C16.4531816,3.21047683 16.4609937,3.16446213 16.4741584,3.11935029 C16.522892,2.95235362 16.6411216,2.81463722 16.8000347,2.74008364 C16.8688345,2.70832444 16.9470378,2.67474003 17.0351733,2.63972348 L17.3299058,2.53077051 C17.6012282,2.43705117 17.9379324,2.33683777 18.3482809,2.23627225 C19.5492639,1.9419432 20.9502278,1.76652344 22.5416523,1.76652344 C22.844154,1.76652344 23.0949143,1.98670519 23.1420413,2.27603208 L23.15,2.37482813 L23.15,10.6248281 C23.15,10.9270866 22.929271,11.1780414 22.6402959,11.2252098 L22.5416523,11.2331758 L19.7916523,11.2331758 C19.5179432,11.2331758 19.2782022,11.0506476 19.2052097,10.786677 L19.142,10.5681508 L18.664808,10.8910971 C18.7276317,11.3768478 18.5687317,11.8586036 18.2118543,12.2210226 L18.101811,12.3235478 C17.7662394,12.6116048 17.3537486,12.7578488 16.9448038,12.7362721 L17.047,12.7361508 L17.0299601,12.7777061 C16.9153292,12.9987371 16.7455585,13.1936751 16.5317106,13.3505863 L16.3982011,13.4400744 L16.2546441,13.5198632 C15.85453,13.720881 15.4065192,13.7839065 15.0056244,13.6984332 L15.116,13.7151508 L15.0839137,13.776478 C14.9260762,14.0332363 14.7098541,14.252223 14.4568998,14.4114384 L14.3008925,14.4996191 L14.1371088,14.5723987 C13.754158,14.7216063 13.3484618,14.7245139 12.9859896,14.5834157 L13.066,14.6091508 L13.0297816,14.6387409 C12.8501859,14.7585128 12.6313445,14.8367702 12.3753033,14.87413 L12.1763294,14.8944912 L12,14.8997852 C11.4751918,14.8997852 10.7353275,14.634153 10.2905446,14.3416534 C10.2667428,14.3260174 10.2401876,14.3081522 10.2110446,14.2881828 L10.2110446,14.2881828 L9.88336117,14.0550161 L9.27547081,13.6023495 L8.33029402,12.8761185 L7.29519786,12.0591155 L6.48588814,11.4031194 L6.10936046,11.0908135 L5.95252589,10.9524738 L5.76778355,10.7769838 L5.54867917,10.5587325 L4.81686699,9.80286625 C4.80660642,9.83454203 4.79644927,9.8658072 4.78639915,9.8966547 C4.71514255,10.1158099 4.52749273,10.2729055 4.30540006,10.3087551 L4.20834766,10.3165234 L1.45834766,10.3165234 C1.15608922,10.3165234 0.905134366,10.0957944 0.857965981,9.80681929 L0.85,9.70817578 L0.85,1.45817578 C0.85,1.29036017 0.919299565,1.12976913 1.04061548,1.01579007 C1.16209576,0.900346778 1.32219815,0.842541956 1.49321742,0.850954592 Z M8.76540479,3.89914379 L6.42251555,3.89893666 C6.38245517,4.10044299 6.33783286,4.31110351 6.28885734,4.53042843 L6.13717975,5.18056421 L6.05278646,5.52253789 C5.9861737,5.78802752 5.91529029,6.06064256 5.84058991,6.33927281 L5.61172351,7.17058127 L5.38779211,7.949238 L5.227,8.48315079 L5.34272951,8.59589935 L6.43397513,9.7222728 L6.72865901,10.0120248 L6.84096749,10.1143178 L7.66056352,10.7911127 L8.036899,11.0939895 L8.80963019,11.7050001 L9.90029571,12.5462685 L10.61058,13.0770677 L10.8947491,13.280004 L10.9598761,13.3239727 C11.1785608,13.4687945 11.5688297,13.6185481 11.8425286,13.6669917 L11.7574911,13.5854526 L11.3878694,13.216611 L10.9958661,12.8152883 L10.1805959,11.9563099 C9.95176643,11.7104223 9.96455181,11.3260859 10.2099152,11.0964954 L10.2099152,11.0964954 L10.2960407,11.0290353 C10.5381738,10.8724271 10.865657,10.9071249 11.0701011,11.1256145 C11.1251234,11.184501 11.1829558,11.2461507 11.2431234,11.3100229 L11.2431234,11.3100229 L11.8348634,11.9302791 L12.3899374,12.4966187 L12.8423911,12.9414035 L13.0969814,13.1800906 L13.3094699,13.3674683 C13.3146043,13.3717997 13.3196491,13.3761976 13.3246041,13.3806599 L13.3276988,13.3842026 L13.3938142,13.4325759 C13.4842719,13.4832555 13.5843129,13.4798521 13.6983512,13.4366375 C13.8489862,13.3781921 13.9784329,13.2606027 14.0588993,13.120443 L13.9299388,13.0018666 L13.6486866,12.7312046 L13.3304011,12.4146196 L12.6598923,11.7253504 L12.0106243,11.0372414 C11.7831716,10.7902879 11.7997237,10.4047903 12.047394,10.1766801 C12.2957165,9.9502683 12.678883,9.96601462 12.906997,10.2135223 C12.9547453,10.2654767 13.0041199,10.3188963 13.0548176,10.3734556 L13.0548176,10.3734556 L13.5386422,10.8864735 L14.0448258,11.4083025 L14.370459,11.7350423 L14.6696631,12.0266359 L14.9278914,12.2674587 L15.1305973,12.4418856 C15.1382329,12.4479931 15.145682,12.4542483 15.1529437,12.4606439 L15.1645891,12.4719759 C15.2389177,12.5409535 15.4884583,12.5431921 15.7095703,12.4312617 C15.8107973,12.3806482 15.8921118,12.3158204 15.938285,12.2394831 L15.9176157,12.2217002 L15.4669113,11.7863441 L15.0329871,11.3531824 L14.3544933,10.663148 L13.3950818,9.67093079 C13.1623561,9.42843919 13.1702661,9.0427387 13.4134573,8.81049024 L13.4134573,8.81049024 L13.4985743,8.74207001 C13.7390207,8.58206937 14.0668924,8.61264221 14.2733982,8.82887828 L14.2733982,8.82887828 L14.8616534,9.43871089 L15.7315756,10.3282043 L16.2835134,10.8816698 L16.7115629,11.2978161 L16.9167447,11.4850105 L16.9401456,11.5065186 C17.0157302,11.5456849 17.1818156,11.5089438 17.3110424,11.3979828 C17.4604385,11.2707367 17.5161715,11.1102856 17.4097145,10.8887676 C17.3189807,10.7000413 17.1399883,10.4682206 16.8684833,10.1847093 L16.8684833,10.1847093 L16.6130093,9.92884022 C16.5666212,9.88401871 16.5183203,9.83809218 16.4680942,9.79103555 L16.4680942,9.79103555 L16.1435356,9.49493411 L15.7721764,9.17050741 L15.1260843,8.62812599 L13.6516836,7.42974574 L12.9389023,6.84001549 L12.6155732,6.56133488 L12.315,6.291 L11.9222093,6.46270147 C11.7187566,6.54729384 11.5793074,6.58618667 11.3618912,6.61967724 L11.418,6.60915079 L11.3322377,6.7205251 C10.686971,7.48494106 9.86140978,7.80212576 8.96289283,7.63074602 L8.7822485,7.58994364 L8.5998495,7.53603939 C8.13756862,7.38367176 7.82032621,7.05061262 7.71342734,6.60219098 C7.52920123,5.82304405 8.03080338,4.73854415 8.76540479,3.89914379 Z M21.933,2.993 L21.6815685,3.00239651 C20.216721,3.06732324 18.9864941,3.29069292 18.0092104,3.59305132 L17.907,3.626 L18.0316523,3.90883124 L18.2670033,4.4754626 L18.5251027,5.12829303 L18.7978278,5.84397433 L19.077056,6.59915831 L19.4903237,7.75492759 L19.7502737,8.50671987 L19.9882978,9.21629611 L20.1962734,9.86030811 L20.244,10.016 L21.933,10.016 L21.933,2.993 Z M13.4171505,3.31679561 C12.0521227,2.74806355 11.3531526,3.01385517 9.87126497,4.4966405 C9.2783783,5.08956787 8.81748768,5.98368189 8.89833356,6.32168916 C8.90547605,6.35215634 8.91025687,6.35742295 8.98238297,6.38145804 L8.98238297,6.38145804 L9.1018788,6.41749688 C9.65265296,6.56411513 10.1096908,6.40334931 10.5774024,5.70412315 C10.6783897,5.55329796 10.8413852,5.45581545 11.0224941,5.43758493 L11.0224941,5.43758493 L11.1963208,5.41563636 L11.3232308,5.3881164 L11.4407027,5.34708242 L11.740214,5.21555891 L11.9876771,5.11180841 L12.2518309,5.01210587 C12.4733707,4.93252136 12.7223338,4.98758821 12.8880113,5.15445742 L12.8880113,5.15445742 L13.0380657,5.30123156 L13.2875331,5.53223756 L13.5859578,5.79357068 L13.9554959,6.10470847 L15.989268,7.76358425 L16.4455967,8.14647793 L16.8535028,8.49977513 C16.9175531,8.55633614 16.9796617,8.61177235 17.0398665,8.66613796 L17.0398665,8.66613796 L17.3785531,8.97991793 C17.4840359,9.08051788 17.5822069,9.17726896 17.6733698,9.27060475 L17.6733698,9.27060475 L17.9261376,9.54079975 C18.0009607,9.62478969 18.0695264,9.70599672 18.1321081,9.78481176 L18.757,9.36115079 L18.5553328,8.76414279 L18.2571826,7.91237649 L17.8517565,6.79327717 L17.5837507,6.07686012 L17.2413398,5.19270722 L17.0820998,4.79679847 L17.078,4.78715079 L16.7376442,4.66474207 C15.9650265,4.3798121 15.1552778,4.06305101 14.3653944,3.72870487 L13.5842437,3.38902469 Z M2.066,2.113 L2.066,9.099 L3.763,9.099 L3.99077031,8.37033063 L4.24015492,7.54098929 L4.47557232,6.72497751 C4.51345917,6.59055517 4.55062497,6.45703986 4.58700018,6.32460737 L4.79520797,5.54441292 C5.0586853,4.52522959 5.26266326,3.59785127 5.37153631,2.85229322 L5.392,2.691 C5.24250958,2.63110965 5.04210304,2.57146072 4.80250999,2.51385247 L4.41519672,2.42919553 C4.20831134,2.38785722 3.98268249,2.34817284 3.7432586,2.31090145 L3.24748362,2.23980092 L2.72371905,2.17648448 L2.18076209,2.12230159 L2.066,2.113 Z" id="Combined-Shape"></path>
        </g>
    </g>
</svg>