<?xml version="1.0" encoding="UTF-8"?>
<svg width="24px" height="24px" viewBox="0 0 24 24" version="1.1" xmlns="http://www.w3.org/2000/svg" xmlns:xlink="http://www.w3.org/1999/xlink">
    <title>Assets / Icon / C / Chat / Active</title>
    <g id="Assets-/-Icon-/-C-/-Chat-/-Active" stroke="none" stroke-width="1" fill="none" fill-rule="evenodd">
        <rect id="Bound" x="0" y="0" width="24" height="24"></rect>
        <path d="M8,7 L21,7 L21,7 L21,16 C21,17.1045695 20.1045695,18 19,18 L6,18 L6,18 L6,9 C6,7.8954305 6.8954305,7 8,7 Z" id="Rectangle" fill="#B2F7E2"></path>
        <path d="M19,3.1 L5,3.1 C3.39837423,3.1 2.1,4.39837423 2.1,6 L2.1,19.9193752 C2.1,20.350811 2.24683343,20.769401 2.51634926,21.1062957 L2.6242072,21.2299541 C3.29668361,21.9374938 4.41064911,22.0240431 5.18692059,21.4030259 L8.315,18.9 L19,18.9 C20.6016258,18.9 21.9,17.6016258 21.9,16 L21.9,6 C21.9,4.39837423 20.6016258,3.1 19,3.1 Z M5,4.9 L19,4.9 C19.6075132,4.9 20.1,5.39248678 20.1,6 L20.1,16 C20.1,16.6075132 19.6075132,17.1 19,17.1 L7.68429705,17.1 L4.0624695,19.997462 C4.01934331,20.031963 3.95641407,20.0249709 3.92191312,19.9818447 C3.90772808,19.9641134 3.9,19.9420823 3.9,19.9193752 L3.9,6 C3.9,5.39248678 4.39248678,4.9 5,4.9 Z" id="Rectangle" fill="#123456" fill-rule="nonzero"></path>
    </g>
</svg>