<?xml version="1.0" encoding="UTF-8"?>
<svg width="24px" height="24px" viewBox="0 0 24 24" version="1.1" xmlns="http://www.w3.org/2000/svg" xmlns:xlink="http://www.w3.org/1999/xlink">
    <title>Assets / Icon / S / Setting / Active</title>
    <g id="Assets-/-Icon-/-S-/-Setting-/-Active" stroke="none" stroke-width="1" fill="none" fill-rule="evenodd">
        <rect id="Bound" x="0" y="0" width="24" height="24"></rect>
        <path d="M12.4616929,22 C13.5978738,22 13.6010519,20.4658143 14.6154882,19.8571429 C15.7713961,19.1635872 17.9065456,19.6726603 18.9230787,18.7857143 C20.0498996,17.8025399 19.9999764,15.3920879 19.9999764,13.9642857 C19.9999764,10.1180169 16.8660437,7 13.0001418,7 C9.13423985,7 6.00030714,10.1180169 6.00030714,13.9642857 C6.00030714,17.8105545 8.59579103,22 12.4616929,22 Z" id="Oval" fill="#B2F7E2"></path>
        <circle id="Oval" fill="#FFFFFF" cx="12" cy="12" r="2"></circle>
        <path d="M13,1 C13.3935105,1 13.7504387,1.23078461 13.9119215,1.58963532 L13.9119215,1.58963532 L14.737,3.425 L14.9413468,3.49190347 C15.2821922,3.6097191 15.6151845,3.74791172 15.9387154,3.90560316 L15.9387154,3.90560316 L16.126,4.001 L18.0093068,3.28682788 C18.3363569,3.16277439 18.7010519,3.21946728 18.9734842,3.42902387 L18.9734842,3.42902387 L19.0710678,3.51471863 L20.4852814,4.92893219 C20.7635353,5.20718615 20.8527323,5.62276184 20.7131721,5.9906932 L20.7131721,5.9906932 L19.998,7.874 L20.0945422,8.06158286 C20.2522943,8.38526849 20.3905291,8.71842353 20.5083676,9.05943747 L20.5083676,9.05943747 L20.573,9.261 L22.4103647,10.0880785 C22.7293431,10.2316188 22.9471335,10.529585 22.9915933,10.8704026 L22.9915933,10.8704026 L23,11 L23,13 C23,13.3935105 22.7692154,13.7504387 22.4103647,13.9119215 L22.4103647,13.9119215 L20.574,14.737 L20.5080965,14.9413468 C20.3902809,15.2821922 20.2520883,15.6151845 20.0943968,15.9387154 L20.0943968,15.9387154 L19.998,16.126 L20.7131721,18.0093068 C20.8372256,18.3363569 20.7805327,18.7010519 20.5709761,18.9734842 L20.5709761,18.9734842 L20.4852814,19.0710678 L19.0710678,20.4852814 C18.7928139,20.7635353 18.3772382,20.8527323 18.0093068,20.7131721 L18.0093068,20.7131721 L16.126,19.998 L15.9387154,20.0943968 C15.6151845,20.2520883 15.2821922,20.3902809 14.9413468,20.5080965 L14.9413468,20.5080965 L14.737,20.574 L13.9119215,22.4103647 C13.7683812,22.7293431 13.470415,22.9471335 13.1295974,22.9915933 L13.1295974,22.9915933 L13,23 L11,23 C10.6064895,23 10.2495613,22.7692154 10.0880785,22.4103647 L10.0880785,22.4103647 L9.261,20.573 L9.05943747,20.5083676 C8.71842353,20.3905291 8.38526849,20.2522943 8.06158286,20.0945422 L8.06158286,20.0945422 L7.874,19.998 L5.9906932,20.7131721 C5.6636431,20.8372256 5.2989481,20.7805327 5.02651577,20.5709761 L5.02651577,20.5709761 L4.92893219,20.4852814 L3.51471863,19.0710678 C3.23646466,18.7928139 3.14726771,18.3772382 3.28682788,18.0093068 L3.28682788,18.0093068 L4.001,16.126 L3.90560316,15.9387154 C3.74791172,15.6151845 3.6097191,15.2821922 3.49190347,14.9413468 L3.49190347,14.9413468 L3.425,14.737 L1.58963532,13.9119215 C1.27065691,13.7683812 1.05286653,13.470415 1.00840667,13.1295974 L1.00840667,13.1295974 L1,13 L1,11 C1,10.6064895 1.23078461,10.2495613 1.58963532,10.0880785 L1.58963532,10.0880785 L3.426,9.261 L3.49163242,9.05943747 C3.60947085,8.71842353 3.74770574,8.38526849 3.90545779,8.06158286 L3.90545779,8.06158286 L4.001,7.874 L3.28682788,5.9906932 C3.16277439,5.6636431 3.21946728,5.2989481 3.42902387,5.02651577 L3.42902387,5.02651577 L3.51471863,4.92893219 L4.92893219,3.51471863 C5.20718615,3.23646466 5.62276184,3.14726771 5.9906932,3.28682788 L5.9906932,3.28682788 L7.874,4.001 L8.06158286,3.90545779 C8.38526849,3.74770574 8.71842353,3.60947085 9.05943747,3.49163242 L9.05943747,3.49163242 L9.261,3.426 L10.0880785,1.58963532 C10.2316188,1.27065691 10.529585,1.05286653 10.8704026,1.00840667 L10.8704026,1.00840667 L11,1 Z M12.354,3 L11.645,3 L10.962,4.518 L10.950633,4.56447242 C10.857949,4.84594619 10.6428387,5.07665208 10.3592652,5.18540173 L10.3592652,5.18540173 L10.2498214,5.22032711 C9.6143807,5.3838215 9.00750765,5.63605415 8.44476946,5.96857957 C8.15882536,6.13754568 7.81605063,6.15001221 7.52623697,6.01991722 L7.52623697,6.01991722 L7.45,5.98 L5.885,5.386 L5.386,5.885 L5.98,7.45 L6.01991722,7.52623697 C6.13375033,7.77982393 6.13843479,8.0739592 6.02463317,8.33509093 L6.02463317,8.33509093 L5.96857957,8.44476946 C5.63605415,9.00750765 5.3838215,9.6143807 5.22032711,10.2498214 C5.13353531,10.5871482 4.88113042,10.8463635 4.56447242,10.950633 L4.56447242,10.950633 L4.518,10.962 L3,11.645 L3,12.354 L4.519,13.037 L4.61595126,13.0688054 C4.8723125,13.169005 5.08022036,13.3725687 5.18307086,13.6350734 L5.18307086,13.6350734 L5.22055254,13.7510545 C5.38405349,14.3861778 5.63620748,14.9927518 5.96857957,15.5552305 C6.13754568,15.8411746 6.15001221,16.1839494 6.01991722,16.473763 L6.01991722,16.473763 L5.98,16.549 L5.386,18.114 L5.885,18.613 L7.45,18.019 L7.52623697,17.9800828 C7.77982393,17.8662497 8.0739592,17.8615652 8.33509093,17.9753668 L8.33509093,17.9753668 L8.44476946,18.0314204 C9.00750765,18.3639459 9.6143807,18.6161785 10.2498214,18.7796729 C10.5871482,18.8664647 10.8463635,19.1188696 10.950633,19.4355276 L10.950633,19.4355276 L10.962,19.481 L11.646,21 L12.353,21 L13.037,19.48 L13.0688054,19.3840487 C13.169005,19.1276875 13.3725687,18.9197796 13.6350734,18.8169291 L13.6350734,18.8169291 L13.7510545,18.7794475 C14.3861778,18.6159465 14.9927518,18.3637925 15.5552305,18.0314204 C15.8411746,17.8624543 16.1839494,17.8499878 16.473763,17.9800828 L16.473763,17.9800828 L16.549,18.019 L18.114,18.613 L18.613,18.114 L18.019,16.549 L17.9800828,16.473763 C17.8662497,16.2201761 17.8615652,15.9260408 17.9753668,15.6649091 L17.9753668,15.6649091 L18.0314204,15.5552305 C18.3637925,14.9927518 18.6159465,14.3861778 18.7794475,13.7510545 C18.8613662,13.4328392 19.0910645,13.1833193 19.3840487,13.0688054 L19.3840487,13.0688054 L19.48,13.037 L21,12.353 L21,11.646 L19.481,10.962 L19.4355276,10.950633 C19.1540538,10.857949 18.9233479,10.6428387 18.8145983,10.3592652 L18.8145983,10.3592652 L18.7796729,10.2498214 C18.6161785,9.6143807 18.3639459,9.00750765 18.0314204,8.44476946 C17.8624543,8.15882536 17.8499878,7.81605063 17.9800828,7.52623697 L17.9800828,7.52623697 L18.019,7.45 L18.613,5.885 L18.114,5.386 L16.549,5.98 L16.473763,6.01991722 C16.2201761,6.13375033 15.9260408,6.13843479 15.6649091,6.02463317 L15.6649091,6.02463317 L15.5552305,5.96857957 C14.9927518,5.63620748 14.3861778,5.38405349 13.7510545,5.22055254 C13.4328392,5.13863377 13.1833193,4.90893554 13.0688054,4.61595126 L13.0688054,4.61595126 L13.037,4.519 L12.354,3 Z M12,8 C14.209139,8 16,9.790861 16,12 C16,14.209139 14.209139,16 12,16 C9.790861,16 8,14.209139 8,12 C8,9.790861 9.790861,8 12,8 Z M12,10 C10.8954305,10 10,10.8954305 10,12 C10,13.1045695 10.8954305,14 12,14 C13.1045695,14 14,13.1045695 14,12 C14,10.8954305 13.1045695,10 12,10 Z" id="Combined-Shape" fill="#123456" fill-rule="nonzero"></path>
    </g>
</svg>