<svg xmlns="http://www.w3.org/2000/svg" xmlns:xlink="http://www.w3.org/1999/xlink" width="36" height="36" viewBox="0 0 36 36">
    <defs>
        <path id="3z2tyveyka" d="M0 0.695L32.305 0.695 32.305 33 0 33z"/>
    </defs>
    <g fill="none" fill-rule="evenodd">
        <g>
            <g>
                <g>
                    <g>
                        <g>
                            <g transform="translate(-32 -394) translate(16 224) translate(0 160) translate(16 10) translate(1.5 .75) translate(0 .13)">
                                <mask id="b4eirbp32b" fill="#fff">
                                    <use xlink:href="#3z2tyveyka"/>
                                </mask>
                                <path fill="#C1F5E5" d="M32.306 16.847c0 8.92-7.232 16.153-16.153 16.153C7.23 33 0 25.767 0 16.847 0 7.926 7.231.694 16.153.694c8.92 0 16.153 7.232 16.153 16.153" mask="url(#b4eirbp32b)"/>
                            </g>
                            <path fill="#1B3453" d="M16.02 16.593c1.392 0 2.598-.499 3.583-1.485.985-.984 1.484-2.19 1.484-3.582s-.5-2.597-1.484-3.582c-.986-.985-2.191-1.484-3.583-1.484-1.392 0-2.597.499-3.582 1.484-.985.985-1.485 2.19-1.485 3.582 0 1.393.5 2.598 1.485 3.582.986.986 2.19 1.485 3.582 1.485M24.886 22.636c-.029-.41-.086-.857-.17-1.33-.086-.475-.195-.925-.328-1.336-.136-.425-.32-.845-.55-1.246-.236-.418-.515-.78-.827-1.08-.328-.313-.728-.564-1.19-.748-.462-.183-1.942-.187-2.344.074-.245.161-.535.348-.858.554-.275.176-.648.34-1.11.488-.449.146-.906.22-1.356.22-.452 0-.909-.074-1.358-.22-.46-.148-.834-.312-1.11-.488-.32-.204-.607-.39-.858-.554-.4-.261-1.88-.257-2.343-.074-.463.183-.863.435-1.19.748-.312.3-.591.662-.828 1.08-.228.401-.413.821-.55 1.246-.131.412-.24.86-.326 1.337-.084.47-.143.918-.17 1.329-.028.402-.043.82-.043 1.242 0 1.098.35 1.988 1.038 2.643.68.646 1.58.976 2.673.976h10.13c1.093 0 1.993-.329 2.672-.976.69-.655 1.038-1.544 1.038-2.643 0-.424-.015-.842-.042-1.242" transform="translate(-32 -394) translate(16 224) translate(0 160) translate(16 10) translate(1.5 .75)"/>
                        </g>
                    </g>
                </g>
            </g>
        </g>
    </g>
</svg>
