<?xml version="1.0" encoding="UTF-8"?>
<svg width="120px" height="120px" viewBox="0 0 120 120" version="1.1" xmlns="http://www.w3.org/2000/svg" xmlns:xlink="http://www.w3.org/1999/xlink">
    <title>74F57DF3-6F8B-4A4E-B5D2-3E09CC08990E</title>
    <defs>
        <path d="M7.60819906,12.6964055 C15.1709681,1.93185794 32.1831867,-3.67469318 51.3327261,2.67078869 C64.2544625,6.95230783 75.536338,15.4587992 88.264745,20.3722684 C92.524868,22.0167141 96.9760279,23.05137 101.193359,24.8226642 C105.409925,26.5939584 109.773208,29.0438157 112.019038,33.2947689 C118.720613,45.9811477 113.593182,62.215464 111.604106,65.4462802 C106.763995,73.3047744 100.213721,79.9207645 92.6371977,84.602697 C85.599398,88.950697 77.7561868,91.6122231 69.7975893,93.2635462 C59.9721792,95.3015279 49.7410066,95.8226765 40.0095866,93.3109233 C30.2774025,90.7984059 21.0579614,85.0543082 15.1793737,76.2887708 C12.1984338,71.8429599 10.1421126,66.7636707 8.16908342,61.7019568 C5.5213119,54.9071561 1.19165146,43.5893657 0.798115432,36.2268033 C0.378598386,28.3606677 0.852369913,22.3124392 7.60819906,12.6964055" id="path-1"></path>
    </defs>
    <g id="Illustrations" stroke="none" stroke-width="1" fill="none" fill-rule="evenodd">
        <g id="Group-116" transform="translate(2.000000, 6.000000)">
            <path d="M7.60819906,24.4990621 C15.1709681,13.7345146 32.1831867,8.12796343 51.3327261,14.4734453 C64.2544625,18.7549644 75.536338,27.2614558 88.264745,32.174925 C92.524868,33.8193707 96.9760279,34.8540266 101.193359,36.6253208 C105.409925,38.396615 109.773208,40.8464723 112.019038,45.0974255 C118.720613,57.7838044 113.593182,74.0181206 111.604106,77.2489368 C106.763995,85.107431 100.213721,91.7234211 92.6371977,96.4053536 C85.599398,100.753354 77.7561868,103.41488 69.7975893,105.066203 C59.9721792,107.104184 49.7410066,107.625333 40.0095866,105.11358 C30.2774025,102.601063 21.0579614,96.8569648 15.1793737,88.0914274 C12.1984338,83.6456166 10.1421126,78.5663273 8.16908342,73.5046134 C5.5213119,66.7098128 1.19165146,55.3920223 0.798115432,48.0294599 C0.378598386,40.1633243 0.852369913,34.1150958 7.60819906,24.4990621" id="Fill-1" fill="#CCF9EA"></path>
            <g id="Group-115" transform="translate(52.320000, 0.221040)">
                <polygon id="Fill-4" fill="#57DDED" points="37.353048 52.679232 27.818088 52.679232 27.818088 52.139232 36.813048 52.139232 36.813048 38.007792 37.353048 38.007792"></polygon>
                <path d="M26.90988,8.750088 C26.90988,10.185048 25.74708,11.348568 24.31212,11.349288 C23.67204,11.349288 23.05428,11.113848 22.57764,10.686168 L22.57764,15.392088 C22.57764,16.030008 22.05996,16.548408 21.4206,16.548408 L17.24316,16.548408 C17.03508,16.548408 16.90548,16.324488 17.01276,16.145208 C17.73204,14.941368 17.38284,13.299768 16.03572,12.535848 C15.18612,12.053448 14.09172,12.111768 13.29468,12.677688 C12.14988,13.490568 11.88708,14.958648 12.50484,16.073928 C12.62364,16.287768 12.47964,16.548408 12.23484,16.548408 L8.01924,16.548408 C7.44612,16.548408 6.981,16.084008 6.981,15.510168 L6.981,4.265208 C6.981,2.434968 8.4642,0.951768 10.29372,0.951768 L21.3954,0.951768 C22.04844,0.951768 22.57764,1.480968 22.57764,2.134728 L22.57764,6.814008 C23.64684,5.855688 25.28988,5.946408 26.24676,7.015608 C26.67372,7.492248 26.90988,8.110008 26.90988,8.750088" id="Fill-5" fill="#064F8A"></path>
                <path d="M17.4012,16.188408 L21.42096,16.188408 C21.86016,16.188408 22.21728,15.831288 22.21728,15.392088 L22.21728,10.686168 C22.21728,10.544328 22.30152,10.415448 22.43112,10.357128 C22.55928,10.300968 22.71192,10.323288 22.81776,10.418328 C23.22888,10.786968 23.75952,10.989288 24.31176,10.989288 C25.54656,10.988568 26.55024,9.984168 26.55024,8.750088 C26.55024,8.197128 26.3472,7.666488 25.97856,7.256088 C25.57968,6.810408 25.03176,6.546888 24.43416,6.513768 C23.84232,6.484968 23.26344,6.682968 22.81776,7.081848 C22.71192,7.176168 22.56072,7.199928 22.4304,7.142328 C22.3008,7.084008 22.21728,6.955848 22.21728,6.813288 L22.21728,2.134008 C22.21728,1.681128 21.84864,1.311768 21.39504,1.311768 L10.29408,1.311768 C8.66616,1.311768 7.34136,2.636568 7.34136,4.264488 L7.34136,15.510168 C7.34136,15.883848 7.6452,16.188408 8.0196,16.188408 L12.15744,16.188408 C11.47056,14.878008 11.86224,13.253688 13.08624,12.384648 C13.99272,11.740248 15.24984,11.675448 16.21392,12.222648 C16.92888,12.628728 17.43504,13.279608 17.64096,14.056488 C17.82888,14.770728 17.74104,15.538968 17.4012,16.188408 M21.42096,16.908408 L17.2428,16.908408 C17.01672,16.908408 16.8072,16.786728 16.69632,16.590888 C16.58544,16.395048 16.58832,16.153848 16.70352,15.960888 C17.01024,15.448968 17.09736,14.821848 16.944,14.240808 C16.7892,13.652568 16.40328,13.157928 15.85824,12.848328 C15.13248,12.437208 14.1864,12.485448 13.50312,12.970728 C12.55992,13.641048 12.26616,14.900328 12.81984,15.899688 C12.93936,16.114968 12.9372,16.369128 12.81336,16.579368 C12.69168,16.785288 12.47568,16.908408 12.2352,16.908408 L8.0196,16.908408 C7.24848,16.908408 6.62136,16.281288 6.62136,15.510168 L6.62136,4.264488 C6.62136,2.239128 8.26872,0.591768 10.29408,0.591768 L21.39504,0.591768 C22.24608,0.591768 22.93728,1.283688 22.93728,2.134008 L22.93728,6.127128 C23.40528,5.881608 23.9352,5.763528 24.47376,5.795208 C25.26288,5.838408 25.98792,6.186168 26.51496,6.775128 C27.00168,7.318728 27.27024,8.019288 27.27024,8.750088 C27.27024,10.381608 25.94328,11.708568 24.31176,11.709288 C23.82864,11.709288 23.35776,11.591928 22.93728,11.371608 L22.93728,15.392088 C22.93728,16.228008 22.2576,16.908408 21.42096,16.908408" id="Fill-7" fill="#064F8A"></path>
                <path d="M57.977016,8.701632 C59.743176,8.701632 61.175256,10.132992 61.175256,11.899152 L61.175256,36.708192 C61.175256,38.467872 59.748936,39.894192 57.989976,39.894192 L17.652624,39.894264 C15.849024,39.894264 14.385984,38.431944 14.385984,36.627624 L14.385984,25.350984 C14.385984,24.769224 14.857584,24.297624 15.439344,24.297624 L20.247504,24.297624 C19.163184,23.085864 19.423104,21.138264 20.927184,20.285784 C21.777504,19.802664 22.872624,19.860984 23.669664,20.427624 C24.985104,21.362904 25.135584,23.164344 24.121104,24.297624 L29.982336,24.297552 L29.982336,19.467072 C29.982336,19.053072 30.397056,18.778032 30.784416,18.926352 C31.929936,19.366272 32.292096,18.755712 32.974656,17.552592 C33.457056,16.702272 33.398736,15.607152 32.832096,14.810112 C32.121456,13.810752 30.910416,13.483872 29.872896,13.829472 C29.427216,13.977792 28.962096,13.688352 28.962096,13.218192 L28.962096,9.556992 C28.962096,8.971632 29.436576,8.497152 30.021936,8.497152 L45.578976,8.701632 L57.977016,8.701632 Z" id="Combined-Shape" fill="#57E3F3"></path>
                <path d="M57.007752,7.680672 C58.773912,7.680672 60.205992,9.112752 60.205992,10.878912 L60.205992,35.687952 C60.205992,37.447632 58.779672,38.873232 57.020712,38.873232 L16.68336,38.873304 C14.87976,38.873304 13.41672,37.410984 13.41672,35.607384 L13.41672,24.330024 C13.41672,23.748264 13.88832,23.277384 14.47008,23.277384 L19.27824,23.277384 C18.19392,22.065624 18.45384,20.118024 19.95792,19.264824 C20.80824,18.782424 21.90336,18.840744 22.7004,19.407384 C24.01584,20.342664 24.16632,22.144104 23.15184,23.277384 L29.013072,23.277312 L29.013072,18.446832 C29.013072,18.032112 29.427792,17.757792 29.815152,17.906112 C30.960672,18.346032 32.343072,17.938512 33.025632,16.736112 C33.508032,15.885072 33.449712,14.790672 32.883792,13.993632 C32.172432,12.994272 30.962112,12.667392 29.923872,13.012992 C29.478192,13.161312 29.013072,12.871872 29.013072,12.402432 L29.013072,8.741232 C29.013072,8.155152 29.487552,7.680672 30.072912,7.680672 L57.007752,7.680672 Z" id="Combined-Shape" fill="#94EAF1"></path>
                <path d="M26.457072,8.29728 C26.457072,9.73224 25.294272,10.89576 23.859312,10.89648 C23.219232,10.89648 22.601472,10.66104 22.124832,10.23336 L22.124832,14.93928 C22.124832,15.5772 21.607152,16.0956 20.967792,16.0956 L16.790352,16.0956 C16.582272,16.0956 16.452672,15.87168 16.559952,15.6924 C17.279232,14.48856 16.930032,12.84696 15.582912,12.08304 C14.733312,11.60064 13.638912,11.65896 12.841872,12.22488 C11.697072,13.03776 11.434272,14.50584 12.052032,15.62112 C12.170832,15.83496 12.026832,16.0956 11.782032,16.0956 L7.566432,16.0956 C6.993312,16.0956 6.528192,15.6312 6.528192,15.05736 L6.528192,3.8124 C6.528192,1.98216 8.011392,0.49896 9.840912,0.49896 L20.942592,0.49896 C21.595632,0.49896 22.124832,1.02816 22.124832,1.68192 L22.124832,6.3612 C23.194032,5.40288 24.837072,5.4936 25.793952,6.5628 C26.220912,7.03944 26.457072,7.6572 26.457072,8.29728" id="Fill-33" fill="#57DDED"></path>
                <line x1="0.642552" y1="35.7318" x2="2.410152" y2="35.7318" id="Fill-89" fill="#FFFFFF"></line>
                <path d="M62.571336,32.875704 C62.571336,38.511144 58.002936,43.080264 52.367496,43.080264 C46.731336,43.080264 42.162936,38.511144 42.162936,32.875704 C42.162936,27.240264 46.731336,22.671144 52.367496,22.671144 C58.002936,22.671144 62.571336,27.240264 62.571336,32.875704" id="Fill-105" fill="#FFFFFF"></path>
                <path d="M52.367208,22.851216 C46.839768,22.851216 42.342648,27.348336 42.342648,32.875776 C42.342648,38.403216 46.839768,42.900336 52.367208,42.900336 C57.894648,42.900336 62.391048,38.403216 62.391048,32.875776 C62.391048,27.348336 57.894648,22.851216 52.367208,22.851216 M52.367208,43.260336 C46.641048,43.260336 41.982648,38.601936 41.982648,32.875776 C41.982648,27.149616 46.641048,22.491216 52.367208,22.491216 C58.093368,22.491216 62.751048,27.149616 62.751048,32.875776 C62.751048,38.601936 58.093368,43.260336 52.367208,43.260336" id="Fill-107" fill="#7CEFC8"></path>
                <path d="M52.513512,30.628512 C51.154152,30.542832 50.033832,31.663152 50.119512,33.021792 C50.190792,34.142832 51.100152,35.052912 52.220472,35.122752 C53.579832,35.209152 54.700872,34.088832 54.614472,32.729472 C54.543912,31.608432 53.634552,30.699792 52.513512,30.628512 L52.513512,30.628512 Z M56.679432,34.173792 C56.591592,34.464672 56.476392,34.744032 56.335272,35.006832 L57.115032,36.500112 C57.181992,36.630432 57.163992,36.788112 57.068952,36.898992 C56.860872,37.142352 56.634072,37.368432 56.391432,37.576512 C56.279832,37.672272 56.122152,37.690992 55.992552,37.622592 L54.498552,36.843552 C54.235752,36.985392 53.956392,37.099872 53.665512,37.186992 L53.159352,38.798352 C53.116152,38.935872 52.994472,39.035232 52.850472,39.046752 C52.691352,39.061152 52.530072,39.069072 52.367352,39.069072 C52.204632,39.069072 52.043352,39.061152 51.884232,39.047472 C51.740232,39.035232 51.618552,38.936592 51.575352,38.799072 L51.069192,37.187712 C50.778312,37.100592 50.498952,36.985392 50.236152,36.844272 L48.742152,37.623312 C48.612552,37.691712 48.454872,37.672272 48.343272,37.577232 C48.100632,37.369152 47.874552,37.143072 47.666472,36.899712 C47.570712,36.788832 47.552712,36.631152 47.620392,36.500832 L48.399432,35.007552 C48.257592,34.744752 48.143112,34.465392 48.055992,34.174512 L46.444632,33.668352 C46.307112,33.624432 46.208472,33.502752 46.195512,33.359472 C46.181832,33.199632 46.173912,33.039072 46.173912,32.875632 C46.173912,32.713632 46.181832,32.552352 46.195512,32.392512 C46.207752,32.249232 46.306392,32.127552 46.443912,32.083632 L48.055272,31.577472 C48.142392,31.287312 48.257592,31.007232 48.399432,30.744432 L47.619672,29.251152 C47.551992,29.120832 47.569992,28.963152 47.665752,28.852272 C47.873832,28.608912 48.099912,28.382832 48.343272,28.174752 C48.454152,28.079712 48.612552,28.061712 48.742152,28.128672 L50.235432,28.907712 C50.498232,28.766592 50.777592,28.651392 51.069192,28.564272 L51.574632,26.953632 C51.617832,26.815392 51.739512,26.716752 51.883512,26.704512 C52.043352,26.690832 52.203912,26.682912 52.367352,26.682912 C52.530072,26.682912 52.690632,26.690832 52.849752,26.704512 C52.993752,26.716032 53.115432,26.815392 53.158632,26.953632 L53.664792,28.563552 C53.955672,28.651392 54.235032,28.766592 54.497832,28.907712 L55.991832,28.127952 C56.121432,28.060992 56.279112,28.078992 56.390712,28.174032 C56.634072,28.382112 56.860152,28.608192 57.068232,28.851552 C57.163272,28.963152 57.181992,29.120832 57.114312,29.250432 L56.334552,30.744432 C56.476392,31.007232 56.591592,31.286592 56.678712,31.577472 L58.289352,32.083632 C58.427592,32.126832 58.526232,32.248512 58.538472,32.391792 C58.552152,32.551632 58.560072,32.712912 58.560072,32.875632 C58.560072,33.039072 58.552152,33.198912 58.538472,33.358752 C58.526952,33.502032 58.427592,33.624432 58.290072,33.667632 L56.679432,34.173792 Z" id="Fill-109" fill="#7CF2CB"></path>
            </g>
            <g id="Group" transform="translate(0.000000, 11.802657)">
                <mask id="mask-2" fill="white">
                    <use xlink:href="#path-1"></use>
                </mask>
                <g id="Fill-1"></g>
                <path d="M77.312448,44.5309354 C77.137488,44.6857354 76.869648,44.6691754 76.714848,44.4942154 C76.560048,44.3192554 76.575888,44.0514154 76.750848,43.8958954 L77.678208,43.0758154 L76.480848,42.7273354 C76.261968,42.6582154 76.135968,42.4263754 76.200768,42.2053354 C76.264848,41.9828554 76.495248,41.8539754 76.717008,41.9137354 L77.914368,42.2614954 L77.568048,41.0641354 L77.568768,41.0634154 C77.509008,40.8409354 77.637888,40.6112554 77.860368,40.5471754 C78.082128,40.4830954 78.313968,40.6083754 78.382368,40.8279754 L78.383088,40.8279754 L78.943248,42.7662154 C78.943248,42.7676554 78.943248,42.7690954 78.943968,42.7698154 C78.946128,42.7762954 78.947568,42.7834954 78.949008,42.7906954 C78.950448,42.7942954 78.950448,42.7986154 78.951168,42.8029354 C78.951888,42.8058154 78.952608,42.8094154 78.953328,42.8130154 C78.954048,42.8180554 78.955488,42.8238154 78.956208,42.8295754 C78.956208,42.8346154 78.956928,42.8389354 78.957648,42.8439754 C78.957648,42.8475754 78.958368,42.8518954 78.958368,42.8562154 C78.959088,42.8612554 78.959088,42.8648554 78.959088,42.8691754 C78.959808,42.8742154 78.959088,42.8792554 78.959088,42.8850154 C78.959088,42.8893354 78.959088,42.8943754 78.959088,42.8979754 C78.959088,42.9022954 78.959088,42.9058954 78.958368,42.9102154 C78.957648,42.9152554 78.957648,42.9202954 78.957648,42.9253354 C78.956208,42.9296554 78.956208,42.9346954 78.955488,42.9390154 C78.954768,42.9440554 78.954048,42.9476554 78.953328,42.9512554 C78.952608,42.9555754 78.951888,42.9606154 78.951168,42.9663754 C78.950448,42.9699754 78.949008,42.9750154 78.947568,42.9793354 C78.947568,42.9836554 78.946128,42.9879754 78.944688,42.9930154 C78.943968,42.9951754 78.943248,42.9980554 78.942528,43.0009354 C78.941808,43.0030954 78.941088,43.0052554 78.940368,43.0074154 C78.938928,43.0110154 78.938208,43.0146154 78.937488,43.0174954 C78.935328,43.0225354 78.933888,43.0275754 78.931728,43.0326154 C78.929568,43.0376554 78.928128,43.0434154 78.925968,43.0470154 C78.924528,43.0498954 78.923808,43.0527754 78.923088,43.0556554 C78.920208,43.0599754 78.918048,43.0642954 78.915888,43.0693354 L78.907968,43.0858954 C78.906528,43.0880554 78.905088,43.0894954 78.903648,43.0923754 C78.902208,43.0959754 78.900048,43.1002954 78.897168,43.1038954 C78.893568,43.1096554 78.889968,43.1154154 78.886368,43.1211754 C78.884208,43.1233354 78.882768,43.1254954 78.881328,43.1276554 C78.879168,43.1305354 78.877728,43.1334154 78.874848,43.1362954 C78.870528,43.1420554 78.866208,43.1478154 78.861888,43.1542954 C78.859008,43.1564554 78.857568,43.1586154 78.855408,43.1614954 C78.853248,43.1636554 78.851088,43.1658154 78.848928,43.1672554 C78.843888,43.1730154 78.840288,43.1780554 78.834528,43.1838154 C78.831648,43.1859754 78.828048,43.1895754 78.825168,43.1924554 C78.824448,43.1931754 78.823728,43.1938954 78.823008,43.1946154 L78.823728,43.1946154 L77.312448,44.5309354 Z" id="Fill-19" fill="#123456" mask="url(#mask-2)"></path>
                <path d="M80.34012,43.8482314 L80.34012,43.8482314 L79.14276,43.5004714 L79.48908,44.6985514 L79.48836,44.6985514 C79.5474,44.9203114 79.41852,45.1507114 79.19748,45.2147914 C78.975,45.2788714 78.74316,45.1528714 78.67404,44.9332714 L78.67404,44.9339914 L78.39036,43.9533514 L79.14276,43.2873514 L79.14276,43.2873514 C79.14276,43.2866314 79.1442,43.2859114 79.14492,43.2851914 C79.1478,43.2823114 79.1514,43.2787114 79.15428,43.2765514 C79.15932,43.2707914 79.16436,43.2657514 79.16868,43.2607114 C79.17084,43.2585514 79.17228,43.2563914 79.17444,43.2535114 C79.1766,43.2513514 79.17948,43.2491914 79.18092,43.2463114 C79.18596,43.2405514 79.19028,43.2347914 79.19388,43.2297514 C79.19676,43.2261514 79.19964,43.2232714 79.20108,43.2196714 C79.20252,43.2182314 79.20396,43.2160714 79.20612,43.2139114 C79.20972,43.2081514 79.2126,43.2023914 79.2162,43.1966314 C79.21908,43.1930314 79.22124,43.1887114 79.2234,43.1851114 C79.22484,43.1822314 79.22556,43.1807914 79.227,43.1786314 C79.22988,43.1735914 79.23276,43.1678314 79.23564,43.1620714 C79.2378,43.1570314 79.23996,43.1527114 79.24212,43.1476714 C79.24356,43.1455114 79.24428,43.1433514 79.245,43.1404714 C79.24716,43.1354314 79.24932,43.1303914 79.25148,43.1253514 C79.25292,43.1195914 79.25508,43.1152714 79.25724,43.1109514 L79.26012,43.1001514 C79.26012,43.0979914 79.26156,43.0958314 79.26228,43.0936714 C79.263,43.0907914 79.263,43.0879114 79.26372,43.0857514 C79.26516,43.0814314 79.2666,43.0763914 79.26732,43.0720714 C79.26876,43.0677514 79.26948,43.0634314 79.2702,43.0591114 C79.27164,43.0533514 79.27236,43.0490314 79.2738,43.0439914 C79.2738,43.0403914 79.27452,43.0367914 79.27524,43.0317514 C79.27524,43.0274314 79.27596,43.0231114 79.27668,43.0180714 L79.27812,43.0029514 C79.27812,42.9986314 79.27812,42.9950314 79.27812,42.9914314 C79.27884,42.9871114 79.27884,42.9820714 79.27812,42.9770314 C79.27884,42.9719914 79.27884,42.9669514 79.27884,42.9626314 C79.27812,42.9583114 79.27812,42.9532714 79.2774,42.9489514 C79.2774,42.9446314 79.2774,42.9403114 79.27668,42.9359914 C79.27596,42.9323914 79.27596,42.9273514 79.27524,42.9223114 C79.27524,42.9165514 79.2738,42.9107914 79.27308,42.9057514 L79.27092,42.8956714 C79.2702,42.8913514 79.26948,42.8870314 79.26876,42.8834314 C79.26732,42.8762314 79.26516,42.8697514 79.26372,42.8625514 C79.263,42.8618314 79.263,42.8603914 79.263,42.8589514 L78.9858,41.9020714 L79.74468,41.2310314 C79.92036,41.0755114 80.18748,41.0927914 80.34228,41.2677514 C80.4978,41.4427114 80.48124,41.7098314 80.30628,41.8653514 L79.37892,42.6868714 L80.57628,43.0339114 L80.57628,43.0346314 C80.79588,43.1037514 80.92116,43.3348714 80.85708,43.5566314 C80.79228,43.7783914 80.5626,43.9072714 80.34012,43.8482314" id="Fill-21" fill="#123456" mask="url(#mask-2)"></path>
                <path d="M12.743784,114.233847 C8.665704,114.233847 5.607864,113.214327 5.383224,109.692807 C5.260104,107.762487 5.367384,105.368487 9.173304,102.649047 C17.355384,96.8048074 27.004824,84.2465674 29.342664,79.5701674 C31.680504,74.8952074 29.342664,63.2067274 29.342664,63.2067274 L32.849064,44.5040074 L50.198904,40.2768874 L49.445064,45.9288874 L54.542664,47.9679274 L55.510344,45.5789674 C55.830024,45.0987274 56.521224,45.0339274 56.904984,45.4637674 C57.481704,46.1088874 58.424184,46.8418474 59.733144,46.8418474 C61.872264,46.8418474 64.012104,47.8210474 64.359144,50.6751274 C64.419624,51.1704874 64.253304,51.6730474 63.899784,52.0272874 L62.070984,53.8560874 L66.746664,64.3752874 L74.099304,57.0219274 C74.508984,56.6129674 75.192264,56.7058474 75.480984,57.2076874 C76.311144,58.6512874 77.957784,61.2137674 79.603704,62.0374474 C81.941544,63.2067274 81.941544,71.3888074 81.941544,71.3888074 L68.379624,74.1010474 C65.922984,74.5920874 63.391464,73.7331274 61.741944,71.8474474 L56.226744,65.5445674 L51.551064,81.9087274 L59.733144,116.974887" id="Fill-35" fill="#FFFFFF" mask="url(#mask-2)"></path>
                <path d="M50.599368,46.8421354 C50.599368,46.8421354 45.031608,58.6652554 47.494008,67.1288554 C49.283208,67.9597354 50.204088,69.9678154 49.665528,71.8664554 L46.386648,83.4368554 L49.785768,109.820535 C50.284728,113.693415 47.572488,117.263895 43.701768,117.779415 C39.357288,118.359735 34.112088,118.113495 31.607208,114.390375 C30.087288,112.132455 27.554328,110.765175 24.852888,110.428935 C19.833768,109.804695 13.108248,107.584215 12.972888,100.178295 C12.972888,100.178295 28.136808,84.9819754 29.971368,77.7128554 C31.805928,70.4437354 29.342808,62.0370154 29.342808,62.0370154 L44.538408,62.0370154 C44.538408,62.0370154 44.705448,50.1087754 48.296088,45.9241354 L50.599368,46.8421354 Z" id="Fill-37" fill="#7CF2CB" mask="url(#mask-2)"></path>
                <path d="M85.038768,38.8707994 L86.051088,40.1221594 C86.284368,40.3539994 86.343408,40.7096794 86.195808,41.0041594 L80.322768,53.2751194 L78.435648,52.6861594" id="Fill-39" fill="#FFFFFF" mask="url(#mask-2)"></path>
                <path d="M80.322552,53.6350474 C80.287272,53.6350474 80.250552,53.6300074 80.215272,53.6192074 L78.328152,53.0302474 C78.138072,52.9712074 78.032232,52.7696074 78.091272,52.5795274 C78.150312,52.3894474 78.352632,52.2821674 78.542712,52.3426474 L80.132472,52.8387274 L85.871592,40.8485674 C85.952232,40.6880074 85.921272,40.5008074 85.797432,40.3784074 L84.759192,39.0975274 C84.633912,38.9427274 84.657672,38.7159274 84.812472,38.5906474 C84.967992,38.4653674 85.194072,38.4898474 85.318632,38.6446474 L86.330952,39.8960074 C86.649912,40.2084874 86.735592,40.7297674 86.518152,41.1653674 L80.647272,53.4305674 C80.586072,53.5587274 80.457912,53.6350474 80.322552,53.6350474" id="Fill-41" fill="#1B3453" mask="url(#mask-2)"></path>
                <path d="M77.666184,52.8861754 L71.585064,50.8046554 C70.880184,50.5634554 70.549704,49.7563354 70.883064,49.0903354 L76.630824,37.5940954 C76.999464,36.8560954 77.840424,36.4867354 78.633144,36.7128154 L84.295944,38.3306554 C84.900744,38.5034554 85.208184,39.1766554 84.942504,39.7468954 L80.576424,48.9672154" id="Fill-43" fill="#FFFFFF" mask="url(#mask-2)"></path>
                <path d="M77.666184,53.2461754 C77.627304,53.2461754 77.588424,53.2396954 77.549544,53.2267354 L71.468424,51.1452154 C71.034264,50.9968954 70.685064,50.6685754 70.511544,50.2437754 C70.337304,49.8189754 70.355304,49.3394554 70.560504,48.9290554 L76.308984,37.4328154 C76.753944,36.5414554 77.773464,36.0907354 78.731784,36.3672154 L84.395304,37.9850554 C84.784824,38.0959354 85.105224,38.3716954 85.272984,38.7410554 C85.441464,39.1089754 85.440024,39.5316154 85.268664,39.8988154 L80.901144,49.1212954 C80.816184,49.3012954 80.602344,49.3768954 80.422344,49.2926554 C80.242344,49.2076954 80.165304,48.9924154 80.250984,48.8131354 L84.617064,39.5928154 C84.698424,39.4185754 84.699144,39.2162554 84.618504,39.0398554 C84.537144,38.8620154 84.384504,38.7302554 84.197304,38.6769754 L78.534504,37.0591354 C77.910264,36.8820154 77.244264,37.1728954 76.952664,37.7546554 L71.204904,49.2508954 C71.092584,49.4762554 71.082504,49.7383354 71.177544,49.9708954 C71.273304,50.2027354 71.464104,50.3827354 71.700984,50.4648154 L77.782824,52.5456154 C77.970744,52.6096954 78.070824,52.8141754 78.006744,53.0028154 C77.955624,53.1518554 77.815944,53.2461754 77.666184,53.2461754" id="Fill-45" fill="#1B3453" mask="url(#mask-2)"></path>
                <path d="M77.238648,38.5522714 L72.685368,47.9216314 C72.452808,48.4011514 72.686088,48.9771514 73.187928,49.1585914 L77.413608,50.6885914 C77.850648,50.8469914 78.335208,50.6461114 78.532488,50.2249114 L83.061288,40.5574714 C83.295288,40.0585114 83.028888,39.4688314 82.501128,39.3147514 L78.299208,38.0828314 C77.878728,37.9597114 77.430168,38.1577114 77.238648,38.5522714" id="Fill-47" fill="#BDEEF0" mask="url(#mask-2)"></path>
                <path d="M50.382432,17.6202874 C50.382432,17.6202874 55.058112,18.7895674 56.226672,23.4645274 C56.226672,23.4645274 59.733072,15.8858074 50.382432,12.6616474 L50.382432,17.6202874 Z" id="Fill-49" fill="#123456" mask="url(#mask-2)"></path>
                <path d="M50.742432,17.3502874 C51.702192,17.6570074 54.877392,18.9018874 56.233872,22.3125274 C56.516112,21.2253274 56.763072,19.4001274 55.988352,17.5864474 C55.167552,15.6669274 53.403552,14.1844474 50.742432,13.1750074 L50.742432,17.3502874 Z M56.226672,23.8245274 C56.215872,23.8245274 56.204352,23.8238074 56.192832,23.8230874 C56.040912,23.8086874 55.914912,23.6999674 55.877472,23.5516474 C54.773712,19.1373274 50.339952,17.9810074 50.295312,17.9694874 C50.134752,17.9298874 50.022432,17.7851674 50.022432,17.6202874 L50.022432,12.6616474 C50.022432,12.5450074 50.078592,12.4362874 50.173632,12.3686074 C50.267952,12.3002074 50.389632,12.2829274 50.499792,12.3218074 C53.632512,13.4018074 55.703232,15.0808474 56.653632,17.3114074 C57.988512,20.4455674 56.612592,23.4875674 56.553552,23.6157274 C56.494512,23.7438874 56.366352,23.8245274 56.226672,23.8245274 L56.226672,23.8245274 Z" id="Fill-51" fill="#1B3453" mask="url(#mask-2)"></path>
                <path d="M58.172688,29.8904554 L56.581488,27.5778154 C56.708208,24.0022954 56.799648,21.1042954 56.226528,19.9580554 C55.057968,17.6202154 48.044448,16.4516554 48.044448,16.4516554 L44.538048,23.4644554 L41.030928,26.9715754 L41.030928,30.4779754 L42.200208,36.3229354 L44.538048,40.9978954 C44.538048,40.9978954 52.720128,40.9978954 55.057968,37.4914954 C55.892448,36.2394154 56.289168,34.1953354 56.581488,31.6558954 L57.932928,30.7940554 C58.268448,30.6255754 58.380768,30.2029354 58.172688,29.8904554" id="Fill-53" fill="#FFFFFF" mask="url(#mask-2)"></path>
                <path d="M42.543648,36.2045674 L44.758368,40.6340074 C46.063008,40.6008874 52.761888,40.2855274 54.758448,37.2917674 C55.623888,35.9936074 55.984608,33.6939274 56.224368,31.6145674 C56.236608,31.5072874 56.296368,31.4108074 56.387808,31.3524874 L57.739248,30.4899274 C57.864528,30.4258474 57.897648,30.3466474 57.908448,30.3041674 C57.919968,30.2609674 57.930768,30.1774474 57.873888,30.0924874 L56.284848,27.7820074 C56.240928,27.7186474 56.219328,27.6423274 56.222208,27.5652874 C56.337408,24.2936074 56.446848,21.2033674 55.904688,20.1190474 C55.051488,18.4119274 50.317488,17.2289674 48.246768,16.8524074 L44.859888,23.6254474 C44.842608,23.6600074 44.820288,23.6916874 44.792928,23.7190474 L41.390928,27.1210474 L41.390928,30.4784074 L42.543648,36.2045674 Z M44.538048,41.3576074 C44.401968,41.3576074 44.277408,41.2805674 44.216208,41.1588874 L41.878368,36.4839274 C41.863968,36.4551274 41.853888,36.4248874 41.847408,36.3932074 L40.678128,30.5489674 L40.670928,26.9720074 C40.670928,26.8762474 40.709088,26.7848074 40.776768,26.7171274 L44.242128,23.2517674 L47.722608,16.2908074 C47.793168,16.1496874 47.946528,16.0690474 48.103488,16.0964074 C48.397248,16.1460874 55.312128,17.3232874 56.549088,19.7972074 C57.166128,21.0312874 57.068208,24.0099274 56.945088,27.4716874 L58.469328,29.6864074 C58.470048,29.6878474 58.471488,29.6892874 58.472208,29.6907274 C58.628448,29.9254474 58.676688,30.2163274 58.604688,30.4884874 C58.532688,30.7606474 58.346208,30.9896074 58.093488,31.1163274 L56.919168,31.8672874 C56.658528,34.0841674 56.281248,36.3053674 55.357488,37.6906474 C52.940448,41.3165674 44.880048,41.3576074 44.538048,41.3576074 L44.538048,41.3576074 Z" id="Fill-55" fill="#1B3453" mask="url(#mask-2)"></path>
                <path d="M59.732928,117.334599 C59.569488,117.334599 59.421168,117.222999 59.383008,117.055959 L51.200208,81.9897994 C51.186528,81.9307594 51.187968,81.8681194 51.204528,81.8090794 L55.880208,65.4456394 C55.916928,65.3189194 56.019168,65.2217194 56.148048,65.1929194 C56.279808,65.1648394 56.411568,65.2087594 56.497968,65.3073994 L62.013168,71.6102794 C63.572688,73.3937194 65.984688,74.2137994 68.308848,73.7479594 L81.579888,71.0940394 C81.546768,68.6892394 81.123408,63.1999594 79.442928,62.3597194 C77.714208,61.4942794 76.022928,58.8727594 75.169008,57.3866794 C75.087648,57.2448394 74.947968,57.1512394 74.786688,57.1296394 C74.627568,57.1094794 74.468448,57.1627594 74.353968,57.2765194 L67.001328,64.6298794 C66.917088,64.7133994 66.796848,64.7508394 66.680928,64.7292394 C66.564288,64.7076394 66.465648,64.6298794 66.417408,64.5211594 L61.742448,54.0019594 C61.681968,53.8658794 61.711488,53.7067594 61.816608,53.6009194 L63.645408,51.7721194 C63.916128,51.5006794 64.049328,51.1075594 64.002528,50.7187594 C63.615888,47.5442794 60.887808,47.2022794 59.732928,47.2022794 C58.280688,47.2022794 57.247488,46.3872394 56.636928,45.7039594 C56.495088,45.5448394 56.317248,45.5289994 56.223648,45.5383594 C56.065248,45.5491594 55.922688,45.6269194 55.828368,45.7529194 L54.875808,48.1029994 C54.801648,48.2873194 54.592128,48.3765994 54.408528,48.3017194 L49.311648,46.2626794 C49.158288,46.2014794 49.066848,46.0445194 49.088448,45.8810794 L49.772448,40.7517994 L33.160608,44.7989194 L29.708928,63.2049994 C29.917728,64.2713194 31.961808,75.1375594 29.664288,79.7311594 C27.335088,84.3902794 17.624448,97.0550794 9.381888,102.942519 C5.791968,105.507159 5.615568,107.672199 5.743008,109.669479 C5.925888,112.537959 8.149968,113.873559 12.743568,113.873559 C12.943008,113.873559 13.103568,114.034839 13.103568,114.233559 C13.103568,114.432999 12.943008,114.593559 12.743568,114.593559 C7.758288,114.593559 5.233248,112.998759 5.024448,109.716279 C4.890528,107.612439 5.072688,105.136359 8.963568,102.355719 C17.116848,96.5323594 26.718768,84.0137194 29.020608,79.4093194 C31.276368,74.8992394 29.012688,63.3929194 28.989648,63.2769994 C28.980288,63.2316394 28.980288,63.1855594 28.988928,63.1401994 L32.495328,44.4381994 C32.521968,44.2992394 32.627088,44.1876394 32.763888,44.1545194 L50.113728,39.9273994 C50.228208,39.8993194 50.350608,39.9302794 50.439168,40.0094794 C50.527728,40.0886794 50.570928,40.2067594 50.555088,40.3248394 L49.838688,45.6989194 L54.343728,47.5003594 L55.176768,45.4440394 C55.186128,45.4217194 55.196928,45.4001194 55.210608,45.3792394 C55.428768,45.0516394 55.780128,44.8471594 56.173248,44.8197994 C56.557008,44.7945994 56.920608,44.9407594 57.174048,45.2244394 C57.686688,45.7982794 58.547088,46.4822794 59.732928,46.4822794 C62.537328,46.4822794 64.399968,48.0331594 64.716768,50.6309194 C64.790928,51.2371594 64.580688,51.8549194 64.155168,52.2811594 L62.500608,53.9349994 L66.862368,63.7500394 L73.844928,56.7674794 C74.119248,56.4924394 74.495808,56.3664394 74.881728,56.4161194 C75.266928,56.4672394 75.598848,56.6897194 75.793248,57.0281194 C76.606848,58.4436394 78.204528,60.9348394 79.764768,61.7153194 C82.230768,62.9486794 82.302048,70.5288394 82.302048,71.3892394 C82.302048,71.5605994 82.180368,71.7081994 82.012608,71.7420394 L68.449968,74.4535594 C65.874528,74.9712394 63.200448,74.0618794 61.471008,72.0840394 L56.391408,66.2793994 L51.923088,81.9177994 L60.083568,116.893239 C60.128928,117.086199 60.008688,117.279879 59.815008,117.325239 C59.787648,117.331719 59.760288,117.334599 59.732928,117.334599" id="Fill-57" fill="#123456" mask="url(#mask-2)"></path>
                <path d="M76.097448,57.3622714 C76.097448,57.3622714 76.097448,52.6865914 78.435288,52.6865914 L78.435288,50.3487514 C78.435288,50.3487514 76.503528,48.4177114 77.907528,47.1879514 C78.173208,46.9553914 78.586488,46.9935514 78.836328,47.2426714 L81.395208,50.0384314 L83.324088,48.2528314 C83.665368,48.1282714 84.010248,48.4277914 83.935368,48.7834714 L83.110968,52.6865914 L79.603848,62.0372314" id="Fill-59" fill="#FFFFFF" mask="url(#mask-2)"></path>
                <path d="M79.603992,62.3973754 C79.561512,62.3973754 79.519032,62.3901754 79.477272,62.3743354 C79.291512,62.3044954 79.197192,62.0971354 79.267032,61.9106554 L82.773432,52.5600154 L83.582712,48.7087354 C83.593512,48.6597754 83.570472,48.6280954 83.549592,48.6100954 C83.536632,48.5985754 83.518632,48.5870554 83.494872,48.5841754 L81.640152,50.3028154 C81.569592,50.3676154 81.476712,50.4000154 81.380952,50.3985754 C81.284472,50.3942554 81.194472,50.3524954 81.130392,50.2819354 L78.570792,47.4861754 C78.460632,47.3760154 78.259752,47.3572954 78.145272,47.4588154 C77.893992,47.6791354 77.766552,47.9318554 77.757192,48.2320954 C77.732712,48.9708154 78.421752,49.8261754 78.689592,50.0940154 C78.757272,50.1616954 78.795432,50.2531354 78.795432,50.3488954 L78.795432,52.6867354 C78.795432,52.8854554 78.634152,53.0467354 78.435432,53.0467354 C76.511592,53.0467354 76.457592,57.3192154 76.457592,57.3624154 C76.457592,57.5611354 76.296312,57.7224154 76.097592,57.7224154 C75.898872,57.7224154 75.737592,57.5611354 75.737592,57.3624154 C75.737592,57.1658554 75.765672,52.7724154 78.075432,52.3576954 L78.075432,50.4907354 C77.784552,50.1681754 77.004792,49.2055354 77.037192,48.2090554 C77.053752,47.7057754 77.266872,47.2708954 77.670072,46.9173754 C78.073992,46.5645754 78.697512,46.5948154 79.090632,46.9886554 L81.416952,49.5280954 L83.079432,47.9880154 C83.113992,47.9556154 83.155752,47.9304154 83.200392,47.9145754 C83.481912,47.8108954 83.795112,47.8706554 84.021192,48.0657754 C84.247272,48.2616154 84.348792,48.5647354 84.287592,48.8570554 L83.463192,52.7608954 L79.940952,62.1640954 C79.886952,62.3080954 79.749432,62.3973754 79.603992,62.3973754" id="Fill-61" fill="#1B3453" mask="url(#mask-2)"></path>
                <path d="M62.07156,54.2157994 C61.96572,54.2157994 61.86132,54.1697194 61.79004,54.0811594 C57.11364,48.2354794 47.86092,45.6420394 46.87596,45.6420394 C46.67652,45.6420394 46.51596,45.4807594 46.51596,45.2820394 C46.51596,45.0825994 46.67652,44.9220394 46.87596,44.9220394 C48.31236,44.9220394 57.72348,47.8452394 62.35236,53.6311594 C62.4762,53.7859594 62.451,54.0127594 62.2962,54.1373194 C62.22996,54.1898794 62.15004,54.2157994 62.07156,54.2157994" id="Fill-63" fill="#1B3453" mask="url(#mask-2)"></path>
                <path d="M81.01692,53.4866554 C80.82396,53.4866554 80.66484,53.3340154 80.65764,53.1403354 L80.53164,49.7361754 C80.52444,49.5374554 80.67924,49.3704154 80.87796,49.3624954 C81.07596,49.3560154 81.24372,49.5108154 81.25092,49.7095354 L81.37692,53.1129754 C81.38412,53.3124154 81.22932,53.4787354 81.0306,53.4866554 L81.01692,53.4866554 Z" id="Fill-65" fill="#1B3453" mask="url(#mask-2)"></path>
                <path d="M69.084144,70.5795994 C68.885424,70.5795994 68.724144,70.4183194 68.724144,70.2195994 C68.724144,69.4247194 67.348944,66.3855994 66.424464,64.5359194 C66.335904,64.3580794 66.407904,64.1420794 66.585744,64.0535194 C66.763584,63.9642394 66.980304,64.0369594 67.068864,64.2140794 C67.312224,64.7007994 69.444144,69.0013594 69.444144,70.2195994 C69.444144,70.4183194 69.282864,70.5795994 69.084144,70.5795994" id="Fill-67" fill="#1B3453" mask="url(#mask-2)"></path>
                <path d="M53.951832,67.4907994 C53.203032,67.4907994 52.336152,67.3460794 51.516072,66.8658394 C50.097672,66.0349594 49.202712,64.4279194 48.857112,62.0900794 C47.639592,53.8568794 52.481592,47.4956794 52.531272,47.4330394 C52.652952,47.2767994 52.879032,47.2479994 53.035992,47.3689594 C53.192952,47.4906394 53.221752,47.7167194 53.100072,47.8736794 C53.053272,47.9348794 48.398472,54.0642394 49.569912,61.9849594 C49.881672,64.0931194 50.657112,65.5259194 51.874632,66.2415994 C53.600472,67.2560794 55.680552,66.4885594 55.701432,66.4813594 C55.886472,66.4129594 56.094552,66.5043994 56.165832,66.6901594 C56.235672,66.8759194 56.142792,67.0839994 55.957752,67.1538394 C55.899432,67.1761594 55.054152,67.4907994 53.951832,67.4907994" id="Fill-69" fill="#1B3453" mask="url(#mask-2)"></path>
                <path d="M44.538048,62.3973754 L42.200208,62.3973754 C42.001488,62.3973754 41.840208,62.2360954 41.840208,62.0373754 C41.840208,61.8386554 42.001488,61.6773754 42.200208,61.6773754 L44.179488,61.6773754 C44.261568,51.4022554 47.842848,45.9525754 47.997648,45.7228954 C48.108528,45.5572954 48.332448,45.5148154 48.496608,45.6249754 C48.662208,45.7351354 48.706128,45.9590554 48.595248,46.1239354 C48.558528,46.1800954 44.898048,51.7665754 44.898048,62.0373754 C44.898048,62.2360954 44.736768,62.3973754 44.538048,62.3973754" id="Fill-71" fill="#1B3453" mask="url(#mask-2)"></path>
                <path d="M56.811096,45.0892234 L59.763096,37.2160234 C60.113736,36.2814634 60.868296,35.5549834 61.815816,35.2381834 C61.815816,35.2381834 64.659816,32.7037834 64.894536,32.5468234 L68.976216,30.0707434 C69.432696,29.7661834 70.046136,30.0592234 70.098696,30.6057034 C70.169256,31.3429834 68.557896,33.0508234 66.662856,34.3151434 L64.408536,38.6603434 C64.408536,38.6603434 65.577816,39.8289034 66.746376,38.6603434 C67.525416,37.8813034 68.304456,37.1022634 69.083496,37.0151434 C69.720696,36.9438634 70.166376,37.6458634 69.841656,38.1988234 C68.887656,39.8245834 66.644856,43.0055434 65.218536,44.7515434 C64.736856,45.3412234 64.013256,45.6738634 63.252216,45.6738634 C62.496216,45.6738634 61.770456,45.9741034 61.236216,46.5090634 L60.902136,46.8424234" id="Fill-73" fill="#FCFCFC" mask="url(#mask-2)"></path>
                <path d="M60.90228,47.2021354 C60.81012,47.2021354 60.71796,47.1668554 60.6474,47.0970154 C60.507,46.9558954 60.507,46.7283754 60.6474,46.5872554 L60.98148,46.2546154 C61.58772,45.6476554 62.39412,45.3135754 63.25236,45.3135754 C63.91476,45.3135754 64.52964,45.0262954 64.93932,44.5237354 C66.35052,42.7971754 68.58252,39.6342154 69.53148,38.0163754 C69.615,37.8745354 69.60996,37.7060554 69.51852,37.5642154 C69.42924,37.4266954 69.28308,37.3518154 69.12324,37.3734154 C68.4702,37.4461354 67.72428,38.1920554 67.00212,38.9134954 C65.87532,40.0417354 64.64628,39.4081354 64.15452,38.9149354 C64.04292,38.8040554 64.017,38.6341354 64.089,38.4944554 L66.34332,34.1492554 C66.3714,34.0952554 66.41244,34.0491754 66.46284,34.0160554 C68.49756,32.6588554 69.78276,31.0849354 69.74028,30.6399754 C69.72228,30.4527754 69.5898,30.3699754 69.53364,30.3433354 C69.4782,30.3181354 69.33132,30.2670154 69.17652,30.3699754 L65.08116,32.8546954 C64.91412,32.9720554 63.13428,34.5459754 62.055,35.5071754 C62.019,35.5395754 61.9758,35.5647754 61.92972,35.5798954 C61.08156,35.8635754 60.41412,36.5065354 60.1002,37.3431754 L57.1482,45.2156554 C57.07836,45.4014154 56.87028,45.4978954 56.68452,45.4258954 C56.49876,45.3567754 56.40444,45.1486954 56.47428,44.9629354 L59.42628,37.0897354 C59.80788,36.0723754 60.60852,35.2861354 61.6302,34.9218154 C62.21124,34.4041354 64.45908,32.4046954 64.69452,32.2470154 L68.78988,29.7622954 C69.09732,29.5570954 69.49548,29.5290154 69.84252,29.6931754 C70.19028,29.8587754 70.41996,30.1863754 70.4574,30.5708554 C70.55172,31.5615754 68.73012,33.3529354 66.93948,34.5625354 L64.863,38.5671754 C65.1834,38.7867754 65.8314,39.0675754 66.49236,38.4058954 C67.30236,37.5951754 68.13972,36.7585354 69.04332,36.6570154 C69.47676,36.6073354 69.88572,36.8067754 70.1226,37.1725354 C70.36164,37.5418954 70.37316,38.0048554 70.15212,38.3806954 C69.18876,40.0230154 66.92652,43.2298954 65.49732,44.9794954 C64.95012,45.6498154 64.13148,46.0335754 63.25236,46.0335754 C62.58636,46.0335754 61.96068,46.2927754 61.49052,46.7636554 L61.15716,47.0970154 C61.0866,47.1668554 60.99444,47.2021354 60.90228,47.2021354" id="Fill-75" fill="#1B3453" mask="url(#mask-2)"></path>
                <path d="M58.87548,68.9315194 C58.77468,68.9315194 58.6746,68.8890394 58.60332,68.8069594 L52.23132,61.4564794 C52.101,61.3067194 52.11756,61.0791994 52.26732,60.9488794 C52.4178,60.8185594 52.6446,60.8351194 52.77564,60.9855994 L59.14764,68.3360794 C59.27796,68.4858394 59.2614,68.7133594 59.11164,68.8436794 C59.04324,68.9027194 58.959,68.9315194 58.87548,68.9315194" id="Fill-77" fill="#1B3453" mask="url(#mask-2)"></path>
                <path d="M52.719984,17.6202874 C52.719984,17.6202874 53.889264,26.9716474 48.044304,29.3087674 C48.044304,29.3087674 47.632464,42.7079674 46.445904,46.1229274 C44.948304,50.4328474 43.681104,54.8320474 42.999264,59.3435674 C42.108624,65.2338874 39.278304,72.2654074 30.511584,67.8820474 C30.511584,67.8820474 20.899584,71.4158074 19.880064,63.2596474 C19.880064,63.2596474 12.744144,65.2986874 12.978144,58.5306874 C13.261824,50.3536474 24.667344,43.3358074 27.005184,38.6608474 C29.342304,33.9851674 30.144384,30.4636474 30.511584,25.8023674 C31.094784,18.4029274 35.186544,11.7760474 43.369344,11.7760474 C51.550704,11.7760474 52.719984,14.1138874 52.719984,14.1138874 L52.719984,17.6202874 Z" id="Fill-79" fill="#123456" mask="url(#mask-2)"></path>
                <path d="M30.51144,67.5217594 C30.56688,67.5217594 30.6216,67.5347194 30.67272,67.5599194 C33.62832,69.0373594 36.0972,69.2835994 38.01024,68.2914394 C40.94496,66.7693594 42.14952,62.5566394 42.64344,59.2892794 C43.24968,55.2795994 44.34984,51.0582394 46.10592,46.0045594 C47.2608,42.6803194 47.68056,29.4315994 47.68488,29.2976794 C47.6892,29.1551194 47.77776,29.0276794 47.91096,28.9751194 C53.4276,26.7683194 52.37424,17.7553594 52.36272,17.6646394 C52.36128,17.6495194 52.35984,17.6351194 52.35984,17.6199994 L52.35984,14.2215994 C52.10208,13.8903994 50.4036,12.1357594 43.3692,12.1357594 C34.94952,12.1357594 31.392,19.2097594 30.87072,25.8308794 C30.52944,30.1566394 29.81808,33.8387194 27.32688,38.8218394 C26.47512,40.5253594 24.5304,42.4563994 22.27896,44.6927194 C18.37512,48.5706394 13.51656,53.3960794 13.338,58.5433594 C13.2768,60.3102394 13.73544,61.5903994 14.70168,62.3471194 C16.56288,63.8051194 19.7496,62.9223994 19.78128,62.9137594 C19.88208,62.8842394 19.99152,62.9007994 20.07864,62.9591194 C20.16648,63.0174394 20.22408,63.1103194 20.23704,63.2154394 C20.48616,65.2033594 21.29112,66.6253594 22.63032,67.4411194 C25.62048,69.2627194 30.33936,67.5620794 30.3876,67.5433594 C30.4272,67.5289594 30.46968,67.5217594 30.51144,67.5217594 M35.44776,69.6090394 C33.96456,69.6090394 32.30712,69.1626394 30.48696,68.2712794 C29.61648,68.5650394 25.26408,69.8876794 22.2552,68.0552794 C20.81304,67.1768794 19.91448,65.7131194 19.5804,63.7014394 C18.594,63.9116794 16.00848,64.2817594 14.26032,62.9159194 C13.10112,62.0094394 12.54888,60.5298394 12.61872,58.5181594 C12.80664,53.0857594 17.77752,48.1494394 21.77136,44.1822394 C23.97816,41.9905594 25.884,40.0976794 26.6832,38.4992794 C29.12184,33.6212794 29.8188,30.0133594 30.15216,25.7747194 C30.98736,15.1878394 37.52712,11.4157594 43.3692,11.4157594 C51.678,11.4157594 52.99056,13.8493594 53.04168,13.9530394 C53.06688,14.0027194 53.07984,14.0581594 53.07984,14.1135994 L53.07984,17.5983994 C53.15544,18.2283994 54.09936,27.0419194 48.39696,29.5518394 C48.33504,31.4022394 47.90448,43.0208794 46.7856,46.2407194 C45.04464,51.2511994 43.95456,55.4322394 43.35552,59.3979994 C42.60096,64.3883194 40.914,67.5966394 38.34144,68.9307994 C37.46952,69.3829594 36.50256,69.6090394 35.44776,69.6090394" id="Fill-81" fill="#1B3453" mask="url(#mask-2)"></path>
                <path d="M49.445208,29.6169994 C49.445208,29.6169994 48.425688,27.5779594 46.386648,29.6169994 C44.347608,31.6560394 46.386648,35.7341194 48.425688,34.7145994" id="Fill-83" fill="#FFFFFF" mask="url(#mask-2)"></path>
                <path d="M47.767896,35.2356634 C47.107656,35.2356634 46.453176,34.8598234 45.944856,34.1542234 C44.996616,32.8387834 44.807976,30.6874234 46.132056,29.3626234 C46.903176,28.5907834 47.650536,28.2567034 48.354696,28.3726234 C49.291416,28.5245434 49.747896,29.4180634 49.767336,29.4562234 C49.855896,29.6340634 49.783896,29.8500634 49.606056,29.9393434 C49.429656,30.0279034 49.213656,29.9559034 49.123656,29.7795034 C49.120776,29.7737434 48.806136,29.1718234 48.235176,29.0818234 C47.777256,29.0134234 47.228616,29.2834234 46.641096,29.8716634 C45.587736,30.9250234 45.756936,32.6623834 46.528776,33.7330234 C46.718136,33.9965434 47.403576,34.8202234 48.264696,34.3925434 C48.442536,34.3025434 48.658536,34.3767034 48.747816,34.5538234 C48.836376,34.7316634 48.764376,34.9476634 48.586536,35.0369434 C48.319416,35.1701434 48.042936,35.2356634 47.767896,35.2356634" id="Fill-85" fill="#1B3453" mask="url(#mask-2)"></path>
                <path d="M55.17216,27.2439514 C55.17216,27.7321114 54.77616,28.1281114 54.288,28.1281114 C53.79984,28.1281114 53.40456,27.7321114 53.40456,27.2439514 C53.40456,26.7557914 53.79984,26.3597914 54.288,26.3597914 C54.77616,26.3597914 55.17216,26.7557914 55.17216,27.2439514" id="Fill-87" fill="#1B3453" mask="url(#mask-2)"></path>
                <path d="M54.730224,24.5101834 L52.962624,24.5101834 C52.763904,24.5101834 52.602624,24.3489034 52.602624,24.1501834 C52.602624,23.9514634 52.763904,23.7901834 52.962624,23.7901834 L54.730224,23.7901834 C54.928944,23.7901834 55.090224,23.9514634 55.090224,24.1501834 C55.090224,24.3489034 54.928944,24.5101834 54.730224,24.5101834" id="Fill-91" fill="#1B3453" mask="url(#mask-2)"></path>
                <path d="M56.155824,34.4587114 C56.155824,34.4587114 55.172304,36.0830314 53.404704,35.1988714" id="Fill-93" fill="#FFFFFF" mask="url(#mask-2)"></path>
                <path d="M54.429264,35.8220314 C54.069264,35.8220314 53.671824,35.7349114 53.243424,35.5210714 C53.065584,35.4317914 52.993584,35.2157914 53.082144,35.0379514 C53.171424,34.8608314 53.388144,34.7873914 53.565264,34.8773914 C54.982224,35.5851514 55.764144,34.4072314 55.848384,34.2711514 C55.952784,34.1019514 56.174544,34.0486714 56.343024,34.1523514 C56.512224,34.2553114 56.566224,34.4756314 56.463984,34.6448314 C56.168784,35.1322714 55.445184,35.8220314 54.429264,35.8220314" id="Fill-95" fill="#1B3453" mask="url(#mask-2)"></path>
                <path d="M47.618136,19.7648074 C46.188216,19.7648074 45.197496,19.1564074 44.782776,18.8432074 C41.971896,20.4099274 39.904776,18.9548074 39.326616,18.4601674 C37.472616,18.9252874 36.058536,18.8612074 35.120376,18.2693674 C34.327656,17.7689674 34.188696,17.0640874 34.182936,17.0345674 C34.146936,16.8394474 34.275816,16.6508074 34.470936,16.6148074 C34.663896,16.5773674 34.851816,16.7055274 34.889976,16.8984874 C34.895736,16.9251274 34.997976,17.3499274 35.527176,17.6746474 C36.075096,18.0094474 37.178136,18.2888074 39.332376,17.7149674 C39.458376,17.6825674 39.594456,17.7207274 39.685896,17.8150474 C39.767256,17.9000074 41.704776,19.8713674 44.632296,18.0987274 C44.772696,18.0130474 44.954856,18.0346474 45.072216,18.1512874 C45.149976,18.2276074 47.047896,20.0268874 50.212296,18.3248074 C50.387256,18.2319274 50.604696,18.2967274 50.699736,18.4709674 C50.794056,18.6459274 50.727816,18.8648074 50.552856,18.9591274 C49.442616,19.5567274 48.454776,19.7648074 47.618136,19.7648074" id="Fill-97" fill="#064F8A" mask="url(#mask-2)"></path>
                <path d="M20.019744,61.5810394 C20.004624,61.5810394 19.989504,61.5803194 19.973664,61.5781594 C19.776384,61.5529594 19.636704,61.3722394 19.661904,61.1756794 C20.859264,51.8732794 24.836544,47.7498394 28.682784,43.7624794 C29.654784,42.7551994 30.572784,41.8033594 31.454064,40.7651194 C35.746704,35.7085594 35.127504,21.9349594 35.121024,21.7959994 C35.110944,21.5972794 35.264304,21.4280794 35.463024,21.4194394 C35.653104,21.3935194 35.830224,21.5619994 35.840304,21.7607194 C35.868384,22.3381594 36.477504,35.9598394 32.003424,41.2302394 C31.106304,42.2871994 30.137904,43.2915994 29.201184,44.2621594 C25.435584,48.1652794 21.542544,52.2015994 20.376864,61.2663994 C20.353104,61.4485594 20.198304,61.5810394 20.019744,61.5810394" id="Fill-99" fill="#064F8A" mask="url(#mask-2)"></path>
                <path d="M30.51108,66.7026154 C30.33684,66.7026154 30.1842,66.5758954 30.15612,66.3987754 C28.61676,56.7133354 34.13988,48.2036554 37.7946,42.5718154 C38.20356,41.9418154 38.58588,41.3521354 38.9286,40.8063754 C41.34132,36.9615754 41.83596,22.5932554 41.84028,22.4485354 C41.84748,22.2498154 42.03468,22.1007754 42.2118,22.1007754 C42.41052,22.1072554 42.56676,22.2735754 42.55956,22.4722954 C42.54084,23.0706154 42.0534,37.1811754 39.53844,41.1886954 C39.19428,41.7380554 38.8098,42.3306154 38.39868,42.9642154 C34.80372,48.5031754 29.37132,56.8738954 30.86676,66.2864554 C30.89844,66.4822954 30.76452,66.6666154 30.56796,66.6982954 C30.54852,66.7011754 30.5298,66.7026154 30.51108,66.7026154" id="Fill-101" fill="#064F8A" mask="url(#mask-2)"></path>
                <path d="M76.6818,49.7643274 C76.6818,50.4094474 76.15836,50.9336074 75.51324,50.9336074 C74.8674,50.9336074 74.34396,50.4094474 74.34396,49.7643274 C74.34396,49.1192074 74.8674,48.5957674 75.51324,48.5957674 C76.15836,48.5957674 76.6818,49.1192074 76.6818,49.7643274" id="Fill-103" fill="#1B3453" mask="url(#mask-2)"></path>
                <path d="M76.858632,45.3866554 C76.683672,45.5414554 76.415832,45.5241754 76.261032,45.3492154 C76.106232,45.1742554 76.122072,44.9064154 76.297032,44.7516154 L77.224392,43.9308154 L76.027032,43.5830554 C75.808152,43.5139354 75.682152,43.2820954 75.746952,43.0603354 C75.811032,42.8385754 76.041432,42.7096954 76.263192,42.7694554 L76.263192,42.7687354 L77.460552,43.1164954 L77.114232,41.9191354 L77.114952,41.9191354 C77.055192,41.6966554 77.184072,41.4669754 77.406552,41.4021754 C77.629032,41.3380954 77.860152,41.4640954 77.928552,41.6829754 L77.929272,41.6829754 L78.489432,43.6212154 C78.489432,43.6226554 78.490152,43.6240954 78.490152,43.6255354 C78.492312,43.6320154 78.493752,43.6384954 78.495192,43.6464154 C78.496632,43.6500154 78.496632,43.6543354 78.497352,43.6586554 C78.498072,43.6615354 78.498792,43.6644154 78.499512,43.6680154 C78.500232,43.6737754 78.501672,43.6795354 78.502392,43.6845754 C78.502392,43.6903354 78.503112,43.6939354 78.503832,43.6989754 C78.503832,43.7032954 78.504552,43.7076154 78.504552,43.7112154 C78.505272,43.7162554 78.505272,43.7205754 78.505272,43.7241754 C78.505992,43.7299354 78.505272,43.7349754 78.505272,43.7400154 C78.505272,43.7450554 78.505272,43.7493754 78.505272,43.7536954 C78.505272,43.7572954 78.505272,43.7616154 78.504552,43.7652154 C78.503832,43.7702554 78.503832,43.7752954 78.503832,43.7810554 C78.502392,43.7853754 78.502392,43.7904154 78.501672,43.7947354 C78.500952,43.7990554 78.500232,43.8033754 78.499512,43.8069754 C78.498792,43.8112954 78.498072,43.8163354 78.497352,43.8213754 C78.496632,43.8256954 78.495192,43.8307354 78.493752,43.8350554 C78.493752,43.8393754 78.492312,43.8429754 78.490872,43.8480154 C78.490152,43.8508954 78.489432,43.8537754 78.488712,43.8566554 C78.487992,43.8588154 78.487272,43.8602554 78.486552,43.8624154 C78.485112,43.8667354 78.484392,43.8696154 78.483672,43.8724954 C78.481512,43.8782554 78.480072,43.8825754 78.477912,43.8876154 C78.475752,43.8933754 78.474312,43.8984154 78.472152,43.9027354 C78.470712,43.9056154 78.469992,43.9077754 78.469272,43.9106554 C78.466392,43.9149754 78.464232,43.9200154 78.462072,43.9243354 L78.454152,43.9408954 C78.452712,43.9430554 78.451272,43.9452154 78.449832,43.9473754 C78.448392,43.9516954 78.446232,43.9552954 78.443352,43.9596154 C78.439752,43.9646554 78.436152,43.9704154 78.432552,43.9761754 C78.430392,43.9790554 78.428952,43.9804954 78.427512,43.9826554 C78.425352,43.9862554 78.423912,43.9891354 78.421032,43.9920154 C78.416712,43.9970554 78.412392,44.0028154 78.408072,44.0092954 C78.405912,44.0114554 78.403752,44.0136154 78.401592,44.0164954 C78.399432,44.0186554 78.397272,44.0215354 78.395112,44.0229754 C78.390072,44.0287354 78.386472,44.0337754 78.380712,44.0388154 C78.377832,44.0416954 78.374232,44.0445754 78.371352,44.0474554 C78.370632,44.0488954 78.369912,44.0488954 78.369192,44.0496154 L78.369912,44.0503354 L76.858632,45.3866554 Z" id="Fill-111" fill="#123456" mask="url(#mask-2)"></path>
                <path d="M79.886304,44.7032314 L79.886304,44.7032314 L78.688944,44.3561914 L79.035264,45.5542714 L79.034544,45.5542714 C79.093584,45.7760314 78.964704,46.0064314 78.743664,46.0697914 C78.521184,46.1338714 78.289344,46.0078714 78.220944,45.7889914 L78.220224,45.7897114 L77.936544,44.8083514 L78.688944,44.1430714 L78.688944,44.1423514 C78.689664,44.1423514 78.690384,44.1416314 78.691104,44.1401914 L78.700464,44.1315514 C78.705504,44.1257914 78.710544,44.1207514 78.714864,44.1164314 C78.717024,44.1142714 78.718464,44.1113914 78.720624,44.1092314 C78.722784,44.1063514 78.725664,44.1041914 78.727104,44.1020314 C78.732144,44.0955514 78.736464,44.0897914 78.740064,44.0847514 C78.742944,44.0818714 78.745824,44.0789914 78.747264,44.0753914 C78.748704,44.0732314 78.750144,44.0717914 78.752304,44.0689114 C78.755904,44.0631514 78.758784,44.0581114 78.762384,44.0523514 C78.765264,44.0480314 78.767424,44.0444314 78.769584,44.0401114 C78.771024,44.0379514 78.771744,44.0365114 78.773184,44.0336314 C78.776064,44.0285914 78.778944,44.0235514 78.781824,44.0170714 C78.783984,44.0127514 78.786144,44.0077114 78.788304,44.0033914 C78.789744,44.0005114 78.790464,43.9983514 78.791184,43.9954714 C78.793344,43.9911514 78.795504,43.9861114 78.797664,43.9803514 C78.799104,43.9753114 78.801264,43.9702714 78.803424,43.9659514 C78.804144,43.9630714 78.805584,43.9594714 78.806304,43.9551514 C78.806304,43.9529914 78.807744,43.9515514 78.808464,43.9493914 C78.809184,43.9465114 78.809184,43.9436314 78.809904,43.9407514 C78.811344,43.9364314 78.812784,43.9321114 78.813504,43.9277914 C78.814944,43.9234714 78.815664,43.9184314 78.816384,43.9141114 C78.817824,43.9090714 78.818544,43.9047514 78.819984,43.8997114 C78.819984,43.8953914 78.820704,43.8917914 78.821424,43.8874714 C78.821424,43.8824314 78.822144,43.8781114 78.822864,43.8737914 C78.823584,43.8680314 78.823584,43.8629914 78.824304,43.8579514 C78.824304,43.8543514 78.824304,43.8500314 78.824304,43.8464314 C78.825024,43.8421114 78.825024,43.8377914 78.824304,43.8327514 C78.825024,43.8277114 78.825024,43.8219514 78.825024,43.8176314 C78.824304,43.8133114 78.824304,43.8089914 78.823584,43.8039514 C78.823584,43.8003514 78.823584,43.7960314 78.822864,43.7917114 C78.822144,43.7873914 78.822144,43.7830714 78.821424,43.7780314 C78.821424,43.7722714 78.819984,43.7665114 78.819264,43.7607514 C78.818544,43.7578714 78.817824,43.7542714 78.817104,43.7513914 C78.816384,43.7470714 78.815664,43.7427514 78.814944,43.7391514 C78.813504,43.7312314 78.811344,43.7254714 78.809904,43.7182714 C78.809184,43.7168314 78.809184,43.7153914 78.809184,43.7146714 L78.531984,42.7570714 L79.290864,42.0860314 C79.466544,41.9312314 79.733664,41.9485114 79.888464,42.1234714 C80.043984,42.2977114 80.027424,42.5655514 79.853184,42.7210714 L78.925104,43.5418714 L80.122464,43.8896314 C80.342064,43.9587514 80.467344,44.1898714 80.403264,44.4123514 C80.338464,44.6333914 80.108784,44.7629914 79.886304,44.7032314" id="Fill-113" fill="#123456" mask="url(#mask-2)"></path>
            </g>
        </g>
    </g>
</svg>