<?xml version="1.0" encoding="UTF-8"?>
<svg width="80px" height="80px" viewBox="0 0 80 80" version="1.1" xmlns="http://www.w3.org/2000/svg" xmlns:xlink="http://www.w3.org/1999/xlink">
    <title>1F8B6CDD-2DAF-46B7-B31D-9E9CB9343786</title>
    <defs>
        <polygon id="path-1" points="0.235147699 0.553733333 15.5033333 0.553733333 15.5033333 17.1195443 0.235147699 17.1195443"></polygon>
        <polygon id="path-3" points="0.358866667 0.0133333333 1.99753333 0.0133333333 1.99753333 8.7958 0.358866667 8.7958"></polygon>
    </defs>
    <g id="12.-Purchase" stroke="none" stroke-width="1" fill="none" fill-rule="evenodd">
        <g id="2.2-Chat---Make-an-Order" transform="translate(-140.000000, -445.000000)">
            <g id="Order" transform="translate(0.000000, 386.000000)">
                <g id="-Illustration/-Shopping-Cart-Empty" transform="translate(140.000000, 59.000000)">
                    <g id="Group-51" transform="translate(2.666667, 2.666667)">
                        <path d="M51.9128667,42.7323333 L51.9142,42.729 L44.5775333,36.9443333 L42.5648667,40.945 C42.1395333,41.7903333 42.4802,42.8203333 43.3255333,43.2456667 C46.1708667,44.677 49.4342,44.373 51.9128667,42.7323333" id="Fill-1" fill="#94EAF1"></path>
                        <path d="M61.8920667,22.8957333 C61.7314,19.9277333 60.0307333,17.1257333 57.1847333,15.6944 C56.3394,15.2697333 55.3100667,15.6097333 54.8847333,16.4550667 L52.8720667,20.4564 L61.8894,22.8990667 L61.8920667,22.8957333 Z" id="Fill-3" fill="#94EAF1"></path>
                        <path d="M68.8943333,28.5406 C66.563,25.9459333 63.7376667,23.7859333 60.617,22.2166 C58.2803333,21.0412667 55.5816667,20.5466 52.8716667,20.4566 C45.2876667,20.2026 37.6223333,23.1146 37.6223333,23.1146 C37.6223333,23.1146 39.853,31.0052667 44.5776667,36.9439333 C47.115,40.1346 49.3336667,41.5946 51.9143333,42.7292667 C54.865,44.0266 57.8443333,44.7279333 60.6176667,44.9879333 L68.8943333,28.5406 Z" id="Fill-5" fill="#C0F1F3"></path>
                        <g id="Group-9" transform="translate(58.666667, 27.986667)">
                            <mask id="mask-2" fill="white">
                                <use xlink:href="#path-1"></use>
                            </mask>
                            <g id="Clip-8"></g>
                            <path d="M15.1319333,13.3270667 C14.5852667,14.4137333 12.9506,15.6104 10.5546,16.3137333 C8.23726667,16.9944 5.2386,17.3090667 1.95126667,17.0010667 C-0.0587333333,14.1044 -0.390066667,10.0317333 1.42126667,6.42973333 C3.23393333,2.82706667 6.7026,0.667066667 10.2279333,0.553733333 C12.4086,2.98106667 13.9339333,5.54306667 14.7746,7.7904 C15.6632667,10.1684 15.6852667,12.2277333 15.1319333,13.3270667" id="Fill-7" fill="#94EAF1" mask="url(#mask-2)"></path>
                        </g>
                        <path d="M41.2846,23.3732667 L31.7719333,27.9706 C30.4832667,28.5932667 29.1186,27.2712667 29.7006,25.9639333 L34.9826,14.0819333 C35.5412667,12.8266 37.3406,12.8792667 37.8239333,14.1652667 L41.2846,23.3732667 Z" id="Fill-10" fill="#C0F1F3"></path>
                        <path d="M33.1511333,48.8729333 C32.9658,48.9796 32.7738,49.0789333 32.5751333,49.1709333 C31.4104667,49.7102667 30.1751333,49.9089333 28.9811333,49.8089333 C28.9811333,49.8089333 27.9784667,51.1376 27.2438,51.5942667 L27.2651333,51.6276 L27.8498,56.8422667 C27.9111333,57.3889333 27.6158,57.9129333 27.1178,58.1436 C26.5718,58.3962667 25.9244667,58.2336 25.5624667,57.7536 C25.5624667,57.7536 23.9084667,55.5602667 23.9091333,55.5602667 C23.5371333,56.0429333 23.0478,56.4449333 22.4571333,56.7182667 C21.8664667,56.9916 21.2431333,57.1042667 20.6358,57.0756 L21.2364667,59.7549333 C21.3684667,60.3416 21.0724667,60.9402667 20.5271333,61.1929333 C20.0284667,61.4236 19.4384667,61.3089333 19.0611333,60.9089333 L15.4651333,57.0882667 L15.4531333,57.0502667 C14.6311333,57.3136 13.7798,57.3609333 12.9691333,57.2176 L12.9691333,57.2162667 C12.2724667,58.1922667 11.3204667,59.0056 10.1551333,59.5449333 C9.95646667,59.6369333 9.75646667,59.7189333 9.55513333,59.7909333 L9.56513333,59.8182667 C14.6338,61.6796 19.0511333,64.9756 22.2791333,69.3036 L24.2484667,71.9436 C24.6164667,72.4369333 25.2784667,72.6049333 25.8371333,72.3462667 L32.1818,69.4102667 C32.7398,69.1522667 33.0404667,68.5389333 32.9031333,67.9396 L32.1658,64.7296 C30.9564667,59.4669333 31.3038,53.9662667 33.1651333,48.8982667 L33.1511333,48.8729333 Z" id="Fill-12" fill="#C0F1F3"></path>
                        <path d="M27.0202667,36.009 C25.5569333,34.2023333 23.0076,33.5403333 20.8009333,34.5616667 C20.1616,34.8576667 19.6122667,35.2676667 19.1622667,35.7563333 C17.2242667,34.6563333 14.8056,34.4703333 12.6289333,35.4776667 C10.4522667,36.485 9.02893333,38.449 8.6116,40.6376667 C7.94893333,40.6643333 7.28026667,40.8176667 6.64093333,41.1136667 C4.43426667,42.135 3.28826667,44.5063333 3.71826667,46.791 C0.446266667,48.5816667 -0.927733333,52.6223333 0.6616,56.0583333 C2.32026667,59.6423333 6.57093333,61.2036667 10.1549333,59.545 C11.3209333,59.0056667 12.2682667,58.189 12.9642667,57.2136667 C13.9769333,57.3936667 15.0516,57.2796667 16.0549333,56.815 C16.7169333,56.509 17.2829333,56.0796667 17.7409333,55.5696667 C18.8296,56.973 20.7762667,57.4956667 22.4569333,56.7176667 C24.1382667,55.9403333 25.0002667,54.1183333 24.6342667,52.3796667 C25.3202667,52.361 26.0136,52.207 26.6749333,51.901 C27.6789333,51.4363333 28.4616,50.691 28.9796,49.803 C30.1736,49.9036667 31.4096,49.7103333 32.5756,49.171 C36.1596,47.5123333 37.7209333,43.2616667 36.0622667,39.6776667 C34.4729333,36.2423333 30.5036,34.6736667 27.0202667,36.009" id="Fill-14" fill="#94EAF1"></path>
                        <path d="M37.6039333,58.2613333 C36.5372667,61.028 37.6232667,64.8513333 41.2152667,67.522 C43.6392667,69.324 46.6486,70.282 49.1666,71.968 C50.0092667,72.532 50.7619333,73.2093333 51.6226,73.7493333 C52.4839333,74.2893333 53.4906,74.768 54.5686,74.6286667 C57.7852667,74.2133333 60.1819333,71.1846667 60.5372667,70.4053333 C61.4019333,68.5093333 61.8186,66.462 61.7439333,64.478 C61.6746,62.6346667 61.1886,60.8613333 60.4992667,59.1986667 C59.6472667,57.1453333 58.5752667,55.084 56.7686,53.7646667 C50.0772667,48.8786667 42.5839333,53.1066667 41.1559333,53.9846667 C39.6299333,54.9226667 38.5566,55.7893333 37.6039333,58.2613333" id="Fill-16" fill="#C0F1F3"></path>
                        <g id="Group-20" transform="translate(32.000000, 0.653333)">
                            <mask id="mask-4" fill="white">
                                <use xlink:href="#path-3"></use>
                            </mask>
                            <g id="Clip-19"></g>
                            <path d="M1.1782,8.7958 C0.725533333,8.7958 0.358866667,8.42913333 0.358866667,7.97646667 L0.358866667,0.832466667 C0.358866667,0.3798 0.725533333,0.0131333333 1.1782,0.0131333333 C1.63086667,0.0131333333 1.99753333,0.3798 1.99753333,0.832466667 L1.99753333,7.97646667 C1.99753333,8.42913333 1.63086667,8.7958 1.1782,8.7958" id="Fill-18" fill="#57E0F0" mask="url(#mask-4)"></path>
                        </g>
                        <path d="M18.2624667,13.9517333 C18.1098,13.9517333 17.9551333,13.9090667 17.8171333,13.8197333 L12.0818,10.0970667 C11.7018,9.8504 11.5938,9.34306667 11.8404667,8.96373333 C12.0864667,8.58373333 12.5944667,8.47506667 12.9738,8.72173333 L18.7098,12.4444 C19.0898,12.6910667 19.1971333,13.1984 18.9511333,13.5784 C18.7938,13.8197333 18.5311333,13.9517333 18.2624667,13.9517333" id="Fill-21" fill="#57E0F0"></path>
                        <path d="M49.2188667,13.9517333 C48.9502,13.9517333 48.6875333,13.8197333 48.5302,13.5784 C48.2842,13.1984 48.3922,12.6910667 48.7722,12.4444 L54.5075333,8.72173333 C54.8862,8.47506667 55.3948667,8.58373333 55.6408667,8.96373333 C55.8875333,9.34306667 55.7795333,9.8504 55.3995333,10.0970667 L49.6642,13.8197333 C49.5262,13.9090667 49.3715333,13.9517333 49.2188667,13.9517333" id="Fill-23" fill="#57E0F0"></path>
                        <path d="M27.1703333,64.1258667 C27.1703333,66.1632 25.519,67.8145333 23.4816667,67.8145333 C21.445,67.8145333 19.7936667,66.1632 19.7936667,64.1258667 C19.7936667,62.0892 21.445,60.4378667 23.4816667,60.4378667 C25.519,60.4378667 27.1703333,62.0892 27.1703333,64.1258667" id="Fill-25" fill="#FFFFFF"></path>
                        <path d="M52.5795333,64.1258667 C52.5795333,66.1632 50.9282,67.8145333 48.8908667,67.8145333 C46.8542,67.8145333 45.2028667,66.1632 45.2028667,64.1258667 C45.2028667,62.0892 46.8542,60.4378667 48.8908667,60.4378667 C50.9282,60.4378667 52.5795333,62.0892 52.5795333,64.1258667" id="Fill-27" fill="#FFFFFF"></path>
                        <polygon id="Fill-29" fill="#FFFFFF" points="14.0561333 26.8257333 59.9568 26.0124 52.5794667 50.6017333 19.8468 48.9624"></polygon>
                        <path d="M18.9952,34.0637333 C18.5625333,32.0277333 20.1145333,30.1104 22.1958667,30.1104 L50.1012,30.1104 C51.7072,30.1104 52.8665333,31.8304 52.4252,33.5590667 L49.4125333,45.3610667 C49.1158667,46.5224 48.1678667,47.3230667 47.0885333,47.3230667 L25.2332,47.3230667 C23.2405333,47.3230667 21.5192,45.9297333 21.1045333,43.9804 L18.9952,34.0637333 Z" id="Fill-31" fill="#7CF2CB"></path>
                        <path d="M20.2413333,49.4868667 L20.222,49.4095333 L14.7306667,27.5942 L59.594,27.5942 L59.5513333,27.7282 L52.5073333,49.4868667 L20.2413333,49.4868667 Z M53.5793333,50.2582 L53.58,50.2555333 L60.928,27.1215333 C60.9713333,26.9695333 60.928,26.7688667 60.8193333,26.6248667 C60.7053333,26.4742 60.5246667,26.3842 60.336,26.3842 L14.5066667,26.3842 L14.4886667,26.3042 L12.9806667,19.5195333 C12.9193333,19.2402 12.676,19.0448667 12.39,19.0448667 L1.382,19.0448667 C1.048,19.0448667 0.776666667,19.3168667 0.776666667,19.6502 C0.776666667,19.9842 1.048,20.2555333 1.382,20.2555333 L11.9046667,20.2555333 L12.1186667,21.2182 C12.224,21.6922 13.648,27.5188667 14.904,32.6602 L15.0846667,33.3968667 C16.63,39.7208667 18.5533333,47.5915333 18.7426667,48.4448667 L18.9626667,49.4348667 L18.0326667,49.8382 C16.466,50.5195333 15.454,52.0595333 15.454,53.7615333 C15.454,56.1182 17.3713333,58.0362 19.7286667,58.0362 L52.9973333,58.0362 C53.3313333,58.0362 53.6026667,57.7648667 53.6026667,57.4308667 C53.6026667,57.0968667 53.3313333,56.8255333 52.9973333,56.8255333 L19.7286667,56.8255333 C18.0386667,56.8255333 16.664,55.4515333 16.664,53.7615333 C16.664,52.0762 18.0353333,50.7015333 19.7206667,50.6975333 L52.9973333,50.6975333 C53.266,50.6975333 53.5053333,50.5168667 53.5793333,50.2582 L53.5793333,50.2582 Z" id="Fill-33" fill="#123456"></path>
                        <path d="M23.3978667,67.0139333 C21.7078667,67.0139333 20.3338667,65.6392667 20.3338667,63.9499333 C20.3338667,62.2606 21.7078667,60.8852667 23.3978667,60.8852667 C25.0878667,60.8852667 26.4618667,62.2606 26.4618667,63.9499333 C26.4618667,65.6392667 25.0878667,67.0139333 23.3978667,67.0139333 M23.3978667,59.6752667 C21.0405333,59.6752667 19.1232,61.5926 19.1232,63.9499333 C19.1232,66.3066 21.0405333,68.2239333 23.3978667,68.2239333 C25.7552,68.2239333 27.6725333,66.3066 27.6725333,63.9499333 C27.6725333,61.5926 25.7552,59.6752667 23.3978667,59.6752667" id="Fill-35" fill="#123456"></path>
                        <path d="M49.3279333,67.0139333 C47.6379333,67.0139333 46.2639333,65.6392667 46.2639333,63.9499333 C46.2639333,62.2606 47.6379333,60.8852667 49.3279333,60.8852667 C51.0179333,60.8852667 52.3919333,62.2606 52.3919333,63.9499333 C52.3919333,65.6392667 51.0179333,67.0139333 49.3279333,67.0139333 M49.3279333,59.6752667 C46.9706,59.6752667 45.0532667,61.5926 45.0532667,63.9499333 C45.0532667,66.3066 46.9706,68.2239333 49.3279333,68.2239333 C51.6852667,68.2239333 53.6026,66.3066 53.6026,63.9499333 C53.6026,61.5926 51.6852667,59.6752667 49.3279333,59.6752667" id="Fill-37" fill="#123456"></path>
                        <path d="M49.3279333,66.8091333 C47.7512667,66.8091333 46.4686,65.5264667 46.4686,63.9498 C46.4686,62.3731333 47.7512667,61.0904667 49.3279333,61.0904667 C50.9046,61.0904667 52.1872667,62.3731333 52.1872667,63.9498 C52.1872667,65.5264667 50.9046,66.8091333 49.3279333,66.8091333 M49.3279333,60.9878 C47.6946,60.9878 46.3666,62.3164667 46.3666,63.9498 C46.3666,65.5831333 47.6946,66.9118 49.3279333,66.9118 C50.9606,66.9118 52.2892667,65.5831333 52.2892667,63.9498 C52.2892667,62.3164667 50.9606,60.9878 49.3279333,60.9878" id="Fill-39" fill="#FFFFFF"></path>
                        <polygon id="Fill-41" fill="#123456" points="26.6531333 50.3739333 23.4638 27.0146 24.6818 26.8479333 27.8718 50.2072667"></polygon>
                        <polygon id="Fill-43" fill="#123456" points="45.9929333 50.3739333 44.7749333 50.2072667 47.9642667 26.8479333 49.1822667 27.0146"></polygon>
                        <polygon id="Fill-45" fill="#123456" points="35.926 50.2906667 37.1553333 50.2906667 37.1553333 27.0326667 35.926 27.0326667"></polygon>
                        <path d="M64.9649333,26.8557333 C65.0622667,31.7030667 61.2122667,35.7124 56.3642667,35.8097333 C51.5169333,35.9077333 47.5076,32.0570667 47.4102667,27.2090667 C47.3122667,22.3617333 51.1629333,18.3530667 56.0109333,18.2557333 C60.8582667,18.1577333 64.8676,22.0084 64.9649333,26.8557333" id="Fill-47" fill="#FFFFFF"></path>
                        <path d="M56.1898667,18.8540667 C56.1345333,18.8540667 56.0792,18.8547333 56.0232,18.8560667 C53.8385333,18.8994 51.8025333,19.7914 50.2898667,21.3674 C48.7758667,22.9427333 47.9672,25.0134 48.0112,27.1974 C48.0552,29.3814 48.9465333,31.4174 50.5225333,32.9307333 C52.0978667,34.4440667 54.1478667,35.2474 56.3532,35.2094 C60.8605333,35.1187333 64.4545333,31.3767333 64.3645333,26.8680667 L64.3645333,26.8680667 C64.2745333,22.4154 60.6232,18.8540667 56.1898667,18.8540667 M56.1832,36.4120667 C53.7492,36.4120667 51.4505333,35.4880667 49.6905333,33.7974 C47.8832,32.0614 46.8598667,29.7260667 46.8098667,27.2214 C46.7592,24.7167333 47.6878667,22.3420667 49.4232,20.5347333 C51.1585333,18.7280667 53.4945333,17.7054 55.9992,17.6554 C61.1398667,17.5447333 65.4612,21.6720667 65.5658667,26.8440667 C65.6692,32.0147333 61.5472,36.3060667 56.3765333,36.4100667 C56.3118667,36.4114 56.2472,36.4120667 56.1832,36.4120667" id="Fill-48" fill="#1B3453"></path>
                        <path d="M56.2761333,29.316 C57.0881333,29.2993333 57.4788,28.518 57.4481333,26.972 L57.4461333,26.9006667 C57.4148,25.3153333 56.9961333,24.5306667 56.1928,24.5473333 C55.3881333,24.5633333 55.0021333,25.3653333 55.0334667,26.9553333 C55.0661333,28.5453333 55.4794667,29.3313333 56.2761333,29.316 M53.7701333,23.6313333 C53.9928,23.3066667 54.3088,23.0326667 54.7188,22.8073333 C55.1288,22.5813333 55.6054667,22.464 56.1501333,22.4533333 C56.6934667,22.442 57.1708,22.5386667 57.5814667,22.744 C57.9928,22.948 58.3174667,23.206 58.5568,23.5166667 C58.7954667,23.828 58.9908,24.1946667 59.1414667,24.618 C59.3921333,25.3233333 59.5248,26.074 59.5408,26.8706667 C59.5701333,28.2986667 59.2854667,29.436 58.6874667,30.2853333 C58.4648,30.6053333 58.1521333,30.8713333 57.7494667,31.0853333 C57.3474667,31.2986667 56.8774667,31.4106667 56.3428,31.4213333 C55.8054667,31.432 55.3294667,31.3366667 54.9108,31.136 C54.4921333,30.936 54.1634667,30.684 53.9248,30.3806667 C53.6854667,30.078 53.4874667,29.7146667 53.3288,29.292 C53.0848,28.6186667 52.9554667,27.8513333 52.9388,26.992 C52.9221333,26.2033333 53.0014667,25.5266667 53.1754667,24.9626667 C53.3501333,24.3993333 53.5488,23.9546667 53.7701333,23.6313333" id="Fill-49" fill="#1B3453"></path>
                        <polygon id="Fill-50" fill="#123456" points="16.5146667 38.922 56.2406667 38.922 56.2406667 37.6926667 16.5146667 37.6926667"></polygon>
                    </g>
                </g>
            </g>
        </g>
    </g>
</svg>