<?xml version="1.0" encoding="UTF-8"?>
<svg width="40px" height="40px" viewBox="0 0 40 40" version="1.1" xmlns="http://www.w3.org/2000/svg" xmlns:xlink="http://www.w3.org/1999/xlink">
    <title>6E22D6CF-6461-40B5-894C-53EB342FC8A8</title>
    <g id="5.-Transfer" stroke="none" stroke-width="1" fill="none" fill-rule="evenodd">
        <g id="0.2-Add-Beneficiary-List-Transfer-to-Tara-User" transform="translate(-32.000000, -152.000000)">
            <g id="Card-Copy-2" transform="translate(16.000000, 144.000000)">
                <g id="Illustration/Transfer-To/My-Account" transform="translate(16.000000, 8.000000)">
                    <g id="Group" transform="translate(4.583333, 7.500000)">
                        <g id="Dompet" transform="translate(7.500000, 0.000000)">
                            <path d="M1.08579403,0 L21.1634742,0 C22.3607869,0 23.3333333,0.994822322 23.3333333,2.22241891 L23.3333333,17.7775811 C23.3333333,19.0051777 22.3607869,20 21.1634742,20 L3.80901167,20 C3.20992308,20 -9.47390314e-14,15.5440995 -9.47390314e-14,14.9307437 L-9.47390314e-14,1.11076692 C-9.47390314e-14,0.497411161 0.486705445,0 1.08579403,0 Z" id="Stroke-20" stroke="#1B3453" stroke-width="0.6"></path>
                            <path d="M2.63575855,1.66666667 L20.5618162,1.66666667 C21.6320158,1.66666667 22.5,2.49549739 22.5,3.51842137 L22.5,16.4815786 C22.5,17.5045026 21.6320158,18.3333333 20.5618162,18.3333333 L2.63575855,18.3333333 C2.10108717,18.3333333 1.66666667,17.918918 1.66666667,17.407456 L1.66666667,2.59254402 C1.66666667,2.08108203 2.10108717,1.66666667 2.63575855,1.66666667" id="Fill-22" fill="#A1EFF7"></path>
                            <path d="M17.1666667,6.66666667 L21.1156291,6.66666667 C21.420172,6.66666667 21.6666667,6.9260046 21.6666667,7.24553018 L21.6666667,12.7544698 C21.6666667,13.0739954 21.420172,13.3333333 21.1156291,13.3333333 L17.1666667,13.3333333 C15.5093475,13.3333333 14.1666667,11.8410338 14.1666667,10 C14.1666667,8.1598513 15.5093475,6.66666667 17.1666667,6.66666667 Z" id="Stroke-24" stroke="#1B3453" stroke-width="0.6"></path>
                            <path d="M17.5,11.6666667 C16.5794831,11.6666667 15.8333333,10.9205169 15.8333333,10 C15.8333333,9.07948309 16.5794831,8.33333333 17.5,8.33333333 C18.4205169,8.33333333 19.1666667,9.07948309 19.1666667,10 C19.1666667,10.9205169 18.4205169,11.6666667 17.5,11.6666667 Z" id="Stroke-28" stroke="#1B3453" stroke-width="0.6" fill="#FFFFFF"></path>
                            <line x1="7.5" y1="2.91666667" x2="14.1666667" y2="2.91666667" id="Stroke-32" stroke="#1B3453" stroke-width="0.6" stroke-linecap="round" stroke-linejoin="round" stroke-dasharray="5.002272033691406,5.002272033691406"></line>
                            <line x1="15.8333333" y1="2.91666667" x2="19.1666667" y2="2.91666667" id="Stroke-34" stroke="#1B3453" stroke-width="0.6" stroke-linecap="round" stroke-linejoin="round"></line>
                            <line x1="8.33333333" y1="17.0833333" x2="15" y2="17.0833333" id="Stroke-38" stroke="#1B3453" stroke-width="0.6" stroke-linecap="round" stroke-linejoin="round" stroke-dasharray="5.002272033691406,5.002272033691406"></line>
                            <line x1="16.6666667" y1="17.0833333" x2="20" y2="17.0833333" id="Stroke-40" stroke="#1B3453" stroke-width="0.6" stroke-linecap="round" stroke-linejoin="round"></line>
                        </g>
                        <g id="Group-51" transform="translate(0.000000, 1.666667)">
                            <path d="M20.62875,22.52385 L20.62425,22.49085 C20.19825,19.53735 17.99925,17.15085 15.09075,16.4841 L12.64125,15.9231 L10.23,17.62635 L8.20725,15.9231 L5.79075,16.4766 C2.86275,17.14785 0.64875,19.55085 0.21975,22.52385 C0.16875,23.21085 0.7095,23.7966 1.398,23.80035 L19.43325,23.8948662 C20.16675,23.8986 20.733,23.24985 20.62875,22.52385 Z" id="Stroke-3" stroke="#1B3453" stroke-width="0.6" fill="#FFFFFF" stroke-linecap="round"></path>
                            <path d="M20.472,22.7289 L20.4675,22.69815 C20.07075,19.95015 18.02475,17.72865 15.318,17.10915 L14.32275,16.88115 C13.50525,16.69365 12.64725,16.86315 11.9625,17.34615 L10.79475,18.17115 L8.91375,16.58715 L6.66375,17.1024 C3.939,17.7264 1.82416667,19.4706956 1.42516667,22.2374456 C1.37641667,22.8764456 1.88041667,23.4224456 2.52166667,23.4254456 L19.3044167,23.5132472 C19.9869167,23.5169456 20.5134167,22.9131956 20.4166667,22.2374456" id="Fill-1" fill="#10DDF2"></path>
                            <path d="M8.207625,14.318475 L8.207625,15.923475 L10.229625,17.625975 L12.640875,15.923475 L12.640875,14.318475 C12.001875,14.718225 11.233875,14.945475 10.424625,14.945475 C9.615375,14.945475 8.848125,14.718225 8.207625,14.318475" id="Fill-13" fill="#FFFFFF"></path>
                            <path d="M8.207625,14.318475 L8.207625,15.923475 L10.229625,17.625975 L12.640875,15.923475 L12.640875,14.318475 C12.001875,14.718225 11.233875,14.945475 10.424625,14.945475 C9.615375,14.945475 8.848125,14.718225 8.207625,14.318475 Z" id="Stroke-15" stroke="#1B3453" stroke-width="0.5193"></path>
                            <path d="M10.424625,14.94585 C8.817375,14.94585 7.373625,14.0763835 6.777375,12.7491877 C6.257625,11.5957393 5.991375,10.3649076 5.991375,9.12166539 L5.991375,7.46303573 C5.991375,6.68336298 6.226125,5.91683079 6.671625,5.24447255 L7.099875,4.59766538 C7.210125,4.43194842 7.464375,4.39398683 7.624125,4.52320225 C9.008625,5.64525938 10.817625,6.27162569 12.700875,6.27162569 L14.512125,6.27162569 C14.702625,6.27162569 14.857125,6.40887145 14.857125,6.57823856 L14.857125,9.12166539 C14.857125,10.3649076 14.590875,11.5957393 14.071875,12.7499178 C13.474875,14.0763835 12.031125,14.94585 10.424625,14.94585 Z" id="Stroke-17" stroke="#1B3453" stroke-width="0.6" fill="#FFFEFE"></path>
                            <path d="M12.3084,8.4273 C12.6144,8.4273 12.8619,8.67555 12.8619,8.98155 C12.8619,9.28755 12.6144,9.5358 12.3084,9.5358 C12.0024,9.5358 11.75415,9.28755 11.75415,8.98155 C11.75415,8.67555 12.0024,8.4273 12.3084,8.4273" id="Fill-19" fill="#1B3453"></path>
                            <path d="M8.5401,8.4273 C8.8461,8.4273 9.09435,8.67555 9.09435,8.98155 C9.09435,9.28755 8.8461,9.5358 8.5401,9.5358 C8.23485,9.5358 7.9866,9.28755 7.9866,8.98155 C7.9866,8.67555 8.23485,8.4273 8.5401,8.4273" id="Fill-21" fill="#1B3453"></path>
                            <path d="M5.98395,7.811325 L5.49045,7.811325 C4.97445,7.811325 4.5567,8.240325 4.5567,8.769825 L4.5567,9.415575 C4.5567,9.564075 4.59045,9.710325 4.6557,9.843825 C4.8132,10.168575 5.13645,10.373325 5.49045,10.373325 L6.11745,10.373325 L5.98395,7.811325 Z" id="Fill-23" fill="#FFFFFF"></path>
                            <path d="M5.98395,8.19585 L5.49045,8.19585 C4.97445,8.19585 4.5567,8.57260644 4.5567,9.037624 L4.5567,9.60473466 C4.5567,9.73515035 4.59045,9.86359005 4.6557,9.98083244 C4.8132,10.2660344 5.13645,10.44585 5.49045,10.44585 L6.11745,10.44585 L5.98395,8.19585 Z" id="Stroke-25" stroke="#1B3453" stroke-width="0.6"></path>
                            <path d="M14.9049,7.811325 L15.38415,7.811325 C15.8859,7.811325 16.2924,8.240325 16.2924,8.769825 L16.2924,9.415575 C16.2924,9.564075 16.2594,9.710325 16.1964,9.843825 C16.04265,10.168575 15.7284,10.373325 15.38415,10.373325 L14.7744,10.373325 L14.9049,7.811325 Z" id="Fill-27" fill="#FFFFFF"></path>
                            <path d="M14.9049,8.19585 L15.38415,8.19585 C15.8859,8.19585 16.2924,8.57260644 16.2924,9.037624 L16.2924,9.60473466 C16.2924,9.73515035 16.2594,9.86359005 16.1964,9.98083244 C16.04265,10.2660344 15.7284,10.44585 15.38415,10.44585 L14.7744,10.44585 L14.9049,8.19585 Z" id="Stroke-29" stroke="#1B3453" stroke-width="0.6"></path>
                            <path d="M8.30865,16.004175 L10.4244,17.696175 L8.6364,18.590175 C8.23515,18.790425 7.76415,18.499425 7.76415,18.051675 C7.76415,17.522925 7.8504,16.997175 8.0169,16.495425 L8.16765,16.046175 C8.18715,15.986175 8.2599,15.965175 8.30865,16.004175" id="Fill-31" fill="#FFFFFF"></path>
                            <path d="M8.30865,16.004175 L10.4244,17.696175 L8.6364,18.590175 C8.23515,18.790425 7.76415,18.499425 7.76415,18.051675 C7.76415,17.522925 7.8504,16.997175 8.0169,16.495425 L8.16765,16.046175 C8.18715,15.986175 8.2599,15.965175 8.30865,16.004175 Z" id="Stroke-33" stroke="#1B3453" stroke-width="0.5193"></path>
                            <path d="M12.53985,16.004175 L10.42485,17.696175 L12.2121,18.590175 C12.61335,18.790425 13.08435,18.499425 13.08435,18.051675 C13.08435,17.522925 12.9981,16.997175 12.8316,16.495425 L12.6816,16.046175 C12.66135,15.986175 12.5886,15.965175 12.53985,16.004175" id="Fill-35" fill="#FFFFFF"></path>
                            <path d="M12.53985,16.004175 L10.42485,17.696175 L12.2121,18.590175 C12.61335,18.790425 13.08435,18.499425 13.08435,18.051675 C13.08435,17.522925 12.9981,16.997175 12.8316,16.495425 L12.6816,16.046175 C12.66135,15.986175 12.5886,15.965175 12.53985,16.004175 Z" id="Stroke-37" stroke="#1B3453" stroke-width="0.5193"></path>
                            <path d="M9.189075,12.16665 L9.189075,12.16665 C9.981825,12.8709 11.175825,12.8709 11.968575,12.16665" id="Stroke-39" stroke="#3F3F3F" stroke-width="0.6" stroke-linecap="round"></path>
                            <path d="M9.107025,7.551675 L9.107025,7.551675 C8.747775,7.260675 8.227275,7.285425 7.896525,7.608675" id="Stroke-41" stroke="#1B3453" stroke-width="0.5193" stroke-linecap="round"></path>
                            <path d="M12.983025,7.551675 L12.983025,7.551675 C12.623775,7.260675 12.103275,7.285425 11.772525,7.608675" id="Stroke-43" stroke="#1B3453" stroke-width="0.5193" stroke-linecap="round"></path>
                            <path d="M12.2103,0.767293299 C11.54955,0.66885458 10.8633,0.670994552 10.2093,0.780846456 C8.2998,1.10184228 7.4028,2.01632372 6.87255,3.02496393 L6.80505,3.02496393 C6.37005,3.02425061 5.93505,3.11484276 5.55855,3.32242006 C4.6608,3.81604031 4.2183,4.7469282 4.3548,5.65641637 C4.52205,6.94039966 4.92105,7.93976666 5.9913,8.19585 L5.9913,7.39407376 C5.9913,6.63153035 6.22605,5.88254009 6.67155,5.22556864 L7.10055,4.59356353 C7.21005,4.43163897 7.4643,4.39454612 7.62405,4.52080447 C9.00855,5.61718354 10.8183,6.22921558 12.7008,6.22921558 L14.51205,6.22921558 C14.70255,6.22921558 14.85705,6.3633205 14.85705,6.52881169 L14.85705,8.16303709 C14.8863,8.16232377 14.91705,8.16089712 14.94555,8.1601838 C15.2928,8.14734396 16.38255,6.94182631 16.3203,5.1442497 C16.2453,2.95363153 14.48805,1.1054089 12.2103,0.767293299 Z" id="Stroke-49" fill="#FFFFFF"></path>
                            <path d="M10.3551044,1.25531182 C8.64126694,1.54249593 7.83637275,2.36171152 7.36146288,3.26489494 L7.30051983,3.26489494 C6.90959246,3.26489494 6.55095179,3.29600069 6.16618237,3.44207094 C5.73554689,3.60555335 4.69128954,4.43621095 5.10211078,5.62234481 C6.1819919,6.95775648 6.28901384,3.62264025 7.57624997,4.43621095 C8.92071312,5.28788469 10.9013623,6.13532477 12.5914171,6.13532477 L14.2160696,6.13532477 C14.3877507,6.13532477 14.5259873,6.25527882 14.5259873,6.40345735 L14.5259873,7.86760235 C14.5519996,7.86689674 14.5802415,7.86619113 14.6055106,7.8647799 C14.9169147,7.85349011 15.8949763,6.77319806 15.8392357,5.16369697 C15.7708606,3.20068425 14.1945166,1.54531838 12.1506948,1.24261081 C11.5576149,1.1544093 10.9422387,1.15652614 10.3551044,1.25531182 Z" id="Fill-11" fill="#D0F8F9"></path>
                            <path d="M12.2103,0.767293299 C11.54955,0.66885458 10.8633,0.670994552 10.2093,0.780846456 C8.2998,1.10184228 7.4028,2.01632372 6.87255,3.02496393 L6.80505,3.02496393 C6.37005,3.02425061 5.93505,3.11484276 5.55855,3.32242006 C4.6608,3.81604031 4.2183,4.7469282 4.3548,5.65641637 C4.52205,6.94039966 4.92105,7.93976666 5.9913,8.19585 L5.9913,7.39407376 C5.9913,6.63153035 6.22605,5.88254009 6.67155,5.22556864 L7.10055,4.59356353 C7.21005,4.43163897 7.4643,4.39454612 7.62405,4.52080447 C9.00855,5.61718354 10.8183,6.22921558 12.7008,6.22921558 L14.51205,6.22921558 C14.70255,6.22921558 14.85705,6.3633205 14.85705,6.52881169 L14.85705,8.16303709 C14.8863,8.16232377 14.91705,8.16089712 14.94555,8.1601838 C15.2928,8.14734396 16.38255,6.94182631 16.3203,5.1442497 C16.2453,2.95363153 14.48805,1.1054089 12.2103,0.767293299 Z" id="Stroke-49" stroke="#1B3453" stroke-width="0.6"></path>
                        </g>
                    </g>
                </g>
            </g>
        </g>
    </g>
</svg>