<?xml version="1.0" encoding="UTF-8"?>
<svg width="120px" height="120px" viewBox="0 0 120 120" version="1.1" xmlns="http://www.w3.org/2000/svg" xmlns:xlink="http://www.w3.org/1999/xlink">
    <title>8DE596BF-83D7-4028-B35A-2048208B649A</title>
    <defs>
        <polygon id="path-1" points="0.538664059 0.153 83.483207 0.153 83.483207 75.88202 0.538664059 75.88202"></polygon>
        <polygon id="path-3" points="0 0.424836721 33.7504253 0.424836721 33.7504253 13.0051111 0 13.0051111"></polygon>
    </defs>
    <g id="Illustrations" stroke="none" stroke-width="1" fill="none" fill-rule="evenodd">
        <g id="Group-117" transform="translate(8.000000, 7.000000)">
            <g id="Group-3" transform="translate(12.000000, 0.847000)">
                <mask id="mask-2" fill="white">
                    <use xlink:href="#path-1"></use>
                </mask>
                <g id="Clip-2"></g>
                <path d="M70.9337,3.1131 C62.6267,-1.9349 48.8337,-0.8439 36.6327,8.8491 C28.3997,15.3901 22.4647,24.2901 14.5377,31.1981 C11.8837,33.5101 8.9327,35.4681 6.3437,37.8531 C3.7547,40.2381 1.2397,43.1181 0.7297,46.6001 C-0.7903,56.9921 7.1897,66.3911 9.4797,67.9861 C15.0497,71.8661 21.5327,74.4261 28.2497,75.4011 C34.4897,76.3071 40.8697,75.8551 47.0667,74.6951 C54.7187,73.2621 62.2647,70.7001 68.6527,66.2511 C75.0397,61.8011 80.2077,55.3361 82.1617,47.8001 C83.1527,43.9781 83.3067,39.9961 83.4057,36.0501 C83.5377,30.7511 83.6997,21.9491 82.0487,16.9131 C80.2867,11.5331 78.3537,7.6221 70.9337,3.1131" id="Fill-1" fill="#CAF7F9" mask="url(#mask-2)"></path>
            </g>
            <path d="M14.1573,23.0969 C16.6883,22.1479 19.2343,23.3269 20.2553,24.1919 C21.1853,24.9799 22.3893,25.4069 23.5973,25.2379 C24.8113,25.0679 25.9663,24.4719 25.6223,22.7489 C25.4153,21.7149 24.8243,20.9749 24.1183,20.1919 C22.2363,18.1049 16.2333,14.7209 10.0073,18.1169 C5.4413,20.6069 10.8373,24.3419 14.1573,23.0969" id="Fill-4" fill="#FFFFFF"></path>
            <path d="M108.1173,93.8849 C108.1173,99.9399 84.6553,104.8469 55.7123,104.8469 C26.7693,104.8469 3.3063,99.9399 3.3063,93.8849 C3.3063,87.8309 26.7693,82.9239 55.7123,82.9239 C84.6553,82.9239 108.1173,87.8309 108.1173,93.8849" id="Fill-8" fill="#FDF5EC"></path>
            <g id="Group" transform="translate(0.000000, 0.351825)">
                <path d="M54.1104444,54.0598614 C53.8982222,54.0576392 53.6815556,54.0520836 53.4648889,54.0465281 C53.6815556,54.0520836 53.8982222,54.0576392 54.1104444,54.0598614 M53.0448889,54.0331947 C52.8015556,54.0231947 52.5537778,54.0087503 52.3048889,53.9954169 C52.5537778,54.0087503 52.8026667,54.0231947 53.0448889,54.0331947 M68.436,48.6409725 C68.466,48.6020836 68.4948889,48.5643058 68.5237778,48.5265281 C68.4948889,48.5643058 68.466,48.6020836 68.436,48.6409725 M68.1593333,48.9865281 C68.1948889,48.9454169 68.2293333,48.9043058 68.2626667,48.8631947 C68.2293333,48.9043058 68.1948889,48.9454169 68.1593333,48.9865281 M67.8604444,49.3309725 C67.8993333,49.2876392 67.9393333,49.2443058 67.9771111,49.2009725 C67.9393333,49.2443058 67.8993333,49.2876392 67.8604444,49.3309725 M67.5393333,49.6731947 C67.5815556,49.6287503 67.6271111,49.5854169 67.6682222,49.5409725 C67.6271111,49.5854169 67.5815556,49.6287503 67.5393333,49.6731947 M67.206,49.9987503 C67.2482222,49.9598614 67.2926667,49.9198614 67.3337778,49.8798614 C67.2926667,49.9198614 67.2482222,49.9598614 67.206,49.9987503 M66.6015556,50.5331947 C66.6704444,50.4765281 66.7326667,50.4209725 66.7993333,50.3643058 C66.7326667,50.4209725 66.6704444,50.4765281 66.6015556,50.5331947 M59.9515556,53.5387503 C60.1537778,53.4954169 60.3515556,53.4498614 60.546,53.4031947 C60.3515556,53.4498614 60.1537778,53.4954169 59.9515556,53.5387503 M59.1548889,53.6898614 C59.3304444,53.6598614 59.5015556,53.6265281 59.6726667,53.5920836 C59.5015556,53.6265281 59.3304444,53.6598614 59.1548889,53.6898614 M58.3171111,53.8187503 C58.4893333,53.7943058 58.6582222,53.7687503 58.8248889,53.7420836 C58.6582222,53.7687503 58.4893333,53.7943058 58.3171111,53.8187503 M57.4393333,53.9198614 C57.6148889,53.9031947 57.786,53.8831947 57.9571111,53.8631947 C57.786,53.8831947 57.6148889,53.9031947 57.4393333,53.9198614 M60.7104444,53.3643058 C60.866,53.3254169 61.0137778,53.2831947 61.1648889,53.2420836 C61.1571111,53.2443058 61.1493333,53.2465281 61.1426667,53.2487503 C60.9993333,53.2876392 60.8582222,53.3276392 60.7104444,53.3643058 M56.5193333,53.9965281 C56.6993333,53.9843058 56.8771111,53.9698614 57.0526667,53.9554169 C56.8771111,53.9698614 56.6993333,53.9843058 56.5193333,53.9965281 M55.5526667,54.0431947 C55.7415556,54.0365281 55.9293333,54.0298614 56.1126667,54.0198614 C55.9293333,54.0298614 55.7415556,54.0365281 55.5526667,54.0431947 M54.5382222,54.0598614 C54.7371111,54.0598614 54.9371111,54.0587503 55.1326667,54.0543058 C54.9371111,54.0587503 54.7371111,54.0598614 54.5382222,54.0598614 M66.4071111,50.6854169 C66.3337778,50.7431947 66.2604444,50.8020836 66.1837778,50.8587503 C66.2604444,50.8020836 66.3337778,50.7431947 66.4071111,50.6854169 M78.0504444,86.4454169 C78.0704444,86.3665281 78.0871111,86.2831947 78.1015556,86.1976392 C78.0871111,86.2831947 78.0704444,86.3665281 78.0504444,86.4454169 M77.9371111,86.7709725 C77.966,86.7054169 77.9893333,86.6376392 78.0126667,86.5665281 C77.9893333,86.6376392 77.966,86.7054169 77.9371111,86.7709725 M77.7871111,87.0565281 C77.8237778,86.9998614 77.8571111,86.9387503 77.8882222,86.8754169 C77.8571111,86.9387503 77.8237778,86.9998614 77.7871111,87.0565281 M77.6004444,87.3120836 C77.6471111,87.2576392 77.6926667,87.2009725 77.7348889,87.1409725 C77.6926667,87.2009725 77.6471111,87.2576392 77.6004444,87.3120836 M78.1215556,86.0787503 C78.1382222,85.9476392 78.1493333,85.8109725 78.1493333,85.6643058 C78.1493333,85.8109725 78.1382222,85.9476392 78.1215556,86.0787503 M76.9148889,87.8443058 C76.9771111,87.8120836 77.0382222,87.7776392 77.0982222,87.7398614 C77.0382222,87.7776392 76.9771111,87.8120836 76.9148889,87.8443058 M76.6926667,87.9443058 C76.746,87.9231947 76.8004444,87.8987503 76.8548889,87.8731947 C76.8004444,87.8987503 76.746,87.9231947 76.6926667,87.9443058 M77.1371111,87.7165281 C77.2837778,87.6209725 77.426,87.5054169 77.556,87.3654169 C77.426,87.5054169 77.2837778,87.6209725 77.1371111,87.7165281 M76.476,88.0220836 C76.5248889,88.0065281 76.576,87.9887503 76.6271111,87.9709725 C76.576,87.9887503 76.5248889,88.0065281 76.476,88.0220836 M76.0737778,88.1209725 C76.1182222,88.1131947 76.1626667,88.1043058 76.2104444,88.0931947 C76.1626667,88.1043058 76.1182222,88.1131947 76.0737778,88.1209725 M76.2682222,88.0787503 C76.3148889,88.0687503 76.3615556,88.0565281 76.4093333,88.0420836 C76.3615556,88.0565281 76.3148889,88.0687503 76.2682222,88.0787503 M101.893778,61.3676392 L101.708222,60.8754169 C101.338222,58.9243058 99.6871111,55.1098614 98.8393333,53.2231947 L97.9237778,50.7820836 C97.7637778,50.3565281 97.3826667,50.0420836 96.9315556,49.9920836 C94.3348889,49.7020836 93.3004444,51.2509725 92.9026667,52.2731947 L93.6682222,52.1198614 L89.8182222,52.8909725 C89.7393333,52.8220836 89.6626667,52.7531947 89.5771111,52.6865281 C89.0737778,52.3009725 88.4015556,52.2065281 87.7993333,52.4076392 L79.186,55.2787503 C77.6548889,55.7887503 75.9682222,55.3065281 74.9393333,54.0643058 L69.326,47.2898614 C69.5026667,46.9720836 69.6548889,46.6643058 69.7826667,46.3720836 C70.3815556,45.0087503 69.9948889,43.4154169 68.856,42.4543058 C67.5693333,41.3665281 65.7593333,39.8509725 64.2848889,38.6720836 C61.6926667,36.5976392 63.9604444,28.4698614 57.6237778,24.5687503 C55.1337778,23.0365281 51.9448889,23.0376392 49.8626667,23.2643058 C49.8593333,23.2631947 49.8571111,23.2587503 49.8537778,23.2565281 L50.1148889,23.1143058 C50.1148889,23.1143058 60.1193333,20.3209725 56.6471111,14.3898614 C53.176,8.45763917 48.0682222,2.87208361 48.0682222,2.87208361 C48.0682222,2.87208361 43.2282222,-2.2590275 35.7548889,1.19541695 C35.7548889,1.19541695 27.7315556,5.27986139 29.2671111,14.1831947 C30.4182222,20.8587503 32.586,25.1631947 32.7382222,25.5620836 C33.0126667,26.2843058 33.8348889,28.0887503 35.5915556,28.8820836 C34.4748889,29.3120836 33.5093333,29.6754169 32.8115556,29.9354169 C32.1593333,30.1787503 31.6604444,30.7109725 31.4604444,31.3609725 C31.2271111,31.2220836 30.9804444,31.0954169 30.7082222,30.9954169 C30.0426667,30.7476392 29.266,30.6120836 28.4071111,30.5854169 C26.4048889,30.5254169 23.9615556,31.0620836 21.4626667,32.1765281 C20.7482222,32.4954169 20.0304444,32.8609725 19.316,33.2731947 C19.1382222,33.3754169 18.9626667,33.4798614 18.7904444,33.5865281 C18.7271111,33.6254169 18.6648889,33.6643058 18.6037778,33.7031947 C18.4948889,33.7720836 18.386,33.8387503 18.2793333,33.9087503 C18.2082222,33.9543058 18.1415556,33.9998614 18.0726667,34.0454169 C17.9748889,34.1098614 17.8782222,34.1743058 17.7826667,34.2387503 C17.7104444,34.2876392 17.6426667,34.3387503 17.5715556,34.3876392 C17.4982222,34.4398614 17.4237778,34.4909725 17.3515556,34.5431947 L12.4437778,33.4165281 C11.8115556,32.8943058 9.96711111,31.9098614 9.96711111,31.9098614 L6.31155556,29.3787503 C6.06711111,29.2098614 5.74377778,29.2020836 5.49155556,29.3609725 C5.12377778,29.5920836 5.03044444,30.0865281 5.28822222,30.4365281 L7.13711111,32.7665281 L1.27044444,32.8809725 C0.956,32.8376392 0.652666667,33.0165281 0.538222222,33.3120836 C0.393777778,33.6898614 0.606,34.1098614 0.994888889,34.2176392 L4.10377778,34.5176392 L1.01266667,35.0609725 C0.918222222,35.0765281 0.829333333,35.1431947 0.750444444,35.2287503 C0.490444444,35.5143058 0.639333333,35.9887503 1.02044444,36.0476392 C1.02266667,36.0487503 1.02377778,36.0487503 1.026,36.0487503 L4.01155556,36.5654169 L1.70044444,37.2398614 C1.60488889,37.2731947 1.52155556,37.3720836 1.45155556,37.4865281 C1.25155556,37.8220836 1.52377778,38.2620836 1.91266667,38.2254169 L1.91933333,38.2254169 L3.60266667,38.3543058 L3.22155556,38.5231947 C2.96933333,38.6343058 2.856,38.9309725 2.96822222,39.1831947 C3.066,39.4031947 3.30822222,39.5220836 3.54266667,39.4654169 L7.10266667,38.9076392 C7.326,38.8720836 7.55266667,38.8654169 7.77822222,38.8543058 C9.68822222,38.7698614 11.366,37.3076392 11.366,37.3076392 L13.5915556,38.0754169 C13.5626667,38.1120836 13.5326667,38.1487503 13.5048889,38.1854169 C13.4904444,38.2043058 13.476,38.2220836 13.4615556,38.2409725 C13.376,38.3531947 13.2948889,38.4654169 13.2137778,38.5776392 C13.2026667,38.5909725 13.1937778,38.6054169 13.1837778,38.6187503 C13.1004444,38.7354169 13.0204444,38.8531947 12.9437778,38.9698614 C12.9371111,38.9787503 12.9315556,38.9876392 12.9248889,38.9976392 C12.846,39.1176392 12.7704444,39.2387503 12.6971111,39.3609725 C12.6948889,39.3654169 12.6926667,39.3698614 12.6893333,39.3743058 C12.6148889,39.4976392 12.5448889,39.6198614 12.4771111,39.7431947 L12.4737778,39.7487503 C11.5182222,41.5020836 11.2882222,43.1743058 11.9848889,44.4543058 C11.926,44.6998614 12.2171111,45.0109725 12.6926667,45.3231947 C13.3148889,45.8754169 14.1682222,46.2343058 15.1871111,46.4031947 C16.1671111,46.6776392 17.096,46.7698614 17.5071111,46.4820836 L17.5082222,46.4820836 C17.8515556,46.4565281 18.2048889,46.4131947 18.5671111,46.3576392 C18.6526667,46.3431947 18.7382222,46.3298614 18.8237778,46.3165281 C18.9826667,46.2876392 19.1393333,46.2598614 19.3004444,46.2265281 C19.2482222,46.2376392 19.1937778,46.2520836 19.1415556,46.2631947 L19.1393333,46.2643058 L21.0604444,46.9954169 C21.0604444,46.9954169 26.4226667,46.5065281 31.2982222,40.6576392 L31.296,38.8287503 C31.2971111,38.8276392 31.2971111,38.8265281 31.2982222,38.8265281 C31.3993333,38.6909725 31.4971111,38.5565281 31.5915556,38.4209725 C31.6248889,38.3754169 31.6537778,38.3298614 31.6848889,38.2843058 C31.7448889,38.1965281 31.8048889,38.1087503 31.8604444,38.0209725 L32.8948889,37.7065281 C33.2293333,38.0443058 33.6682222,38.2998614 34.2471111,38.4220836 C35.0015556,38.8198614 35.9082222,38.8520836 36.7004444,38.4631947 L36.9048889,38.4631947 L40.8037778,36.5131947 L41.0037778,36.3131947 L41.326,36.1520836 C41.4326667,36.5409725 41.8093333,37.8065281 42.4571111,38.9687503 C42.8548889,39.7987503 43.276,40.3787503 43.7437778,41.0598614 L43.4748889,41.4420836 C43.1626667,41.8854169 42.7371111,42.2376392 42.2415556,42.4587503 L34.9848889,45.7154169 C34.166,45.7154169 32.1148889,46.1254169 32.1148889,46.1254169 L27.6848889,46.4943058 C27.3871111,46.5187503 27.1337778,46.7187503 27.0393333,47.0009725 C26.9026667,47.4131947 27.1437778,47.8543058 27.566,47.9598614 L30.4748889,48.5854169 L26.0171111,52.4009725 C25.7471111,52.5676392 25.626,52.8976392 25.7271111,53.1998614 C25.8537778,53.5831947 26.2848889,53.7731947 26.6537778,53.6087503 L29.2448889,51.8654169 L27.2026667,54.2476392 C27.1393333,54.3209725 27.1137778,54.4287503 27.1071111,54.5454169 C27.0882222,54.9309725 27.5048889,55.2031947 27.836,55.0065281 C27.8371111,55.0054169 27.8393333,55.0043058 27.8404444,55.0031947 L30.4748889,53.5043058 L29.1182222,55.4931947 C29.066,55.5798614 29.0637778,55.7098614 29.0837778,55.8420836 C29.1415556,56.2287503 29.6315556,56.3954169 29.9104444,56.1209725 C29.9115556,56.1187503 29.9137778,56.1176392 29.9148889,56.1154169 L31.2948889,55.1454169 L31.1093333,55.5187503 C30.9848889,55.7643058 31.0848889,56.0654169 31.3315556,56.1887503 C31.5482222,56.2965281 31.8104444,56.2343058 31.9548889,56.0420836 L34.3504444,53.3487503 C34.4993333,53.1798614 34.6693333,53.0309725 34.8371111,52.8798614 C36.2593333,51.5987503 36.626,49.4054169 36.626,49.4054169 L44.9871111,46.7987503 C45.4393333,46.6576392 45.8515556,46.4165281 46.1971111,46.0976392 L48.116,51.1387503 C48.116,51.1387503 48.1926667,51.1698614 48.336,51.2198614 C48.4826667,51.6143058 48.6193333,51.9809725 48.7371111,52.3020836 C49.0593333,53.1754169 49.8537778,53.7920836 50.7815556,53.8798614 C51.1737778,53.9165281 51.5582222,53.9487503 51.9348889,53.9731947 C51.5582222,53.9487503 51.1737778,53.9165281 50.7815556,53.8798614 C50.716,53.8731947 50.6537778,53.8598614 50.5893333,53.8476392 C50.5393333,55.0420836 50.5204444,56.4887503 50.5815556,58.0831947 C50.7237778,72.1754169 57.1093333,78.9843058 62.1326667,82.1654169 C64.8393333,84.1587503 67.3604444,85.3176392 68.8871111,85.9054169 C69.646,86.1976392 70.4915556,86.0331947 71.0893333,85.5087503 L75.646,88.1676392 C75.646,88.1676392 75.6993333,88.1665281 75.7837778,88.1598614 L75.7826667,88.1598614 C75.2748889,89.5654169 74.3382222,92.2409725 73.6426667,94.6754169 C73.1182222,96.5109725 73.8293333,97.5231947 74.626,98.0698614 C75.3415556,98.5609725 76.3282222,98.2831947 76.6893333,97.4943058 L81.2615556,87.5176392 C81.5148889,86.9665281 81.3871111,86.2998614 80.9204444,85.9109725 C79.5493333,84.7698614 78.116,84.9187503 77.4826667,85.0654169 L74.0182222,81.9465281 C73.9826667,82.0031947 73.9493333,82.0609725 73.906,82.1143058 C74.4504444,81.4509725 74.3448889,80.4709725 73.6737778,79.9354169 L65.0882222,73.1031947 C63.5104444,71.8465281 62.4793333,70.0276392 62.2126667,68.0287503 L60.8426667,57.7543058 C60.826,57.6298614 60.8693333,57.5409725 60.9426667,57.4765281 L61.2793333,57.4765281 C72.8782222,66.7554169 81.9971111,64.0954169 86.6493333,61.4398614 C87.9404444,60.8020836 89.2571111,60.0165281 90.596,59.0498614 C91.0048889,58.7543058 91.2726667,58.3031947 91.3515556,57.8043058 C91.3993333,57.5054169 91.4382222,57.1409725 91.4415556,56.7365281 L91.4415556,56.7387503 L93.7982222,55.5598614 C94.7248889,57.4809725 96.066,60.0765281 97.2193333,61.6031947 C97.6248889,62.1998614 98.0248889,62.6865281 98.3304444,62.8398614 C98.5115556,62.9298614 98.7248889,63.0020836 98.9571111,63.0531947 C99.9371111,63.3909725 100.852667,63.0409725 101.454889,62.6787503 C101.900444,62.4120836 102.074889,61.8531947 101.893778,61.3676392" id="Fill-6" fill="#FFFFFF"></path>
                <path d="M62.9721111,96.5667503 C64.9621111,94.1945281 68.8232222,91.3423058 73.3921111,96.8945281 C73.9743333,97.6023058 73.4587778,98.6711947 72.5421111,98.6711947 L72.2021111,98.7778614 C69.381,99.6589725 66.3532222,99.6211947 63.5554444,98.6711947 C62.6732222,98.3711947 62.3732222,97.2811947 62.9721111,96.5667503" id="Fill-10" fill="#FFFFFF"></path>
                <path d="M34.3696667,32.0973058 L32.0296667,33.1006392 C32.0296667,33.1006392 31.0541111,37.9761947 34.4663333,38.4628614 L36.9041111,38.4628614 L40.8041111,36.5139725 L41.2907778,36.0261947 C41.2907778,36.0261947 42.2663333,39.9261947 44.2163333,40.9017503 L48.1163333,51.1395281 C48.1163333,51.1395281 52.9918889,53.0895281 58.8418889,51.6261947 C61.1952222,51.0384169 63.153,49.9773058 64.6552222,48.9184169 C66.6863333,47.4839725 67.9652222,46.5417503 66.2607778,44.7306392 L61.2796667,39.4384169 L61.0718889,38.3506392 C60.0385556,32.9173058 55.5663333,28.8039725 50.0674444,28.2261947 L43.6607778,29.3406392 C40.4674444,29.8961947 37.3496667,30.8217503 34.3696667,32.0973058" id="Fill-12" fill="#CCF9EA"></path>
                <path d="M57.3796667,57.4760836 L59.2396667,67.7083058 C59.9285556,71.4960836 61.8996667,74.9316392 64.823,77.4383058 L69.1674444,81.1616392 C69.9085556,81.7971947 69.953,82.9283058 69.2618889,83.6194169 L68.8385556,84.0438614 C68.363,84.5194169 67.6618889,84.6849725 67.0207778,84.4816392 C62.9841111,83.1983058 49.1496667,77.1027503 50.6952222,54.1194169 L57.3796667,54.1194169 C57.3796667,54.1194169 64.2052222,53.0894169 65.6674444,50.6505281 L72.4841111,56.4449725 C74.3341111,58.0171947 76.8085556,58.6416392 79.1818889,58.1327503 L87.3718889,56.3771947 C88.3374444,56.1705281 89.303,56.7216392 89.6163333,57.6594169 L90.0418889,58.9383058 C90.0418889,58.9383058 78.3418889,71.1271947 61.2796667,57.4760836 L57.3796667,57.4760836 Z" id="Fill-14" fill="#A0EFF7"></path>
                <path d="M98.3301111,52.1136392 C98.3301111,52.1136392 93.9434444,52.6003058 95.4056667,58.4514169 C95.4056667,58.4514169 97.3556667,62.3514169 98.3301111,62.8391947 C99.3056667,63.3269725 101.255667,63.3269725 101.742333,61.8636392 C102.231222,60.4014169 98.3301111,52.1136392 98.3301111,52.1136392" id="Fill-16" fill="#F4E7CF"></path>
                <path d="M75.4178889,89.6526392 C75.4178889,89.6526392 72.9801111,95.0148614 73.4678889,95.9893058 C73.9556667,96.9648614 74.9301111,99.8904169 76.8801111,97.4526392 L80.2934444,89.6526392 C80.2934444,89.6526392 77.3678889,87.7015281 75.4178889,89.6526392" id="Fill-18" fill="#F4E7CF"></path>
                <path d="M41.4714444,35.5858614 C41.5414444,35.5858614 41.6125556,35.6014169 41.6781111,35.6314169 C41.8147778,35.6947503 41.9136667,35.8147503 41.9503333,35.9603058 C42.5892222,38.5169725 43.2092222,39.4158614 43.9947778,40.5558614 C44.4492222,41.2125281 44.9636667,41.9591947 45.5414444,43.1169725 C46.6747778,45.3825281 48.3203333,49.7380836 49.2003333,52.1314169 C49.4558889,52.8258614 50.0947778,53.3191947 50.8281111,53.3880836 C63.637,54.6091947 67.917,49.3925281 69.3314444,46.1747503 C69.8347778,45.0269725 69.5092222,43.6514169 68.5381111,42.8303058 C67.2658889,41.7558614 65.4414444,40.2291947 63.977,39.0580836 C62.8281111,38.1380836 62.5347778,36.3291947 62.1936667,34.2336392 C61.6903333,31.1291947 61.0636667,27.2658614 57.3647778,24.9903058 C53.7581111,22.7691947 48.4803333,23.9525281 47.877,24.0991947 C44.1192222,26.1725281 36.2181111,29.1925281 32.9836667,30.3991947 C32.3681111,30.6280836 31.9292222,31.1836392 31.8647778,31.8147503 C31.5758889,34.6458614 32.8381111,36.5269725 33.9492222,37.6069725 C34.6336667,38.2714169 35.6592222,38.4336392 36.4981111,38.0158614 L41.2514444,35.6380836 C41.3203333,35.6036392 41.3958889,35.5858614 41.4714444,35.5858614 M54.4714444,54.5569725 C53.3081111,54.5569725 52.0658889,54.4980836 50.7347778,54.3714169 C49.6258889,54.2658614 48.6603333,53.5214169 48.2736667,52.4725281 C47.5714444,50.5603058 45.8125556,45.8636392 44.6592222,43.5603058 C44.1114444,42.4614169 43.6392222,41.7769725 43.1825556,41.1158614 C42.4347778,40.0314169 41.7814444,39.0836392 41.1492222,36.7925281 L36.9403333,38.8958614 C35.7247778,39.5047503 34.2458889,39.2703058 33.2614444,38.3147503 C31.9958889,37.0836392 30.5547778,34.9380836 30.8836667,31.7147503 C30.9847778,30.7136392 31.6747778,29.8336392 32.6392222,29.4736392 C35.8692222,28.2691947 43.7792222,25.2458614 47.4547778,23.2036392 C47.4903333,23.1847503 47.5281111,23.1691947 47.567,23.1580836 C47.817,23.0936392 53.7081111,21.5803058 57.8825556,24.1491947 C61.9647778,26.6625281 62.6325556,30.7725281 63.1681111,34.0758614 C63.4758889,35.9703058 63.7414444,37.6047503 64.5947778,38.2869725 C66.067,39.4647503 67.8981111,40.9980836 69.1758889,42.0769725 C70.4781111,43.1780836 70.9136667,45.0269725 70.2347778,46.5725281 C68.8647778,49.6891947 65.0314444,54.5569725 54.4714444,54.5569725" id="Fill-20" fill="#123456"></path>
                <path d="M41.4714444,36.5733058 C41.2647778,36.5733058 41.0725556,36.4421947 41.0036667,36.2344169 C40.4781111,34.6610836 39.9681111,31.6233058 39.9481111,31.4944169 C39.9036667,31.2266392 40.0847778,30.9710836 40.3525556,30.9266392 C40.6203333,30.8810836 40.877,31.0621947 40.9214444,31.3310836 C40.9258889,31.3633058 41.4403333,34.4233058 41.9392222,35.9233058 C42.0258889,36.1810836 41.8858889,36.4610836 41.6281111,36.5477503 C41.5758889,36.5644169 41.5236667,36.5733058 41.4714444,36.5733058" id="Fill-22" fill="#123456"></path>
                <path d="M55.1053333,25.6564169 C54.4453333,25.6564169 52.7264444,25.9319725 51.2342222,28.5475281 C49.7386667,31.1630836 47.982,33.7719725 47.0675556,35.0930836 C46.8808889,35.3641947 46.9031111,35.7219725 47.122,35.9630836 C48.4264444,37.3997503 51.7842222,40.5141947 55.0753333,38.8430836 L58.1208889,30.7219725 C58.1375556,30.6175281 58.9742222,26.5886392 55.3675556,25.6741947 C55.3353333,25.6686392 55.2431111,25.6564169 55.1053333,25.6564169 M53.082,40.3186392 C50.1297778,40.3186392 47.5408889,37.8941947 46.392,36.6264169 C45.862,36.0430836 45.8064444,35.1819725 46.2564444,34.5308614 C47.162,33.2230836 48.9008889,30.6408614 50.3764444,28.0575281 C52.602,24.1630836 55.4497778,24.6841947 55.5675556,24.7075281 C55.5753333,24.7075281 55.5831111,24.7097503 55.5908889,24.7119725 C59.2408889,25.6253058 59.4586667,29.2253058 59.0642222,31.0019725 L55.9331111,39.3641947 C55.892,39.4741947 55.8131111,39.5653058 55.7108889,39.6219725 C54.822,40.1164169 53.9353333,40.3186392 53.082,40.3186392" id="Fill-24" fill="#123456"></path>
                <path d="M57.6205556,58.1205281 C57.3938889,58.1205281 57.1894444,57.9627503 57.1394444,57.7316392 C57.0827778,57.4649725 57.2505556,57.2027503 57.5172222,57.1449725 C57.795,57.0838614 60.2738889,56.5660836 61.5427778,56.8638614 C61.8094444,56.9271947 61.9727778,57.1927503 61.9105556,57.4583058 C61.8483333,57.7238614 61.5794444,57.8860836 61.3161111,57.8249725 C60.4238889,57.6127503 58.4227778,57.9583058 57.7261111,58.1094169 C57.6894444,58.1171947 57.655,58.1205281 57.6205556,58.1205281" id="Fill-26" fill="#123456"></path>
                <path d="M31.2945556,55.6389725 C31.169,55.6389725 31.0412222,55.5911947 30.9456667,55.4945281 C30.7534444,55.3011947 30.7534444,54.9889725 30.9456667,54.7956392 L32.1756667,53.5656392 C32.369,53.3734169 32.6812222,53.3734169 32.8745556,53.5656392 C33.0678889,53.7589725 33.0678889,54.0711947 32.8745556,54.2645281 L31.6434444,55.4945281 C31.5478889,55.5911947 31.4201111,55.6389725 31.2945556,55.6389725" id="Fill-28" fill="#123456"></path>
                <path d="M3.60144444,38.8475281 C3.35033333,38.8475281 3.13588889,38.6553058 3.11255556,38.4008614 C3.08477778,38.1297503 3.28366667,37.8886392 3.55477778,37.8619725 L5.287,37.6941947 C5.54588889,37.6597503 5.79922222,37.8664169 5.82477778,38.1375281 C5.85144444,38.4086392 5.65366667,38.6497503 5.38255556,38.6764169 L3.65033333,38.8441947 C3.63366667,38.8464169 3.61811111,38.8475281 3.60144444,38.8475281" id="Fill-30" fill="#123456"></path>
                <path d="M62.9113333,96.5635281 C64.5168889,94.6501947 67.6313333,92.3490836 71.318,96.8268614 C71.788,97.3979725 71.3724444,98.2613058 70.6335556,98.2613058 L70.358,98.3468614 C68.0824444,99.0579725 65.6402222,99.0279725 63.3824444,98.2613058 C62.6702222,98.0201947 62.428,97.1401947 62.9113333,96.5635281" id="Fill-32" fill="#C6B79E"></path>
                <path d="M14.5693333,23.2409725 C16.6582222,23.2409725 18.5448889,24.1454169 19.5182222,24.9698614 C20.4848889,25.7876392 21.6826667,26.1676392 22.8126667,26.0087503 C23.6104444,25.8976392 24.156,25.6409725 24.4348889,25.2487503 C24.6671111,24.9209725 24.7271111,24.4609725 24.6104444,23.8798614 C24.4026667,22.8387503 23.7882222,22.0920836 23.066,21.2909725 C21.0182222,19.0176392 14.6493333,15.4898614 8.04155556,19.0976392 C7.04822222,19.6387503 5.97822222,20.5309725 6.51377778,21.7031947 C7.196,23.1954169 10.1371111,24.4365281 12.2093333,23.6598614 C12.9993333,23.3643058 13.7982222,23.2409725 14.5693333,23.2409725 M22.3048889,27.1143058 C21.0804444,27.1143058 19.8426667,26.6465281 18.8271111,25.7865281 C17.6871111,24.8198614 15.0837778,23.7254169 12.5848889,24.6620836 C10.1415556,25.5787503 6.51933333,24.2865281 5.54044444,22.1487503 C5.22044444,21.4498614 4.77488889,19.6598614 7.52933333,18.1576392 C14.7004444,14.2454169 21.6293333,18.0976392 23.8615556,20.5754169 C24.6604444,21.4598614 25.3982222,22.3643058 25.6593333,23.6698614 C25.836,24.5509725 25.7171111,25.2909725 25.3071111,25.8676392 C24.8515556,26.5098614 24.0626667,26.9154169 22.9615556,27.0687503 C22.7426667,27.0998614 22.5237778,27.1143058 22.3048889,27.1143058" id="Fill-34" fill="#123456"></path>
                <path d="M51.0634444,54.4009725 C50.909,59.2831947 51.3145556,67.8487503 55.2856667,74.1365281 C59.809,81.2976392 66.4278889,84.4298614 69.0645556,85.4454169 C69.739,85.7054169 70.499,85.4998614 70.9601111,84.9376392 L73.5245556,81.8031947 C73.7034444,81.5843058 73.7845556,81.3098614 73.7556667,81.0287503 C73.7256667,80.7487503 73.5867778,80.4976392 73.3667778,80.3220836 L64.7812222,73.4887503 C63.0945556,72.1465281 62.009,70.2298614 61.7245556,68.0931947 L60.3534444,57.8187503 C60.3067778,57.4676392 60.4645556,57.1587503 60.7734444,56.9920836 C61.2812222,56.7198614 62.0534444,56.9076392 62.4523333,57.2543058 C66.5078889,60.7943058 77.339,68.0143058 90.3067778,58.6487503 C90.6023333,58.4365281 90.8067778,58.0998614 90.8645556,57.7276392 C91.0467778,56.5854169 91.0834444,54.4620836 89.2767778,53.0798614 C88.9112222,52.7987503 88.419,52.7231947 87.9556667,52.8754169 L79.3423333,55.7465281 C77.609,56.3265281 75.7278889,55.7887503 74.559,54.3787503 L69.3923333,48.1420836 C67.1301111,51.6876392 62.1178889,55.3809725 51.0634444,54.4009725 M69.6612222,86.5431947 C69.3434444,86.5431947 69.0201111,86.4854169 68.7101111,86.3665281 C65.9823333,85.3165281 59.1323333,82.0743058 54.4512222,74.6620836 C50.1878889,67.9131947 49.8923333,58.7120836 50.0967778,53.8265281 C50.1034444,53.6854169 50.169,53.5531947 50.2801111,53.4643058 C50.3923333,53.3754169 50.5345556,53.3409725 50.6734444,53.3609725 C50.7678889,53.3798614 50.7967778,53.3865281 50.8256667,53.3887503 C62.2412222,54.4754169 66.9523333,50.5409725 68.8945556,47.0498614 C68.9734444,46.9076392 69.119,46.8131947 69.2812222,46.7976392 C69.4412222,46.7809725 69.6023333,46.8487503 69.7056667,46.9743058 L75.319,53.7487503 C76.2256667,54.8420836 77.6834444,55.2598614 79.0312222,54.8098614 L87.6445556,51.9398614 C88.4145556,51.6820836 89.2501111,51.8154169 89.8767778,52.2943058 L89.8778889,52.2943058 C92.0901111,53.9887503 92.0567778,56.5220836 91.839,57.8831947 C91.739,58.5131947 91.3912222,59.0843058 90.8856667,59.4498614 C76.9623333,69.5020836 65.1056667,60.8809725 61.8034444,57.9987503 C61.6912222,57.9009725 61.4901111,57.8531947 61.3545556,57.8498614 L62.7023333,67.9631947 C62.9523333,69.8454169 63.909,71.5343058 65.3945556,72.7165281 L73.9812222,79.5498614 C74.4101111,79.8909725 74.6778889,80.3798614 74.7367778,80.9243058 C74.7934444,81.4687503 74.6356667,82.0031947 74.2878889,82.4276392 L71.7234444,85.5620836 C71.2045556,86.1965281 70.4423333,86.5431947 69.6612222,86.5431947" id="Fill-36" fill="#123456"></path>
                <g id="Group-40" transform="translate(0.000000, 28.327973)">
                    <mask id="mask-4" fill="white">
                        <use xlink:href="#path-3"></use>
                    </mask>
                    <g id="Clip-39"></g>
                    <path d="M11.3662222,8.48622222 C11.4206667,8.48622222 11.474,8.49511111 11.5273333,8.51288889 L21.1017778,11.814 C21.6273333,12.0273333 22.1728889,12.074 22.7028889,11.9606667 L32.4051111,9.01288889 C31.6862222,8.05622222 30.9928889,6.69288889 30.8628889,4.90622222 L23.3462222,7.64733333 C22.6984444,7.82733333 22.0562222,7.82733333 21.4484444,7.66066667 L12.3328889,5.56955556 C12.2595556,5.55288889 12.1895556,5.51844444 12.1295556,5.46955556 C11.6417778,5.06844444 10.2351111,4.284 9.734,4.01622222 L6.03066667,1.45733333 C5.94844444,1.39955556 5.83844444,1.39844444 5.75288889,1.45177778 C5.67288889,1.50177778 5.64844444,1.57733333 5.64066667,1.61733333 C5.63288889,1.65733333 5.62733333,1.73733333 5.68511111,1.814 L7.524,4.13177778 C7.64066667,4.27844444 7.664,4.47955556 7.584,4.64955556 C7.504,4.81844444 7.33511111,4.92844444 7.14733333,4.93177778 L1.28066667,5.04511111 C1.25066667,5.05288889 1.22844444,5.04511111 1.204,5.04066667 C1.11955556,5.03288889 1.03066667,5.08066667 1.00066667,5.16177778 C0.972888889,5.23066667 0.992888889,5.28844444 1.00733333,5.31622222 C1.01844444,5.34066667 1.04622222,5.38066667 1.09844444,5.40511111 L4.15177778,5.69844444 C4.39733333,5.72288889 4.58622222,5.92511111 4.59622222,6.17066667 C4.60622222,6.41844444 4.43288889,6.634 4.18844444,6.67622222 L1.09844444,7.21844444 C1.12622222,7.22177778 1.15288889,7.234 1.17955556,7.24733333 L4.09511111,7.75177778 C4.32177778,7.79066667 4.49177778,7.98066667 4.504,8.21066667 C4.51733333,8.43955556 4.37066667,8.64733333 4.14955556,8.71177778 L1.90733333,9.36511111 C1.89955556,9.37511111 1.89177778,9.38844444 1.87955556,9.40622222 C1.90511111,9.40288889 1.93177778,9.40288889 1.95733333,9.40511111 L3.64066667,9.53288889 C3.86511111,9.55066667 4.05066667,9.71844444 4.08844444,9.94177778 C4.12733333,10.164 4.00955556,10.384 3.80288889,10.4762222 L3.42288889,10.6462222 L7.02733333,10.0917778 C7.25622222,10.0562222 7.48844444,10.0451111 7.72066667,10.0362222 C9.47511111,9.95844444 11.0262222,8.62177778 11.0406667,8.60733333 C11.1328889,8.52844444 11.2495556,8.48622222 11.3662222,8.48622222 M22.1228889,13.0051111 C21.6495556,13.0051111 21.1906667,12.9151111 20.754,12.7373333 L11.4628889,9.534 C10.9151111,9.954 9.45511111,10.9462222 7.79844444,11.0195556 C7.56733333,11.0295556 7.37177778,11.0373333 7.17844444,11.0673333 L3.61844444,11.6251111 C3.19066667,11.7284444 2.71288889,11.494 2.51733333,11.0562222 C2.42733333,10.8517778 2.41066667,10.6351111 2.45622222,10.4328889 L1.91288889,10.3917778 C1.57733333,10.4217778 1.24177778,10.2462222 1.044,9.93066667 C0.845111111,9.61511111 0.839555556,9.22177778 1.02844444,8.90622222 C1.17288889,8.66511111 1.33955556,8.514 1.53511111,8.44622222 L1.82844444,8.36066667 L0.946222222,8.20844444 L0.944,8.20844444 C0.594,8.15288889 0.302888889,7.90844444 0.184,7.57066667 C0.0606666667,7.22288889 0.139555556,6.83955556 0.386222222,6.56844444 C0.489555556,6.45511111 0.600666667,6.37066667 0.716222222,6.314 C0.462888889,6.20511111 0.251777778,6.00955556 0.126222222,5.76177778 C-0.0237777778,5.464 -0.0415555556,5.11733333 0.0784444444,4.80733333 C0.269555556,4.30844444 0.761777778,3.99844444 1.29622222,4.05955556 L6.13177778,3.96511111 L4.90288889,2.41511111 C4.68733333,2.12511111 4.60622222,1.77288889 4.67066667,1.43511111 C4.734,1.09733333 4.93733333,0.798444444 5.22955556,0.615111111 C5.64844444,0.351777778 6.184,0.361777778 6.59288889,0.645111111 L10.2484444,3.17622222 C10.2762222,3.18622222 11.9373333,4.07733333 12.6628889,4.63288889 L21.6895556,6.704 C22.1462222,6.82955556 22.6073333,6.82844444 23.0473333,6.70733333 L31.1651111,3.74622222 C31.3173333,3.69177778 31.4873333,3.71288889 31.6195556,3.80733333 C31.7517778,3.90066667 31.8295556,4.054 31.8273333,4.21511111 C31.8073333,6.01733333 32.4117778,7.60622222 33.6217778,8.93622222 C33.7362222,9.06288889 33.7773333,9.23733333 33.7328889,9.39955556 C33.6873333,9.56288889 33.5628889,9.69177778 33.3995556,9.74066667 L22.9506667,12.914 C22.6717778,12.9762222 22.3951111,13.0051111 22.1228889,13.0051111" id="Fill-38" fill="#123456" mask="url(#mask-4)"></path>
                </g>
                <path d="M71.8642222,85.3905281 L75.7697778,87.6683058 C76.2097778,87.6349725 77.5353333,87.4038614 77.6475556,85.8760836 L74.0875556,82.6727503 L71.8642222,85.3905281 Z M75.6453333,88.6605281 C75.5575556,88.6605281 75.472,88.6371947 75.3975556,88.5938614 L70.8408889,85.9349725 C70.702,85.8549725 70.612,85.7138614 70.5964444,85.5549725 C70.5831111,85.3971947 70.6442222,85.2405281 70.7653333,85.1360836 C70.8342222,85.0760836 70.8997778,85.0105281 70.9608889,84.9371947 L73.5242222,81.8027503 C73.5453333,81.7771947 73.5597778,81.7505281 73.5764444,81.7227503 C73.652,81.5983058 73.7908889,81.4960836 73.9364444,81.4760836 C74.0842222,81.4527503 74.2397778,81.4805281 74.3475556,81.5794169 L78.4786667,85.2971947 C78.5831111,85.3905281 78.6431111,85.5238614 78.6431111,85.6638614 C78.6431111,88.0349725 76.682,88.6605281 75.6453333,88.6605281 L75.6453333,88.6605281 Z" id="Fill-41" fill="#123456"></path>
                <path d="M90.7943333,53.1987503 C91.5043333,54.0931947 91.7965556,55.0909725 91.8932222,55.9598614 L94.2376667,54.7898614 C94.4398889,53.6254169 93.8298889,52.9143058 93.5398889,52.6498614 L90.7943333,53.1987503 Z M91.4398889,57.2320836 C91.3498889,57.2320836 91.2598889,57.2065281 91.1798889,57.1576392 C91.0343333,57.0665281 90.9465556,56.9065281 90.9465556,56.7354169 C90.9565556,55.2787503 90.4665556,54.1098614 89.4943333,53.2631947 C89.3521111,53.1387503 89.2932222,52.9454169 89.341,52.7631947 C89.3898889,52.5820836 89.5376667,52.4431947 89.721,52.4065281 L93.571,51.6365281 C93.6987778,51.6120836 93.8321111,51.6376392 93.9421111,51.7098614 C94.0154444,51.7587503 95.7276667,52.9298614 95.1487778,55.2443058 C95.1143333,55.3831947 95.0198889,55.4998614 94.891,55.5654169 L91.661,57.1798614 C91.5921111,57.2143058 91.5154444,57.2320836 91.4398889,57.2320836 L91.4398889,57.2320836 Z" id="Fill-43" fill="#123456"></path>
                <path d="M94.4543333,55.7833058 C96.1721111,59.2944169 97.5921111,61.5810836 98.4698889,62.2399725 C99.2865556,62.8499725 100.205444,62.8555281 101.201,62.2566392 C101.436556,62.1133058 101.533222,61.8144169 101.431,61.5421947 L97.4621111,50.9555281 C97.3643333,50.6977503 97.1354444,50.5110836 96.8776667,50.4821947 C95.2698889,50.3021947 94.3354444,50.9021947 93.7965556,51.6433058 C93.8476667,51.6577503 93.8965556,51.6799725 93.9421111,51.7099725 C94.0154444,51.7588614 95.7276667,52.9299725 95.1487778,55.2444169 C95.1143333,55.3833058 95.0198889,55.4999725 94.891,55.5655281 L94.4543333,55.7833058 Z M99.7776667,63.6855281 C99.1065556,63.6855281 98.4621111,63.4666392 97.8776667,63.0288614 C96.5487778,62.0299725 94.6832222,58.5333058 93.3532222,55.7744169 C93.2354444,55.5310836 93.3354444,55.2410836 93.5765556,55.1188614 L94.2376667,54.7888614 C94.4398889,53.6255281 93.8298889,52.9144169 93.5398889,52.6488614 L92.9987778,52.7566392 C92.821,52.7888614 92.6398889,52.7277503 92.5254444,52.5899725 C92.4087778,52.4521947 92.3776667,52.2621947 92.4432222,52.0944169 C92.8743333,50.9855281 94.0243333,49.1821947 96.9865556,49.5021947 C97.611,49.5721947 98.1598889,50.0066392 98.3854444,50.6099725 L102.354333,61.1944169 C102.624333,61.9133058 102.353222,62.7133058 101.709889,63.1010836 C101.062111,63.4910836 100.407667,63.6855281 99.7776667,63.6855281 L99.7776667,63.6855281 Z" id="Fill-45" fill="#123456"></path>
                <path d="M76.1447778,88.6109725 C75.6292222,90.0487503 74.7692222,92.5309725 74.117,94.8109725 C73.7514444,96.0920836 74.0158889,97.0520836 74.9058889,97.6620836 C75.1236667,97.8120836 75.3981111,97.8587503 75.6558889,97.7876392 C75.9147778,97.7154169 76.1281111,97.5331947 76.2414444,97.2898614 L80.8136667,87.3120836 C80.9803333,86.9520836 80.8925556,86.5309725 80.6047778,86.2898614 C79.9047778,85.7076392 79.1925556,85.5043058 78.6003333,85.4643058 C78.627,85.5276392 78.6425556,85.5943058 78.6425556,85.6643058 C78.6425556,87.5387503 77.4058889,88.4031947 76.1447778,88.6109725 M75.4125556,98.8076392 C75.0358889,98.8076392 74.6647778,98.6943058 74.347,98.4765281 C73.4681111,97.8731947 72.5514444,96.6998614 73.1681111,94.5398614 C73.8725556,92.0731947 74.8181111,89.3776392 75.3181111,87.9909725 C75.3836667,87.8087503 75.5503333,87.6820836 75.7436667,87.6676392 C76.2925556,87.6231947 77.5392222,87.3587503 77.6481111,85.8765281 L77.1525556,85.4320836 C77.0158889,85.3087503 76.9592222,85.1198614 77.0047778,84.9420836 C77.0514444,84.7631947 77.1914444,84.6265281 77.3714444,84.5843058 C78.0136667,84.4343058 79.6747778,84.2309725 81.2358889,85.5320836 C81.8658889,86.0576392 82.0614444,86.9598614 81.7114444,87.7231947 L77.1392222,97.6998614 C76.9047778,98.2109725 76.4592222,98.5876392 75.9181111,98.7376392 C75.7514444,98.7843058 75.5814444,98.8076392 75.4125556,98.8076392" id="Fill-47" fill="#123456"></path>
                <path d="M46.9488889,36.5016392 L43.4744444,41.4416392 C43.1633333,41.8860836 42.7366667,42.2371947 42.2422222,42.4583058 L34.9844444,45.7149725 C34.1655556,45.7149725 32.1144444,46.1249725 32.1144444,46.1249725 L27.6844444,46.4938614 C27.3877778,46.5194169 27.1333333,46.7183058 27.0388889,47.0005281 C26.9022222,47.4127503 27.1444444,47.8549725 27.5666667,47.9605281 L30.4755556,48.5849725 L26.0166667,52.4016392 C25.7466667,52.5671947 25.6266667,52.8983058 25.7266667,53.1994169 C25.8544444,53.5827503 26.2844444,53.7727503 26.6533333,53.6083058 L29.2444444,51.8649725 L27.2033333,54.2483058 C27.14,54.3205281 27.1133333,54.4294169 27.1077778,54.5449725 C27.0877778,54.9305281 27.5044444,55.2027503 27.8366667,55.0060836 C27.8377778,55.0049725 27.84,55.0038614 27.8411111,55.0027503 L30.4755556,53.5049725 L29.1177778,55.4938614 C29.0655556,55.5805281 29.0633333,55.7094169 29.0844444,55.8416392 C29.1422222,56.2294169 29.6311111,56.3949725 29.91,56.1205281 C29.9111111,56.1183058 29.9133333,56.1171947 29.9144444,56.1149725 L31.2944444,55.1449725 L31.1088889,55.5183058 C30.9855556,55.7649725 31.0855556,56.0649725 31.3311111,56.1894169 C31.5488889,56.2960836 31.81,56.2349725 31.9555556,56.0416392 L34.35,53.3483058 C34.5,53.1805281 34.6688889,53.0305281 34.8377778,52.8794169 C36.26,51.5994169 36.6255556,49.4049725 36.6255556,49.4049725 L44.9866667,46.7994169 C45.5966667,46.6094169 46.1355556,46.2394169 46.5311111,45.7383058 L51.4133333,39.5538614 C49.5,38.9538614 47.8711111,37.4805281 46.9488889,36.5016392" id="Fill-49" fill="#FFFFFF"></path>
                <path d="M29.5661111,55.7117503 C29.5672222,55.7250836 29.5683333,55.7439725 29.5727778,55.7695281 C29.5916667,55.7484169 29.6072222,55.7295281 29.6316667,55.7117503 L31.0116667,54.7417503 C31.195,54.6117503 31.445,54.6250836 31.6172222,54.7706392 C31.7872222,54.9184169 31.8372222,55.1639725 31.7361111,55.3650836 L31.5505556,55.7384169 L33.9816667,53.0206392 C34.1283333,52.8550836 34.2916667,52.7073058 34.4561111,52.5584169 C35.7805556,51.3673058 36.135,49.3439725 36.1394444,49.3239725 C36.1694444,49.1406392 36.3016667,48.9895281 36.4783333,48.9339725 L44.8394444,46.3295281 C45.3572222,46.1673058 45.8083333,45.8573058 46.1438889,45.4317503 L50.605,39.7817503 C49.1638889,39.1784169 47.9216667,38.1684169 47.0105556,37.2706392 L43.8783333,41.7250836 C43.5161111,42.2417503 43.0194444,42.6517503 42.4438889,42.9095281 L35.1872222,46.1650836 C35.1238889,46.1939725 35.055,46.2084169 34.9861111,46.2084169 C34.3538889,46.2084169 32.7694444,46.4973058 32.2127778,46.6095281 L27.7261111,46.9850836 C27.625,46.9939725 27.5394444,47.0617503 27.5061111,47.1584169 C27.4772222,47.2484169 27.5061111,47.3217503 27.525,47.3584169 C27.5461111,47.3950836 27.5938889,47.4584169 27.6861111,47.4817503 L30.5783333,48.1028614 C30.7616667,48.1428614 30.9072222,48.2817503 30.9527778,48.4650836 C30.9994444,48.6461947 30.9383333,48.8373058 30.795,48.9606392 L26.3383333,52.7750836 C26.3183333,52.7917503 26.2983333,52.8073058 26.2761111,52.8206392 C26.2005556,52.8673058 26.1661111,52.9595281 26.195,53.0450836 C26.2172222,53.1139725 26.2694444,53.1450836 26.2994444,53.1584169 C26.3216667,53.1706392 26.3694444,53.1828614 26.425,53.1684169 L28.9694444,51.4561947 C29.1738889,51.3184169 29.4505556,51.3517503 29.6138889,51.5373058 C29.7772222,51.7217503 29.7805556,51.9984169 29.6194444,52.1861947 L27.5772222,54.5695281 L27.585,54.5817503 C27.5883333,54.5795281 27.5927778,54.5773058 27.5972222,54.5750836 L30.2316667,53.0761947 C30.4294444,52.9639725 30.6816667,53.0017503 30.8383333,53.1706392 C30.9927778,53.3395281 31.0116667,53.5939725 30.8827778,53.7839725 L29.5661111,55.7117503 Z M29.575,56.7495281 C29.4694444,56.7495281 29.3638889,56.7328614 29.2605556,56.6984169 C28.905,56.5795281 28.6505556,56.2795281 28.5972222,55.9150836 C28.555,55.6395281 28.5872222,55.4173058 28.695,55.2384169 L28.8661111,54.9884169 L28.0838889,55.4328614 C28.0672222,55.4428614 28.0494444,55.4517503 28.0316667,55.4584169 C27.7838889,55.6128614 27.4016667,55.6073058 27.0938889,55.4228614 C26.7794444,55.2306392 26.5961111,54.8861947 26.615,54.5195281 C26.6227778,54.3661947 26.6538889,54.2306392 26.7094444,54.1139725 C26.4438889,54.1917503 26.1572222,54.1739725 25.9005556,54.0617503 C25.5972222,53.9284169 25.3638889,53.6706392 25.2583333,53.3561947 C25.0905556,52.8484169 25.2805556,52.2984169 25.7216667,52.0039725 L29.3972222,48.8584169 L27.4616667,48.4428614 C27.1138889,48.3550836 26.8261111,48.1361947 26.6616667,47.8339725 C26.495,47.5328614 26.4627778,47.1706392 26.5705556,46.8461947 C26.7294444,46.3739725 27.1505556,46.0428614 27.645,46.0028614 L32.075,45.6339725 C32.1027778,45.6250836 33.9661111,45.2528614 34.875,45.2239725 L42.0405556,42.0095281 C42.4538889,41.8239725 42.8105556,41.5284169 43.0705556,41.1573058 L46.545,36.2173058 C46.6305556,36.0961947 46.765,36.0195281 46.9138889,36.0095281 C47.0638889,36.0006392 47.2072222,36.0550836 47.3083333,36.1628614 C48.0994444,37.0039725 49.7038889,38.5006392 51.5605556,39.0828614 C51.7161111,39.1306392 51.8361111,39.2528614 51.8838889,39.4084169 C51.9327778,39.5639725 51.9005556,39.7317503 51.7994444,39.8584169 L46.9172222,46.0439725 C46.4583333,46.6250836 45.8405556,47.0495281 45.1338889,47.2695281 L37.0483333,49.7895281 C36.8883333,50.4728614 36.3894444,52.1473058 35.1672222,53.2461947 C34.9783333,53.4161947 34.8405556,53.5384169 34.7183333,53.6773058 L32.3227778,56.3695281 C32.0638889,56.7217503 31.5427778,56.8461947 31.1116667,56.6295281 C30.9172222,56.5328614 30.7638889,56.3806392 30.6683333,56.1895281 L30.225,56.5006392 C30.0416667,56.6639725 29.8116667,56.7495281 29.575,56.7495281 L29.575,56.7495281 Z" id="Fill-51" fill="#123456"></path>
                <path d="M35.7553333,1.19563917 C35.7553333,1.19563917 27.7308889,5.28008361 29.2664444,14.1823058 C30.4175556,20.8589725 32.5853333,25.1634169 32.7375556,25.5623058 C33.2608889,26.9367503 35.7608889,32.2289725 42.9086667,27.0256392 L50.1153333,23.1145281 C50.1153333,23.1145281 60.1197778,20.3211947 56.6475556,14.3900836 C53.1764444,8.45786139 48.0686667,2.87230584 48.0686667,2.87230584 C48.0686667,2.87230584 43.2286667,-2.25880528 35.7553333,1.19563917" id="Fill-53" fill="#123456"></path>
                <path d="M47.4056667,19.3174169 C47.4056667,19.3174169 48.7712222,22.1796392 49.8678889,23.2718614 C50.3923333,23.7940836 50.5967778,24.5640836 50.3645556,25.2663058 C49.9212222,26.6129725 48.6767778,28.3329725 45.2112222,28.3463221 C44.4056667,28.3496392 43.6767778,27.8418614 43.3878889,27.0885281 C42.9845556,26.0363058 42.1723333,24.4296392 40.6223333,22.9229725 L41.5767778,21.6796392 L44.0834444,20.2129725 L47.4056667,19.3174169 Z" id="Fill-55" fill="#FFFFFF"></path>
                <path d="M41.3303333,22.8786392 C42.7258889,24.3419725 43.487,25.8541947 43.8881111,26.8975281 C44.097,27.4441947 44.6258889,27.8108614 45.2025556,27.8108614 L45.2092222,27.8108614 C48.3158889,27.8008614 49.4514444,26.3308614 49.8558889,25.0997503 C50.0225556,24.5953058 49.8825556,24.0408614 49.4903333,23.6508614 C48.5847778,22.7497503 47.547,20.7953058 47.1203333,19.9475281 L44.2914444,20.7108614 L41.9381111,22.0886392 L41.3303333,22.8786392 Z M45.2025556,28.8808614 C44.1836667,28.8808614 43.2547778,28.2386392 42.8881111,27.2797503 C42.4958889,26.2564169 41.7203333,24.7364169 40.2492222,23.3075281 C40.0547778,23.1175281 40.0314444,22.8130836 40.197,22.5975281 L41.1525556,21.3530836 C41.1947778,21.2986392 41.247,21.2519725 41.307,21.2175281 L43.8125556,19.7508614 C43.8536667,19.7275281 43.8981111,19.7075281 43.9436667,19.6964169 L47.2658889,18.8008614 C47.517,18.7330836 47.777,18.8530836 47.8881111,19.0864169 C47.9014444,19.1141947 49.2258889,21.8797503 50.2447778,22.8930836 C50.927,23.5697503 51.167,24.5441947 50.8725556,25.4353058 C50.4503333,26.7153058 49.1547778,28.8675281 45.2136667,28.8808614 L45.2025556,28.8808614 Z" id="Fill-57" fill="#123456"></path>
                <path d="M30.6966667,12.4260836 C30.6966667,12.4260836 31.2177778,16.4694169 33.3133333,20.0516392 C36.4488889,25.4094169 43.7788889,26.2327503 47.8933333,21.7683058 C47.9322222,21.7249725 47.9722222,21.6805281 48.0122222,21.6360836 C51.4844444,17.7660836 51.6022222,11.7294169 47.9422222,7.8849725 C47.81,7.74608361 47.6733333,7.60941695 47.53,7.4749725 C47.53,7.4749725 36.58,-5.10613861 30.6966667,12.4260836" id="Fill-59" fill="#FFFFFF"></path>
                <path d="M31.2446667,12.4760836 C31.3502222,13.1605281 31.9591111,16.6749725 33.7757778,19.7805281 C35.1957778,22.2083058 37.5991111,23.7705281 40.3668889,24.0694169 C43.078,24.3638614 45.6702222,23.3905281 47.4991111,21.4049725 L47.6102222,21.2827503 C50.9713333,17.5371947 50.9457778,11.8149725 47.5557778,8.25386139 C47.4291111,8.12163917 47.2991111,7.99275028 47.1635556,7.86386139 C47.0835556,7.77719472 42.7268889,2.85386139 38.2991111,3.74830584 C35.388,4.32830584 33.0135556,7.2649725 31.2446667,12.4760836 M41.3135556,25.1905281 C40.9624444,25.1905281 40.608,25.1716392 40.2524444,25.1338614 C37.1435556,24.7983058 34.4457778,23.0449725 32.8513333,20.3227503 C30.7257778,16.6871947 30.188,12.6638614 30.1657778,12.4949725 C30.1557778,12.4138614 30.1635556,12.3327503 30.1902222,12.2560836 C32.0946667,6.57608361 34.7535556,3.36163917 38.0935556,2.69719472 C43.1368889,1.69275028 47.7413333,6.90163917 47.9346667,7.12386139 C48.048,7.22719472 48.1924444,7.36941695 48.3302222,7.5149725 C52.1035556,11.4794169 52.1391111,17.8383058 48.4091111,21.9938614 L48.2835556,22.1316392 C46.4657778,24.1071947 43.9691111,25.1905281 41.3135556,25.1905281" id="Fill-61" fill="#123456"></path>
                <path d="M38.6198889,20.4501947 C38.271,20.4501947 37.1065556,20.3701947 36.5087778,19.3479725 C35.8932222,18.2979725 36.5398889,15.6568614 36.6754444,15.1368614 C36.7498889,14.8513058 37.0487778,14.6835281 37.3276667,14.7557503 C37.6143333,14.8301947 37.7854444,15.1224169 37.711,15.4090836 C37.3743333,16.6979725 37.1721111,18.3635281 37.4332222,18.8068614 C37.7898889,19.4190836 38.6387778,19.3779725 38.6476667,19.3790836 C38.9576667,19.3657503 39.1987778,19.5835281 39.2176667,19.8768614 C39.2365556,20.1724169 39.0132222,20.4268614 38.7198889,20.4468614 C38.7098889,20.4479725 38.6754444,20.4501947 38.6198889,20.4501947" id="Fill-63" fill="#123456"></path>
                <path d="M42.2895556,13.5144169 C42.5851111,14.0188614 42.4151111,14.6666392 41.9117778,14.9610836 C41.4073333,15.2555281 40.7595556,15.0866392 40.464,14.5833058 C40.1695556,14.0788614 40.3395556,13.4310836 40.8428889,13.1355281 C41.3473333,12.8421947 41.9951111,13.0110836 42.2895556,13.5144169" id="Fill-65" fill="#123456"></path>
                <path d="M42.3872222,10.9526392 L39.6583333,11.6881947 C39.1561111,11.8237503 38.6605556,11.6037503 38.5494444,11.1959725 C38.4394444,10.7881947 38.7572222,10.3470836 39.2605556,10.2115281 L41.9894444,9.4759725 C42.4916667,9.34041695 42.9883333,9.56041695 43.0983333,9.96819472 C43.2083333,10.3759725 42.8894444,10.8170836 42.3872222,10.9526392" id="Fill-67" fill="#123456"></path>
                <path d="M33.4994444,16.7263058 C33.5461111,17.2763058 34.0294444,17.6840836 34.5794444,17.6374169 C35.1294444,17.5918614 35.5372222,17.1085281 35.4916667,16.5585281 C35.445,16.0085281 34.9605556,15.5996392 34.4105556,15.6463058 C33.8605556,15.6929725 33.4527778,16.1763058 33.4994444,16.7263058" id="Fill-69" fill="#123456"></path>
                <path d="M31.3108889,14.3445281 C31.1208889,13.9934169 31.3175556,13.5189725 31.7508889,13.2845281 L34.0997778,12.0123058 C34.532,11.7778614 35.0375556,11.8723058 35.2264444,12.2245281 C35.4164444,12.5745281 35.2208889,13.0500836 34.7886667,13.2845281 L32.4397778,14.5556392 C32.0064444,14.7900836 31.502,14.6956392 31.3108889,14.3445281" id="Fill-71" fill="#123456"></path>
                <path d="M35.5968889,5.60108361 C35.5968889,5.60108361 36.7913333,11.3933058 44.7035556,9.21330584 C44.7035556,9.21330584 45.5368889,11.7755281 47.6291111,11.1633058 L51.1613333,10.7377503 C51.1613333,10.7377503 43.648,-0.970027498 35.5968889,5.60108361" id="Fill-73" fill="#123456"></path>
                <path d="M29.8947778,15.2213058 C29.8947778,15.2213058 36.9281111,10.4913058 36.3503333,5.31686139 C36.3503333,5.31686139 29.5392222,6.24019472 29.8947778,15.2213058" id="Fill-75" fill="#123456"></path>
                <polygon id="Fill-77" fill="#123456" points="32.8114444 5.06286139 37.8303333 2.12508361 40.6458889 1.70286139 41.6358889 2.34841695 41.2581111 3.7939725 39.4325556 4.86286139 35.2481111 6.08730584 33.8792222 6.88841695"></polygon>
                <path d="M43.8683333,20.8126392 C44.1005556,21.4448614 43.5705556,22.2204169 42.6872222,22.5448614 C41.8016667,22.8693058 40.8961111,22.6204169 40.665,21.9881947 C40.4327778,21.3559725 40.9627778,20.5804169 41.8472222,20.2559725 C42.7327778,19.9315281 43.6372222,20.1815281 43.8683333,20.8126392" id="Fill-79" fill="#FFFFFF"></path>
                <path d="M42.627,20.6477503 C42.4458889,20.6477503 42.2414444,20.6810836 42.0314444,20.7588614 C41.7125556,20.8755281 41.4381111,21.0766392 41.2792222,21.3088614 C41.2081111,21.4133058 41.0992222,21.6166392 41.1681111,21.8033058 C41.2358889,21.9921947 41.4503333,22.0755281 41.5725556,22.1088614 C41.8447778,22.1844169 42.1847778,22.1588614 42.5025556,22.0421947 C43.1503333,21.8044169 43.477,21.3021947 43.3658889,20.9966392 C43.2914444,20.7933058 43.0047778,20.6477503 42.627,20.6477503 M41.9092222,23.2221947 C41.6947778,23.2221947 41.4858889,23.1955281 41.2881111,23.1410836 C40.7436667,22.9899725 40.3336667,22.6377503 40.1625556,22.1721947 C39.9925556,21.7066392 40.0758889,21.1733058 40.3947778,20.7055281 C40.6803333,20.2866392 41.1303333,19.9488614 41.6625556,19.7533058 C42.8414444,19.3210836 44.0314444,19.7044169 44.3714444,20.6277503 L44.3714444,20.6288614 C44.7092222,21.5521947 44.0492222,22.6155281 42.8703333,23.0466392 C42.5536667,23.1644169 42.2258889,23.2221947 41.9092222,23.2221947" id="Fill-81" fill="#123456"></path>
                <path d="M26.3696667,43.2477503 C26.3307778,43.2733058 26.2896667,43.2988614 26.2485556,43.3244169 C26.2896667,43.2988614 26.3307778,43.2733058 26.3696667,43.2477503 L26.3696667,43.2477503 Z M27.2641111,42.6421947 C27.2174444,42.6755281 27.1707778,42.7077503 27.1241111,42.7410836 C27.1707778,42.7077503 27.2174444,42.6755281 27.2641111,42.6421947 L27.2641111,42.6421947 Z M23.4507778,44.8399725 C23.6863333,44.7333058 23.9218889,44.6199725 24.1585556,44.5033058 C23.9218889,44.6199725 23.6863333,44.7333058 23.4507778,44.8399725 L23.4507778,44.8399725 Z M22.2163333,45.3644169 C22.5285556,45.2444169 22.8418889,45.1121947 23.1563333,44.9733058 C22.8418889,45.1121947 22.5285556,45.2444169 22.2163333,45.3644169 L22.2163333,45.3644169 Z M21.2774444,45.6966392 C21.5485556,45.6077503 21.8218889,45.5110836 22.0974444,45.4066392 C21.8218889,45.5110836 21.5485556,45.6077503 21.2774444,45.6966392 L21.2774444,45.6966392 Z M24.4474444,44.3577503 C24.7696667,44.1899725 25.0907778,44.0177503 25.4118889,43.8321947 C25.413,43.8321947 25.4141111,43.8310836 25.4152222,43.8310836 C25.4141111,43.8310836 25.413,43.8321947 25.4118889,43.8321947 C25.0907778,44.0177503 24.7696667,44.1899725 24.4474444,44.3577503 L24.4474444,44.3577503 Z M20.3241111,45.9810836 C20.5318889,45.9244169 20.7385556,45.8644169 20.9485556,45.7999725 C20.7385556,45.8644169 20.5318889,45.9244169 20.3241111,45.9810836 L20.3241111,45.9810836 Z M31.2952222,38.8288614 C33.0363333,36.5333058 33.6552222,34.2210836 32.7085556,32.5810836 C31.0241111,29.6644169 25.0296667,29.9744169 19.3163333,33.2733058 C13.6485556,36.5455281 10.3918889,41.5288614 11.9841111,44.4544169 C11.7641111,45.3710836 16.4285556,47.2388614 17.5063333,46.4821947 C18.2963333,46.4221947 19.1318889,46.2855281 20.0018889,46.0677503 C19.713,46.1399725 19.4241111,46.2066392 19.1418889,46.2633058 L19.1396667,46.2644169 L21.0596667,46.9955281 C21.0596667,46.9955281 26.423,46.5066392 31.2974444,40.6577503 L31.2952222,38.8288614 Z" id="Fill-83" fill="#FFFFFF"></path>
                <path d="M30.8496667,56.0740836 C30.723,56.0740836 30.5952222,56.0240836 30.4985556,55.9274169 C30.3074444,55.7329725 30.3096667,55.4207503 30.503,55.2285281 L31.7407778,54.0074169 C31.9352222,53.8163058 32.2485556,53.8196392 32.4396667,54.0129725 C32.6307778,54.2063058 32.6285556,54.5196392 32.4352222,54.7096392 L31.1963333,55.9318614 C31.1007778,56.0263058 30.9752222,56.0740836 30.8496667,56.0740836" id="Fill-85" fill="#123456"></path>
                <path d="M68.0243333,94.1945281 C66.041,94.1945281 64.3932222,95.6611947 63.361,96.8923058 L63.3598889,96.8934169 C63.1821111,97.1034169 63.1232222,97.3778614 63.1976667,97.6411947 C63.271,97.9034169 63.4598889,98.1045281 63.7187778,98.1911947 C66.4332222,99.1123058 69.3154444,99.1500836 72.0498889,98.2945281 L72.3921111,98.1878614 C72.4398889,98.1723058 72.491,98.1645281 72.5421111,98.1645281 C72.7754444,98.1645281 72.9743333,98.0378614 73.0743333,97.8267503 C73.1721111,97.6178614 73.1443333,97.3911947 72.9998889,97.2156392 C71.3565556,95.2189725 69.6887778,94.2023058 68.0421111,94.1945281 L68.0243333,94.1945281 Z M68.041,99.9245281 C66.4743333,99.9245281 64.9087778,99.6656392 63.3921111,99.1500836 C62.821,98.9567503 62.3843333,98.4945281 62.221,97.9145281 C62.0587778,97.3311947 62.1943333,96.7056392 62.5832222,96.2423058 C63.7565556,94.8434169 65.651,93.1811947 68.0243333,93.1811947 L68.0465556,93.1811947 C70.0087778,93.1911947 71.9376667,94.3311947 73.7832222,96.5723058 C74.1765556,97.0500836 74.2554444,97.6967503 73.9898889,98.2578614 C73.7354444,98.8000836 73.2176667,99.1456392 72.6265556,99.1767503 L72.3521111,99.2611947 C70.9387778,99.7023058 69.4887778,99.9245281 68.041,99.9245281 L68.041,99.9245281 Z" id="Fill-87" fill="#123456"></path>
                <path d="M54.6984444,88.1097503 C54.3817778,88.1097503 54.0673333,87.9786392 53.8417778,87.7197503 L47.0162222,79.9197503 C46.6017778,79.4475281 46.6506667,78.7286392 47.124,78.3141947 C47.5962222,77.8997503 48.3162222,77.9475281 48.7306667,78.4208614 L55.5551111,86.2219725 C55.9695556,86.6953058 55.9217778,87.4130836 55.4473333,87.8275281 C55.2306667,88.0164169 54.9651111,88.1097503 54.6984444,88.1097503" id="Fill-89" fill="#7CF5CE"></path>
                <path d="M50.7986667,91.5223058 C50.7075556,91.5223058 50.6153333,91.5111947 50.522,91.4889725 L40.772,89.0500836 C40.1608889,88.8978614 39.7908889,88.2789725 39.9431111,87.6689725 C40.0953333,87.0600836 40.7064444,86.6900836 41.3242222,86.8411947 L51.0742222,89.2789725 C51.6853333,89.4323058 52.0553333,90.0500836 51.902,90.6611947 C51.7742222,91.1767503 51.3086667,91.5223058 50.7986667,91.5223058" id="Fill-91" fill="#7CF5CE"></path>
                <path d="M43.4853333,99.3228614 C43.0242222,99.3228614 42.5908889,99.0406392 42.4197778,98.5839725 C42.1986667,97.9950836 42.4964444,97.3395281 43.0864444,97.1184169 L50.8864444,94.1928614 C51.4731111,93.9706392 52.132,94.2695281 52.3508889,94.8584169 C52.5731111,95.4473058 52.2742222,96.1039725 51.6853333,96.3239725 L43.8853333,99.2506392 C43.7542222,99.2995281 43.6186667,99.3228614 43.4853333,99.3228614" id="Fill-93" fill="#7CF5CE"></path>
                <path d="M25.4124444,43.8324169 C19.6991111,47.1313058 13.7046667,47.4413058 12.0202222,44.5246392 C10.338,41.6090836 13.6035556,36.5713058 19.3168889,33.2735281 C25.0291111,29.9746392 31.0246667,29.6646392 32.708,32.5813058 C34.3913333,35.4968614 31.1257778,40.5346392 25.4124444,43.8324169" id="Fill-95" fill="#FFFFFF"></path>
                <path d="M28.1217778,31.1261947 C25.6828889,31.1261947 22.5651111,32.0150836 19.5828889,33.7361947 C14.2273333,36.8295281 10.9762222,41.6473058 12.484,44.2561947 C13.1917778,45.4850836 14.8506667,46.1039725 17.1773333,45.9739725 C19.6251111,45.8484169 22.454,44.9228614 25.1451111,43.3695281 C27.8362222,41.8150836 30.0517778,39.8284169 31.3862222,37.7717503 C32.6484444,35.8250836 32.954,34.0750836 32.2451111,32.8484169 C31.5762222,31.6917503 30.064,31.1261947 28.1217778,31.1261947 M16.6228889,47.0595281 C14.194,47.0595281 12.4073333,46.2650836 11.5573333,44.7928614 C9.69844444,41.5717503 12.9884444,36.3095281 19.0484444,32.8095281 C25.1095556,29.3106392 31.3128889,29.0928614 33.1717778,32.3128614 C34.0917778,33.9073058 33.7762222,36.0528614 32.2828889,38.3539725 C30.8606667,40.5484169 28.5151111,42.6584169 25.6806667,44.2961947 C22.8462222,45.9317503 19.8462222,46.9084169 17.2328889,47.0428614 C17.0262222,47.0539725 16.8217778,47.0595281 16.6228889,47.0595281" id="Fill-97" fill="#123456"></path>
                <path d="M23.9757778,41.3561947 C20.4746667,43.3773058 16.8568889,43.6695281 15.8968889,42.0073058 C14.9368889,40.3450836 16.9991111,37.3573058 20.5002222,35.3361947 C24.0024444,33.3139725 27.6202222,33.0228614 28.5802222,34.6850836 C29.5402222,36.3473058 27.478,39.3339725 23.9757778,41.3561947" id="Fill-99" fill="#FFFFFF"></path>
                <path d="M26.0363333,34.1405281 C25.8752222,34.1405281 25.7096667,34.1483058 25.5363333,34.1627503 C24.0885556,34.2783058 22.3952222,34.8594169 20.7685556,35.7994169 C17.3041111,37.7994169 15.6652222,40.5349725 16.3607778,41.7394169 C17.0563333,42.9438614 20.2441111,42.8927503 23.7085556,40.8927503 C25.3352222,39.9527503 26.6852222,38.7783058 27.5107778,37.5827503 C28.2452222,36.5171947 28.4663333,35.5583058 28.1163333,34.9516392 C27.813,34.4283058 27.0685556,34.1405281 26.0363333,34.1405281 M18.4618889,43.6127503 C17.0518889,43.6127503 15.9518889,43.1716392 15.4341111,42.2749725 C14.3096667,40.3271947 16.4174444,37.0760836 20.233,34.8727503 C21.9941111,33.8549725 23.8474444,33.2249725 25.4507778,33.0949725 C27.193,32.9516392 28.4696667,33.4238614 29.043,34.4171947 C29.6174444,35.4105281 29.3852222,36.7494169 28.3918889,38.1905281 C27.4785556,39.5138614 26.0052222,40.8027503 24.2441111,41.8183058 C22.1852222,43.0071947 20.1118889,43.6127503 18.4618889,43.6127503" id="Fill-101" fill="#123456"></path>
                <path d="M20.7932222,46.3659725 L21.1198889,46.4904169 C21.8776667,46.3815281 26.5332222,45.5181947 30.8043333,40.4781947 L30.8043333,40.1881947 C29.4332222,41.6948614 27.6487778,43.1104169 25.6598889,44.2593058 C24.0687778,45.1793058 22.4121111,45.8937503 20.7932222,46.3659725 M21.0598889,47.4893058 C21.001,47.4893058 20.941,47.4781947 20.8843333,47.4559725 L18.9643333,46.7248614 C18.791,46.6593058 18.6698889,46.5026392 18.6487778,46.3181947 C18.6287778,46.1348614 18.7121111,45.9548614 18.8665556,45.8526392 C18.9198889,45.8170836 18.9832222,45.7904169 19.0476667,45.7781947 C21.0376667,45.3881947 23.1532222,44.5681947 25.1665556,43.4048614 C27.5076667,42.0526392 29.5454444,40.3226392 30.9032222,38.5304169 C31.0321111,38.3615281 31.2521111,38.2937503 31.4532222,38.3615281 C31.6543333,38.4281947 31.7887778,38.6159725 31.7898889,38.8281947 L31.791,40.6559725 C31.791,40.7726392 31.7498889,40.8837503 31.6765556,40.9726392 C26.7276667,46.9115281 21.3321111,47.4659725 21.1043333,47.4870836 C21.0898889,47.4881947 21.0754444,47.4893058 21.0598889,47.4893058" id="Fill-103" fill="#123456"></path>
                <path d="M34.4304444,2.96541695 C37.6726667,1.07875028 44.4382222,-0.979027498 50.0671111,9.7009725 L50.5548889,12.1376392 L50.4004444,12.0754169 C49.0782222,11.5420836 47.9726667,10.6054169 47.1504444,9.43986139 C44.2437778,5.32319472 37.3304444,1.13652806 30.0793333,9.43430584 C30.0793333,8.9109725 30.4882222,7.57763917 31.3815556,6.03319472 C32.1148889,4.76541695 33.1648889,3.70208361 34.4304444,2.96541695" id="Fill-105" fill="#98EEF5"></path>
                <path d="M38.786,3.9009725 C38.946,3.9009725 39.106,3.90541695 39.2671111,3.91319472 C43.9915556,4.15652806 46.9671111,7.87208361 47.7671111,9.00541695 C48.2593333,9.70208361 48.8482222,10.2887503 49.5048889,10.7409725 L49.3482222,9.95541695 C47.1493333,5.8209725 44.5926667,3.3109725 41.7415556,2.49319472 C38.9715556,1.69875028 36.4437778,2.66430584 34.8104444,3.61763917 C33.6671111,4.28430584 32.706,5.2509725 32.0348889,6.4109725 C32.0026667,6.46430584 31.9726667,6.51875028 31.9426667,6.57208361 C34.1415556,4.79652806 36.4337778,3.9009725 38.786,3.9009725 L38.786,3.9009725 Z M50.5548889,12.8931947 C50.4593333,12.8931947 50.3626667,12.8743058 50.2704444,12.8376392 L50.1171111,12.7743058 C48.7137778,12.2076392 47.4726667,11.2054169 46.5337778,9.87541695 C45.8337778,8.88319472 43.2326667,5.62875028 39.1893333,5.41986139 C36.2704444,5.2709725 33.3937778,6.78652806 30.6482222,9.93208361 C30.4393333,10.1665281 30.1071111,10.2520836 29.8137778,10.1409725 C29.5193333,10.0298614 29.3237778,9.74875028 29.3237778,9.43430584 C29.3237778,8.62652806 29.8882222,7.10763917 30.7282222,5.65541695 C31.5304444,4.26763917 32.6804444,3.11208361 34.0515556,2.31319472 C35.9371111,1.21541695 38.876,0.103194724 42.1571111,1.04319472 C45.4393333,1.98319472 48.326,4.77763917 50.7348889,9.34763917 C50.7682222,9.41319472 50.7926667,9.47986139 50.806,9.55208361 L51.2948889,11.9898614 C51.3493333,12.2620836 51.2504444,12.5420836 51.0348889,12.7187503 C50.8971111,12.8331947 50.7271111,12.8931947 50.5548889,12.8931947 L50.5548889,12.8931947 Z" id="Fill-107" fill="#123456"></path>
                <path d="M47.8548889,10.9797503 C47.8548889,10.9797503 49.5626667,9.22419472 50.6093333,10.1230836 C51.6582222,11.0208614 53.5226667,13.7619725 50.4815556,15.8919725" id="Fill-109" fill="#FFFFFF"></path>
                <path d="M50.4828889,16.4007503 C50.3228889,16.4007503 50.1651111,16.3251947 50.0662222,16.1840836 C49.9051111,15.9540836 49.9606667,15.6374169 50.1906667,15.4763058 C51.1073333,14.8340836 51.5917778,14.0929725 51.6317778,13.2729725 C51.6917778,12.0540836 50.7728889,10.9307503 50.2784444,10.5074169 C49.724,10.0296392 48.5751111,10.9674169 48.2184444,11.3329725 C48.0228889,11.5340836 47.7006667,11.5385281 47.4995556,11.3418614 C47.2995556,11.1463058 47.2951111,10.8251947 47.4906667,10.6251947 C48.2484444,9.84741695 49.8273333,8.78186139 50.9406667,9.73741695 C51.6106667,10.3118614 52.7251111,11.7129725 52.6462222,13.3218614 C52.5895556,14.4718614 51.9606667,15.4763058 50.774,16.3085281 C50.6862222,16.3707503 50.5828889,16.4007503 50.4828889,16.4007503" id="Fill-111" fill="#123456"></path>
                <path d="M18.3084444,20.4947503 C18.3084444,21.3314169 16.8117778,21.8880836 14.9662222,21.8880836 C13.1195556,21.8880836 11.6228889,21.3314169 11.6228889,20.4947503 C11.6228889,19.1103058 13.1195556,17.9880836 14.9662222,17.9880836 C16.8117778,17.9880836 18.3084444,19.1103058 18.3084444,20.4947503" id="Fill-113" fill="#FFDF91"></path>
                <path d="M14.9664444,18.4818614 C13.3942222,18.4818614 12.1175556,19.3840836 12.1175556,20.4951947 C12.1175556,20.8174169 13.0686667,21.3940836 14.9664444,21.3940836 C16.8642222,21.3940836 17.8153333,20.8174169 17.8153333,20.4951947 C17.8153333,19.3840836 16.5375556,18.4818614 14.9664444,18.4818614 M14.9664444,22.3818614 C13.0564444,22.3818614 11.1297778,21.7974169 11.1297778,20.4951947 C11.1297778,18.8407503 12.8508889,17.4940836 14.9664444,17.4940836 C17.0808889,17.4940836 18.8031111,18.8407503 18.8031111,20.4951947 C18.8031111,21.7974169 16.8764444,22.3818614 14.9664444,22.3818614" id="Fill-115" fill="#123456"></path>
            </g>
        </g>
    </g>
</svg>