<?xml version="1.0" encoding="UTF-8"?>
<svg width="72px" height="72px" viewBox="0 0 72 72" version="1.1" xmlns="http://www.w3.org/2000/svg" xmlns:xlink="http://www.w3.org/1999/xlink">
    <title>D719E30A-845E-4654-AE09-847E19C1A63B</title>
    <defs>
        <linearGradient x1="50%" y1="100%" x2="50%" y2="0%" id="linearGradient-1">
            <stop stop-color="#FFFFFF" offset="0%"></stop>
            <stop stop-color="#EEEEEE" offset="60.681%"></stop>
            <stop stop-color="#F8F8F8" offset="100%"></stop>
        </linearGradient>
        <linearGradient x1="50%" y1="0%" x2="50%" y2="100%" id="linearGradient-2">
            <stop stop-color="#75B2F4" offset="0%"></stop>
            <stop stop-color="#071164" offset="100%"></stop>
        </linearGradient>
    </defs>
    <g id="8.2-Bills-All" stroke="none" stroke-width="1" fill="none" fill-rule="evenodd">
        <g id="8.4-PDAM-Payment---Select-Payment" transform="translate(-32.000000, -341.000000)" fill-rule="nonzero">
            <g id="Group-13-Copy" transform="translate(16.000000, 308.000000)">
                <g id="group-copy-9" transform="translate(0.000000, 33.000000)">
                    <g id="illu/default-card" transform="translate(16.000000, 0.000000)">
                        <g id="illustration-(1)" transform="translate(7.200000, 18.000000)">
                            <ellipse id="Oval" fill="url(#linearGradient-1)" cx="28.4562857" cy="39.5421429" rx="22.6551429" ry="1.60071429"></ellipse>
                            <g id="Group" transform="translate(0.180000, 0.000000)">
                                <path d="M52.1539773,-6.39488462e-14 L3.64602273,-6.39488462e-14 C1.63278409,-6.39488462e-14 0,1.47019104 0,3.28295086 L0,30.9739277 C0,32.7866875 1.63278409,34.2568785 3.64602273,34.2568785 L52.1539773,34.2568785 C54.1672159,34.2568785 55.8,32.7866875 55.8,30.9739277 L55.8,3.28295086 C55.8,1.47019104 54.1672159,-6.39488462e-14 52.1539773,-6.39488462e-14 Z" id="Path" fill="url(#linearGradient-2)"></path>
                                <polygon id="Path" fill="#0095DD" points="3.42 5.70947975 53.6634218 5.70947975 53.6634218 10.2770636 3.42 10.2770636"></polygon>
                                <path d="M49.095838,17.1284393 L7.9875838,17.1284393 C7.35668629,17.1284393 6.84568785,16.6174408 6.84568785,15.9865433 L6.84568785,13.7027514 C6.84568785,13.0718539 7.35668629,12.5608555 7.9875838,12.5608555 L49.095838,12.5608555 C49.7267356,12.5608555 50.237734,13.0718539 50.237734,13.7027514 L50.237734,15.9865433 C50.237734,16.6174408 49.7267356,17.1284393 49.095838,17.1284393 L49.095838,17.1284393 Z" id="Path" fill="#FFFFFF"></path>
                            </g>
                        </g>
                    </g>
                </g>
            </g>
        </g>
    </g>
</svg>