<?xml version="1.0" encoding="UTF-8"?>
<svg width="91px" height="19px" viewBox="0 0 91 19" version="1.1" xmlns="http://www.w3.org/2000/svg" xmlns:xlink="http://www.w3.org/1999/xlink">
    <title>E86B9714-C605-4E42-B58B-FB6CCF37BD6D</title>
    <defs>
        <filter id="filter-1">
            <feColorMatrix in="SourceGraphic" type="matrix" values="0 0 0 0 1.000000 0 0 0 0 1.000000 0 0 0 0 1.000000 0 0 0 1.000000 0"></feColorMatrix>
        </filter>
        <polygon id="path-2" points="0.149556878 0.729805952 11.2724792 0.729805952 11.2724792 11.8539137 0.149556878 11.8539137"></polygon>
        <polygon id="path-4" points="0.661645949 0.393154804 11.6976396 0.393154804 11.6976396 15.8048231 0.661645949 15.8048231"></polygon>
    </defs>
    <g id="18.-Dark-Mode-Trial" stroke="none" stroke-width="1" fill="none" fill-rule="evenodd">
        <g id="0.1-Home---Customer" transform="translate(-253.000000, -321.000000)">
            <g id="My-Accounts" transform="translate(16.000000, 272.000000)">
                <g id="Assets-/-Logo-/-Tara-Agent" transform="translate(231.000000, 38.000000)" filter="url(#filter-1)">
                    <g transform="translate(6.000000, 4.000000)">
                        <g id="Logo-Tara" transform="translate(0.000000, 7.147887)">
                            <g id="Group-15" transform="translate(0.000000, 0.740870)">
                                <path d="M6.20987025,15.1847054 C5.75744587,15.8979158 4.81110843,16.1112863 4.09592231,15.6588619 C3.38073618,15.2064375 3.16539008,14.2601001 3.61781446,13.544914 L6.01032937,9.75758856 L1.50189086,9.75758856 L1.50189086,9.75758856 C0.670141253,9.73980769 0.000395130456,9.0601833 0.000395130456,8.22448239 C0.000395130456,7.38878148 0.670141253,6.70915709 1.50189086,6.69335187 L1.50189086,6.69137622 L6.01032937,6.69137622 L3.60003358,2.88034297 L3.60200924,2.87836732 C3.17131704,2.1671325 3.38666314,1.23857593 4.09394665,0.79010286 C4.80123017,0.343605445 5.73176239,0.547097629 6.19208938,1.24055158 L6.19406503,1.24055158 L10.0940026,7.40656235 C10.0959783,7.4124893 10.0979539,7.41644061 10.0999296,7.42039191 C10.1137592,7.44212409 10.1275887,7.46385626 10.1394426,7.48756409 C10.1473452,7.499418 10.1532722,7.51324757 10.1591992,7.52707713 C10.1651261,7.5369554 10.1710531,7.54880931 10.17698,7.56066322 C10.1848826,7.57844409 10.1947609,7.59622496 10.2026635,7.61400584 C10.2085905,7.63178671 10.2145174,7.64759192 10.22242,7.66339714 C10.2263713,7.67722671 10.2322983,7.69105627 10.2382252,7.70488584 C10.2441522,7.72069106 10.2481035,7.73452062 10.2540305,7.75032584 C10.2599574,7.76810671 10.2639087,7.78588758 10.2698357,7.80366845 C10.273787,7.81947367 10.2777383,7.83527889 10.2836652,7.85108411 C10.2856409,7.86491367 10.2895922,7.87874324 10.2915679,7.89257281 C10.2955192,7.91035368 10.2994705,7.92813455 10.3034218,7.94591542 C10.3053974,7.96369629 10.3093487,7.98147716 10.3113244,7.99728238 C10.3133,8.0130876 10.3152757,8.02691716 10.3172513,8.04074673 C10.319227,8.0585276 10.3212026,8.07630847 10.3231783,8.09606499 C10.3251539,8.10989456 10.3251539,8.12767543 10.3251539,8.14348065 C10.3271296,8.15928586 10.3271296,8.17706673 10.3271296,8.19484761 C10.3271296,8.20472587 10.3291053,8.21460413 10.3291053,8.22448239 C10.3291053,8.232385 10.3271296,8.24028761 10.3271296,8.24819022 C10.3271296,8.26201978 10.3271296,8.2738737 10.3271296,8.28770326 C10.3251539,8.30745979 10.3251539,8.32524066 10.3231783,8.34499718 C10.3212026,8.3647537 10.3212026,8.38451022 10.319227,8.40229109 C10.3172513,8.41414501 10.3152757,8.42402327 10.3152757,8.43390153 C10.3113244,8.4516824 10.3093487,8.46946327 10.3053974,8.48724414 L10.2935435,8.55441632 C10.2915679,8.56231893 10.2876166,8.57022154 10.2856409,8.5800998 C10.2836652,8.59590502 10.2797139,8.61171024 10.273787,8.62751545 C10.26786,8.65122328 10.2619331,8.67493111 10.2540305,8.69863894 C10.2500792,8.7085172 10.2461279,8.71641981 10.2441522,8.72432242 C10.2402009,8.73815198 10.2362496,8.7500059 10.2303226,8.76383546 C10.2204444,8.78754329 10.2125418,8.81125112 10.2026635,8.8369346 C10.1967365,8.84681286 10.1908096,8.85669112 10.1868583,8.86854503 C10.182907,8.87842329 10.17698,8.88830156 10.1710531,8.89817982 C10.1611748,8.92188764 10.1512965,8.94361982 10.137467,8.96732765 C10.1295644,8.97918156 10.1216618,8.99301113 10.1137592,9.00684069 C10.1117835,9.010792 10.1098078,9.01276765 10.1078322,9.01671895 L10.1098078,9.01671895 L6.20987025,15.1847054 Z" id="Fill-1" fill="#123456"></path>
                                <path d="M16.0379501,9.75739099 L16.0379501,9.75739099 L11.5275359,9.75739099 L13.9398074,13.5703999 L13.9378317,13.5703999 C14.3665483,14.2836104 14.1512022,15.2121669 13.4458943,15.6586644 C12.7386108,16.1051618 11.8061029,15.9016696 11.3457759,15.2082156 L11.3457759,15.2101913 L9.37209929,12.0886607 L11.3141655,9.01652139 L11.3121898,9.01652139 C11.3141655,9.01454574 11.3161411,9.01059443 11.3181168,9.00664313 C11.3260194,8.99281356 11.333922,8.978984 11.3418246,8.96713008 C11.3536785,8.94342225 11.3655324,8.92169008 11.3754107,8.89798225 C11.3813377,8.88810399 11.385289,8.87822573 11.3892403,8.86834747 C11.3951672,8.85649355 11.4010942,8.84661529 11.4050455,8.83673703 C11.4168994,8.81105355 11.424802,8.78734572 11.4327046,8.7636379 C11.4386316,8.74980833 11.4445585,8.73795442 11.4485098,8.72412485 C11.4504855,8.71622224 11.4544368,8.70831963 11.4583881,8.69844137 C11.4662907,8.67473354 11.470242,8.65102572 11.4781446,8.62731789 C11.4820959,8.61151267 11.4860472,8.59570745 11.4899985,8.57990223 C11.4919742,8.57002397 11.4939498,8.56409702 11.4959255,8.55421876 C11.5018524,8.53248658 11.5058037,8.51075441 11.5097551,8.48704658 C11.5117307,8.46926571 11.515682,8.45148484 11.5176577,8.43370397 C11.5196333,8.4238257 11.5196333,8.41394744 11.521609,8.40209353 C11.5235846,8.38431266 11.5255603,8.36455614 11.5275359,8.34479961 C11.5275359,8.32504309 11.5295116,8.30726222 11.5314872,8.2875057 C11.5314872,8.27565178 11.5314872,8.26182222 11.5314872,8.24799265 C11.5314872,8.24009004 11.5334629,8.23218743 11.5334629,8.22428482 C11.5334629,8.21440656 11.5314872,8.2045283 11.5314872,8.19465004 C11.5314872,8.17686917 11.5314872,8.1590883 11.5295116,8.14328308 C11.5295116,8.12747786 11.5275359,8.11167264 11.5255603,8.09586743 C11.5255603,8.0761109 11.5235846,8.05833003 11.521609,8.04054916 C11.5196333,8.0267196 11.5176577,8.01289003 11.515682,7.99708481 C11.5117307,7.98127959 11.5097551,7.96349872 11.5077794,7.94571785 C11.5038281,7.92793698 11.4998768,7.91015611 11.4959255,7.89237524 C11.4939498,7.87854568 11.4899985,7.86471611 11.4860472,7.85088654 C11.4820959,7.83508133 11.4781446,7.81927611 11.4722177,7.80347089 C11.4682664,7.78569002 11.4623394,7.76790915 11.4583881,7.75012828 C11.4524611,7.73629871 11.4465342,7.72049349 11.4406072,7.70468827 C11.4366559,7.69085871 11.430729,7.67702914 11.424802,7.66319958 C11.418875,7.64739436 11.4129481,7.63158914 11.4070211,7.61578392 C11.3991185,7.5960274 11.3892403,7.57824653 11.3813377,7.56046566 C11.3754107,7.54861174 11.3694837,7.53675783 11.3635568,7.52687957 C11.3556542,7.51305 11.3497272,7.49922044 11.3438003,7.48736652 C11.3319463,7.4636587 11.3181168,7.44192652 11.3042872,7.42019435 C11.3023116,7.41624304 11.3003359,7.41229174 11.2983603,7.40834043 L9.37012363,4.36188462 L11.3299707,1.26603749 C11.7823951,0.550851369 12.7287325,0.339456575 13.4439186,0.791880947 C14.1591048,1.24232967 14.3724752,2.18866711 13.9220265,2.90385323 L11.5275359,6.69117866 L16.0379501,6.69117866 L16.0379501,6.69315431 C16.8696997,6.71093518 17.5394458,7.38858391 17.5394458,8.22428482 C17.5394458,9.05998574 16.8696997,9.73961012 16.0379501,9.75739099" id="Fill-3" fill="#123456"></path>
                                <g id="Group-7" transform="translate(31.116523, 4.051510)">
                                    <mask id="mask-3" fill="white">
                                        <use xlink:href="#path-2"></use>
                                    </mask>
                                    <g id="Clip-6"></g>
                                    <path d="M5.71101805,8.5237542 C4.48018668,8.5237542 3.48050662,7.52209849 3.48050662,6.29126712 C3.48050662,5.0624114 4.48018668,4.0607557 5.71101805,4.0607557 C6.94184942,4.0607557 7.94350512,5.0624114 7.94350512,6.29126712 C7.94350512,7.52209849 6.94184942,8.5237542 5.71101805,8.5237542 M10.8319088,1.26718337 C10.5355609,0.937249442 10.1345035,0.773270302 9.62676087,0.773270302 C9.12296953,0.773270302 8.72586343,0.937249442 8.43544254,1.26718337 C8.3998808,1.30669642 8.36827036,1.34818512 8.33665993,1.38967381 C7.55430162,0.968859878 6.65933114,0.729805952 5.71101805,0.729805952 C2.64480571,0.729805952 0.149556878,3.22505478 0.149556878,6.29126712 C0.149556878,9.35945511 2.64480571,11.8547039 5.71101805,11.8547039 C6.6652581,11.8547039 7.56417988,11.6116987 8.34851384,11.1869335 C8.37814862,11.2284222 8.40975906,11.2659596 8.4413695,11.3054726 C8.73376603,11.6413335 9.13087214,11.8092639 9.62676087,11.8092639 C10.1404305,11.8092639 10.5454392,11.6433091 10.8338844,11.3113996 C11.1282566,10.97949 11.2724792,10.5665787 11.2724792,10.0687143 L11.2724792,2.49406344 C11.2724792,2.00410167 11.1243053,1.59514165 10.8319088,1.26718337" id="Fill-5" fill="#123456" mask="url(#mask-3)"></path>
                                </g>
                                <path d="M55.7440169,12.5404924 C54.5131855,12.5404924 53.5135055,11.5388367 53.5135055,10.3080053 C53.5135055,9.07914957 54.5131855,8.07749386 55.7440169,8.07749386 C56.9748483,8.07749386 57.976504,9.07914957 57.976504,10.3080053 C57.976504,11.5388367 56.9748483,12.5404924 55.7440169,12.5404924 M60.8649076,5.28194588 C60.5685598,4.95398761 60.1675024,4.79000847 59.6597597,4.79000847 C59.1559684,4.79000847 58.7588623,4.95398761 58.4684414,5.28194588 C58.4328797,5.32343458 58.3992936,5.36492328 58.3696588,5.40641198 C57.5873005,4.98559804 56.69233,4.74654412 55.7440169,4.74654412 C52.6778046,4.74654412 50.1825557,7.24179295 50.1825557,10.3080053 C50.1825557,13.3742176 52.6778046,15.8714421 55.7440169,15.8714421 C56.698257,15.8714421 57.5952031,15.6284369 58.3815127,15.2036716 C58.4111475,15.2431847 58.4427579,15.2826977 58.4743684,15.3202351 C58.7667649,15.6580717 59.1618954,15.8260021 59.6597597,15.8260021 C60.1734293,15.8260021 60.578438,15.6600473 60.8668833,15.3281377 C61.1612555,14.9962281 61.3054781,14.5833168 61.3054781,14.0854524 L61.3054781,6.50882595 C61.3054781,6.02083984 61.1573042,5.60990416 60.8649076,5.28194588" id="Fill-8" fill="#123456"></path>
                                <path d="M48.9942009,4.77005438 C48.9783957,4.77005438 48.9606148,4.77400568 48.9448096,4.77400568 C48.9329557,4.77400568 48.9211018,4.77400568 48.9092478,4.77400568 C47.9569834,4.77400568 47.0600373,5.01305961 46.2737277,5.43387354 C46.2401416,5.38645789 46.2045799,5.34299354 46.1650668,5.29952919 C45.8667433,4.97157091 45.4577833,4.80759177 44.948065,4.80759177 C44.4363711,4.80759177 44.0353137,4.97157091 43.7429171,5.29952919 C43.4485449,5.62748747 43.3023467,6.03644749 43.3023467,6.5244336 L43.3023467,14.0892062 C43.3023467,14.573241 43.4524962,14.9841767 43.7488441,15.3220132 C44.0432163,15.6578741 44.4442737,15.8258045 44.948065,15.8258045 C45.4656859,15.8258045 45.8746459,15.6598497 46.1670425,15.3299158 C46.4633903,14.9960306 46.6115642,14.5850949 46.6115642,14.0892062 L46.6115642,10.2564408 C46.6767608,9.04536591 47.6823678,8.07927195 48.9092478,8.07927195 C48.9270287,8.07927195 48.9448096,8.07927195 48.9606148,8.07927195 C48.9724687,8.07927195 48.9843226,8.08322325 48.9942009,8.08322325 C49.9089279,8.08322325 50.6517732,7.34235365 50.6517732,6.42565099 C50.6517732,5.51092398 49.9089279,4.77005438 48.9942009,4.77005438" id="Fill-10" fill="#123456"></path>
                                <g id="Group-14" transform="translate(19.756523, 0.100205)">
                                    <mask id="mask-5" fill="white">
                                        <use xlink:href="#path-4"></use>
                                    </mask>
                                    <g id="Clip-13"></g>
                                    <path d="M10.0598238,12.5232647 L10.042043,12.5232647 L10.042043,12.5114108 C9.07990031,12.5114108 8.25605331,11.9187151 7.91228982,11.0830142 C7.91228982,11.0830142 7.78782372,11.2173585 7.74435937,7.95358095 L9.95708993,7.95358095 C10.4431004,7.95358095 10.8560117,7.80540703 11.1938483,7.51301049 C11.5297091,7.22061395 11.6976396,6.8254835 11.6976396,6.32761912 C11.6976396,5.81394953 11.5316848,5.40894081 11.1997752,5.12049558 C10.8678656,4.82612339 10.4549543,4.68190077 9.95708993,4.68190077 L7.74633502,4.68190077 L7.74633502,2.1510902 C7.74633502,1.64927452 7.60013676,1.23241189 7.30378891,0.896551005 C7.01336803,0.562665769 6.60243235,0.392759673 6.08481146,0.392759673 C5.58299578,0.392759673 5.18391402,0.564641422 4.88756618,0.904453614 C4.59319399,1.24426581 4.44502006,1.65915278 4.44502006,2.1510902 L4.44502006,4.68190077 L2.38243908,4.68190077 C1.89247732,4.68190077 1.4835173,4.82809904 1.15358337,5.12247123 C0.825625088,5.41881907 0.661645949,5.81987649 0.661645949,6.32761912 C0.661645949,6.83141045 0.825625088,7.22851656 1.15358337,7.51893745 C1.4835173,7.80935833 1.89247732,7.95358095 2.38243908,7.95358095 L4.44502006,7.95358095 L4.44502006,9.39975842 L4.44502006,10.2176785 L4.44106876,10.2176785 C4.44106876,13.299696 6.95409846,15.8048231 10.042043,15.8048231 L10.042043,15.7969205 C10.0479699,15.7969205 10.0538969,15.7969205 10.0598238,15.7969205 C10.9626969,15.7969205 11.6976396,15.0619779 11.6976396,14.1591048 C11.6976396,13.2582073 10.9626969,12.5232647 10.0598238,12.5232647" id="Fill-12" fill="#123456" mask="url(#mask-5)"></path>
                                </g>
                            </g>
                            <text id="Agent" font-family="ArialRoundedMTBold, Arial Rounded MT Bold" font-size="8.89043526" font-weight="normal"
                                fill="#123456">
                                <tspan x="64.4556556" y="8">Score</tspan>
                            </text>
                        </g>
                    </g>
                </g>
            </g>
        </g>
    </g>
</svg>