<svg xmlns="http://www.w3.org/2000/svg" xmlns:xlink="http://www.w3.org/1999/xlink" width="90" height="24" viewBox="0 0 90 24">
    <defs>
        <path id="w9hh3rr8oa" d="M0.202 0.985L15.215 0.985 15.215 16 0.202 16z"/>
        <path id="vjyxv633qc" d="M0.893 0.531L15.789 0.531 15.789 21.333 0.893 21.333z"/>
    </defs>
    <g fill="none" fill-rule="evenodd">
        <g>
            <g>
                <g>
                    <g>
                        <path fill="#123456" d="M8.382 20.496c-.61.962-1.888 1.25-2.853.64-.966-.61-1.256-1.888-.646-2.854l3.23-5.112H2.027C.905 13.146.001 12.23.001 11.101c0-1.128.904-2.045 2.026-2.067v-.002h6.086L4.859 3.888l.003-.003c-.581-.96-.29-2.213.664-2.819.955-.602 2.21-.328 2.832.608h.003l5.264 8.323c.002.008.005.013.008.019.018.03.037.058.053.09.01.016.019.035.027.054l.024.045c.01.024.024.048.034.072.008.024.016.045.027.067.005.018.013.037.021.056l.022.061c.008.024.013.048.02.072.006.021.012.043.02.064.002.019.008.037.01.056l.016.072c.003.024.008.048.01.07l.009.058.008.075c.003.018.003.042.003.064.002.021.002.045.002.07 0 .012.003.026.003.04 0 .01-.003.02-.003.031v.053c-.002.027-.002.051-.005.078-.003.026-.003.053-.005.077-.003.016-.006.03-.006.043l-.013.072-.016.09c-.003.011-.008.022-.01.035-.003.021-.009.043-.017.064-.008.032-.016.064-.026.096-.006.013-.011.024-.014.035-.005.018-.01.034-.018.053-.014.032-.024.064-.038.099-.008.013-.016.026-.021.042-.005.014-.013.027-.021.04-.014.032-.027.062-.046.094l-.032.053-.008.013h.003l-5.264 8.326z" transform="translate(-16 -40) translate(0 24) translate(16 16) translate(0 1)"/>
                        <path fill="#123456" d="M21.647 13.17H15.56l3.256 5.147h-.002c.578.963.288 2.216-.664 2.819-.955.602-2.214.328-2.835-.608v.002l-2.664-4.213 2.621-4.147h-.002l.008-.013c.01-.019.021-.037.032-.053.016-.032.032-.062.045-.094.008-.013.013-.026.019-.04l.021-.042c.016-.035.027-.067.037-.1.008-.018.016-.034.022-.052.002-.011.008-.022.013-.035.01-.032.016-.064.027-.096l.016-.064.008-.035c.008-.03.013-.058.018-.09l.011-.072c.003-.014.003-.027.005-.043l.008-.077c0-.027.003-.051.006-.078v-.053l.002-.032-.002-.04c0-.024 0-.048-.003-.07 0-.02-.003-.042-.005-.063 0-.027-.003-.051-.006-.075l-.008-.059c-.005-.021-.008-.045-.01-.07l-.016-.071c-.003-.019-.008-.037-.014-.056-.005-.021-.01-.043-.018-.064-.006-.024-.014-.048-.019-.072l-.024-.061c-.005-.02-.013-.038-.021-.056l-.024-.064c-.01-.027-.024-.051-.035-.075l-.024-.045-.027-.054c-.016-.032-.034-.061-.053-.09L15.25 10l-2.603-4.112 2.646-4.18c.61-.964 1.888-1.25 2.853-.64.965.609 1.253 1.886.645 2.852L15.56 9.032h6.088v.002c1.123.024 2.027.939 2.027 2.067 0 1.128-.904 2.045-2.027 2.07" transform="translate(-16 -40) translate(0 24) translate(16 16) translate(0 1)"/>
                        <g transform="translate(-16 -40) translate(0 24) translate(16 16) translate(0 1) translate(42 5.469)">
                            <mask id="wo13828b7b" fill="#fff">
                                <use xlink:href="#w9hh3rr8oa"/>
                            </mask>
                            <path fill="#123456" d="M7.709 11.505c-1.662 0-3.011-1.352-3.011-3.013 0-1.659 1.35-3.01 3.01-3.01 1.662 0 3.014 1.351 3.014 3.01 0 1.661-1.352 3.013-3.013 3.013M14.62 1.71c-.4-.445-.942-.666-1.627-.666-.68 0-1.216.221-1.608.666-.048.054-.09.11-.133.166-1.056-.568-2.264-.89-3.544-.89C3.569.985.202 4.352.202 8.491c0 4.141 3.368 7.51 7.507 7.51 1.288 0 2.5-.329 3.56-.902.04.056.082.106.125.16.395.453.93.68 1.6.68.693 0 1.24-.224 1.63-.672.397-.448.591-1.006.591-1.678V3.366c0-.66-.2-1.213-.594-1.656" mask="url(#wo13828b7b)"/>
                        </g>
                        <path fill="#123456" d="M75.241 16.927c-1.661 0-3.01-1.352-3.01-3.014 0-1.658 1.349-3.01 3.01-3.01 1.662 0 3.014 1.352 3.014 3.01 0 1.662-1.352 3.014-3.014 3.014m6.912-9.798c-.4-.442-.941-.664-1.626-.664-.68 0-1.216.222-1.608.664-.048.056-.094.112-.134.168-1.056-.568-2.264-.89-3.544-.89-4.138 0-7.506 3.368-7.506 7.506 0 4.14 3.368 7.51 7.506 7.51 1.288 0 2.499-.328 3.56-.902.04.054.083.107.126.158.394.456.928.682 1.6.682.693 0 1.24-.224 1.629-.672.397-.448.592-1.005.592-1.677V8.785c0-.658-.2-1.213-.595-1.656M66.13 6.438c-.02 0-.045.006-.066.006h-.048c-1.285 0-2.496.322-3.557.89-.046-.064-.094-.122-.147-.18-.403-.444-.955-.665-1.643-.665-.69 0-1.232.221-1.626.664-.398.443-.595.995-.595 1.653v10.211c0 .653.203 1.208.603 1.664.397.453.938.68 1.618.68.699 0 1.251-.224 1.646-.67.4-.45.6-1.005.6-1.674v-5.173c.088-1.635 1.445-2.939 3.101-2.939h.07c.015 0 .031.005.045.005 1.234 0 2.237-1 2.237-2.237 0-1.235-1.003-2.235-2.237-2.235" transform="translate(-16 -40) translate(0 24) translate(16 16) translate(0 1)"/>
                        <g transform="translate(-16 -40) translate(0 24) translate(16 16) translate(0 1) translate(26.667 .135)">
                            <mask id="4ea66myzkd" fill="#fff">
                                <use xlink:href="#vjyxv633qc"/>
                            </mask>
                            <path fill="#123456" d="M13.578 16.903h-.024v-.016c-1.298 0-2.41-.8-2.874-1.928 0 0-.168.182-.227-4.224h2.987c.656 0 1.213-.2 1.67-.594.452-.395.68-.928.68-1.6 0-.694-.225-1.24-.673-1.63-.448-.397-1.005-.592-1.677-.592h-2.984V2.903c0-.677-.198-1.24-.598-1.693C9.466.76 8.912.53 8.213.53c-.677 0-1.216.232-1.616.69C6.2 1.68 6 2.24 6 2.904V6.32H3.216c-.662 0-1.214.198-1.659.595-.443.4-.664.941-.664 1.627 0 .68.221 1.216.664 1.608.445.392.997.586 1.659.586H6v3.056h-.006c0 4.16 3.392 7.542 7.56 7.542v-.01h.024c1.22 0 2.211-.993 2.211-2.212 0-1.216-.992-2.208-2.21-2.208" mask="url(#4ea66myzkd)"/>
                        </g>
                    </g>
                </g>
            </g>
        </g>
    </g>
</svg>
