<svg xmlns="http://www.w3.org/2000/svg" xmlns:xlink="http://www.w3.org/1999/xlink" width="192" height="192" viewBox="0 0 192 192">
    <defs>
        <path id="w3gkcnggua" d="M2.902.275C1.803.275.915 1.38.915 2.747v10.74c0 1.366.888 2.47 1.987 2.47h47.67c1.14 0 2.057-1.141 2.057-2.562V2.835c0-1.419-.917-2.56-2.058-2.56H2.902z"/>
        <path id="lqzjcpm3cc" d="M19.574 1.878L1.322 12.885c-1.373.825-1.373 2.443 0 3.26l18.252 11.007c1.719 1.038 4.207.078 4.207-1.629V3.51c0-1.218-1.274-2.06-2.627-2.06-.54-.001-1.09.133-1.58.43z"/>
        <path id="c0olqpf6ce" d="M7.5.643C3.48.643.225 3.898.225 7.918c0 4.021 3.256 7.277 7.277 7.277h80.045c-4.021 0-7.276-3.256-7.276-7.277V.643H7.5z"/>
        <path id="w9bmlgw6vg" d="M0 1.534L63.015 1.534 63.015 66.347 0 66.347z"/>
        <path id="jm68777yvi" d="M2.936.611c-1.098 0-1.98 1.1-1.98 2.464v10.163c0 1.365.882 2.463 1.98 2.463h45.87c1.058 0 1.912-1.063 1.912-2.378V2.99c0-1.315-.854-2.378-1.912-2.378H2.936z"/>
        <path id="6o076hy5bk" d="M.912 2.365V23.55c0 1.637 2.394 2.567 4.046 1.568l17.565-10.593c1.322-.792 1.322-2.349 0-3.136L4.958.797C4.488.51 3.955.382 3.437.382 2.134.382.912 1.19.912 2.365z"/>
    </defs>
    <g fill="none" fill-rule="evenodd">
        <g>
            <g>
                <g transform="translate(-82 -213) translate(24 213) translate(58)">
                    <circle cx="96.476" cy="106.476" r="70.476" fill="#B2F7E2" opacity=".248"/>
                    <g>
                        <g>
                            <path fill="#CCF9EA" d="M12.334 139.13c10.48 12.57 31.834 17.602 54.358 7.449 15.199-6.85 27.9-18.79 42.79-26.407 4.983-2.548 10.271-4.358 15.186-7.062 4.916-2.702 9.928-6.27 12.152-11.843 6.634-16.63-1.537-36.32-4.34-40.127-6.823-9.259-15.576-16.766-25.348-21.734-9.075-4.618-18.928-7.034-28.801-8.173-12.19-1.405-25.008-1.771-36.223 3.4C.578 53.782.846 101.272 1.246 110.516c.43 9.877 1.726 17.381 11.088 28.613" transform="translate(3.2 20.8) translate(35.2 7.083)"/>
                            <path fill="#7CF5CE" d="M86.103 15.956h47.669c1.14 0 2.057-1.141 2.057-2.56V2.836c0-1.42-.917-2.56-2.057-2.56h-47.67c-1.098 0-1.986 1.104-1.986 2.47v10.74c0 1.367.888 2.47 1.987 2.47" transform="translate(3.2 20.8) translate(35.2 7.083)"/>
                        </g>
                        <g transform="translate(3.2 20.8) translate(118.4 7.083)">
                            <mask id="b7t8n6ukfb" fill="#fff">
                                <use xlink:href="#w3gkcnggua"/>
                            </mask>
                            <path fill="#7CF5CE" d="M-26.795 42.09L89.594 42.09 89.594 -25.858 -26.795 -25.858z" mask="url(#b7t8n6ukfb)"/>
                        </g>
                        <path fill="#7CF5CE" d="M103.721 16.828l18.253 11.008c1.719 1.038 4.207.078 4.207-1.63V4.192c0-1.703-2.488-2.67-4.207-1.632l-18.253 11.008c-1.37.825-1.37 2.441 0 3.259" transform="translate(3.2 20.8)"/>
                        <g transform="translate(3.2 20.8) translate(102.4 .683)">
                            <mask id="ok20596wdd" fill="#fff">
                                <use xlink:href="#lqzjcpm3cc"/>
                            </mask>
                            <path fill="#7CF5CE" d="M-27.419 53.717L51.493 53.717 51.493 -24.683 -27.419 -24.683z" mask="url(#ok20596wdd)"/>
                        </g>
                        <g>
                            <path fill="#FFF" d="M27.273 2.588S12.719-1.73 12.353 15.96c-.366 17.69-.366 85.737-.366 85.737l-11-1.753-.762 5.574s-.072 8.014 7.325 8.014c7.395 0 77.918-1.043 77.918-1.043l3.488-.054s5.87-3.34 5.87-4.82v-39.94h5.917s8.876 0 8.876-7.397V8.504s.392-6.844-9.42-6.381c-9.81.464-72.926.465-72.926.465" transform="translate(3.2 20.8) translate(46.4 18.283)"/>
                            <path fill="#CCF9EA" d="M94.826 8.504H33.112c-3.497 0-6.332 2.834-6.332 6.333v71.69c0 7.06-3.693 13.606-9.735 17.257l-2.774 1.677c-1.19.718-1.919 2.01-1.919 3.4 0 2.179 1.756 3.95 3.935 3.973l71.142.699s7.397-1.48 7.397-7.397V67.674h2.542c3.498 0 6.333-2.836 6.333-6.333V14.837c0-3.5-2.835-6.333-6.333-6.333h-2.542z" transform="translate(3.2 20.8) translate(46.4 18.283)"/>
                            <path fill="#1B3453" d="M13.496 111.65h74.05c3.382 0 6.133-2.042 6.133-4.558V67.193c0-.632.513-1.142 1.144-1.142h6.28c3.934 0 7.133-2.394 7.133-5.335V8.288c0-2.514-2.754-4.557-6.138-4.557h-80.04c-4.723 0-8.562 2.894-8.562 6.453V111.65zm74.05 2.289H12.352c-.63 0-1.142-.514-1.142-1.144V10.184c0-4.82 4.866-8.74 10.848-8.74h80.04c4.645 0 8.424 3.07 8.424 6.844v52.428c0 4.202-4.226 7.621-9.42 7.621h-5.137v38.755c0 3.775-3.776 6.847-8.419 6.847z" transform="translate(3.2 20.8) translate(46.4 18.283)"/>
                        </g>
                        <g transform="translate(3.2 20.8) translate(46.4 115.883)">
                            <mask id="z3qunl335f" fill="#fff">
                                <use xlink:href="#c0olqpf6ce"/>
                            </mask>
                            <path fill="#FFF" d="M-27.362 42.781L115.134 42.781 115.134 -26.944 -27.362 -26.944z" mask="url(#z3qunl335f)"/>
                        </g>
                        <g>
                            <path fill="#1B3453" d="M53.901 99.385c-3.38 0-6.133 2.752-6.133 6.135 0 3.38 2.752 6.13 6.133 6.13h74.287c-1.637-1.535-2.658-3.716-2.658-6.13v-6.135H53.9zm80.045 14.554H53.9c-4.64 0-8.42-3.78-8.42-8.42 0-4.643 3.78-8.42 8.42-8.42h72.77c.632 0 1.144.512 1.144 1.142v7.279c0 3.38 2.75 6.13 6.13 6.13.635 0 1.145.513 1.145 1.145 0 .63-.51 1.144-1.144 1.144zM142.365 66.05h5.218c3.888 0 7.053-2.367 7.053-5.279V8.286c0-2.513-2.754-4.557-6.138-4.557-3.38 0-6.133 2.044-6.133 4.557V66.05zm5.218 2.286h-6.36c-.63 0-1.144-.514-1.144-1.144V8.286c0-3.773 3.78-6.843 8.42-6.843 4.644 0 8.423 3.07 8.423 6.843v52.485c0 4.171-4.19 7.565-9.34 7.565z" transform="translate(3.2 20.8) translate(0 18.283)"/>
                            <path fill="#FFF" d="M62.086 71.373c0 16.749-13.578 30.325-30.327 30.325-16.747 0-30.325-13.576-30.325-30.325S15.012 41.048 31.76 41.048c16.749 0 30.327 13.576 30.327 30.325" transform="translate(3.2 20.8) translate(0 18.283)"/>
                            <path fill="#123456" d="M62.448 69.415c1.971-1.718 11.069-8.531 22.718.197.485.361.583 1.045.221 1.53-.365.473-1.045.58-1.528.219-11.563-8.664-19.894-.412-20.245-.055-.425.434-1.115.439-1.544.016-.43-.419-.441-1.109-.02-1.54.01-.012.147-.148.398-.367" transform="translate(3.2 20.8) translate(0 18.283)"/>
                            <path fill="#123456" d="M83.617 68.93c.437-.38 1.053-.769 1.862-.946 1.357-.293 2.816.092 4.336 1.152.495.347.616 1.027.27 1.521-.343.49-1.027.616-1.521.272-.53-.371-1.027-.622-1.488-.752 1.024.863 1.81 1.947 2.027 2.263.346.494.215 1.184-.275 1.52-.494.342-1.176.22-1.518-.274-.679-.978-2.002-2.378-2.719-2.466-.405.352-1.07.378-1.48.036-.413-.344-.582-.916-.31-1.378.05-.082.313-.51.816-.949" transform="translate(3.2 20.8) translate(0 18.283)"/>
                            <path fill="#123456" d="M83.025 69.609c.454-.397 1.145-.349 1.54.105 1.588 1.821 2.253 4.35 2.282 4.458.152.58-.195 1.173-.784 1.328-.582.152-1.18-.198-1.331-.78-.007-.022-.571-2.145-1.813-3.57-.395-.455-.349-1.144.106-1.541" transform="translate(3.2 20.8) translate(0 18.283)"/>
                            <path fill="#FFE092" d="M54.44 73.624c0 15.082-11.491 27.306-25.667 27.306-14.174 0-25.667-12.224-25.667-27.306 0-15.081 11.493-27.305 25.667-27.305 14.176 0 25.667 12.224 25.667 27.305" transform="translate(3.2 20.8) translate(0 18.283)"/>
                            <g transform="translate(3.2 20.8) translate(0 18.283) translate(0 38.4)">
                                <mask id="qecup0bceh" fill="#fff">
                                    <use xlink:href="#w9bmlgw6vg"/>
                                </mask>
                                <path fill="#112E4B" d="M46.498 59.548c-.792.353-1.597.654-2.408.909l-.411.12c-.056.016-.114.03-.168.048-.368.104-.736.2-1.104.286-.032.005-.063.011-.093.018-.36.083-.718.156-1.078.22l-.165.028c-.338.056-.674.107-1.011.148-.104.013-.21.023-.314.034-.29.032-.58.062-.872.083-.235.016-.474.024-.709.034-.161.008-.321.019-.481.022-6.376.12-12.815-2.361-18.063-6.859-.048-.042-.094-.086-.142-.126-.282-.248-.562-.498-.839-.756-.11-.102-.217-.208-.326-.312-.211-.203-.422-.408-.627-.617-.133-.135-.264-.274-.394-.411-.177-.186-.355-.375-.528-.568-.142-.156-.281-.317-.42-.474-.157-.184-.316-.366-.47-.552-.143-.171-.283-.344-.422-.517-.147-.185-.293-.373-.437-.561-.137-.18-.273-.362-.408-.546-.14-.192-.276-.386-.412-.582-.132-.188-.263-.375-.39-.565-.137-.203-.268-.41-.4-.618-.12-.189-.24-.376-.356-.568-.138-.224-.269-.457-.402-.686-.104-.181-.21-.359-.31-.541-.147-.266-.288-.54-.429-.811-.078-.155-.161-.306-.238-.46-.213-.43-.42-.867-.62-1.313-.198-.445-.385-.891-.563-1.34-.062-.16-.12-.322-.18-.482-.11-.287-.218-.575-.317-.863-.067-.197-.13-.393-.194-.59-.083-.255-.166-.507-.243-.76-.064-.215-.123-.43-.182-.643-.068-.239-.133-.474-.192-.712-.058-.221-.11-.444-.162-.668-.054-.23-.106-.464-.155-.696-.048-.224-.091-.446-.133-.668-.045-.234-.086-.466-.126-.7-.037-.219-.072-.44-.104-.66-.036-.239-.066-.479-.096-.717-.024-.211-.05-.421-.072-.632-.026-.258-.048-.514-.068-.771-.014-.19-.032-.378-.043-.568-.017-.293-.027-.586-.037-.877-.006-.152-.012-.303-.016-.455-.006-.376-.006-.752 0-1.128.002-.064 0-.126.002-.19.165-6.91 2.627-13.354 6.978-18.016.112-.117.227-.229.339-.342.165-.17.328-.341.5-.506.21-.203.426-.397.644-.592.078-.07.155-.142.233-.211.258-.223.522-.439.79-.651.042-.034.084-.07.129-.103.286-.225.582-.443.883-.656.027-.017.053-.037.077-.056.31-.217.627-.425.95-.629l.15-.094.362-.226c.733-.432 1.496-.827 2.29-1.182 12.928-5.758 28.83 1.64 35.446 16.493 6.62 14.853 1.485 31.622-11.443 37.384zm-10.42 4.113c-2.502.536-5.057.616-7.591.324L30.9 62.91c.17.04.345.074.516.114.276.06.55.123.828.176.512.099 1.028.182 1.547.25.225.031.453.052.68.076.405.043.811.077 1.217.102.132.008.261.026.39.032zm-15.76-2.014l3.425-1.528c.18.1.357.195.536.29.47.243.945.475 1.424.694.269.123.542.235.814.349.283.121.568.235.856.344.115.046.23.097.346.139l-3.002 1.338c-1.496-.408-2.966-.954-4.398-1.626zM6.048 17.783l2.755-1.227c-.15.326-.3.654-.44.987-.117.28-.224.563-.331.845-.109.288-.216.577-.315.865-.098.28-.194.557-.285.84-.08.252-.149.506-.22.759l-3.295 1.467c.574-1.592 1.283-3.11 2.13-4.536zm.147 8.166c-.02.18-.035.364-.053.544-.046.488-.083.976-.109 1.468-.008.18-.02.36-.027.544-.001.017-.003.038-.003.06l-3.74 1.666c.122-1.76.4-3.48.812-5.144l3.496-1.558c-.043.228-.09.456-.13.688-.097.572-.179 1.15-.246 1.732zm7.41 25.535c.086.107.17.219.256.325l.092.118c.437.534.887 1.051 1.348 1.554l.294.312c.085.094.171.187.258.276l-3.845 1.712c-.808-.8-1.58-1.654-2.314-2.555l3.91-1.742zm-6.906-14.86c.027.13.058.26.086.388l.095.43c.158.679.331 1.359.531 2.037.01.034.022.064.032.098.024.09.056.177.083.267l-3.96 1.765c-.32-1.076-.6-2.152-.806-3.228l3.94-1.756zm3.827 10.253c.224.404.46.799.698 1.19l.051.087c.322.522.656 1.03.998 1.531L8.338 51.44c-.63-.893-1.227-1.82-1.78-2.794l3.967-1.768zm-5.46-1.155c-.3-.672-.559-1.35-.81-2.029L8.23 41.92l.02.051c.25.661.513 1.32.805 1.975.148.334.308.659.466.987l-3.974 1.771c-.159-.328-.333-.645-.484-.98zm-2.87-13.069l3.815-1.7c.02.513.053 1.028.094 1.545l.036.426c.048.494.107.987.176 1.48L2.418 36.14c-.14-1.17-.214-2.333-.224-3.487zM21.46 58.745l-3.577 1.593c-1.434-.85-2.812-1.837-4.119-2.949l3.78-1.681c.315.281.631.561.953.83.14.117.28.23.422.344.383.309.77.61 1.164.9.145.108.29.219.44.326.307.219.622.429.937.637zM12.232 10.98c-.254.318-.5.643-.739.973-.134.184-.27.366-.4.556-.2.292-.39.592-.579.892l-1.92.856c1.154-1.333 2.437-2.548 3.874-3.59-.082.102-.154.209-.236.313zm9.373-7.304c-1.017.454-1.985.976-2.913 1.55-1.093.322-2.103.687-3.072 1.117C8.274 9.617 3.239 16.13 1.122 23.881c-.03.062-.042.128-.058.195C.4 26.57.044 29.19.004 31.873c-.005.06-.005.118-.002.179-.016 1.87.12 3.766.42 5.669 0 .116.026.23.062.344.486 2.864 1.334 5.739 2.585 8.547 1.959 4.393 4.683 8.171 7.895 11.216.032.032.062.065.097.094 1.914 1.8 3.999 3.336 6.197 4.589.056.03.107.07.168.09 2.218 1.244 4.544 2.192 6.926 2.825.076.03.154.047.234.061 5.571 1.43 11.427 1.123 16.814-1.277.972-.432 1.919-.94 2.887-1.537 1.046-.306 2.083-.677 3.1-1.13 14.03-6.251 19.66-24.314 12.551-40.269C52.83 5.32 35.634-2.574 21.605 3.676z" mask="url(#qecup0bceh)"/>
                            </g>
                            <path fill="#123456" d="M21.986 114.716c-1.255.901-2.706 1.752-4.357 2.546-.544.262-1.197.034-1.46-.509-.26-.542-.027-1.201.511-1.459 5.264-2.536 8.25-5.571 8.87-9.02.83-4.614-2.865-8.522-2.902-8.56-.42-.434-.405-1.127.03-1.545.434-.413 1.127-.406 1.543.032.187.19 4.504 4.76 3.48 10.458-.544 3.016-2.461 5.713-5.715 8.057M42.426 118.337c-.278 0-.558-.106-.771-.319-.427-.427-.427-1.118 0-1.545 7.046-7.047 2-19.437 1.947-19.56-.232-.557.032-1.197.589-1.429.553-.232 1.197.032 1.429.589.233.563 5.648 13.875-2.421 21.945-.213.213-.491.319-.773.319" transform="translate(3.2 20.8) translate(0 18.283)"/>
                            <path fill="#1B3453" d="M91.857 26.974h2.567c.39 0 .777-.145 1.165-.44.387-.296.582-.734.582-1.326 0-.587-.195-1.03-.582-1.331-.388-.303-.79-.453-1.204-.453h-2.528v3.55zm7.703 5.117c.2.48.3.827.3 1.043 0 .508-.414.935-1.241 1.282-.43.189-.773.28-1.034.28-.26 0-.476-.06-.641-.189-.17-.126-.293-.256-.371-.39-.135-.255-.656-1.466-1.565-3.632l-.623.041h-2.528v2.266c0 .309-.01.54-.03.693-.02.152-.082.33-.189.531-.189.362-.71.54-1.565.54-.937 0-1.484-.247-1.646-.742-.078-.225-.122-.572-.122-1.043V21.638c0-.305.012-.537.032-.69.02-.153.085-.332.19-.532.188-.362.71-.54 1.566-.54h4.33c1.18 0 2.324.428 3.433 1.282.534.415.974.976 1.323 1.685.347.707.522 1.498.522 2.365 0 1.514-.501 2.757-1.504 3.733.294.71.748 1.758 1.363 3.15zM104.936 27.998c-.308.363-.461.757-.461 1.182 0 .429.157.821.47 1.175.314.353.715.532 1.205.532.486 0 .902-.174 1.242-.523.342-.345.512-.74.512-1.184 0-.438-.16-.837-.48-1.192-.322-.355-.74-.531-1.255-.531-.517 0-.926.18-1.233.54m-3.973 9.449V25.73c0-.306.01-.535.03-.682.02-.147.079-.314.171-.5.188-.364.634-.542 1.343-.542.71 0 1.189.09 1.435.27.248.18.392.444.43.793.51-.696 1.31-1.043 2.399-1.043 1.09 0 2.123.515 3.099 1.544.974 1.03 1.464 2.225 1.464 3.592 0 1.363-.486 2.56-1.454 3.59-.972 1.029-2.004 1.544-3.1 1.544s-1.89-.307-2.387-.923v4.053c0 .305-.01.534-.03.681-.02.146-.079.317-.181.512-.1.192-.27.33-.51.411-.24.079-.57.12-.983.12-.414 0-.745-.041-.993-.12-.248-.081-.421-.216-.522-.4-.1-.19-.16-.356-.18-.504-.022-.145-.031-.372-.031-.681" transform="translate(3.2 20.8) translate(0 18.283)"/>
                            <path fill="#123456" d="M39.936 78.724c-5.325 0-5.976-3.825-5.983-3.865-.097-.626.333-1.207.954-1.303.61-.092 1.21.332 1.304.956.045.22.6 2.336 4.848 1.862 4.44-.482 4.337-2.834 4.336-2.858-.04-.628.437-1.17 1.065-1.214.607-.058 1.172.437 1.215 1.066.003.046.219 4.564-6.37 5.278-.488.053-.942.078-1.37.078" transform="translate(3.2 20.8) translate(0 18.283)"/>
                            <path fill="#FFF" d="M79.86 88.903l1.28-1.445c.064-.072.063-.147.052-.199-.013-.05-.044-.12-.132-.156l-1.782-.743c-.354-.147-.66-.376-.9-.662L21.671 98.715l.961 4.196 56.71-13.02c.087-.36.265-.7.517-.988" transform="translate(3.2 20.8) translate(0 18.283)"/>
                            <path fill="#123456" d="M92.367 86.892c.84-.503 1.257-1.482 1.038-2.436-.217-.956-1.02-1.656-1.998-1.739l-1.864-.165 1.216 5.301 1.608-.961z" transform="translate(3.2 20.8) translate(0 18.283)"/>
                            <path fill="#FFF" d="M15.223 93.603L19.061 110.324 22.004 109.649 18.164 92.926zM77.903 83.628c.09-.362.265-.703.52-.99l1.28-1.444c.062-.07.06-.147.05-.198-.013-.052-.044-.122-.133-.157l-3.127-1.304-33.945 7.793h-.002l-22.312 5.125.963 4.194 56.706-13.02zM8.237 95.206c-2.02.464-3.286 2.484-2.822 4.504l2.157 9.396c.464 2.02 2.486 3.285 4.504 2.821l4.918-1.128-3.84-16.721-4.917 1.128zM82.498 93.368l-1.782-.744c-.354-.147-.66-.376-.9-.664l-56.705 13.02.961 4.195 35.047-8.045 21.213-4.87 2.248-2.537c.062-.072.06-.148.05-.2-.014-.052-.044-.12-.132-.155M81.29 82.601l-1.278 1.445c-.063.07-.063.147-.05.197.013.054.043.123.131.158l1.781.742c.7.292 1.218.903 1.386 1.64.171.738-.029 1.517-.531 2.084l-1.277 1.443c-.064.07-.063.145-.053.195.013.056.046.125.133.16l1.782.742c.59.245 1.051.724 1.28 1.31l4.277-3.6-1.58-6.88-5.418-1.375c.05.63-.157 1.26-.583 1.739" transform="translate(3.2 20.8) translate(0 18.283)"/>
                            <path fill="#123456" d="M89.639 90.156l-10.045 7.672-68.54 14.662-3.292-.317-3.51-15.293 2.59-2.742 69.325-15.914 3.293.317 5.8 1.888 3.355.815-.184-.92-.072-.005-11.51-2.923c-.164-.04-.333-.044-.5-.007l-35.57 8.168-33.017 7.58c-3.16.724-5.142 3.887-4.416 7.05l2.157 9.394c.352 1.531 1.278 2.834 2.61 3.67 1.33.833 2.907 1.098 4.438.746l47.043-10.8 21.546-4.945c.164-.039.316-.116.444-.223l8.89-7.488-.184-.923-.651.538z" transform="translate(3.2 20.8) translate(0 18.283)"/>
                            <path fill="#123456" d="M95.476 83.98c-.267-1.163-.977-2.127-1.937-2.729-.573-.36-1.236-.587-1.946-.65l-3.162-.276.184.918 1.19.29 3.292.316 1.722 2.826-1.572 2.506-2.956 2.436.184.925.193-.163 2.787-1.666c1.636-.974 2.447-2.878 2.021-4.732" transform="translate(3.2 20.8) translate(0 18.283)"/>
                            <path fill="#7CF5CE" d="M8.542 99.385l53.337-13.038c6.098-1.49 12.532.31 16.968 4.747l1.14 1.14c1.196 1.194 1.363 3.078.393 4.465-.505.725-1.267 1.232-2.133 1.416L11.67 112.356c-.407.088-.827.103-1.239.042l-.028-.005c-1.399-.206-2.535-1.237-2.879-2.606l-1.54-6.165c-.47-1.875.678-3.778 2.558-4.237" transform="translate(3.2 20.8) translate(0 18.283)"/>
                            <path fill="#123456" d="M91.407 82.716c.976.085 1.78.783 1.999 1.74.219.955-.199 1.932-1.039 2.435l-1.608.961-1.216-5.3 1.864.164zm1.84 4.464l1.572-2.505-1.722-2.826-3.293-.317-1.189-.29 1.676 8.375 2.956-2.437zM88.872 89.116l-4.277 3.602c-.23-.587-.69-1.066-1.282-1.31l-1.78-.743c-.089-.037-.12-.105-.133-.16-.012-.05-.013-.125.05-.195l1.28-1.443c.502-.568.702-1.346.53-2.083-.168-.738-.688-1.35-1.385-1.64l-1.781-.743c-.088-.037-.12-.105-.131-.158-.013-.05-.013-.127.05-.197l1.278-1.445c.424-.478.63-1.11.582-1.739l5.42 1.374 1.579 6.88zm-6.293 4.607l-2.247 2.536-21.214 4.87-35.045 8.045-.963-4.195 56.707-13.02c.239.289.546.52.898.665l1.784.744c.086.036.118.104.13.155.01.051.012.128-.05.2zm-60.907 4.992l56.705-13.018c.24.287.547.517.9.663l1.783.742c.088.038.119.107.132.157.01.051.012.126-.052.198l-1.28 1.445c-.252.288-.428.629-.518.989l-56.707 13.02-.963-4.196zm-2.61 11.61l-3.838-16.722 2.94-.677 3.84 16.723-2.942.675zm-6.986 1.603c-2.019.464-4.04-.802-4.505-2.823L5.416 99.71c-.464-2.02.803-4.04 2.822-4.504l4.917-1.128 3.838 16.722-4.917 1.128zm30.47-24.599h.002l33.946-7.793 3.126 1.302c.088.037.12.107.133.158.011.05.013.127-.05.197l-1.28 1.445c-.254.286-.43.629-.52.989l-56.707 13.02-.961-4.195 22.312-5.123zm36.913-8.787l-3.291-.318L6.84 94.139l-2.59 2.742 3.512 15.291 3.29.317 68.54-14.662 10.045-7.672.653-.538-1.675-8.374-3.357-.815-5.8-1.886z" transform="translate(3.2 20.8) translate(0 18.283)"/>
                            <path fill="#123456" d="M16.325 80.23c.296 2.6 2.41 13.767 16.897 15.191.602.06 1.136-.38 1.194-.98.051-.594-.38-1.135-.981-1.193-14.378-1.413-14.955-13.125-14.973-13.625-.022-.608-.526-1.076-1.126-1.055-.602.021-1.075.522-1.058 1.123.002.016.01.208.047.54" transform="translate(3.2 20.8) translate(0 18.283)"/>
                            <path fill="#7CF5CE" d="M168.807 15.012h-45.872c-1.096 0-1.979 1.099-1.979 2.464v10.163c0 1.363.883 2.462 1.98 2.462h45.871c1.056 0 1.91-1.062 1.91-2.377V17.388c0-1.314-.854-2.376-1.91-2.376" transform="translate(3.2 20.8) translate(0 18.283)"/>
                        </g>
                        <g transform="translate(3.2 20.8) translate(120 32.683)">
                            <mask id="ff9cif9sqj" fill="#fff">
                                <use xlink:href="#jm68777yvi"/>
                            </mask>
                            <path fill="#7CF5CE" d="M-34.614 40.848L77.384 40.848 77.384 -24.534 -34.614 -24.534z" mask="url(#ff9cif9sqj)"/>
                        </g>
                        <path fill="#7CF5CE" d="M185.725 39.272L168.158 28.68c-1.653-1-4.046-.076-4.046 1.568v21.185c0 1.637 2.393 2.568 4.046 1.568l17.567-10.592c1.32-.793 1.32-2.35 0-3.137" transform="translate(3.2 20.8)"/>
                        <g transform="translate(3.2 20.8) translate(163.2 27.883)">
                            <mask id="jxgnwbrx4l" fill="#fff">
                                <use xlink:href="#6o076hy5bk"/>
                            </mask>
                            <path fill="#7CF5CE" d="M-25.755 50.677L50.181 50.677 50.181 -24.765 -25.755 -24.765z" mask="url(#jxgnwbrx4l)"/>
                        </g>
                        <g fill="#123456">
                            <path d="M3.304 8.385l-1.144.199c-.64.11-1.25-.319-1.36-.96L.404 5.326c-.112-.642.318-1.25.958-1.362l1.144-.196c.64-.11 1.25.318 1.362.96l.396 2.297c.11.642-.32 1.251-.96 1.36M18.292 5.745l-1.144.198c-.64.109-1.248-.32-1.359-.962l-.396-2.297c-.112-.64.318-1.248.958-1.36l1.144-.199c.64-.108 1.25.32 1.362.962l.396 2.296c.11.642-.321 1.251-.961 1.362" transform="translate(3.2 20.8) translate(28.8 77.483)"/>
                        </g>
                    </g>
                </g>
            </g>
        </g>
    </g>
</svg>
