<?xml version="1.0" encoding="UTF-8"?>
<svg width="24px" height="24px" viewBox="0 0 24 24" version="1.1" xmlns="http://www.w3.org/2000/svg" xmlns:xlink="http://www.w3.org/1999/xlink">
    <title>Assets / Icon / C / Check / Outline</title>
    <g id="Assets-/-Icon-/-C-/-Check-/-Outline" stroke="none" stroke-width="1" fill="none" fill-rule="evenodd">
        <rect id="Bound" x="0" y="0" width="24" height="24"></rect>
        <path d="M8.5790861,6.31951988 C8.96360233,5.92626464 9.56864879,5.89601424 9.98709274,6.22876867 L10.0875806,6.31951988 L19.6875806,16.1377017 C20.1041398,16.5637282 20.1041398,17.2544536 19.6875806,17.6804801 C19.3030643,18.0737354 18.6980179,18.1039858 18.2795739,17.7712313 L18.1790861,17.6804801 L9.33333333,8.63454545 L5.8209139,12.2259347 C5.43639767,12.6191899 4.83135121,12.6494403 4.41290726,12.3166859 L4.31241943,12.2259347 C3.92790321,11.8326794 3.89832504,11.2138819 4.22368492,10.7859279 L4.31241943,10.6831562 L8.5790861,6.31951988 Z" id="Path-10" fill="#123456" fill-rule="nonzero" transform="translate(12.000000, 12.000000) scale(1, -1) translate(-12.000000, -12.000000) "></path>
    </g>
</svg>