<svg xmlns="http://www.w3.org/2000/svg" xmlns:xlink="http://www.w3.org/1999/xlink" width="121" height="121" viewBox="0 0 121 121">
    <defs>
        <path id="4k13e6mrqa" d="M0.001 0.454L23.496 0.454 23.496 22.793 0.001 22.793z"/>
    </defs>
    <g fill="none" fill-rule="evenodd">
        <g>
            <g>
                <g>
                    <g>
                        <g>
                            <g>
                                <path fill="#CCF9EA" d="M79.579 106.924c0 4.46-17.287 8.076-38.611 8.076-21.326 0-38.613-3.615-38.613-8.076 0-4.46 17.287-8.076 38.613-8.076 21.323 0 38.61 3.616 38.61 8.076" transform="translate(-119 -187) translate(24 148) translate(95 39) translate(.727 .455) translate(10 1) translate(15 2.546)"/>
                                <path fill="#76E9F5" d="M55.867 15.387c-.175-.01-.35-.07-.5-.187-.388-.301-.457-.862-.154-1.25l4.225-5.421c.303-.39.864-.459 1.252-.156.389.304.458.864.156 1.252l-4.226 5.42c-.187.24-.471.358-.753.342M40.212 8.454c-.492-.027-.869-.448-.842-.94L39.737.86c.028-.492.448-.868.94-.842.492.027.868.448.842.94l-.368 6.654c-.027.492-.448.868-.939.842M25.997 12.87c-.282-.015-.555-.165-.713-.425L22.402 7.73c-.258-.42-.124-.97.296-1.226s.97-.124 1.226.296l2.881 4.714c.256.42.124.969-.296 1.226-.16.098-.338.139-.514.129M2.474 43.287l-1.791-.921c-.355-.182-.494-.616-.312-.971l.35-.68c.182-.354.616-.493.971-.312l1.792.92c.353.184.493.618.311.973l-.349.679c-.183.355-.618.495-.972.312M79.33 48.813l-1.385 1.464c-.272.29-.728.302-1.018.028l-.556-.525c-.29-.274-.302-.73-.028-1.02l1.383-1.463c.275-.29.73-.302 1.02-.028l.556.525c.29.274.301.73.027 1.02M8.235 67.903l-1.276 1.144c-.253.226-.641.205-.867-.047l-.434-.485c-.226-.253-.205-.64.048-.866l1.275-1.143c.253-.227.64-.206.866.046l.435.485c.226.253.205.64-.047.866M70.933 79.592l1.352 1.054c.267.208.315.593.106.86l-.399.514c-.209.266-.594.314-.862.106l-1.351-1.054c-.268-.208-.315-.593-.107-.86l.4-.514c.209-.266.593-.314.861-.106M55.94 103.797l-1.657 1.143c-.328.226-.778.143-1.003-.185l-.435-.63c-.225-.328-.142-.776.186-1.003l1.658-1.142c.328-.226.777-.144 1.003.184l.434.63c.226.328.143.777-.185 1.003" transform="translate(-119 -187) translate(24 148) translate(95 39) translate(.727 .455) translate(10 1) translate(15 2.546)"/>
                                <path fill="#FFF" d="M44.98 33.837c-3.9-1.281-8.118-1.323-12 .01-.195.066-.38.134-.55.2-2.037.81-6.83 2.914-6.83 2.914s-4.911-5.073-7.766-7.333c-.236-.187-.573-.171-.846-.043-.765.358-2.321 1.202-2.961 2.388-.167.309-.124.69.09.97 1.359 1.776 6.884 8.736 10.935 10.02.342.108.708.105 1.055.018l4.64-1.18c.287-.072.563.149.552.445-.056 1.522-.154 5.762.285 10.08l-.823 6.626s-7.867 7.21-10.221 13.518c-.518 1.386-.425 2.926.225 4.255l5.326 10.88c.232.47.71.769 1.236.767.47-.001 1.132-.083 1.998-.362l3.389 5.322s-4.88 9.318-1.58 10.648l1.014.35c.63.218 1.323-.055 1.635-.644l4.67-8.828c.315-.596.38-1.301.142-1.933-.31-.822-1.071-1.75-2.923-1.808l-2.6-5.74.393-.43c.367-.396.408-.995.1-1.44L28.7 76.44c-.407-.602-.39-1.397.045-1.98l8.378-11.25-.351 14.959c-.033 1.409.473 2.779 1.414 3.829.748.835 1.884 1.21 2.982.987L48 81.597c.933-.21 1.412-1.888 1.412-1.888l5.07-1.671s-2.194 5.142.674 6.597c.302.153.644.21.982.182.51-.044.983-.292 1.297-.696.668-.858 1.608-2.691 1.498-6.146 0 0 2.61-5.684-1.11-6.348 0 0-2.085-1.11-3.463 1.65l-4.891 1.133s-.298-.994-1.28-.832l-5.357 1.599 2.24-8.455c.693-2.614 1.014-5.311.955-8.014l-.087-3.91 1.036-9.782c.084-.79.695-1.42 1.482-1.527l7.765-1.063c.438-.04.845-.235 1.149-.553 1.91-1.992 8.964-9.622 10.17-14.852.084-.364-.077-.74-.39-.942l-2.611-1.694c-.342-.222-.792-.17-1.074.125-1.512 1.58-5.493 6.785-7.927 10.53-.323.496-.813.852-1.4.776l-4.5-.475c-.746-.08-1.477-.267-2.167-.565-.59-.253-1.438-.592-2.493-.94" transform="translate(-119 -187) translate(24 148) translate(95 39) translate(.727 .455) translate(10 1) translate(15 2.546)"/>
                                <path fill="#123456" d="M54.354 37.046l-.036-.003c-.097-.02-.16-.113-.14-.21.13-.65 1.447-2.267 1.598-2.45.063-.076.175-.087.25-.025.077.063.088.175.025.25-.39.478-1.427 1.819-1.523 2.295-.017.085-.091.143-.174.143" transform="translate(-119 -187) translate(24 148) translate(95 39) translate(.727 .455) translate(10 1) translate(15 2.546)"/>
                            </g>
                            <g>
                                <path fill="#FF94AE" d="M50.498 32.185s-2.174 4.765-1.916 9.33c0 0 1.054.625 1.73-.749 0 0 1.157-7.366 2.439-8.946l-2.252.365zM60.355 33.166s-3.148 6.895-2.415 9.52c0 0 1.159.149 1.36-.92 0 0 1.389-6.786 2.736-8.055l-1.681-.545zM61.461 47.184l-1.919-2.447c-.707-.903-1.668-1.575-2.763-1.916-1.172-.365-2.825-.765-4.647-.857-1.998-.1-3.727 1.373-3.95 3.362-.2 1.765-.255 4.075.286 6.38l-.155 2.846-.094.373c-.609 2.418-1.625 4.714-3.008 6.79l-5.619 9.064c-.902 1.453-1.03 3.257-.347 4.824l3.47 7.956c.527 1.207 1.98 1.724 3.135 1.088 1.005-.553 2.046-1.385 2.424-2.565l-4.785-7.076s-.742-.235.293-1.598c1.036-1.364 7.493-10.059 7.493-10.059l.9-1.137c1.018.666 2.686 3.177 2.89 5.357l-.842 9.298c-.05.56.082 1.123.38 1.601.55.883 1.576 1.351 2.604 1.187l4.221-.675c1.254-.2 2.19-1.282 2.178-2.553-.013-1.395-.26-3.03-1.264-3.589l-4.468 1.174 2.924-12 .05-6.682.613-8.146z" transform="translate(-119 -187) translate(24 148) translate(95 39) translate(.727 .455) translate(10 1) translate(0 3.546)"/>
                                <path fill="#CAF7F9" d="M69.483 77.038s-1.664 4.784 1.433 4.472c3.097-.312 2.372-4.635 2.372-4.635s1.867-4.23-.856-5.485c0 0-1.57-.91-3.072.887 0 0 2.944-.41 2.476 2.499 0 0-.326 2.263-2.353 2.262M47.628 92.5l-1.089 6.873c-.146.928.353 1.838 1.214 2.213l1.087.473 4.802-8.667s.68-2.771-2.97-3.275c0 0 .174 3.883-3.044 2.383" transform="translate(-119 -187) translate(24 148) translate(95 39) translate(.727 .455) translate(10 1) translate(0 3.546)"/>
                                <path fill="#C6F6E5" d="M.178.112h17.104c1.521 0 2.78 1.187 2.867 2.705l.53 9.095c.086 1.49-1.099 2.744-2.59 2.744h-2.618l1.52 4.747-5.274-4.747-10.174-.266S.178 13.509.178 12.177V.112" transform="translate(-119 -187) translate(24 148) translate(95 39) translate(.727 .455) translate(10 1) translate(0 3.546)"/>
                            </g>
                            <path fill="#FFF" d="M26.004 29.193L28.225 23.16 30.407 23.801" transform="translate(-119 -187) translate(24 148) translate(95 39) translate(.727 .455) translate(10 1)"/>
                            <g>
                                <path fill="#123456" d="M26.004 28.826c-.02 0-.04-.004-.062-.012-.09-.033-.139-.135-.105-.228l2.221-6.033c.031-.09.127-.138.217-.11l2.182.642c.095.027.15.126.121.22-.027.095-.128.15-.22.122l-2.024-.595-2.162 5.877c-.027.072-.096.117-.168.117" transform="translate(-119 -187) translate(24 148) translate(95 39) translate(.727 .455) translate(10 1) translate(0 .546)"/>
                                <g transform="translate(-119 -187) translate(24 148) translate(95 39) translate(.727 .455) translate(10 1) translate(0 .546)">
                                    <mask id="u6kt53sjob" fill="#fff">
                                        <use xlink:href="#4k13e6mrqa"/>
                                    </mask>
                                    <path fill="#123456" d="M2.658.81C1.388.81.357 1.844.357 3.113v12.065c0 1.268 1.032 2.3 2.3 2.3h9.06c.045 0 .087.017.12.046l5.274 4.746c.138.124.323.183.505.163.172-.02.326-.104.435-.24.108-.134.157-.303.137-.475l-.45-4.041c-.005-.051.012-.101.046-.14.033-.037.082-.058.133-.058h2.922c1.268 0 2.3-1.033 2.3-2.301V3.112c0-1.27-1.032-2.301-2.3-2.301H2.658zm14.887 21.983c-.247 0-.488-.092-.672-.26l-5.224-4.7H2.658C1.192 17.834 0 16.644 0 15.178V3.112C0 1.646 1.19.454 2.658.454h18.18c1.466 0 2.658 1.192 2.658 2.658v12.065c0 1.466-1.192 2.657-2.657 2.657h-2.723l.428 3.844c.029.266-.047.528-.215.738-.168.209-.407.34-.674.37-.037.004-.073.007-.11.007z" mask="url(#u6kt53sjob)"/>
                                </g>
                                <path fill="#123456" d="M71.223 44.425l-7.766 1.064c-.786.108-1.397.738-1.48 1.527l-.708 6.674c1.365.006 2.716-.581 3.657-1.773l.05-.064c.095-.122.248-.183.398-.147 1.192.283 6.431 1.203 8.084-4.02.05-.157.187-.27.351-.279 1.31-.065 6.864-.614 5.382-5.1-.61-1.843-1.862-2.406-3.17-2.523-1.547 1.86-2.946 3.357-3.65 4.089-.303.318-.71.513-1.148.553" transform="translate(-119 -187) translate(24 148) translate(95 39) translate(.727 .455) translate(10 1) translate(0 .546)"/>
                                <path fill="#123456" d="M71.244 44.603l-7.763 1.062c-.706.097-1.252.66-1.327 1.37l-.685 6.472c1.298-.052 2.499-.665 3.318-1.7l.049-.063c.138-.179.367-.262.58-.21 5.726 1.361 7.475-2.643 7.873-3.903.073-.23.273-.388.51-.4.887-.046 3.866-.324 5.01-1.995.52-.76.592-1.727.213-2.872-.486-1.47-1.417-2.233-2.924-2.393-1.533 1.836-2.91 3.307-3.597 4.026-.332.345-.778.56-1.257.606m-9.958 9.265h-.215l.729-6.872c.09-.872.764-1.565 1.633-1.684l7.775-1.064c.394-.037.762-.213 1.035-.499.695-.724 2.092-2.217 3.642-4.079l.059-.072.093.01c1.698.15 2.785 1.015 3.323 2.643.416 1.258.33 2.33-.257 3.186-1.236 1.807-4.357 2.102-5.285 2.15-.087.003-.161.064-.19.152-1.711 5.412-7.21 4.4-8.294 4.14-.078-.018-.162.013-.216.083l-.052.066c-.925 1.17-2.301 1.84-3.78 1.84M59.98 35.837c1.055.347 1.903.686 2.493.939.69.298 1.42.486 2.168.565l3.395.358c-1.796-1.297-3.252-3.06-3.397-4.977-.355-4.74 4.564-13.833-7.081-15.9 0 0-3.728-.527-6.511 2.375s-1.101 4.03-1.101 4.03-1.152 5.366-.195 12.115c3.372-.783 6.916-.594 10.229.495" transform="translate(-119 -187) translate(24 148) translate(95 39) translate(.727 .455) translate(10 1) translate(0 .546)"/>
                                <path fill="#123456" d="M60.036 35.667c.87.286 1.737.613 2.508.946.665.287 1.377.472 2.116.55l2.762.29c-1.213-.974-2.803-2.633-2.96-4.718-.083-1.108.116-2.443.326-3.856.722-4.837 1.538-10.32-7.261-11.882-.03-.003-3.668-.475-6.35 2.323-1.38 1.439-1.604 2.395-1.548 2.944.056.559.403.806.418.816l.097.068-.023.118c-.012.052-1.111 5.31-.22 11.859 3.319-.734 6.818-.548 10.135.542zm8.648 2.279l-4.061-.428c-.775-.082-1.523-.277-2.221-.578-.53-.228-1.391-.577-2.478-.933-3.318-1.091-6.822-1.261-10.132-.491l-.191.044-.026-.193c-.876-6.184.023-11.277.176-12.07-.15-.136-.418-.452-.476-.984-.097-.91.455-2 1.644-3.24 2.813-2.933 6.626-2.432 6.665-2.427 9.146 1.623 8.265 7.535 7.557 12.285-.208 1.393-.404 2.709-.323 3.777.169 2.25 2.155 4.003 3.322 4.847l.544.39z" transform="translate(-119 -187) translate(24 148) translate(95 39) translate(.727 .455) translate(10 1) translate(0 .546)"/>
                                <path fill="#123456" d="M44.325 89.83c.06 0 .117.03.15.083l3.39 5.323c.034.054.037.12.007.179-.035.066-3.522 6.777-2.528 9.477.168.456.448.757.857.922l1.006.347c.552.19 1.146-.045 1.418-.56l4.67-8.826c.3-.566.348-1.217.134-1.787-.28-.741-.986-1.636-2.762-1.693-.07-.002-.13-.042-.157-.105l-2.6-5.74c-.03-.064-.018-.14.03-.193l.395-.43c.31-.34.345-.84.085-1.22l-4.867-7.066c-.45-.666-.43-1.544.048-2.188l8.378-11.25c.047-.061.129-.086.2-.061.076.025.124.095.123.173l-.351 14.958c-.032 1.37.453 2.685 1.368 3.706.703.785 1.78 1.142 2.815.93l6.83-1.387c.677-.153 1.152-1.323 1.277-1.762.016-.057.06-.101.115-.12l5.072-1.671c.064-.023.138-.004.186.049.048.05.06.126.033.19-.021.05-2.096 5.005.589 6.368.265.134.57.19.887.163.466-.041.892-.27 1.17-.628.482-.617 1.109-1.76 1.36-3.686.222-1.7.467-3.09.774-4.374.239-1.002.4-2.382-.181-3.27-.305-.465-.793-.76-1.453-.878-.02-.003-.036-.01-.053-.018-.007-.004-.716-.368-1.54-.102-.668.215-1.233.779-1.681 1.674-.023.048-.067.082-.12.094l-4.89 1.133c-.09.019-.182-.033-.21-.122-.01-.035-.27-.84-1.08-.708l-5.336 1.594c-.062.018-.13.003-.175-.042-.047-.045-.066-.112-.05-.174l2.242-8.455c.689-2.6 1.008-5.28.948-7.965l-.086-3.91 1.038-9.806c.09-.872.764-1.564 1.633-1.684l7.767-1.063c.402-.037.77-.214 1.043-.5 2.074-2.162 8.934-9.618 10.125-14.761.066-.29-.06-.595-.312-.76l-2.612-1.694c-.268-.174-.624-.135-.843.093-1.508 1.574-5.456 6.733-7.911 10.51-.404.62-.978.932-1.573.855l-4.471-.472c-.79-.084-1.548-.28-2.253-.584-.528-.227-1.386-.574-2.47-.93-3.907-1.284-8.127-1.28-11.885.009-.192.066-.374.132-.541.199-2.012.798-6.777 2.889-6.825 2.91-.068.03-.148.016-.2-.04-.05-.05-4.935-5.09-7.75-7.316-.192-.154-.475-.108-.658-.021-.653.306-2.242 1.143-2.875 2.299-.135.248-.107.557.07.788 1.1 1.437 6.793 8.674 10.848 9.959.294.094.625.1.956.015l4.64-1.18c.19-.048.39-.005.545.119.153.124.236.309.229.505-.058 1.599-.15 5.779.285 10.057v.04l-.824 6.625c-.005.043-.024.08-.055.11-.08.07-7.875 7.265-10.181 13.462-.49 1.315-.408 2.809.224 4.099l5.326 10.88c.202.413.61.669 1.069.669h.005c.568-.002 1.222-.121 1.944-.354.018-.006.036-.01.055-.01m3.27 16.754c-.167 0-.337-.027-.504-.085l-1.014-.351c-.51-.205-.866-.586-1.068-1.133-.994-2.702 2.058-8.815 2.5-9.674l-3.261-5.12c-.705.217-1.351.328-1.921.33h-.006c-.595 0-1.127-.332-1.39-.868l-5.326-10.88c-.675-1.378-.76-2.975-.238-4.381 2.24-6.02 9.557-12.933 10.226-13.557l.812-6.54c-.434-4.293-.344-8.482-.284-10.086.003-.084-.032-.162-.098-.214-.065-.053-.151-.072-.232-.05l-4.64 1.178c-.395.1-.794.094-1.152-.02-4.053-1.284-9.462-8.041-11.024-10.082-.262-.343-.301-.804-.098-1.176.658-1.204 2.184-2.053 3.036-2.451.369-.173.764-.15 1.032.063 2.624 2.077 7.026 6.573 7.697 7.26.739-.322 4.88-2.134 6.723-2.865.173-.068.359-.137.558-.204 3.83-1.316 8.13-1.32 12.113-.011.879.289 1.72.606 2.499.942.672.289 1.394.477 2.148.557l4.476.472c.628.08 1.04-.401 1.23-.695 2.466-3.793 6.435-8.978 7.955-10.563.337-.351.88-.412 1.294-.145l2.613 1.695c.379.246.565.703.465 1.138C81.504 34.3 74.59 41.817 72.5 43.997c-.333.347-.78.562-1.261.606l-7.76 1.063c-.705.097-1.251.659-1.326 1.368l-1.036 9.783.087 3.887c.06 2.72-.263 5.433-.96 8.064l-2.16 8.147 5.054-1.508c.806-.136 1.263.395 1.442.794l4.658-1.078c.486-.944 1.112-1.544 1.858-1.782.883-.282 1.632.042 1.784.115.748.139 1.307.485 1.663 1.028.524.799.6 1.993.229 3.55-.302 1.272-.547 2.65-.765 4.337-.262 2.007-.923 3.207-1.432 3.859-.34.436-.858.714-1.422.764-.381.034-.755-.035-1.08-.2-2.562-1.3-1.347-5.245-.895-6.468l-4.624 1.524c-.12.37-.615 1.718-1.517 1.92l-6.833 1.39c-1.157.235-2.364-.165-3.151-1.043-.976-1.088-1.495-2.491-1.46-3.952l.337-14.398-8.043 10.799c-.388.522-.405 1.235-.041 1.774l4.867 7.066c.355.517.307 1.2-.117 1.663l-.313.342 2.506 5.532c1.89.097 2.66 1.092 2.972 1.918.25.666.196 1.424-.151 2.08l-4.671 8.828c-.272.515-.793.815-1.344.815" transform="translate(-119 -187) translate(24 148) translate(95 39) translate(.727 .455) translate(10 1) translate(0 .546)"/>
                                <path fill="#123456" d="M58.366 45.934c-.077 0-.153-.008-.23-.024l-.443-.094c-.561-.118-.937-.658-.855-1.228.882-6.137 2.518-8.749 2.588-8.856.052-.084.163-.108.246-.055.083.054.107.164.053.246-.015.027-1.665 2.666-2.534 8.716-.055.384.197.748.576.828l.443.093c.198.043.399.003.566-.11.167-.115.277-.287.31-.486.292-1.734 1.149-6.02 2.804-8.357.058-.08.169-.099.249-.042.08.056.1.168.043.25-1.613 2.274-2.457 6.498-2.744 8.21-.05.295-.214.55-.461.72-.183.124-.394.19-.611.19M49.257 44.763l-.07-.002-.35-.02c-.685-.038-1.223-.623-1.198-1.306.066-1.81.42-5.308 2.047-8.41.045-.087.153-.12.24-.075.087.044.121.153.075.24-1.594 3.041-1.94 6.479-2.005 8.258-.018.49.368.91.861.937l.348.02c.25.01.481-.07.662-.236.18-.16.286-.383.297-.621.205-4.214 2.404-8.76 2.426-8.806.044-.088.15-.124.238-.082.09.044.125.15.082.239-.022.044-2.188 4.527-2.389 8.666-.017.336-.163.644-.414.87-.236.212-.536.328-.85.328" transform="translate(-119 -187) translate(24 148) translate(95 39) translate(.727 .455) translate(10 1) translate(0 .546)"/>
                                <path fill="#123456" d="M57.033 43.686c-.02 0-.04-.003-.06-.01-.035-.012-3.482-1.204-6.554-.513-.096.022-.192-.039-.213-.135-.022-.096.039-.192.135-.213 3.172-.714 6.606.474 6.75.524.094.034.143.135.11.228-.025.073-.095.12-.168.12M61.776 49.085c-.051 0-.103-.022-.138-.065-1.716-2.081-2.363-4.293-2.39-4.387-.027-.095.028-.194.123-.221.093-.027.193.027.22.122.006.023.656 2.238 2.323 4.259.062.076.05.188-.024.25-.034.028-.074.042-.114.042M46.25 46.755c-.099 0-.178-.08-.179-.177-.012-2.18 1.578-3.541 1.646-3.597.075-.064.187-.054.252.02.062.077.053.19-.022.253-.015.013-1.53 1.314-1.519 3.322.001.098-.078.179-.177.179zM57.464 56.38c-6.202 0-10.893-1.865-10.947-1.888-.09-.037-.136-.141-.099-.232.037-.092.141-.136.233-.1.064.028 6.534 2.599 14.303 1.657.096-.011.187.057.198.156.012.097-.057.186-.155.198-1.215.148-2.399.21-3.533.21M55.854 58.991c-5.635 0-9.504-2.067-9.553-2.094-.087-.048-.118-.155-.071-.242.047-.086.154-.119.242-.071.06.033 6.237 3.328 14.34 1.498.098-.023.193.039.215.135.02.095-.04.191-.135.213-1.785.403-3.48.561-5.038.561M30.122 36.395h-.01c-.097-.006-.173-.089-.168-.187.005-.086.154-2.13 4.04-3.539.091-.033.195.015.228.108.034.093-.015.195-.107.228-3.64 1.318-3.803 3.204-3.804 3.223-.006.095-.085.167-.178.167M82.07 30.698c-.042 0-.084-.015-.118-.044-2.216-1.942-4.608-2.493-4.632-2.498-.096-.021-.156-.117-.135-.214.02-.096.114-.155.213-.135.1.023 2.5.574 4.789 2.579.074.065.08.177.017.251-.035.04-.085.061-.134.061M52.123 65.388c-.069 0-.133-.039-.163-.105-.91-2.027-2.793-2.01-2.806-2.007h-.004c-.096 0-.175-.077-.178-.175-.002-.098.076-.18.173-.182.03 0 2.133-.025 3.14 2.218.04.09 0 .195-.09.235-.023.011-.048.016-.072.016M44.325 90.187c-.07 0-.137-.042-.165-.11-.037-.092.007-.196.098-.234.03-.01 3.009-1.242 3.655-2.545.044-.089.15-.124.239-.08.088.043.124.15.08.24-.704 1.422-3.712 2.664-3.84 2.716-.022.01-.045.013-.067.013M64.412 81.888c-.016 0-.03-.003-.047-.008-.096-.024-.15-.123-.125-.218.806-2.974.069-5.172.062-5.195-.034-.093.016-.194.11-.225.092-.035.194.015.226.11.032.093.782 2.316-.053 5.403-.022.08-.094.133-.173.133M69.482 80.217c-.085 0-.161-.062-.175-.15-.016-.097.05-.19.147-.204.089-.015 2.169-.385 2.25-2.532.02-.583-.138-1.04-.473-1.354-.674-.632-1.842-.523-1.853-.522-.091.008-.186-.061-.196-.16-.01-.098.062-.184.16-.194.054-.005 1.342-.126 2.133.616.414.389.61.937.585 1.628-.093 2.442-2.524 2.865-2.55 2.869-.008.002-.018.003-.028.003M57.15 80.548c-.021 0-.042-.004-.063-.012-.092-.035-.138-.138-.103-.23.288-.758.667-3.133.67-3.156.017-.098.11-.165.205-.15.098.017.164.108.148.205-.015.099-.388 2.436-.69 3.228-.027.07-.095.115-.167.115" transform="translate(-119 -187) translate(24 148) translate(95 39) translate(.727 .455) translate(10 1) translate(0 .546)"/>
                                <path fill="#FFF" d="M31.91 31.484s.605-6.3-.888-8.172c-.148-.186-.43-.208-.614-.057-.3.245-.647.765-.45 1.82l.068 2.127s-1.91 1.606-.176 3.404" transform="translate(-119 -187) translate(24 148) translate(95 39) translate(.727 .455) translate(10 1) translate(0 .546)"/>
                                <path fill="#123456" d="M31.91 31.662l-.016-.001c-.098-.01-.17-.097-.161-.194.006-.063.58-6.25-.85-8.043-.04-.05-.098-.081-.165-.088-.074-.008-.143.013-.198.057-.275.225-.565.694-.386 1.649l.07 2.154c.002.055-.022.107-.064.143-.007.006-.791.679-.836 1.596-.027.535.2 1.055.675 1.547.069.07.067.184-.005.252-.07.069-.183.067-.251-.004-.547-.567-.808-1.178-.776-1.815.048-.914.687-1.59.898-1.79l-.065-2.044c-.208-1.101.164-1.678.515-1.964.128-.104.296-.153.46-.136.163.017.307.095.407.22 1.52 1.906.95 8.04.927 8.3-.01.092-.087.16-.178.16" transform="translate(-119 -187) translate(24 148) translate(95 39) translate(.727 .455) translate(10 1) translate(0 .546)"/>
                                <path fill="#FFF" d="M28.963 33.875s-2.242-3.123-2.959-5.228" transform="translate(-119 -187) translate(24 148) translate(95 39) translate(.727 .455) translate(10 1) translate(0 .546)"/>
                                <path fill="#123456" d="M28.963 34.053c-.056 0-.11-.025-.146-.073-.09-.13-2.265-3.17-2.982-5.275-.03-.093.02-.194.111-.226.094-.032.195.017.227.11.7 2.056 2.912 5.151 2.935 5.183.057.08.04.19-.04.248-.033.022-.069.033-.105.033" transform="translate(-119 -187) translate(24 148) translate(95 39) translate(.727 .455) translate(10 1) translate(0 .546)"/>
                                <path fill="#FFF" d="M26.826 28.89l-3.758-1.404c-.62-.232-.932-.92-.701-1.539l3.509-9.387c.23-.619.92-.933 1.538-.7l3.759 1.403c.618.231.93.92.7 1.538l-3.508 9.388c-.231.618-.92.932-1.54.701" transform="translate(-119 -187) translate(24 148) translate(95 39) translate(.727 .455) translate(10 1) translate(0 .546)"/>
                                <path fill="#123456" d="M26.995 15.96c-.144 0-.287.032-.422.094-.247.112-.435.314-.53.569l-3.51 9.387c-.195.525.072 1.112.598 1.309l3.758 1.405c.254.094.53.085.778-.028.247-.112.435-.314.53-.57l3.51-9.387c.196-.524-.072-1.112-.597-1.308l-3.76-1.405c-.115-.044-.235-.065-.355-.065m.25 13.185c-.162 0-.324-.03-.48-.088l-3.76-1.405c-.71-.265-1.071-1.058-.806-1.768l3.51-9.387c.128-.344.383-.617.717-.77.334-.152.707-.165 1.05-.037l3.759 1.406c.709.265 1.07 1.058.806 1.767l-3.51 9.388c-.128.344-.383.617-.716.769-.182.083-.376.125-.57.125" transform="translate(-119 -187) translate(24 148) translate(95 39) translate(.727 .455) translate(10 1) translate(0 .546)"/>
                                <path fill="#76E9F5" d="M27.068 27.172l-3.056-1.142c-.503-.188-.757-.748-.57-1.251l2.854-7.632c.187-.503.748-.76 1.25-.571l3.056 1.142c.503.188.758.748.57 1.25l-2.853 7.635c-.188.502-.748.757-1.251.569" transform="translate(-119 -187) translate(24 148) translate(95 39) translate(.727 .455) translate(10 1) translate(0 .546)"/>
                                <path fill="#123456" d="M25.193 26.742c-.151 0-.296.055-.41.157-.12.11-.192.26-.2.423-.008.163.048.32.157.44.109.123.26.195.423.203.162.01.319-.047.44-.157.122-.11.194-.26.202-.422.017-.337-.243-.626-.58-.643l-.032-.001m.002 1.58l-.051-.001c-.26-.014-.496-.126-.67-.318-.173-.193-.26-.441-.247-.7.013-.257.126-.495.318-.668.192-.174.44-.262.699-.248.533.027.945.483.917 1.016-.013.259-.126.496-.32.67-.177.162-.406.249-.646.249M49.106 42.805c-.229 0-.42.18-.434.411-.013.24.171.445.41.457.233.007.444-.17.457-.41.013-.239-.17-.444-.41-.457h-.023zm0 1.226h-.044c-.435-.026-.77-.399-.746-.834.024-.436.39-.774.833-.747.435.024.77.397.746.833-.023.421-.372.748-.789.748zM58.244 43.826c-.23 0-.421.18-.433.41-.006.116.033.228.11.314.078.087.184.137.3.144.238.01.445-.171.458-.41.005-.116-.034-.228-.111-.313-.077-.087-.183-.138-.3-.145h-.024zm.002 1.226l-.044-.002c-.212-.011-.405-.105-.546-.262-.141-.157-.213-.36-.201-.571.012-.211.104-.405.262-.546.157-.141.362-.213.57-.2.212.01.406.104.547.26.14.158.212.362.2.573-.011.21-.103.404-.261.545-.146.13-.332.203-.527.203zM49.143 96.002c-.767 0-1.492-.496-1.531-.523-.08-.057-.101-.167-.044-.25.055-.08.167-.1.248-.044.011.007 1.082.74 1.843.342.549-.288.831-1.098.835-2.411 0-.098.08-.177.178-.177.099 0 .179.08.178.178-.004 1.456-.351 2.374-1.027 2.727-.219.114-.451.158-.68.158" transform="translate(-119 -187) translate(24 148) translate(95 39) translate(.727 .455) translate(10 1) translate(0 .546)"/>
                                <path fill="#FFF" d="M58.649 32.314s-.646 1.854-.657 3.314c-.013 1.497-1.222 2.738-2.717 2.811-.55.027-1.121-.077-1.67-.403-1.06-.63-1.44-1.992-.93-3.114.33-.728.679-1.735.778-2.892 0 0 3.61 1.5 5.196.284" transform="translate(-119 -187) translate(24 148) translate(95 39) translate(.727 .455) translate(10 1) translate(0 .546)"/>
                                <path fill="#123456" d="M53.607 32.282c-.104.907-.362 1.819-.77 2.715-.475 1.048-.098 2.315.86 2.886.47.279.997.407 1.569.378 1.417-.069 2.535-1.226 2.547-2.634.008-1.05.33-2.277.524-2.922-1.517.681-3.975-.14-4.73-.423m1.504 6.34c-.577 0-1.113-.146-1.597-.433-1.13-.673-1.56-2.109-1.001-3.341.419-.921.683-1.901.762-2.834.005-.056.036-.107.085-.136.05-.031.109-.034.16-.013.037.015 3.534 1.446 5.02.308.063-.048.15-.049.213-.003.065.046.09.129.065.203-.007.018-.637 1.843-.65 3.257-.011 1.596-1.28 2.909-2.884 2.988-.058.003-.115.004-.173.004" transform="translate(-119 -187) translate(24 148) translate(95 39) translate(.727 .455) translate(10 1) translate(0 .546)"/>
                                <path fill="#FFF" d="M51.544 21.736s-.939 2.61-1.027 5.562c-.146 4.866 3.97 7.748 8.772 5.624 1.267-.56 1.833-3.048 1.833-3.048l.972-6.7-10.55-1.438z" transform="translate(-119 -187) translate(24 148) translate(95 39) translate(.727 .455) translate(10 1) translate(0 .546)"/>
                                <path fill="#123456" d="M51.666 21.932c-.189.572-.896 2.86-.97 5.371-.069 2.262.812 4.177 2.413 5.254 1.655 1.113 3.88 1.187 6.11.201 1.17-.517 1.723-2.9 1.73-2.925l.943-6.508-10.226-1.393zm4.487 11.873c-1.189 0-2.3-.318-3.243-.952-1.706-1.147-2.642-3.174-2.572-5.56.09-2.947 1.03-5.59 1.038-5.618.03-.079.107-.127.192-.116l10.55 1.436c.047.006.09.032.118.07.03.038.041.086.034.133l-.972 6.701c-.027.12-.604 2.596-1.937 3.185-1.087.482-2.176.721-3.208.721z" transform="translate(-119 -187) translate(24 148) translate(95 39) translate(.727 .455) translate(10 1) translate(0 .546)"/>
                                <path fill="#123456" d="M53.238 26.212c-.061 0-.12-.03-.153-.086-.187-.31-.41-.493-.667-.55-.396-.084-.75.159-.753.16-.081.058-.193.038-.248-.043-.057-.081-.037-.191.043-.248.019-.013.482-.332 1.028-.217.358.076.662.316.902.713.05.085.024.195-.06.246-.03.017-.061.025-.092.025M58.385 27.427c-.064 0-.127-.034-.158-.096-.195-.373-.452-.611-.768-.709-.52-.16-1.046.117-1.052.12-.085.046-.194.014-.24-.073-.048-.085-.016-.194.071-.24.026-.015.655-.351 1.323-.147.411.125.741.422.982.886.045.087.011.195-.076.24-.026.014-.055.02-.082.02M54.474 28.618c-.05 0-.101-.021-.136-.062-.511-.607-.143-1.401.123-1.736.062-.076.173-.09.25-.028.077.06.091.173.03.25-.024.03-.58.75-.13 1.283.063.075.053.188-.022.25-.033.029-.074.043-.115.043M54.318 30.32c.078.416.352 1.348 1.238 1.348h.014c.89-.01 1.338-.905 1.5-1.33l-2.752-.018zm1.237 1.704c-1.155 0-1.565-1.22-1.621-1.868-.004-.05.013-.1.047-.137.034-.037.09-.048.132-.057l3.206.02c.055 0 .106.026.14.07.034.043.045.1.03.153-.018.073-.482 1.803-1.915 1.82h-.02zM59.088 25.784c-.024 0-.049-.002-.073-.007l-2.246-.471c-.194-.04-.317-.23-.277-.421.04-.194.231-.317.422-.277l2.246.47c.194.04.317.23.277.423-.036.168-.184.283-.349.283M53.54 24.588c-.024 0-.05-.003-.073-.008l-1.881-.393c-.194-.04-.317-.23-.276-.423.04-.193.228-.315.421-.276l1.88.394c.195.04.318.229.278.422-.037.168-.184.284-.35.284M60.976 24.674s-1.266 6.422-.134 9.346l1.653-1.53.364-9.253-1.883 1.437z" transform="translate(-119 -187) translate(24 148) translate(95 39) translate(.727 .455) translate(10 1) translate(0 .546)"/>
                                <path fill="#123456" d="M61.138 24.774c-.124.664-1.107 6.15-.218 8.93l1.4-1.295.345-8.8-1.527 1.165zm-.367 9.555l-.095-.245c-1.138-2.939.072-9.18.125-9.445l.013-.066 2.238-1.708-.383 9.706-1.898 1.758z" transform="translate(-119 -187) translate(24 148) translate(95 39) translate(.727 .455) translate(10 1) translate(0 .546)"/>
                                <path fill="#123456" d="M50.809 21.966s1.16 1.782 3.462 1.134c0 0 1.223 2.162 3.648 1.149 0 0 2.011 2.81 4.709.78l2.435-2.24-9.929-4.391-2.464.354-1.861 3.214z" transform="translate(-119 -187) translate(24 148) translate(95 39) translate(.727 .455) translate(10 1) translate(0 .546)"/>
                                <path fill="#123456" d="M57.98 24.03l.084.114c.009.013.885 1.212 2.206 1.414.75.116 1.507-.11 2.25-.672l2.223-2.044-9.634-4.26-2.327.334-1.761 3.04c.262.338 1.32 1.503 3.2.971l.136-.038.069.122c.047.082 1.177 2.011 3.425 1.073l.13-.055zm2.67 1.914c-.146 0-.291-.01-.437-.033-1.235-.19-2.086-1.12-2.352-1.447-2.121.807-3.361-.713-3.67-1.16-2.317.578-3.52-1.222-3.531-1.24l-.061-.094 1.96-3.382 2.6-.374 10.226 4.522-2.635 2.425c-.695.522-1.397.783-2.1.783z" transform="translate(-119 -187) translate(24 148) translate(95 39) translate(.727 .455) translate(10 1) translate(0 .546)"/>
                                <path fill="#064F8C" d="M63.02 23.585c-.461 0-.951-.182-1.462-.542-.446.133-2.368.583-3.592-1.143-.956.234-2.677.274-3.235-1.054-.498.018-2.055.005-2.184-.848-.015-.098.052-.188.15-.203.097-.015.188.053.203.149.08.539 1.462.57 1.939.538.08-.003.155.045.18.122.544 1.585 2.95.926 2.976.919.074-.02.154.009.197.075 1.216 1.846 3.248 1.112 3.334 1.08.056-.022.12-.012.169.023.588.434 1.129.602 1.612.497.63-.136.95-.693.953-.7.048-.086.157-.116.243-.067.086.048.117.156.069.243-.017.028-.404.703-1.19.873-.118.025-.238.038-.361.038" transform="translate(-119 -187) translate(24 148) translate(95 39) translate(.727 .455) translate(10 1) translate(0 .546)"/>
                                <path fill="#76E8F4" d="M64.476 26.582l-2.635-.515c-.261-.051-.432-.306-.382-.567l.011-.054c.051-.26.306-.432.567-.382l2.635.515c.26.052.432.307.381.566l-.011.055c-.05.26-.305.433-.566.382" transform="translate(-119 -187) translate(24 148) translate(95 39) translate(.727 .455) translate(10 1) translate(0 .546)"/>
                                <path fill="#123456" d="M61.944 25.234c-.143 0-.271.101-.3.246l-.01.054c-.031.165.077.325.242.357l2.634.515c.08.016.16 0 .229-.046.067-.046.113-.114.129-.194l.01-.054c.016-.08 0-.16-.046-.229-.046-.068-.115-.113-.194-.128l-2.635-.516c-.02-.004-.04-.005-.06-.005m2.627 1.535c-.043 0-.085-.005-.128-.013l-2.635-.514c-.358-.07-.592-.418-.522-.777l.01-.053c.07-.359.42-.592.776-.523l2.636.515c.173.034.322.134.42.28.099.148.135.323.1.495l-.01.055c-.033.173-.132.322-.28.422-.11.074-.237.113-.367.113" transform="translate(-119 -187) translate(24 148) translate(95 39) translate(.727 .455) translate(10 1) translate(0 .546)"/>
                                <path fill="#76E8F4" d="M64.127 28.38l-2.636-.514c-.26-.05-.43-.305-.38-.566l.01-.055c.051-.26.306-.431.567-.381l2.634.515c.261.05.433.306.382.566l-.01.055c-.052.26-.307.433-.567.38" transform="translate(-119 -187) translate(24 148) translate(95 39) translate(.727 .455) translate(10 1) translate(0 .546)"/>
                                <path fill="#123456" d="M64.162 28.206c.08.016.16-.001.227-.047.068-.045.115-.114.129-.193l.01-.054c.032-.166-.075-.326-.24-.358l-2.634-.515c-.165-.032-.326.076-.358.24l-.01.055c-.032.165.075.325.24.357l2.636.515zm.058.362c-.041 0-.085-.004-.126-.011l-2.636-.515c-.358-.07-.593-.418-.523-.776l.01-.054c.07-.36.417-.592.777-.523l2.634.515c.359.07.593.418.523.775l-.01.054c-.061.317-.34.535-.648.535zM9.948 13.64c-.29.457-.896.594-1.355.304-.458-.29-.597-.898-.307-1.356L9.82 10.16H6.929c-.533-.012-.962-.447-.962-.983s.429-.972.962-.982h2.89L8.276 5.75c-.275-.457-.137-1.052.317-1.34.453-.286 1.049-.156 1.345.29l2.5 3.952.005.01c.009.013.019.027.026.042l.012.025.012.022.017.034c.003.012.007.022.012.032.002.01.006.018.01.027l.01.03.01.033.009.03c0 .01.004.018.005.027l.008.034c0 .012.004.023.005.033 0 .01.003.02.004.028 0 .011.003.023.004.036v.03c.003.01.003.021.003.033V9.217l-.003.037c-.001.012-.001.025-.003.037l-.002.02-.007.034-.008.043-.005.017c-.001.01-.004.02-.008.03-.002.016-.006.031-.011.046-.003.006-.006.011-.007.016-.003.01-.005.017-.01.025l-.016.047c-.004.007-.008.013-.011.021l-.01.02-.021.043-.016.026-.003.005-2.5 3.955z" transform="translate(-119 -187) translate(24 148) translate(95 39) translate(.727 .455) translate(10 1) translate(0 .546)"/>
                                <path fill="#123456" d="M16.25 10.16h-2.893l1.546 2.445c.275.457.136 1.052-.316 1.339-.453.286-1.05.155-1.347-.29v.002l-1.265-2.001 1.246-1.97h-.002c.002-.001.003-.004.004-.006l.015-.026.022-.044.01-.02.008-.02c.008-.016.013-.031.018-.046l.011-.026.005-.016.013-.046.008-.03.004-.016.01-.043c0-.012.003-.023.004-.035l.002-.02.004-.037.002-.036v-.026l.002-.015-.002-.02v-.032c0-.01-.002-.02-.004-.03 0-.013 0-.024-.002-.036 0-.01-.002-.018-.003-.027-.003-.011-.004-.022-.005-.034l-.008-.034c0-.01-.004-.017-.007-.026-.002-.01-.005-.021-.009-.031l-.009-.034-.01-.03-.01-.026-.012-.03-.016-.036-.012-.021-.013-.026-.025-.043-.004-.007L11.974 6.7l1.256-1.985c.29-.46.897-.595 1.356-.305.458.29.596.896.307 1.355l-1.536 2.428h2.892c.533.013.963.447.963.983s-.43.972-.963.983M41.65 40.44c-.061 0-.122-.033-.155-.092-.244-.44-1.017-1.257-1.025-1.264-.067-.072-.064-.185.007-.252.07-.069.185-.066.252.005.033.036.81.858 1.078 1.338.048.086.017.195-.07.243-.027.015-.057.022-.086.022" transform="translate(-119 -187) translate(24 148) translate(95 39) translate(.727 .455) translate(10 1) translate(0 .546)"/>
                                <path fill="#FFF" d="M79.62 26.18s-.08-2.352.29-4.497c.19-1.092.261-1.72.285-2.075.02-.287.29-.504.569-.429.353.097.726.43.639 1.432-.16 1.821-.047 2.132-.047 2.132l3.688-3.892c.346-.317.89-.266 1.168.113.67.913 2.261 2.491.133 4.948-3.096 3.574-4.475 3.695-4.475 3.695" transform="translate(-119 -187) translate(24 148) translate(95 39) translate(.727 .455) translate(10 1) translate(0 .546)"/>
                                <path fill="#123456" d="M81.869 27.786c-.091 0-.17-.07-.177-.163-.01-.1.065-.185.162-.193.01-.001 1.38-.198 4.357-3.634 1.85-2.138.765-3.544.048-4.475l-.192-.251c-.102-.141-.255-.228-.428-.245-.173-.018-.346.04-.474.158l-3.678 3.884c-.043.045-.105.064-.166.052-.06-.013-.11-.056-.132-.113-.02-.06-.12-.44.036-2.21.063-.716-.108-1.135-.508-1.245-.1-.027-.18.015-.217.04-.072.054-.12.139-.126.229-.032.473-.132 1.196-.286 2.094-.365 2.1-.29 4.436-.29 4.46.004.097-.073.18-.171.183h-.006c-.096 0-.175-.075-.18-.172 0-.023-.076-2.393.295-4.532.194-1.118.26-1.736.28-2.056.015-.2.116-.38.278-.495.15-.108.34-.142.517-.094.406.11.869.482.77 1.619-.078.893-.09 1.414-.083 1.71l3.417-3.608c.212-.195.482-.285.759-.26.27.028.52.17.68.39l.187.244c.74.96 1.98 2.568-.061 4.926-3.106 3.588-4.535 3.75-4.594 3.756h-.017" transform="translate(-119 -187) translate(24 148) translate(95 39) translate(.727 .455) translate(10 1) translate(0 .546)"/>
                                <path fill="#123456" d="M81.326 26.205c-.028 0-.057-.007-.083-.021-.087-.045-.121-.154-.075-.241.884-1.683.35-2.6.329-2.637-.051-.084-.025-.194.058-.245.083-.051.193-.026.245.057.028.044.67 1.112-.316 2.99-.032.062-.094.097-.158.097" transform="translate(-119 -187) translate(24 148) translate(95 39) translate(.727 .455) translate(10 1) translate(0 .546)"/>
                            </g>
                        </g>
                    </g>
                </g>
            </g>
        </g>
    </g>
</svg>
